G04*
G04 #@! TF.GenerationSoftware,Altium Limited,Altium Designer,20.0.2 (26)*
G04*
G04 Layer_Color=255*
%FSLAX25Y25*%
%MOIN*%
G70*
G01*
G75*
%ADD18R,0.05787X0.04567*%
%ADD19R,0.03347X0.03150*%
%ADD20R,0.02362X0.06693*%
%ADD21R,0.03937X0.11024*%
%ADD22R,0.03150X0.03347*%
%ADD23R,0.09843X0.14173*%
%ADD24O,0.01102X0.03150*%
%ADD25O,0.03150X0.01102*%
%ADD26R,0.09055X0.09055*%
%ADD27R,0.15748X0.15000*%
%ADD28R,0.02402X0.05512*%
%ADD29R,0.11024X0.03937*%
%ADD30R,0.06693X0.02362*%
%ADD31R,0.13780X0.19685*%
%ADD32R,0.14173X0.09843*%
%ADD55C,0.07874*%
%ADD56C,0.13780*%
%ADD57C,0.19685*%
%ADD58O,0.08500X0.05500*%
%ADD59C,0.06299*%
%ADD60C,0.15748*%
D18*
X508000Y354504D02*
D03*
Y347496D02*
D03*
X496000Y354504D02*
D03*
Y347496D02*
D03*
X484000Y354504D02*
D03*
Y347496D02*
D03*
X535039Y303110D02*
D03*
Y296102D02*
D03*
X543307Y213819D02*
D03*
Y220827D02*
D03*
X533071Y213819D02*
D03*
Y220827D02*
D03*
D19*
X496000Y336129D02*
D03*
Y329871D02*
D03*
X483669Y335948D02*
D03*
Y329690D02*
D03*
X408268Y266908D02*
D03*
Y260651D02*
D03*
Y278367D02*
D03*
Y284625D02*
D03*
X545669Y295690D02*
D03*
Y301948D02*
D03*
X557087Y300415D02*
D03*
Y306672D02*
D03*
X408268Y224824D02*
D03*
Y231082D02*
D03*
X447244Y243328D02*
D03*
Y249585D02*
D03*
X408268Y248798D02*
D03*
Y242541D02*
D03*
X429134Y278367D02*
D03*
Y284625D02*
D03*
X448032D02*
D03*
Y278367D02*
D03*
X557087Y323079D02*
D03*
Y316821D02*
D03*
X455118Y243457D02*
D03*
Y249714D02*
D03*
X433465Y241189D02*
D03*
Y234932D02*
D03*
X438583Y284496D02*
D03*
Y278239D02*
D03*
D20*
X417224Y137598D02*
D03*
X422146D02*
D03*
X443827Y137803D02*
D03*
X448748D02*
D03*
X421949Y433268D02*
D03*
X426870D02*
D03*
X576279Y432874D02*
D03*
X581201D02*
D03*
X609350D02*
D03*
X614272D02*
D03*
D21*
X409941Y124409D02*
D03*
X429429D02*
D03*
X436543Y124614D02*
D03*
X456032D02*
D03*
X414665Y446457D02*
D03*
X434154D02*
D03*
X568996Y446063D02*
D03*
X588484D02*
D03*
X602067D02*
D03*
X621555D02*
D03*
D22*
X417344Y231496D02*
D03*
X423601D02*
D03*
X459034Y271654D02*
D03*
X452777D02*
D03*
X435284Y292520D02*
D03*
X429026D02*
D03*
X458512Y264173D02*
D03*
X452254D02*
D03*
D23*
X516634Y196850D02*
D03*
X541634D02*
D03*
D24*
X435433Y264370D02*
D03*
X433465D02*
D03*
X431496D02*
D03*
X429528D02*
D03*
X427559D02*
D03*
Y249016D02*
D03*
X429528D02*
D03*
X431496D02*
D03*
X433465D02*
D03*
X435433D02*
D03*
D25*
X423819Y260630D02*
D03*
Y258661D02*
D03*
Y256693D02*
D03*
Y254724D02*
D03*
Y252756D02*
D03*
X439173D02*
D03*
Y254724D02*
D03*
Y256693D02*
D03*
Y258661D02*
D03*
Y260630D02*
D03*
D26*
X431496Y256693D02*
D03*
D27*
X474803Y280772D02*
D03*
Y242976D02*
D03*
D28*
X467303Y289039D02*
D03*
X472303D02*
D03*
X477303D02*
D03*
X482303D02*
D03*
X482303Y266866D02*
D03*
X477303D02*
D03*
X472303D02*
D03*
X467303D02*
D03*
X467303Y251244D02*
D03*
X472303D02*
D03*
X477303D02*
D03*
X482303D02*
D03*
X482303Y229071D02*
D03*
X477303D02*
D03*
X472303D02*
D03*
X467303D02*
D03*
D29*
X622047Y238090D02*
D03*
Y218602D02*
D03*
Y210531D02*
D03*
Y191043D02*
D03*
D30*
X608858Y230807D02*
D03*
Y225886D02*
D03*
Y203248D02*
D03*
Y198327D02*
D03*
D31*
X495011Y258767D02*
D03*
X540287Y258768D02*
D03*
D32*
X573622Y300098D02*
D03*
Y325098D02*
D03*
D55*
X498032Y438583D02*
D03*
X454724D02*
D03*
X555905D02*
D03*
X512598D02*
D03*
X464567Y132283D02*
D03*
X507874D02*
D03*
X580709Y132283D02*
D03*
X624016D02*
D03*
X523228D02*
D03*
X566535D02*
D03*
D56*
X486220Y399213D02*
D03*
X466535D02*
D03*
X544095D02*
D03*
X524409D02*
D03*
X476378Y171653D02*
D03*
X496063D02*
D03*
X592520Y171653D02*
D03*
X612205D02*
D03*
X535039D02*
D03*
X554724D02*
D03*
D57*
X570866Y354331D02*
D03*
X460630D02*
D03*
D58*
X570866Y228740D02*
D03*
Y248425D02*
D03*
D59*
X571345Y205526D02*
D03*
Y191746D02*
D03*
D60*
X618504Y406693D02*
D03*
X598819D02*
D03*
X618504Y371260D02*
D03*
X598819D02*
D03*
X618504Y335827D02*
D03*
X598819D02*
D03*
X618504Y300394D02*
D03*
X598819D02*
D03*
X618504Y264961D02*
D03*
X598819D02*
D03*
M02*
