G04*
G04 #@! TF.GenerationSoftware,Altium Limited,Altium Designer,20.0.2 (26)*
G04*
G04 Layer_Color=32768*
%FSLAX25Y25*%
%MOIN*%
G70*
G01*
G75*
%ADD10C,0.01000*%
%ADD11C,0.00600*%
%ADD12C,0.00394*%
%ADD13C,0.00100*%
%ADD14C,0.00800*%
G36*
X572132Y213203D02*
Y206904D01*
X570558D01*
Y212416D01*
Y213990D01*
X572132D01*
Y213203D01*
D02*
G37*
G36*
Y189581D02*
Y187613D01*
X574888D01*
Y186038D01*
X572132D01*
Y183282D01*
X570558D01*
Y186038D01*
X567802D01*
X567802Y187613D01*
X570558D01*
Y188794D01*
Y190368D01*
X572132D01*
Y189581D01*
D02*
G37*
D10*
X624016Y118110D02*
G03*
X629921Y124016I0J5906D01*
G01*
Y446850D02*
G03*
X624016Y452756I-5906J0D01*
G01*
X407480Y452756D02*
G03*
X401575Y446850I0J-5906D01*
G01*
Y124016D02*
G03*
X407480Y118110I5906J0D01*
G01*
X401575Y124016D02*
Y446850D01*
X407480Y118110D02*
X624016D01*
X407480Y452756D02*
X624016D01*
X629921Y124016D02*
Y446850D01*
X655087Y124110D02*
X657087Y118110D01*
X659087Y124110D01*
X657087Y452756D02*
X659087Y446756D01*
X655087D02*
X657087Y452756D01*
Y118110D02*
Y262739D01*
Y304927D02*
Y452756D01*
X625516Y118110D02*
X658087D01*
X625516Y452756D02*
X658087D01*
X401575Y99606D02*
X407575Y101606D01*
X401575Y99606D02*
X407575Y97606D01*
X623921D02*
X629921Y99606D01*
X623921Y101606D02*
X629921Y99606D01*
X401575D02*
X493054D01*
X535242D02*
X629921D01*
X401575Y98606D02*
Y122516D01*
X629921Y98606D02*
Y122516D01*
D11*
X655687Y264339D02*
X654688Y265339D01*
Y267338D01*
X655687Y268338D01*
X656687D01*
X657687Y267338D01*
X658686Y268338D01*
X659686D01*
X660686Y267338D01*
Y265339D01*
X659686Y264339D01*
X658686D01*
X657687Y265339D01*
X656687Y264339D01*
X655687D01*
X657687Y265339D02*
Y267338D01*
X654688Y274336D02*
Y270337D01*
X657687D01*
X656687Y272337D01*
Y273337D01*
X657687Y274336D01*
X659686D01*
X660686Y273337D01*
Y271337D01*
X659686Y270337D01*
X660686Y276336D02*
X659686D01*
Y277335D01*
X660686D01*
Y276336D01*
X655687Y281334D02*
X654688Y282334D01*
Y284333D01*
X655687Y285333D01*
X659686D01*
X660686Y284333D01*
Y282334D01*
X659686Y281334D01*
X655687D01*
Y287332D02*
X654688Y288332D01*
Y290331D01*
X655687Y291331D01*
X659686D01*
X660686Y290331D01*
Y288332D01*
X659686Y287332D01*
X655687D01*
X660686Y293330D02*
X656687D01*
Y294330D01*
X657687Y295329D01*
X660686D01*
X657687D01*
X656687Y296329D01*
X657687Y297329D01*
X660686D01*
Y299328D02*
X656687D01*
Y300328D01*
X657687Y301327D01*
X660686D01*
X657687D01*
X656687Y302327D01*
X657687Y303327D01*
X660686D01*
X498653Y102005D02*
X494654D01*
Y99006D01*
X496654Y100006D01*
X497653D01*
X498653Y99006D01*
Y97007D01*
X497653Y96007D01*
X495654D01*
X494654Y97007D01*
X500652Y101006D02*
X501652Y102005D01*
X503651D01*
X504651Y101006D01*
Y100006D01*
X503651Y99006D01*
X504651Y98007D01*
Y97007D01*
X503651Y96007D01*
X501652D01*
X500652Y97007D01*
Y98007D01*
X501652Y99006D01*
X500652Y100006D01*
Y101006D01*
X501652Y99006D02*
X503651D01*
X506650Y96007D02*
Y97007D01*
X507650D01*
Y96007D01*
X506650D01*
X511649Y101006D02*
X512648Y102005D01*
X514648D01*
X515648Y101006D01*
Y97007D01*
X514648Y96007D01*
X512648D01*
X511649Y97007D01*
Y101006D01*
X517647D02*
X518647Y102005D01*
X520646D01*
X521646Y101006D01*
Y97007D01*
X520646Y96007D01*
X518647D01*
X517647Y97007D01*
Y101006D01*
X523645Y96007D02*
Y100006D01*
X524645D01*
X525644Y99006D01*
Y96007D01*
Y99006D01*
X526644Y100006D01*
X527644Y99006D01*
Y96007D01*
X529643D02*
Y100006D01*
X530643D01*
X531642Y99006D01*
Y96007D01*
Y99006D01*
X532642Y100006D01*
X533642Y99006D01*
Y96007D01*
D12*
X438583Y262598D02*
G03*
X438583Y262598I-1181J0D01*
G01*
X506425Y350213D02*
X509575D01*
X508000Y351787D02*
X509575Y350213D01*
X506425D02*
X508000Y351787D01*
X506425D02*
X509575D01*
X508000Y349425D02*
Y352575D01*
X510362Y351000D02*
X511543Y349819D01*
X510756Y351787D02*
X511937Y350606D01*
X494425Y350213D02*
X497575D01*
X496000Y351787D02*
X497575Y350213D01*
X494425D02*
X496000Y351787D01*
X494425D02*
X497575D01*
X496000Y349425D02*
Y352575D01*
X498362Y351000D02*
X499543Y349819D01*
X498756Y351787D02*
X499937Y350606D01*
X482425Y350213D02*
X485575D01*
X484000Y351787D02*
X485575Y350213D01*
X482425D02*
X484000Y351787D01*
X482425D02*
X485575D01*
X484000Y349425D02*
Y352575D01*
X486362Y351000D02*
X487543Y349819D01*
X486756Y351787D02*
X487937Y350606D01*
X423622Y264567D02*
X439370D01*
X423622Y248819D02*
X439370D01*
Y264567D01*
X423622Y248819D02*
Y264567D01*
X484646Y266142D02*
Y289764D01*
X464961Y266142D02*
Y289764D01*
X484646D01*
X464961Y266142D02*
X484646D01*
Y228346D02*
Y251969D01*
X464961Y228346D02*
Y251969D01*
X484646D01*
X464961Y228346D02*
X484646D01*
D13*
X496445Y332999D02*
G03*
X496445Y332999I-500J0D01*
G01*
X484114Y332818D02*
G03*
X484114Y332818I-500J0D01*
G01*
X408823Y263781D02*
G03*
X408823Y263781I-500J0D01*
G01*
X408713Y281495D02*
G03*
X408713Y281495I-500J0D01*
G01*
X420971Y231551D02*
G03*
X420971Y231551I-500J0D01*
G01*
X546114Y298818D02*
G03*
X546114Y298818I-500J0D01*
G01*
X557531Y303542D02*
G03*
X557531Y303542I-500J0D01*
G01*
X408713Y227952D02*
G03*
X408713Y227952I-500J0D01*
G01*
X447689Y246456D02*
G03*
X447689Y246456I-500J0D01*
G01*
X456407Y271598D02*
G03*
X456407Y271598I-500J0D01*
G01*
X408823Y245671D02*
G03*
X408823Y245671I-500J0D01*
G01*
X429579Y281495D02*
G03*
X429579Y281495I-500J0D01*
G01*
X448587Y281497D02*
G03*
X448587Y281497I-500J0D01*
G01*
X495157Y332999D02*
X496732D01*
X495945Y332211D02*
Y333786D01*
X482827Y332818D02*
X484402D01*
X483614Y332030D02*
Y333605D01*
X408323Y262993D02*
Y264568D01*
X407535Y263781D02*
X409110D01*
X408213Y280707D02*
Y282282D01*
X407425Y281495D02*
X409000D01*
X419684Y231551D02*
X421259D01*
X420471Y230764D02*
Y232339D01*
X545614Y298030D02*
Y299605D01*
X544827Y298818D02*
X546402D01*
X557031Y302755D02*
Y304329D01*
X556244Y303542D02*
X557819D01*
X408213Y227164D02*
Y228739D01*
X407425Y227952D02*
X409000D01*
X447189Y245668D02*
Y247243D01*
X446402Y246456D02*
X447976D01*
X455119Y271598D02*
X456694D01*
X455907Y270811D02*
Y272386D01*
X408323Y244883D02*
Y246458D01*
X407535Y245671D02*
X409110D01*
X429079Y280707D02*
Y282282D01*
X428291Y281495D02*
X429866D01*
X448087Y280710D02*
Y282285D01*
X447299Y281497D02*
X448874D01*
X496445Y332999D02*
G03*
X496445Y332999I-500J0D01*
G01*
X484114Y332818D02*
G03*
X484114Y332818I-500J0D01*
G01*
X408823Y263781D02*
G03*
X408823Y263781I-500J0D01*
G01*
X408713Y281495D02*
G03*
X408713Y281495I-500J0D01*
G01*
X420971Y231551D02*
G03*
X420971Y231551I-500J0D01*
G01*
X546114Y298818D02*
G03*
X546114Y298818I-500J0D01*
G01*
X557531Y303542D02*
G03*
X557531Y303542I-500J0D01*
G01*
X408713Y227952D02*
G03*
X408713Y227952I-500J0D01*
G01*
X447689Y246456D02*
G03*
X447689Y246456I-500J0D01*
G01*
X456407Y271598D02*
G03*
X456407Y271598I-500J0D01*
G01*
X408823Y245671D02*
G03*
X408823Y245671I-500J0D01*
G01*
X429579Y281495D02*
G03*
X429579Y281495I-500J0D01*
G01*
X448587Y281497D02*
G03*
X448587Y281497I-500J0D01*
G01*
X495157Y332999D02*
X496732D01*
X495945Y332211D02*
Y333786D01*
X482827Y332818D02*
X484402D01*
X483614Y332030D02*
Y333605D01*
X408323Y262993D02*
Y264568D01*
X407535Y263781D02*
X409110D01*
X408213Y280707D02*
Y282282D01*
X407425Y281495D02*
X409000D01*
X419684Y231551D02*
X421259D01*
X420471Y230764D02*
Y232339D01*
X545614Y298030D02*
Y299605D01*
X544827Y298818D02*
X546402D01*
X557031Y302755D02*
Y304329D01*
X556244Y303542D02*
X557819D01*
X408213Y227164D02*
Y228739D01*
X407425Y227952D02*
X409000D01*
X447189Y245668D02*
Y247243D01*
X446402Y246456D02*
X447976D01*
X455119Y271598D02*
X456694D01*
X455907Y270811D02*
Y272386D01*
X408323Y244883D02*
Y246458D01*
X407535Y245671D02*
X409110D01*
X429079Y280707D02*
Y282282D01*
X428291Y281495D02*
X429866D01*
X448087Y280710D02*
Y282285D01*
X447299Y281497D02*
X448874D01*
D14*
X508000Y339189D02*
Y343126D01*
X506032Y341158D02*
X509969D01*
X506032Y360842D02*
X509969D01*
X496000Y339189D02*
Y343126D01*
X494031Y341158D02*
X497968D01*
X494031Y360842D02*
X497968D01*
X484000Y339189D02*
Y343126D01*
X482031Y341158D02*
X485968D01*
X482031Y360842D02*
X485968D01*
X508000Y339189D02*
Y343126D01*
X506032Y341158D02*
X509969D01*
X506032Y360842D02*
X509969D01*
X496000Y339189D02*
Y343126D01*
X494031Y341158D02*
X497968D01*
X494031Y360842D02*
X497968D01*
X484000Y339189D02*
Y343126D01*
X482031Y341158D02*
X485968D01*
X482031Y360842D02*
X485968D01*
M02*
