G04*
G04 #@! TF.GenerationSoftware,Altium Limited,Altium Designer,20.0.2 (26)*
G04*
G04 Layer_Physical_Order=1*
G04 Layer_Color=255*
%FSLAX25Y25*%
%MOIN*%
G70*
G01*
G75*
%ADD11C,0.01000*%
%ADD18R,0.02362X0.06693*%
%ADD19R,0.03937X0.11024*%
%ADD20R,0.05787X0.04567*%
%ADD21R,0.03347X0.03150*%
%ADD22R,0.03150X0.03347*%
%ADD23R,0.09843X0.14173*%
%ADD24O,0.01102X0.03150*%
%ADD25O,0.03150X0.01102*%
%ADD26R,0.09055X0.09055*%
%ADD27R,0.15748X0.15000*%
%ADD28R,0.02402X0.05512*%
%ADD29R,0.11024X0.03937*%
%ADD30R,0.06693X0.02362*%
%ADD31R,0.13780X0.19685*%
%ADD32R,0.14173X0.09843*%
%ADD54C,0.07000*%
%ADD55C,0.19685*%
%ADD56O,0.08500X0.05500*%
%ADD57C,0.06299*%
%ADD58C,0.13780*%
%ADD59C,0.07874*%
%ADD60C,0.15748*%
%ADD61C,0.02400*%
G36*
X610255Y429530D02*
X610170Y429500D01*
X610095Y429450D01*
X610030Y429380D01*
X609975Y429290D01*
X609930Y429180D01*
X609895Y429050D01*
X609870Y428900D01*
X609855Y428730D01*
X609850Y428540D01*
X608850D01*
X608845Y428730D01*
X608830Y428900D01*
X608805Y429050D01*
X608770Y429180D01*
X608725Y429290D01*
X608670Y429380D01*
X608605Y429450D01*
X608530Y429500D01*
X608445Y429530D01*
X608350Y429540D01*
X610350D01*
X610255Y429530D01*
D02*
G37*
G36*
X557992Y315260D02*
X557907Y315230D01*
X557832Y315179D01*
X557767Y315109D01*
X557712Y315018D01*
X557667Y314906D01*
X557632Y314775D01*
X557607Y314623D01*
X557592Y314451D01*
X557587Y314259D01*
X556587D01*
X556582Y314451D01*
X556567Y314623D01*
X556542Y314775D01*
X556507Y314906D01*
X556462Y315018D01*
X556407Y315109D01*
X556342Y315179D01*
X556267Y315230D01*
X556182Y315260D01*
X556087Y315270D01*
X558087D01*
X557992Y315260D01*
D02*
G37*
G36*
X546574Y314305D02*
X546489Y314275D01*
X546414Y314224D01*
X546349Y314153D01*
X546294Y314062D01*
X546249Y313951D01*
X546214Y313820D01*
X546189Y313668D01*
X546174Y313496D01*
X546169Y313303D01*
X545169D01*
X545164Y313496D01*
X545149Y313668D01*
X545124Y313820D01*
X545089Y313951D01*
X545044Y314062D01*
X544989Y314153D01*
X544924Y314224D01*
X544849Y314275D01*
X544764Y314305D01*
X544669Y314315D01*
X546669D01*
X546574Y314305D01*
D02*
G37*
G36*
X557592Y309043D02*
X557607Y308871D01*
X557632Y308719D01*
X557667Y308587D01*
X557712Y308476D01*
X557767Y308385D01*
X557832Y308314D01*
X557907Y308263D01*
X557992Y308233D01*
X558087Y308223D01*
X556087D01*
X556182Y308233D01*
X556267Y308263D01*
X556342Y308314D01*
X556407Y308385D01*
X556462Y308476D01*
X556507Y308587D01*
X556542Y308719D01*
X556567Y308871D01*
X556582Y309043D01*
X556587Y309235D01*
X557587D01*
X557592Y309043D01*
D02*
G37*
G36*
X553302Y307452D02*
X553376Y307393D01*
X553457Y307342D01*
X553543Y307296D01*
X553635Y307259D01*
X553732Y307227D01*
X553836Y307203D01*
X553946Y307186D01*
X554061Y307175D01*
X554182Y307172D01*
X554163Y306172D01*
X554042Y306169D01*
X553927Y306159D01*
X553817Y306142D01*
X553712Y306119D01*
X553614Y306088D01*
X553520Y306052D01*
X553433Y306008D01*
X553351Y305958D01*
X553275Y305902D01*
X553204Y305838D01*
X553234Y307518D01*
X553302Y307452D01*
D02*
G37*
G36*
X555425Y305672D02*
X555415Y305767D01*
X555385Y305852D01*
X555335Y305927D01*
X555265Y305992D01*
X555175Y306047D01*
X555065Y306092D01*
X554935Y306127D01*
X554785Y306152D01*
X554615Y306167D01*
X554425Y306172D01*
Y307172D01*
X554615Y307177D01*
X554785Y307192D01*
X554935Y307217D01*
X555065Y307252D01*
X555175Y307297D01*
X555265Y307352D01*
X555335Y307417D01*
X555385Y307492D01*
X555415Y307577D01*
X555425Y307672D01*
Y305672D01*
D02*
G37*
G36*
X546174Y304318D02*
X546189Y304146D01*
X546214Y303994D01*
X546249Y303863D01*
X546294Y303751D01*
X546349Y303660D01*
X546414Y303590D01*
X546489Y303539D01*
X546574Y303508D01*
X546669Y303498D01*
X544669D01*
X544764Y303508D01*
X544849Y303539D01*
X544924Y303590D01*
X544989Y303660D01*
X545044Y303751D01*
X545089Y303863D01*
X545124Y303994D01*
X545149Y304146D01*
X545164Y304318D01*
X545169Y304510D01*
X546169D01*
X546174Y304318D01*
D02*
G37*
G36*
X625459Y452514D02*
X626606Y452039D01*
X627638Y451350D01*
X628515Y450472D01*
X629204Y449440D01*
X629679Y448294D01*
X629921Y447077D01*
Y446457D01*
Y290551D01*
X628870D01*
Y412598D01*
X628882D01*
X628766Y413778D01*
X628422Y414913D01*
X627863Y415958D01*
X627111Y416875D01*
X626194Y417626D01*
X625149Y418185D01*
X624014Y418530D01*
X622835Y418646D01*
Y418634D01*
X614961D01*
X614937Y418629D01*
X613744Y418786D01*
X612610Y419256D01*
X611637Y420003D01*
X610890Y420977D01*
X610420Y422110D01*
X610263Y423303D01*
X610268Y423327D01*
Y428494D01*
X610283Y428528D01*
X610288Y428705D01*
X610300Y428845D01*
X610319Y428958D01*
X610341Y429041D01*
X610363Y429093D01*
X610371Y429106D01*
X610396Y429109D01*
X610430Y429128D01*
X610931D01*
Y436621D01*
X607769D01*
Y429128D01*
X608271D01*
X608305Y429109D01*
X608330Y429106D01*
X608338Y429093D01*
X608359Y429041D01*
X608382Y428958D01*
X608401Y428845D01*
X608413Y428705D01*
X608418Y428528D01*
X608433Y428494D01*
Y423327D01*
X608419D01*
X608545Y422051D01*
X608917Y420823D01*
X609521Y419692D01*
X610335Y418701D01*
X611326Y417887D01*
X612457Y417283D01*
X613684Y416911D01*
X614961Y416785D01*
Y416799D01*
X622835D01*
X622846Y416801D01*
X623923Y416659D01*
X624937Y416239D01*
X625807Y415571D01*
X626475Y414701D01*
X626896Y413687D01*
X627037Y412609D01*
X627035Y412598D01*
Y290551D01*
X588189D01*
Y314961D01*
X559160D01*
Y318796D01*
X555013D01*
Y314961D01*
X550787D01*
Y306977D01*
X550731Y306693D01*
X550787Y306409D01*
Y300000D01*
X547743D01*
Y303922D01*
X546727D01*
X546715Y303929D01*
X546691Y303931D01*
X546683Y303946D01*
X546661Y304000D01*
X546638Y304085D01*
X546619Y304200D01*
X546607Y304343D01*
X546602Y304522D01*
X546587Y304556D01*
Y313258D01*
X546602Y313292D01*
X546607Y313471D01*
X546619Y313614D01*
X546638Y313728D01*
X546661Y313814D01*
X546683Y313868D01*
X546691Y313882D01*
X546715Y313885D01*
X546727Y313891D01*
X548963D01*
Y319258D01*
X542376D01*
Y313891D01*
X544612D01*
X544623Y313885D01*
X544647Y313882D01*
X544656Y313868D01*
X544678Y313814D01*
X544700Y313728D01*
X544719Y313614D01*
X544732Y313471D01*
X544736Y313292D01*
X544752Y313258D01*
Y304556D01*
X544736Y304522D01*
X544732Y304343D01*
X544719Y304200D01*
X544700Y304085D01*
X544678Y304000D01*
X544656Y303946D01*
X544647Y303931D01*
X544623Y303929D01*
X544612Y303922D01*
X543596D01*
Y300000D01*
X485827D01*
Y304331D01*
X443307D01*
Y279921D01*
X445958D01*
Y276393D01*
X446974D01*
X446986Y276386D01*
X447010Y276383D01*
X447018Y276369D01*
X447040Y276315D01*
X447063Y276230D01*
X447082Y276115D01*
X447094Y275972D01*
X447099Y275793D01*
X447114Y275759D01*
Y275197D01*
X447094D01*
X447045Y274953D01*
X446907Y274746D01*
X446700Y274608D01*
X446457Y274560D01*
Y274540D01*
X435433D01*
Y274564D01*
X434170Y274398D01*
X432994Y273910D01*
X431983Y273135D01*
X431208Y272124D01*
X430945Y271490D01*
X430445Y271589D01*
Y275759D01*
X430460Y275793D01*
X430465Y275972D01*
X430477Y276115D01*
X430496Y276230D01*
X430519Y276315D01*
X430541Y276369D01*
X430550Y276383D01*
X430573Y276386D01*
X430585Y276393D01*
X431207D01*
Y277181D01*
X431214Y277193D01*
X431216Y277217D01*
X431230Y277225D01*
X431285Y277247D01*
X431370Y277270D01*
X431485Y277289D01*
X431627Y277301D01*
X431806Y277306D01*
X431840Y277321D01*
X435876D01*
X435910Y277306D01*
X436087Y277301D01*
X436227Y277289D01*
X436339Y277270D01*
X436423Y277248D01*
X436475Y277226D01*
X436488Y277218D01*
X436491Y277193D01*
X436510Y277159D01*
Y276264D01*
X440656D01*
Y280213D01*
X436510D01*
Y279318D01*
X436491Y279284D01*
X436488Y279259D01*
X436475Y279251D01*
X436423Y279230D01*
X436339Y279207D01*
X436227Y279188D01*
X436087Y279176D01*
X435910Y279171D01*
X435876Y279156D01*
X431840D01*
X431806Y279171D01*
X431627Y279176D01*
X431485Y279188D01*
X431370Y279207D01*
X431285Y279230D01*
X431230Y279252D01*
X431216Y279261D01*
X431214Y279285D01*
X431207Y279296D01*
Y280342D01*
X427061D01*
Y276393D01*
X428470D01*
X428482Y276386D01*
X428506Y276383D01*
X428514Y276369D01*
X428536Y276315D01*
X428559Y276230D01*
X428578Y276115D01*
X428590Y275972D01*
X428595Y275793D01*
X428610Y275759D01*
Y271592D01*
X428110Y271492D01*
X428096Y271525D01*
X427636Y272125D01*
X427037Y272584D01*
X426339Y272873D01*
X425591Y272972D01*
Y272965D01*
X411024D01*
Y272979D01*
X410250Y272877D01*
X409894Y273185D01*
X409834Y273297D01*
X409899Y273622D01*
X409775Y274246D01*
X409428Y274766D01*
X409425Y274774D01*
X409374Y274828D01*
X409341Y274871D01*
X409311Y274919D01*
X409284Y274971D01*
X409261Y275030D01*
X409240Y275095D01*
X409224Y275168D01*
X409211Y275249D01*
X409203Y275337D01*
X409200Y275445D01*
X409185Y275479D01*
Y275759D01*
X409200Y275793D01*
X409205Y275972D01*
X409218Y276115D01*
X409236Y276230D01*
X409259Y276315D01*
X409281Y276369D01*
X409290Y276383D01*
X409314Y276386D01*
X409326Y276393D01*
X410341D01*
Y280342D01*
X406194D01*
Y276393D01*
X407210D01*
X407222Y276386D01*
X407246Y276383D01*
X407254Y276369D01*
X407276Y276315D01*
X407299Y276230D01*
X407318Y276115D01*
X407330Y275972D01*
X407335Y275793D01*
X407350Y275759D01*
Y275479D01*
X407335Y275445D01*
X407332Y275337D01*
X407324Y275249D01*
X407312Y275168D01*
X407295Y275095D01*
X407275Y275030D01*
X407251Y274971D01*
X407224Y274919D01*
X407194Y274871D01*
X407161Y274828D01*
X407111Y274774D01*
X407107Y274766D01*
X406761Y274246D01*
X406636Y273622D01*
X406761Y272998D01*
X407114Y272468D01*
X407643Y272115D01*
X407911Y272062D01*
X408118Y271511D01*
X407830Y271135D01*
X407462Y270246D01*
X407338Y269308D01*
X407335Y269300D01*
X407332Y269152D01*
X407324Y269034D01*
X407312Y268938D01*
X407300Y268883D01*
X406194D01*
Y264933D01*
X410341D01*
Y268883D01*
X409330D01*
X409198Y269367D01*
X409323Y269996D01*
X409722Y270593D01*
X410319Y270992D01*
X411016Y271131D01*
X411024Y271130D01*
X425591D01*
Y271117D01*
X425988Y271038D01*
X426325Y270813D01*
X426550Y270476D01*
X426629Y270079D01*
X426641D01*
Y266655D01*
X426626Y266618D01*
X426621Y265659D01*
X426620Y265634D01*
X426625Y265621D01*
X426618Y265604D01*
X426627Y265583D01*
X426589Y265394D01*
Y263347D01*
X426663Y262975D01*
X426873Y262661D01*
X427188Y262451D01*
X427559Y262377D01*
X427930Y262451D01*
X428242Y262659D01*
X428245Y262661D01*
X428842Y262661D01*
X428845Y262659D01*
X429156Y262451D01*
X429528Y262377D01*
X429899Y262451D01*
X430210Y262659D01*
X430213Y262661D01*
X430810Y262661D01*
X430813Y262659D01*
X431125Y262451D01*
X431496Y262377D01*
X431867Y262451D01*
X432182Y262661D01*
X432779D01*
X433093Y262451D01*
X433465Y262377D01*
X433836Y262451D01*
X434147Y262659D01*
X434150Y262661D01*
X434747Y262661D01*
X434750Y262659D01*
X435062Y262451D01*
X435433Y262377D01*
X435804Y262451D01*
X436119Y262661D01*
X436329Y262975D01*
X436397Y263316D01*
X436401Y263324D01*
X436404Y263348D01*
X436418Y263357D01*
X436472Y263379D01*
X436558Y263401D01*
X436673Y263420D01*
X436815Y263433D01*
X436994Y263437D01*
X437028Y263452D01*
X445530D01*
X445579Y262952D01*
X445439Y262925D01*
X444909Y262571D01*
X444556Y262042D01*
X444470Y261609D01*
X444462Y261596D01*
X444422Y261585D01*
X444360Y261574D01*
X444278Y261566D01*
X444166Y261563D01*
X444132Y261547D01*
X444079D01*
X444069Y261549D01*
X444067Y261547D01*
X441458D01*
X441421Y261563D01*
X440462Y261568D01*
X440438Y261569D01*
X440424Y261564D01*
X440407Y261571D01*
X440386Y261562D01*
X440197Y261600D01*
X438150D01*
X437779Y261526D01*
X437464Y261316D01*
X437254Y261001D01*
X437180Y260630D01*
X437254Y260259D01*
X437462Y259947D01*
X437464Y259944D01*
X437464Y259347D01*
X437462Y259344D01*
X437254Y259033D01*
X437180Y258661D01*
X437254Y258290D01*
X437464Y257976D01*
Y257379D01*
X437254Y257064D01*
X437180Y256693D01*
X437254Y256322D01*
X437462Y256010D01*
X437464Y256007D01*
X437464Y255410D01*
X437462Y255407D01*
X437254Y255096D01*
X437180Y254724D01*
X437254Y254353D01*
X437464Y254039D01*
X437779Y253828D01*
X438150Y253755D01*
X440197D01*
X440386Y253792D01*
X440407Y253784D01*
X440409Y253784D01*
X440411Y253784D01*
X441422Y253791D01*
X441459Y253807D01*
X446063D01*
Y253793D01*
X446240Y253720D01*
X446313Y253543D01*
X446326D01*
Y252194D01*
X446311Y252159D01*
X446307Y251980D01*
X446294Y251838D01*
X446275Y251723D01*
X446253Y251638D01*
X446231Y251584D01*
X446222Y251569D01*
X446198Y251567D01*
X446186Y251560D01*
X445171D01*
Y247611D01*
X449317D01*
Y251560D01*
X448302D01*
X448290Y251567D01*
X448266Y251569D01*
X448257Y251584D01*
X448236Y251638D01*
X448213Y251723D01*
X448194Y251838D01*
X448182Y251980D01*
X448177Y252159D01*
X448162Y252194D01*
Y253543D01*
X448185D01*
X448023Y254355D01*
X447563Y255044D01*
X447217Y255275D01*
X447368Y255775D01*
X452362D01*
X452370Y255777D01*
X453067Y255638D01*
X453664Y255239D01*
X454063Y254642D01*
X454202Y253945D01*
X454201Y253937D01*
Y252322D01*
X454185Y252288D01*
X454181Y252109D01*
X454168Y251967D01*
X454149Y251852D01*
X454127Y251766D01*
X454105Y251712D01*
X454096Y251698D01*
X454072Y251695D01*
X454060Y251689D01*
X453045D01*
Y247739D01*
X457191D01*
Y248527D01*
X457210Y248561D01*
X457212Y248586D01*
X457226Y248594D01*
X457278Y248615D01*
X457361Y248638D01*
X457474Y248657D01*
X457614Y248669D01*
X457791Y248674D01*
X457825Y248689D01*
X458379D01*
X458413Y248674D01*
X458522Y248671D01*
X458610Y248663D01*
X458690Y248650D01*
X458763Y248634D01*
X458828Y248613D01*
X458887Y248590D01*
X458939Y248563D01*
X458987Y248533D01*
X459030Y248500D01*
X459085Y248449D01*
X459093Y248446D01*
X459612Y248099D01*
X460236Y247975D01*
Y232283D01*
X480226D01*
X480702Y232227D01*
X480702Y231783D01*
Y225915D01*
X481224D01*
X481258Y225896D01*
X481283Y225894D01*
X481291Y225881D01*
X481312Y225828D01*
X481335Y225745D01*
X481353Y225632D01*
X481366Y225492D01*
X481370Y225316D01*
X481386Y225282D01*
Y222461D01*
X481379D01*
X481276Y221676D01*
X480973Y220944D01*
X480491Y220316D01*
X479863Y219834D01*
X479131Y219531D01*
X478346Y219428D01*
Y219422D01*
X451181D01*
Y219428D01*
X450401Y219531D01*
X449675Y219832D01*
X449051Y220311D01*
X448572Y220935D01*
X448271Y221661D01*
X448168Y222441D01*
X448162D01*
Y240720D01*
X448177Y240754D01*
X448182Y240933D01*
X448194Y241075D01*
X448213Y241190D01*
X448236Y241276D01*
X448257Y241330D01*
X448266Y241344D01*
X448290Y241347D01*
X448302Y241353D01*
X449317D01*
Y245303D01*
X445171D01*
Y241353D01*
X446186D01*
X446198Y241347D01*
X446222Y241344D01*
X446231Y241330D01*
X446253Y241276D01*
X446275Y241190D01*
X446294Y241075D01*
X446307Y240933D01*
X446311Y240754D01*
X446326Y240720D01*
Y222441D01*
X446302D01*
X446469Y221178D01*
X446956Y220002D01*
X447731Y218991D01*
X448742Y218216D01*
X449376Y217953D01*
X449277Y217453D01*
X416818D01*
X416784Y217468D01*
X416675Y217471D01*
X416587Y217479D01*
X416506Y217492D01*
X416434Y217508D01*
X416368Y217529D01*
X416310Y217552D01*
X416257Y217579D01*
X416210Y217609D01*
X416167Y217642D01*
X416112Y217693D01*
X416104Y217696D01*
X415585Y218043D01*
X414961Y218167D01*
X414336Y218043D01*
X413807Y217689D01*
X413453Y217160D01*
X413329Y216535D01*
X413453Y215911D01*
X413667Y215591D01*
X413411Y215091D01*
X411417D01*
X411390Y215086D01*
X410559Y215251D01*
X409831Y215737D01*
X409345Y216465D01*
X409180Y217296D01*
X409185Y217323D01*
Y222216D01*
X409200Y222250D01*
X409205Y222429D01*
X409218Y222571D01*
X409236Y222686D01*
X409259Y222772D01*
X409281Y222826D01*
X409290Y222840D01*
X409314Y222843D01*
X409326Y222849D01*
X410341D01*
Y226799D01*
X406194D01*
Y222849D01*
X407210D01*
X407222Y222843D01*
X407246Y222840D01*
X407254Y222826D01*
X407276Y222772D01*
X407299Y222686D01*
X407318Y222571D01*
X407330Y222429D01*
X407335Y222250D01*
X407350Y222216D01*
Y217323D01*
X407333D01*
X407472Y216266D01*
X407880Y215281D01*
X408529Y214435D01*
X409375Y213786D01*
X410360Y213377D01*
X411417Y213238D01*
Y213256D01*
X423228D01*
X423228Y213256D01*
X492756Y213256D01*
Y213240D01*
X494466Y213374D01*
X496135Y213775D01*
X497720Y214431D01*
X499183Y215328D01*
X500487Y216442D01*
X501602Y217747D01*
X502498Y219209D01*
X503155Y220795D01*
X503555Y222463D01*
X503690Y224173D01*
X503674D01*
Y229134D01*
X503670Y229151D01*
X503818Y230646D01*
X504258Y232099D01*
X504357Y232283D01*
X594992D01*
X595000Y232279D01*
X595049Y232247D01*
X595077Y232222D01*
X595092Y232206D01*
X595167Y232081D01*
X595251Y231784D01*
X594949Y231333D01*
X594825Y230709D01*
X594949Y230084D01*
X595303Y229555D01*
X595832Y229202D01*
X596457Y229077D01*
X597081Y229202D01*
X597600Y229549D01*
X597608Y229552D01*
X597663Y229602D01*
X597706Y229635D01*
X597753Y229665D01*
X597806Y229692D01*
X597864Y229715D01*
X597930Y229736D01*
X598002Y229753D01*
X598083Y229765D01*
X598171Y229773D01*
X598280Y229776D01*
X598314Y229791D01*
X604478D01*
X604512Y229776D01*
X604689Y229771D01*
X604829Y229759D01*
X604942Y229740D01*
X605025Y229718D01*
X605078Y229696D01*
X605091Y229688D01*
X605093Y229663D01*
X605112Y229629D01*
Y229226D01*
X612605D01*
Y232388D01*
X605112D01*
Y231788D01*
X605093Y231754D01*
X605091Y231729D01*
X605078Y231721D01*
X605025Y231700D01*
X604942Y231677D01*
X604829Y231659D01*
X604689Y231646D01*
X604512Y231642D01*
X604478Y231626D01*
X598314D01*
X598280Y231641D01*
X598171Y231645D01*
X598121Y231649D01*
X597971Y231907D01*
X597965Y231921D01*
X598093Y232161D01*
X598213Y232283D01*
X599606D01*
Y241981D01*
X599725Y242126D01*
X629921D01*
Y227042D01*
X629824Y226963D01*
X629155Y227065D01*
X629106Y227138D01*
X628577Y227491D01*
X627953Y227616D01*
X627328Y227491D01*
X626799Y227138D01*
X626748Y227062D01*
X626711Y227044D01*
X626662Y226991D01*
X626626Y226959D01*
X626585Y226930D01*
X626539Y226904D01*
X626487Y226880D01*
X626427Y226860D01*
X626359Y226843D01*
X626283Y226830D01*
X626197Y226822D01*
X626089Y226819D01*
X626076Y226813D01*
X626063Y226817D01*
X626037Y226803D01*
X613238D01*
X613204Y226819D01*
X613025Y226823D01*
X612883Y226836D01*
X612768Y226855D01*
X612682Y226877D01*
X612628Y226899D01*
X612614Y226908D01*
X612611Y226932D01*
X612605Y226944D01*
Y227467D01*
X605112D01*
Y226965D01*
X605093Y226931D01*
X605091Y226906D01*
X605078Y226898D01*
X605025Y226877D01*
X604942Y226854D01*
X604829Y226836D01*
X604689Y226823D01*
X604512Y226819D01*
X604478Y226803D01*
X599114D01*
Y226816D01*
X597877Y226694D01*
X596686Y226333D01*
X595590Y225747D01*
X594628Y224958D01*
X593839Y223997D01*
X593253Y222900D01*
X592892Y221710D01*
X592770Y220472D01*
X592783D01*
Y203445D01*
X592772D01*
X592888Y202265D01*
X593232Y201131D01*
X593791Y200085D01*
X594136Y199665D01*
X593922Y199213D01*
X553150D01*
Y217717D01*
X524409D01*
X524437Y215092D01*
X524085Y214737D01*
X515224D01*
X515190Y214752D01*
X515081Y214755D01*
X514991Y214762D01*
X514910Y214774D01*
X514835Y214791D01*
X514767Y214811D01*
X514707Y214834D01*
X514652Y214861D01*
X514602Y214891D01*
X514556Y214924D01*
X514500Y214973D01*
X514458Y214987D01*
X514010Y215287D01*
X513386Y215411D01*
X512761Y215287D01*
X512232Y214933D01*
X511879Y214404D01*
X511755Y213779D01*
X511879Y213155D01*
X512232Y212626D01*
X512761Y212272D01*
X513386Y212148D01*
X514010Y212272D01*
X514539Y212626D01*
X514558Y212653D01*
X514574Y212660D01*
X514627Y212712D01*
X514667Y212745D01*
X514712Y212775D01*
X514762Y212801D01*
X514818Y212825D01*
X514881Y212845D01*
X514952Y212862D01*
X515031Y212875D01*
X515118Y212883D01*
X515226Y212886D01*
X515228Y212887D01*
X515230Y212886D01*
X515262Y212901D01*
X524460D01*
X524803Y180315D01*
X566535D01*
X566929Y138976D01*
X596850D01*
X596850Y118504D01*
X596757Y118410D01*
X596537Y118263D01*
X596292Y118162D01*
X596032Y118110D01*
X406544D01*
X405479Y118322D01*
X404476Y118737D01*
X403573Y119341D01*
X402805Y120108D01*
X402202Y121011D01*
X401787Y122014D01*
X401575Y123079D01*
Y123622D01*
Y446063D01*
Y446722D01*
X401832Y448015D01*
X402337Y449233D01*
X403069Y450329D01*
X404001Y451262D01*
X405097Y451994D01*
X406316Y452499D01*
X407609Y452756D01*
X624242D01*
X625459Y452514D01*
D02*
G37*
G36*
X436922Y277239D02*
X436911Y277334D01*
X436881Y277419D01*
X436832Y277494D01*
X436761Y277559D01*
X436671Y277614D01*
X436561Y277659D01*
X436432Y277694D01*
X436281Y277719D01*
X436111Y277734D01*
X435921Y277739D01*
Y278739D01*
X436111Y278744D01*
X436281Y278759D01*
X436432Y278784D01*
X436561Y278819D01*
X436671Y278864D01*
X436761Y278919D01*
X436832Y278984D01*
X436881Y279059D01*
X436911Y279144D01*
X436922Y279239D01*
Y277239D01*
D02*
G37*
G36*
X430793Y279144D02*
X430824Y279059D01*
X430874Y278984D01*
X430945Y278919D01*
X431036Y278864D01*
X431147Y278819D01*
X431279Y278784D01*
X431431Y278759D01*
X431603Y278744D01*
X431795Y278739D01*
Y277739D01*
X431603Y277734D01*
X431431Y277719D01*
X431279Y277694D01*
X431147Y277659D01*
X431036Y277614D01*
X430945Y277559D01*
X430874Y277494D01*
X430824Y277419D01*
X430793Y277334D01*
X430783Y277239D01*
Y279239D01*
X430793Y279144D01*
D02*
G37*
G36*
X448937Y276806D02*
X448851Y276776D01*
X448776Y276726D01*
X448711Y276655D01*
X448657Y276564D01*
X448611Y276452D01*
X448576Y276321D01*
X448552Y276169D01*
X448536Y275997D01*
X448531Y275805D01*
X447532D01*
X447527Y275997D01*
X447511Y276169D01*
X447486Y276321D01*
X447451Y276452D01*
X447406Y276564D01*
X447352Y276655D01*
X447287Y276726D01*
X447212Y276776D01*
X447126Y276806D01*
X447031Y276817D01*
X449031D01*
X448937Y276806D01*
D02*
G37*
G36*
X430433D02*
X430347Y276776D01*
X430272Y276726D01*
X430207Y276655D01*
X430153Y276564D01*
X430107Y276452D01*
X430072Y276321D01*
X430048Y276169D01*
X430032Y275997D01*
X430027Y275805D01*
X429028D01*
X429023Y275997D01*
X429007Y276169D01*
X428982Y276321D01*
X428947Y276452D01*
X428902Y276564D01*
X428848Y276655D01*
X428783Y276726D01*
X428708Y276776D01*
X428622Y276806D01*
X428527Y276817D01*
X430527D01*
X430433Y276806D01*
D02*
G37*
G36*
X409173D02*
X409088Y276776D01*
X409013Y276726D01*
X408948Y276655D01*
X408893Y276564D01*
X408848Y276452D01*
X408813Y276321D01*
X408788Y276169D01*
X408773Y275997D01*
X408768Y275805D01*
X407768D01*
X407763Y275997D01*
X407748Y276169D01*
X407723Y276321D01*
X407688Y276452D01*
X407643Y276564D01*
X407588Y276655D01*
X407523Y276726D01*
X407448Y276776D01*
X407363Y276806D01*
X407268Y276817D01*
X409268D01*
X409173Y276806D01*
D02*
G37*
G36*
X459790Y275898D02*
X459736Y275819D01*
X459689Y275735D01*
X459648Y275646D01*
X459613Y275552D01*
X459585Y275452D01*
X459563Y275347D01*
X459547Y275237D01*
X459537Y275121D01*
X459534Y275000D01*
X458534Y274928D01*
X458531Y275050D01*
X458520Y275165D01*
X458502Y275274D01*
X458477Y275377D01*
X458444Y275474D01*
X458404Y275564D01*
X458358Y275648D01*
X458303Y275726D01*
X458242Y275797D01*
X458174Y275862D01*
X459850Y275971D01*
X459790Y275898D01*
D02*
G37*
G36*
X408771Y275312D02*
X408781Y275196D01*
X408798Y275086D01*
X408822Y274982D01*
X408853Y274884D01*
X408890Y274792D01*
X408934Y274705D01*
X408985Y274624D01*
X409043Y274549D01*
X409108Y274479D01*
X407428D01*
X407492Y274549D01*
X407550Y274624D01*
X407601Y274705D01*
X407645Y274792D01*
X407683Y274884D01*
X407713Y274982D01*
X407737Y275086D01*
X407754Y275196D01*
X407764Y275312D01*
X407768Y275433D01*
X408768D01*
X408771Y275312D01*
D02*
G37*
G36*
X459539Y274123D02*
X459554Y273951D01*
X459579Y273799D01*
X459614Y273667D01*
X459659Y273556D01*
X459714Y273465D01*
X459779Y273394D01*
X459854Y273343D01*
X459939Y273313D01*
X460034Y273303D01*
X458034D01*
X458129Y273313D01*
X458214Y273343D01*
X458289Y273394D01*
X458354Y273465D01*
X458409Y273556D01*
X458454Y273667D01*
X458489Y273799D01*
X458514Y273951D01*
X458529Y274123D01*
X458534Y274315D01*
X459534D01*
X459539Y274123D01*
D02*
G37*
G36*
X485039Y272441D02*
X464961D01*
Y281496D01*
X445276D01*
Y303150D01*
X485039D01*
Y272441D01*
D02*
G37*
G36*
X447065Y272300D02*
X447146Y272269D01*
X447231Y272242D01*
X447322Y272219D01*
X447520Y272182D01*
X447626Y272170D01*
X447854Y272155D01*
X447976Y272153D01*
X448372Y271153D01*
X448248Y271149D01*
X448134Y271137D01*
X448029Y271117D01*
X447932Y271089D01*
X447845Y271052D01*
X447766Y271007D01*
X447697Y270955D01*
X447636Y270894D01*
X447584Y270825D01*
X447542Y270747D01*
X446990Y272334D01*
X447065Y272300D01*
D02*
G37*
G36*
X451226Y270654D02*
X451216Y270748D01*
X451186Y270833D01*
X451135Y270908D01*
X451064Y270973D01*
X450973Y271028D01*
X450862Y271074D01*
X450730Y271109D01*
X450578Y271133D01*
X450406Y271148D01*
X450214Y271153D01*
Y272153D01*
X450406Y272159D01*
X450578Y272174D01*
X450730Y272199D01*
X450862Y272234D01*
X450973Y272278D01*
X451064Y272334D01*
X451135Y272398D01*
X451186Y272474D01*
X451216Y272558D01*
X451226Y272654D01*
Y270654D01*
D02*
G37*
G36*
X408771Y269133D02*
X408797Y268867D01*
X408819Y268759D01*
X408848Y268667D01*
X408883Y268592D01*
X408925Y268534D01*
X408973Y268492D01*
X409027Y268467D01*
X409088Y268459D01*
X407447D01*
X407508Y268467D01*
X407563Y268492D01*
X407611Y268534D01*
X407652Y268592D01*
X407688Y268667D01*
X407717Y268759D01*
X407739Y268867D01*
X407755Y268992D01*
X407764Y269133D01*
X407768Y269291D01*
X408768D01*
X408771Y269133D01*
D02*
G37*
G36*
X434371Y267812D02*
X434293Y267770D01*
X434224Y267718D01*
X434164Y267657D01*
X434111Y267587D01*
X434066Y267509D01*
X434029Y267421D01*
X434001Y267325D01*
X433981Y267219D01*
X433969Y267105D01*
X433965Y266982D01*
X432965Y267375D01*
X432963Y267497D01*
X432935Y267832D01*
X432919Y267933D01*
X432876Y268120D01*
X432848Y268206D01*
X432818Y268287D01*
X432783Y268362D01*
X434371Y267812D01*
D02*
G37*
G36*
X433973Y265604D02*
X432957D01*
X432958Y265616D01*
X432960Y265648D01*
X432965Y266616D01*
X433965D01*
X433973Y265604D01*
D02*
G37*
G36*
X432004D02*
X430988D01*
X430990Y265616D01*
X430991Y265648D01*
X430996Y266616D01*
X431996D01*
X432004Y265604D01*
D02*
G37*
G36*
X430035D02*
X429020D01*
X429021Y265616D01*
X429023Y265648D01*
X429028Y266616D01*
X430027D01*
X430035Y265604D01*
D02*
G37*
G36*
X428067D02*
X427051D01*
X427053Y265616D01*
X427054Y265648D01*
X427059Y266616D01*
X428059D01*
X428067Y265604D01*
D02*
G37*
G36*
X450704Y263370D02*
X450694Y263465D01*
X450663Y263550D01*
X450612Y263625D01*
X450542Y263690D01*
X450451Y263745D01*
X450339Y263790D01*
X450208Y263825D01*
X450056Y263850D01*
X449884Y263865D01*
X449692Y263870D01*
Y264870D01*
X449884Y264875D01*
X450056Y264890D01*
X450208Y264915D01*
X450339Y264950D01*
X450451Y264995D01*
X450542Y265050D01*
X450612Y265115D01*
X450663Y265190D01*
X450694Y265275D01*
X450704Y265370D01*
Y263370D01*
D02*
G37*
G36*
X435981Y265275D02*
X436011Y265190D01*
X436062Y265115D01*
X436133Y265050D01*
X436224Y264995D01*
X436335Y264950D01*
X436467Y264915D01*
X436619Y264890D01*
X436791Y264875D01*
X436983Y264870D01*
Y263870D01*
X436791Y263865D01*
X436619Y263850D01*
X436467Y263825D01*
X436335Y263790D01*
X436224Y263745D01*
X436133Y263690D01*
X436062Y263625D01*
X436011Y263550D01*
X435981Y263465D01*
X435971Y263370D01*
Y265370D01*
X435981Y265275D01*
D02*
G37*
G36*
X445829Y260240D02*
X444438Y260130D01*
X444178Y261130D01*
X444305Y261134D01*
X444418Y261144D01*
X444519Y261162D01*
X444607Y261187D01*
X444683Y261220D01*
X444745Y261259D01*
X444794Y261306D01*
X444831Y261360D01*
X444854Y261421D01*
X444865Y261489D01*
X445829Y260240D01*
D02*
G37*
G36*
X440419Y261136D02*
X440451Y261135D01*
X441419Y261130D01*
Y260130D01*
X440407Y260122D01*
Y261138D01*
X440419Y261136D01*
D02*
G37*
G36*
Y259168D02*
X440451Y259167D01*
X441419Y259161D01*
Y258161D01*
X440407Y258154D01*
Y259169D01*
X440419Y259168D01*
D02*
G37*
G36*
Y257199D02*
X440451Y257198D01*
X441419Y257193D01*
Y256193D01*
X440407Y256185D01*
Y257201D01*
X440419Y257199D01*
D02*
G37*
G36*
Y255231D02*
X440451Y255229D01*
X441419Y255224D01*
Y254224D01*
X440407Y254217D01*
Y255232D01*
X440419Y255231D01*
D02*
G37*
G36*
X455623Y252085D02*
X455638Y251913D01*
X455663Y251761D01*
X455698Y251629D01*
X455743Y251518D01*
X455798Y251427D01*
X455863Y251356D01*
X455938Y251305D01*
X456023Y251275D01*
X456118Y251265D01*
X454118D01*
X454213Y251275D01*
X454298Y251305D01*
X454373Y251356D01*
X454438Y251427D01*
X454493Y251518D01*
X454538Y251629D01*
X454573Y251761D01*
X454598Y251913D01*
X454613Y252085D01*
X454618Y252277D01*
X455618D01*
X455623Y252085D01*
D02*
G37*
G36*
X447749Y251956D02*
X447764Y251784D01*
X447789Y251632D01*
X447824Y251501D01*
X447869Y251389D01*
X447924Y251298D01*
X447989Y251227D01*
X448064Y251177D01*
X448149Y251146D01*
X448244Y251136D01*
X446244D01*
X446339Y251146D01*
X446424Y251177D01*
X446499Y251227D01*
X446564Y251298D01*
X446619Y251389D01*
X446664Y251501D01*
X446699Y251632D01*
X446724Y251784D01*
X446739Y251956D01*
X446744Y252148D01*
X447744D01*
X447749Y251956D01*
D02*
G37*
G36*
X586614Y287402D02*
X627035D01*
Y256063D01*
X627043Y256025D01*
X626872Y254289D01*
X626354Y252583D01*
X625514Y251011D01*
X624383Y249633D01*
X623871Y249213D01*
X610236D01*
Y276772D01*
X551968D01*
Y303150D01*
X561024D01*
Y312205D01*
X586614D01*
Y287402D01*
D02*
G37*
G36*
X459379Y248766D02*
X459310Y248831D01*
X459235Y248889D01*
X459153Y248940D01*
X459067Y248984D01*
X458974Y249021D01*
X458876Y249052D01*
X458772Y249076D01*
X458662Y249093D01*
X458547Y249103D01*
X458425Y249106D01*
Y250106D01*
X458547Y250110D01*
X458662Y250120D01*
X458772Y250137D01*
X458876Y250161D01*
X458974Y250191D01*
X459067Y250229D01*
X459153Y250273D01*
X459235Y250324D01*
X459310Y250382D01*
X459379Y250446D01*
Y248766D01*
D02*
G37*
G36*
X456789Y250511D02*
X456819Y250426D01*
X456869Y250351D01*
X456939Y250286D01*
X457029Y250231D01*
X457139Y250186D01*
X457269Y250151D01*
X457419Y250126D01*
X457589Y250111D01*
X457779Y250106D01*
Y249106D01*
X457589Y249101D01*
X457419Y249086D01*
X457269Y249061D01*
X457139Y249026D01*
X457029Y248981D01*
X456939Y248926D01*
X456869Y248861D01*
X456819Y248786D01*
X456789Y248701D01*
X456779Y248606D01*
Y250606D01*
X456789Y250511D01*
D02*
G37*
G36*
X550394Y275590D02*
X609055D01*
Y246981D01*
X606457D01*
Y246997D01*
X604746Y246862D01*
X603078Y246462D01*
X601493Y245805D01*
X600030Y244908D01*
X598725Y243794D01*
X597611Y242490D01*
X596715Y241027D01*
X596058Y239442D01*
X595658Y237773D01*
X595523Y236063D01*
X595539D01*
Y234252D01*
X511811D01*
Y299213D01*
X550394D01*
Y275590D01*
D02*
G37*
G36*
X448149Y241767D02*
X448064Y241737D01*
X447989Y241686D01*
X447924Y241615D01*
X447869Y241524D01*
X447824Y241413D01*
X447789Y241281D01*
X447764Y241129D01*
X447749Y240957D01*
X447744Y240765D01*
X446744D01*
X446739Y240957D01*
X446724Y241129D01*
X446699Y241281D01*
X446664Y241413D01*
X446619Y241524D01*
X446564Y241615D01*
X446499Y241686D01*
X446424Y241737D01*
X446339Y241767D01*
X446244Y241777D01*
X448244D01*
X448149Y241767D01*
D02*
G37*
G36*
X504724Y238189D02*
X488189D01*
Y234252D01*
X461417D01*
Y248494D01*
X461743Y248982D01*
X461868Y249606D01*
X461743Y250231D01*
X461417Y250719D01*
Y257480D01*
X455905D01*
Y267717D01*
X464961D01*
Y270866D01*
X504724D01*
Y238189D01*
D02*
G37*
G36*
X596960Y232398D02*
X596970Y232283D01*
X596987Y232173D01*
X597011Y232069D01*
X597042Y231971D01*
X597079Y231878D01*
X597123Y231791D01*
X597174Y231710D01*
X597232Y231635D01*
X597297Y231566D01*
X595617D01*
X595681Y231635D01*
X595739Y231710D01*
X595790Y231791D01*
X595834Y231878D01*
X595872Y231971D01*
X595902Y232069D01*
X595926Y232173D01*
X595943Y232283D01*
X595953Y232398D01*
X595957Y232520D01*
X596957D01*
X596960Y232398D01*
D02*
G37*
G36*
X597383Y231484D02*
X597459Y231426D01*
X597540Y231375D01*
X597626Y231331D01*
X597719Y231294D01*
X597817Y231263D01*
X597921Y231239D01*
X598031Y231222D01*
X598146Y231212D01*
X598268Y231209D01*
Y230209D01*
X598146Y230205D01*
X598031Y230195D01*
X597921Y230178D01*
X597817Y230154D01*
X597719Y230124D01*
X597626Y230086D01*
X597540Y230042D01*
X597459Y229991D01*
X597383Y229933D01*
X597314Y229869D01*
Y231549D01*
X597383Y231484D01*
D02*
G37*
G36*
X605524Y229709D02*
X605514Y229804D01*
X605484Y229889D01*
X605434Y229964D01*
X605364Y230029D01*
X605274Y230084D01*
X605164Y230129D01*
X605034Y230164D01*
X604884Y230189D01*
X604714Y230204D01*
X604524Y230209D01*
Y231209D01*
X604714Y231214D01*
X604884Y231229D01*
X605034Y231254D01*
X605164Y231289D01*
X605274Y231334D01*
X605364Y231389D01*
X605434Y231454D01*
X605484Y231529D01*
X605514Y231614D01*
X605524Y231709D01*
Y229709D01*
D02*
G37*
G36*
X483208Y226317D02*
X483123Y226287D01*
X483048Y226237D01*
X482983Y226167D01*
X482928Y226077D01*
X482883Y225967D01*
X482848Y225837D01*
X482823Y225687D01*
X482808Y225517D01*
X482803Y225327D01*
X481803D01*
X481798Y225517D01*
X481783Y225687D01*
X481758Y225837D01*
X481723Y225967D01*
X481678Y226077D01*
X481623Y226167D01*
X481558Y226237D01*
X481483Y226287D01*
X481398Y226317D01*
X481303Y226327D01*
X483303D01*
X483208Y226317D01*
D02*
G37*
G36*
X627168Y225077D02*
X627094Y225135D01*
X627014Y225188D01*
X626930Y225234D01*
X626840Y225275D01*
X626745Y225309D01*
X626645Y225336D01*
X626540Y225358D01*
X626429Y225374D01*
X626314Y225383D01*
X626193Y225386D01*
X626102Y226386D01*
X626224Y226390D01*
X626339Y226400D01*
X626448Y226419D01*
X626550Y226444D01*
X626646Y226477D01*
X626736Y226517D01*
X626819Y226565D01*
X626896Y226620D01*
X626966Y226682D01*
X627030Y226751D01*
X627168Y225077D01*
D02*
G37*
G36*
X612191Y226791D02*
X612221Y226706D01*
X612272Y226631D01*
X612343Y226566D01*
X612434Y226511D01*
X612545Y226466D01*
X612677Y226431D01*
X612828Y226406D01*
X613000Y226391D01*
X613193Y226386D01*
Y225386D01*
X613000Y225381D01*
X612828Y225366D01*
X612677Y225341D01*
X612545Y225306D01*
X612434Y225261D01*
X612343Y225206D01*
X612272Y225141D01*
X612221Y225066D01*
X612191Y224981D01*
X612181Y224886D01*
Y226886D01*
X612191Y226791D01*
D02*
G37*
G36*
X605524Y224886D02*
X605514Y224981D01*
X605484Y225066D01*
X605434Y225141D01*
X605364Y225206D01*
X605274Y225261D01*
X605164Y225306D01*
X605034Y225341D01*
X604884Y225366D01*
X604714Y225381D01*
X604524Y225386D01*
Y226386D01*
X604714Y226391D01*
X604884Y226406D01*
X605034Y226431D01*
X605164Y226466D01*
X605274Y226511D01*
X605364Y226566D01*
X605434Y226631D01*
X605484Y226706D01*
X605514Y226791D01*
X605524Y226886D01*
Y224886D01*
D02*
G37*
G36*
X629921Y224926D02*
Y123622D01*
Y123079D01*
X629709Y122014D01*
X629294Y121011D01*
X628691Y120108D01*
X627923Y119341D01*
X627020Y118737D01*
X626017Y118322D01*
X624952Y118110D01*
X603937D01*
X603554Y197055D01*
X603906Y197409D01*
X604478D01*
X604512Y197394D01*
X604689Y197389D01*
X604829Y197377D01*
X604942Y197358D01*
X605025Y197336D01*
X605078Y197314D01*
X605091Y197306D01*
X605093Y197281D01*
X605112Y197247D01*
Y196746D01*
X612605D01*
Y199908D01*
X605112D01*
Y199406D01*
X605093Y199372D01*
X605091Y199347D01*
X605078Y199339D01*
X605025Y199318D01*
X604942Y199295D01*
X604829Y199277D01*
X604689Y199264D01*
X604512Y199260D01*
X604478Y199244D01*
X598819D01*
X598808Y199242D01*
X597731Y199384D01*
X596717Y199804D01*
X595846Y200472D01*
X595178Y201343D01*
X594758Y202357D01*
X594616Y203434D01*
X594618Y203445D01*
Y206845D01*
X595118Y206997D01*
X595303Y206720D01*
X595431Y206635D01*
X595460Y206581D01*
X595509Y206541D01*
X595546Y206505D01*
X595585Y206460D01*
X595623Y206411D01*
X595716Y206266D01*
X595756Y206193D01*
X595848Y205995D01*
X595892Y205884D01*
X595951Y205824D01*
X596256Y205087D01*
X597142Y203933D01*
X598296Y203047D01*
X599640Y202490D01*
X601083Y202300D01*
Y202330D01*
X604478D01*
X604512Y202315D01*
X604689Y202311D01*
X604829Y202298D01*
X604942Y202279D01*
X605025Y202257D01*
X605078Y202236D01*
X605091Y202228D01*
X605093Y202203D01*
X605112Y202168D01*
Y201667D01*
X612605D01*
Y204829D01*
X605112D01*
Y204328D01*
X605093Y204293D01*
X605091Y204269D01*
X605078Y204261D01*
X605025Y204239D01*
X604942Y204217D01*
X604829Y204198D01*
X604689Y204186D01*
X604512Y204181D01*
X604478Y204166D01*
X601083D01*
Y204166D01*
X600123Y204293D01*
X599229Y204663D01*
X598461Y205252D01*
X597872Y206020D01*
X597660Y206532D01*
X597655Y206553D01*
X597651Y206605D01*
X597651Y206651D01*
X597657Y206694D01*
X597669Y206735D01*
X597685Y206776D01*
X597709Y206819D01*
X597755Y206884D01*
X597773Y206963D01*
X597964Y207250D01*
X598088Y207874D01*
X597964Y208498D01*
X597610Y209028D01*
X597081Y209381D01*
X596457Y209505D01*
X595832Y209381D01*
X595303Y209028D01*
X595118Y208751D01*
X594618Y208903D01*
Y220472D01*
X594615Y220491D01*
X594766Y221638D01*
X595215Y222723D01*
X595931Y223656D01*
X596863Y224371D01*
X597949Y224821D01*
X599096Y224972D01*
X599114Y224968D01*
X604478D01*
X604512Y224953D01*
X604689Y224948D01*
X604829Y224936D01*
X604942Y224917D01*
X605025Y224895D01*
X605078Y224873D01*
X605091Y224865D01*
X605093Y224840D01*
X605112Y224806D01*
Y224305D01*
X612605D01*
Y224828D01*
X612611Y224840D01*
X612614Y224864D01*
X612628Y224872D01*
X612682Y224894D01*
X612768Y224917D01*
X612883Y224936D01*
X613025Y224948D01*
X613204Y224953D01*
X613238Y224968D01*
X626147D01*
X626182Y224953D01*
X626291Y224950D01*
X626382Y224943D01*
X626466Y224931D01*
X626544Y224915D01*
X626614Y224896D01*
X626678Y224873D01*
X626737Y224846D01*
X626790Y224817D01*
X626839Y224785D01*
X626899Y224738D01*
X626968Y224718D01*
X627328Y224477D01*
X627953Y224353D01*
X628577Y224477D01*
X629106Y224831D01*
X629155Y224903D01*
X629824Y225005D01*
X629921Y224926D01*
D02*
G37*
G36*
X409173Y223263D02*
X409088Y223233D01*
X409013Y223182D01*
X408948Y223111D01*
X408893Y223020D01*
X408848Y222909D01*
X408813Y222777D01*
X408788Y222626D01*
X408773Y222453D01*
X408768Y222261D01*
X407768D01*
X407763Y222453D01*
X407748Y222626D01*
X407723Y222777D01*
X407688Y222909D01*
X407643Y223020D01*
X407588Y223111D01*
X407523Y223182D01*
X407448Y223233D01*
X407363Y223263D01*
X407268Y223273D01*
X409268D01*
X409173Y223263D01*
D02*
G37*
G36*
X496418Y221503D02*
X496354Y221447D01*
X496292Y221384D01*
X496234Y221313D01*
X496178Y221235D01*
X496125Y221149D01*
X496075Y221056D01*
X496028Y220955D01*
X495941Y220732D01*
X495902Y220609D01*
X494884Y220707D01*
X494917Y220819D01*
X494940Y220928D01*
X494952Y221033D01*
X494954Y221135D01*
X494946Y221234D01*
X494927Y221328D01*
X494898Y221420D01*
X494858Y221508D01*
X494807Y221593D01*
X494747Y221674D01*
X496418Y221503D01*
D02*
G37*
G36*
X415887Y217311D02*
X415962Y217253D01*
X416043Y217202D01*
X416130Y217158D01*
X416223Y217120D01*
X416321Y217090D01*
X416425Y217066D01*
X416535Y217049D01*
X416650Y217039D01*
X416772Y217035D01*
Y216035D01*
X416650Y216032D01*
X416535Y216022D01*
X416425Y216005D01*
X416321Y215981D01*
X416223Y215950D01*
X416130Y215913D01*
X416043Y215869D01*
X415962Y215818D01*
X415887Y215760D01*
X415818Y215695D01*
Y217375D01*
X415887Y217311D01*
D02*
G37*
G36*
X514286Y214585D02*
X514363Y214529D01*
X514446Y214480D01*
X514534Y214437D01*
X514627Y214401D01*
X514726Y214371D01*
X514831Y214348D01*
X514941Y214332D01*
X515057Y214322D01*
X515178Y214319D01*
X515214Y213319D01*
X515093Y213315D01*
X514977Y213305D01*
X514868Y213287D01*
X514764Y213263D01*
X514667Y213231D01*
X514575Y213193D01*
X514490Y213147D01*
X514411Y213094D01*
X514337Y213035D01*
X514270Y212968D01*
X514215Y214647D01*
X514286Y214585D01*
D02*
G37*
G36*
X597342Y207049D02*
X597294Y206962D01*
X597258Y206873D01*
X597233Y206781D01*
X597219Y206686D01*
X597217Y206589D01*
X597227Y206489D01*
X597248Y206387D01*
X597280Y206281D01*
X597324Y206173D01*
X596294Y206045D01*
X596245Y206167D01*
X596143Y206388D01*
X596089Y206487D01*
X595977Y206661D01*
X595919Y206736D01*
X595859Y206804D01*
X595798Y206863D01*
X595735Y206915D01*
X597401Y207133D01*
X597342Y207049D01*
D02*
G37*
G36*
X605524Y202248D02*
X605514Y202343D01*
X605484Y202428D01*
X605434Y202503D01*
X605364Y202568D01*
X605274Y202623D01*
X605164Y202668D01*
X605034Y202703D01*
X604884Y202728D01*
X604714Y202743D01*
X604524Y202748D01*
Y203748D01*
X604714Y203753D01*
X604884Y203768D01*
X605034Y203793D01*
X605164Y203828D01*
X605274Y203873D01*
X605364Y203928D01*
X605434Y203993D01*
X605484Y204068D01*
X605514Y204153D01*
X605524Y204248D01*
Y202248D01*
D02*
G37*
G36*
Y197327D02*
X605514Y197422D01*
X605484Y197507D01*
X605434Y197582D01*
X605364Y197647D01*
X605274Y197702D01*
X605164Y197747D01*
X605034Y197782D01*
X604884Y197807D01*
X604714Y197822D01*
X604524Y197827D01*
Y198827D01*
X604714Y198832D01*
X604884Y198847D01*
X605034Y198872D01*
X605164Y198907D01*
X605274Y198952D01*
X605364Y199007D01*
X605434Y199072D01*
X605484Y199147D01*
X605514Y199232D01*
X605524Y199327D01*
Y197327D01*
D02*
G37*
G36*
X551181Y197638D02*
X597230D01*
X597639Y197514D01*
X598819Y197398D01*
Y197409D01*
X602362D01*
Y139764D01*
X568898D01*
Y181496D01*
X527559D01*
Y216929D01*
X551181D01*
Y197638D01*
D02*
G37*
%LPC*%
G36*
X615853Y436621D02*
X612690D01*
Y429128D01*
X613487D01*
X613522Y429109D01*
X613547Y429106D01*
X613554Y429093D01*
X613576Y429041D01*
X613598Y428958D01*
X613617Y428845D01*
X613629Y428705D01*
X613634Y428528D01*
X613649Y428494D01*
Y427841D01*
X613634Y427807D01*
X613631Y427699D01*
X613623Y427611D01*
X613611Y427530D01*
X613594Y427457D01*
X613574Y427392D01*
X613550Y427334D01*
X613523Y427281D01*
X613494Y427234D01*
X613461Y427191D01*
X613410Y427136D01*
X613407Y427128D01*
X613060Y426609D01*
X612936Y425984D01*
X613060Y425360D01*
X613413Y424831D01*
X613943Y424477D01*
X614567Y424353D01*
X615191Y424477D01*
X615721Y424831D01*
X616074Y425360D01*
X616198Y425984D01*
X616074Y426609D01*
X615727Y427128D01*
X615724Y427136D01*
X615673Y427191D01*
X615640Y427234D01*
X615610Y427281D01*
X615584Y427334D01*
X615560Y427392D01*
X615540Y427457D01*
X615523Y427530D01*
X615511Y427611D01*
X615503Y427699D01*
X615500Y427807D01*
X615485Y427841D01*
Y428496D01*
X615500Y428531D01*
X615503Y428675D01*
X615632Y429128D01*
X615632D01*
Y429128D01*
X615853D01*
X615874Y429540D01*
X615866Y429559D01*
X615870Y429600D01*
X615853Y429628D01*
Y436621D01*
D02*
G37*
G36*
X582782D02*
X579620D01*
Y429128D01*
X580416D01*
X580451Y429109D01*
X580476Y429106D01*
X580483Y429093D01*
X580505Y429041D01*
X580527Y428958D01*
X580546Y428845D01*
X580559Y428705D01*
X580563Y428528D01*
X580578Y428494D01*
Y424691D01*
X580563Y424658D01*
X580560Y424549D01*
X580552Y424461D01*
X580540Y424380D01*
X580523Y424308D01*
X580503Y424242D01*
X580479Y424184D01*
X580453Y424131D01*
X580423Y424084D01*
X580390Y424041D01*
X580339Y423986D01*
X580336Y423978D01*
X579989Y423459D01*
X579865Y422835D01*
X579989Y422210D01*
X580342Y421681D01*
X580872Y421327D01*
X581496Y421203D01*
X582120Y421327D01*
X582650Y421681D01*
X583003Y422210D01*
X583127Y422835D01*
X583003Y423459D01*
X582656Y423978D01*
X582653Y423986D01*
X582603Y424041D01*
X582569Y424084D01*
X582540Y424131D01*
X582513Y424184D01*
X582489Y424242D01*
X582469Y424308D01*
X582452Y424380D01*
X582440Y424461D01*
X582432Y424549D01*
X582429Y424658D01*
X582414Y424691D01*
Y428496D01*
X582429Y428531D01*
X582432Y428675D01*
X582562Y429128D01*
X582562D01*
Y429128D01*
X582782D01*
X582803Y429540D01*
X582795Y429559D01*
X582799Y429600D01*
X582782Y429628D01*
Y436621D01*
D02*
G37*
G36*
X423530Y437014D02*
X420368D01*
Y429521D01*
X420968D01*
X421002Y429503D01*
X421027Y429500D01*
X421035Y429487D01*
X421056Y429434D01*
X421079Y429351D01*
X421097Y429239D01*
X421110Y429099D01*
X421114Y428922D01*
X421130Y428888D01*
Y426660D01*
X421114Y426626D01*
X421111Y426518D01*
X421104Y426430D01*
X421091Y426349D01*
X421074Y426276D01*
X421054Y426211D01*
X421031Y426153D01*
X421004Y426100D01*
X420974Y426053D01*
X420941Y426010D01*
X420890Y425955D01*
X420887Y425947D01*
X420540Y425427D01*
X420416Y424803D01*
X420540Y424179D01*
X420894Y423650D01*
X421423Y423296D01*
X422047Y423172D01*
X422672Y423296D01*
X423201Y423650D01*
X423554Y424179D01*
X423679Y424803D01*
X423554Y425427D01*
X423207Y425947D01*
X423204Y425955D01*
X423154Y426010D01*
X423120Y426053D01*
X423091Y426100D01*
X423064Y426153D01*
X423040Y426211D01*
X423020Y426276D01*
X423003Y426349D01*
X422991Y426430D01*
X422983Y426518D01*
X422980Y426626D01*
X422965Y426660D01*
Y428888D01*
X422980Y428922D01*
X422985Y429099D01*
X422997Y429239D01*
X423016Y429351D01*
X423038Y429434D01*
X423060Y429487D01*
X423068Y429500D01*
X423093Y429503D01*
X423127Y429521D01*
X423530D01*
Y437014D01*
D02*
G37*
G36*
X577861Y436621D02*
X574698D01*
Y429128D01*
X575298D01*
X575333Y429109D01*
X575357Y429106D01*
X575365Y429093D01*
X575387Y429041D01*
X575409Y428958D01*
X575428Y428845D01*
X575441Y428705D01*
X575445Y428528D01*
X575460Y428494D01*
Y424298D01*
X575445Y424264D01*
X575442Y424156D01*
X575434Y424067D01*
X575422Y423987D01*
X575405Y423914D01*
X575385Y423849D01*
X575361Y423790D01*
X575335Y423738D01*
X575305Y423690D01*
X575272Y423647D01*
X575221Y423593D01*
X575218Y423585D01*
X574871Y423065D01*
X574747Y422441D01*
X574871Y421817D01*
X575224Y421287D01*
X575754Y420934D01*
X576378Y420810D01*
X577002Y420934D01*
X577531Y421287D01*
X577885Y421817D01*
X578009Y422441D01*
X577885Y423065D01*
X577538Y423585D01*
X577535Y423593D01*
X577484Y423647D01*
X577451Y423690D01*
X577421Y423738D01*
X577395Y423790D01*
X577371Y423849D01*
X577351Y423914D01*
X577334Y423987D01*
X577322Y424067D01*
X577314Y424156D01*
X577311Y424264D01*
X577296Y424298D01*
Y428494D01*
X577311Y428528D01*
X577315Y428705D01*
X577328Y428845D01*
X577347Y428958D01*
X577369Y429041D01*
X577390Y429093D01*
X577398Y429106D01*
X577423Y429109D01*
X577458Y429128D01*
X577861D01*
Y436621D01*
D02*
G37*
G36*
X428451Y437014D02*
X425289D01*
Y429521D01*
X425791D01*
X425825Y429503D01*
X425850Y429500D01*
X425857Y429487D01*
X425879Y429434D01*
X425902Y429351D01*
X425920Y429239D01*
X425933Y429099D01*
X425937Y428922D01*
X425952Y428888D01*
Y419093D01*
X425960Y419054D01*
X425789Y417312D01*
X425269Y415599D01*
X424425Y414020D01*
X423289Y412636D01*
X421906Y411500D01*
X420327Y410656D01*
X418613Y410137D01*
X416871Y409965D01*
X416832Y409973D01*
X413937D01*
Y409989D01*
X412227Y409854D01*
X410558Y409454D01*
X408973Y408797D01*
X407510Y407901D01*
X406206Y406786D01*
X405091Y405482D01*
X404195Y404019D01*
X403538Y402434D01*
X403138Y400766D01*
X403003Y399055D01*
X403019D01*
Y392913D01*
X403019Y212992D01*
X403004D01*
X403135Y211658D01*
X403525Y210375D01*
X404157Y209193D01*
X405007Y208157D01*
X406043Y207306D01*
X407226Y206674D01*
X408508Y206285D01*
X409842Y206154D01*
Y206154D01*
X409857Y206166D01*
X411103Y206044D01*
X412316Y205676D01*
X413433Y205079D01*
X414413Y204275D01*
X415216Y203295D01*
X415814Y202178D01*
X416181Y200966D01*
X416305Y199705D01*
X416307D01*
Y141978D01*
X416292Y141944D01*
X416287Y141768D01*
X416275Y141628D01*
X416256Y141515D01*
X416233Y141432D01*
X416212Y141379D01*
X416204Y141366D01*
X416179Y141364D01*
X416145Y141345D01*
X415643D01*
Y133852D01*
X418806D01*
Y141345D01*
X418304D01*
X418270Y141364D01*
X418245Y141366D01*
X418237Y141379D01*
X418215Y141432D01*
X418193Y141515D01*
X418174Y141628D01*
X418162Y141768D01*
X418157Y141944D01*
X418142Y141978D01*
Y199705D01*
X418164D01*
X418005Y201328D01*
X417531Y202889D01*
X416762Y204328D01*
X415727Y205589D01*
X414466Y206624D01*
X413027Y207393D01*
X411466Y207867D01*
X409842Y208027D01*
Y208027D01*
X409355Y208058D01*
X408549Y208164D01*
X407343Y208664D01*
X406308Y209458D01*
X405514Y210493D01*
X405015Y211699D01*
X404848Y212961D01*
X404855Y212992D01*
X404855Y392913D01*
Y399055D01*
X404847Y399094D01*
X405018Y400829D01*
X405535Y402535D01*
X406376Y404107D01*
X407507Y405485D01*
X408885Y406616D01*
X410457Y407457D01*
X412163Y407974D01*
X413899Y408145D01*
X413937Y408138D01*
X416832D01*
Y408121D01*
X418548Y408256D01*
X420222Y408658D01*
X421813Y409317D01*
X423281Y410217D01*
X424590Y411335D01*
X425708Y412644D01*
X426608Y414112D01*
X427267Y415703D01*
X427669Y417377D01*
X427804Y419093D01*
X427788D01*
Y428888D01*
X427803Y428922D01*
X427808Y429099D01*
X427820Y429239D01*
X427839Y429351D01*
X427861Y429434D01*
X427883Y429487D01*
X427890Y429500D01*
X427915Y429503D01*
X427950Y429521D01*
X428451D01*
Y437014D01*
D02*
G37*
G36*
X598819Y415007D02*
X597197Y414847D01*
X595637Y414374D01*
X594200Y413606D01*
X592940Y412572D01*
X591906Y411312D01*
X591138Y409875D01*
X590665Y408315D01*
X590505Y406693D01*
X590665Y405071D01*
X591138Y403511D01*
X591906Y402074D01*
X592940Y400814D01*
X594200Y399780D01*
X595637Y399012D01*
X597197Y398539D01*
X598819Y398379D01*
X600441Y398539D01*
X602001Y399012D01*
X603438Y399780D01*
X604698Y400814D01*
X605732Y402074D01*
X606500Y403511D01*
X606973Y405071D01*
X607133Y406693D01*
X606973Y408315D01*
X606500Y409875D01*
X605732Y411312D01*
X604698Y412572D01*
X603438Y413606D01*
X602001Y414374D01*
X600441Y414847D01*
X598819Y415007D01*
D02*
G37*
G36*
X544095Y406538D02*
X542665Y406397D01*
X541291Y405980D01*
X540025Y405303D01*
X538915Y404392D01*
X538004Y403282D01*
X537327Y402016D01*
X536910Y400642D01*
X536769Y399213D01*
X536910Y397784D01*
X537327Y396409D01*
X538004Y395143D01*
X538915Y394033D01*
X540025Y393122D01*
X541291Y392445D01*
X542665Y392028D01*
X544095Y391888D01*
X545524Y392028D01*
X546898Y392445D01*
X548164Y393122D01*
X549274Y394033D01*
X550185Y395143D01*
X550862Y396409D01*
X551279Y397784D01*
X551419Y399213D01*
X551279Y400642D01*
X550862Y402016D01*
X550185Y403282D01*
X549274Y404392D01*
X548164Y405303D01*
X546898Y405980D01*
X545524Y406397D01*
X544095Y406538D01*
D02*
G37*
G36*
X486221D02*
X484791Y406397D01*
X483417Y405980D01*
X482151Y405303D01*
X481041Y404392D01*
X480130Y403282D01*
X479453Y402016D01*
X479036Y400642D01*
X478895Y399213D01*
X479036Y397784D01*
X479453Y396409D01*
X480130Y395143D01*
X481041Y394033D01*
X482151Y393122D01*
X483417Y392445D01*
X484791Y392028D01*
X486221Y391888D01*
X487649Y392028D01*
X489024Y392445D01*
X490290Y393122D01*
X491400Y394033D01*
X492311Y395143D01*
X492988Y396409D01*
X493405Y397784D01*
X493545Y399213D01*
X493405Y400642D01*
X492988Y402016D01*
X492311Y403282D01*
X491400Y404392D01*
X490290Y405303D01*
X489024Y405980D01*
X487649Y406397D01*
X486221Y406538D01*
D02*
G37*
G36*
X598819Y379574D02*
X597197Y379414D01*
X595637Y378941D01*
X594200Y378173D01*
X592940Y377139D01*
X591906Y375879D01*
X591138Y374442D01*
X590665Y372882D01*
X590505Y371260D01*
X590665Y369638D01*
X591138Y368078D01*
X591906Y366641D01*
X592940Y365381D01*
X594200Y364347D01*
X595637Y363579D01*
X597197Y363106D01*
X598819Y362946D01*
X600441Y363106D01*
X602001Y363579D01*
X603438Y364347D01*
X604698Y365381D01*
X605732Y366641D01*
X606500Y368078D01*
X606973Y369638D01*
X607133Y371260D01*
X606973Y372882D01*
X606500Y374442D01*
X605732Y375879D01*
X604698Y377139D01*
X603438Y378173D01*
X602001Y378941D01*
X600441Y379414D01*
X598819Y379574D01*
D02*
G37*
G36*
Y344141D02*
X597197Y343981D01*
X595637Y343508D01*
X594200Y342740D01*
X592940Y341706D01*
X591906Y340446D01*
X591138Y339008D01*
X590665Y337449D01*
X590505Y335827D01*
X590665Y334205D01*
X591138Y332645D01*
X591906Y331208D01*
X592940Y329948D01*
X594200Y328914D01*
X595637Y328146D01*
X597197Y327673D01*
X598819Y327513D01*
X600441Y327673D01*
X602001Y328146D01*
X603438Y328914D01*
X604698Y329948D01*
X605732Y331208D01*
X606500Y332645D01*
X606973Y334205D01*
X607133Y335827D01*
X606973Y337449D01*
X606500Y339008D01*
X605732Y340446D01*
X604698Y341706D01*
X603438Y342740D01*
X602001Y343508D01*
X600441Y343981D01*
X598819Y344141D01*
D02*
G37*
G36*
X535039Y311868D02*
X534415Y311743D01*
X533896Y311396D01*
X533888Y311393D01*
X533833Y311343D01*
X533790Y311310D01*
X533743Y311280D01*
X533690Y311253D01*
X533632Y311229D01*
X533566Y311209D01*
X533494Y311192D01*
X533413Y311180D01*
X533325Y311172D01*
X533216Y311169D01*
X533182Y311154D01*
X445558D01*
X445524Y311169D01*
X445415Y311172D01*
X445327Y311180D01*
X445247Y311192D01*
X445174Y311209D01*
X445109Y311229D01*
X445050Y311253D01*
X444998Y311280D01*
X444950Y311310D01*
X444907Y311343D01*
X444852Y311393D01*
X444844Y311396D01*
X444325Y311743D01*
X443701Y311868D01*
X443077Y311743D01*
X442547Y311390D01*
X442194Y310860D01*
X442069Y310236D01*
X442194Y309612D01*
X442547Y309083D01*
X443077Y308729D01*
X443701Y308605D01*
X444325Y308729D01*
X444844Y309076D01*
X444852Y309079D01*
X444907Y309130D01*
X444950Y309163D01*
X444998Y309193D01*
X445050Y309220D01*
X445109Y309243D01*
X445174Y309263D01*
X445247Y309280D01*
X445327Y309293D01*
X445415Y309300D01*
X445524Y309303D01*
X445558Y309319D01*
X533182D01*
X533216Y309303D01*
X533325Y309300D01*
X533413Y309293D01*
X533494Y309280D01*
X533566Y309263D01*
X533632Y309243D01*
X533690Y309220D01*
X533743Y309193D01*
X533790Y309163D01*
X533833Y309130D01*
X533888Y309079D01*
X533896Y309076D01*
X534415Y308729D01*
X535039Y308605D01*
X535664Y308729D01*
X536193Y309083D01*
X536547Y309612D01*
X536671Y310236D01*
X536547Y310860D01*
X536193Y311390D01*
X535664Y311743D01*
X535039Y311868D01*
D02*
G37*
G36*
X598819Y308708D02*
X597197Y308548D01*
X595637Y308075D01*
X594200Y307307D01*
X592940Y306273D01*
X591906Y305013D01*
X591138Y303575D01*
X590665Y302016D01*
X590505Y300394D01*
X590665Y298772D01*
X591138Y297212D01*
X591906Y295775D01*
X592940Y294515D01*
X594200Y293481D01*
X595637Y292712D01*
X597197Y292239D01*
X598819Y292080D01*
X600441Y292239D01*
X602001Y292712D01*
X603438Y293481D01*
X604698Y294515D01*
X605732Y295775D01*
X606500Y297212D01*
X606973Y298772D01*
X607133Y300394D01*
X606973Y302016D01*
X606500Y303575D01*
X605732Y305013D01*
X604698Y306273D01*
X603438Y307307D01*
X602001Y308075D01*
X600441Y308548D01*
X598819Y308708D01*
D02*
G37*
G36*
X431001Y294593D02*
X427051D01*
Y290446D01*
X428076D01*
X428088Y290440D01*
X428112Y290437D01*
X428120Y290423D01*
X428142Y290369D01*
X428165Y290283D01*
X428184Y290169D01*
X428196Y290026D01*
X428201Y289847D01*
X428216Y289813D01*
Y287233D01*
X428201Y287199D01*
X428196Y287020D01*
X428184Y286877D01*
X428165Y286762D01*
X428142Y286677D01*
X428120Y286623D01*
X428112Y286609D01*
X428088Y286606D01*
X428076Y286600D01*
X427061D01*
Y282650D01*
X431207D01*
Y286600D01*
X430192D01*
X430180Y286606D01*
X430156Y286609D01*
X430147Y286623D01*
X430125Y286677D01*
X430103Y286763D01*
X430084Y286877D01*
X430071Y287020D01*
X430067Y287199D01*
X430052Y287233D01*
Y289813D01*
X430067Y289847D01*
X430071Y290026D01*
X430084Y290169D01*
X430103Y290283D01*
X430125Y290369D01*
X430147Y290423D01*
X430156Y290437D01*
X430180Y290440D01*
X430192Y290446D01*
X431001D01*
Y294593D01*
D02*
G37*
G36*
X408268Y291789D02*
X407643Y291665D01*
X407114Y291311D01*
X406761Y290782D01*
X406636Y290158D01*
X406761Y289533D01*
X407107Y289014D01*
X407111Y289006D01*
X407161Y288951D01*
X407194Y288908D01*
X407224Y288861D01*
X407251Y288808D01*
X407275Y288750D01*
X407295Y288684D01*
X407312Y288612D01*
X407324Y288531D01*
X407332Y288443D01*
X407335Y288334D01*
X407350Y288301D01*
Y287233D01*
X407335Y287199D01*
X407330Y287020D01*
X407318Y286877D01*
X407299Y286762D01*
X407276Y286677D01*
X407254Y286623D01*
X407246Y286609D01*
X407222Y286606D01*
X407210Y286600D01*
X406194D01*
Y282650D01*
X410341D01*
Y286600D01*
X409326D01*
X409314Y286606D01*
X409290Y286609D01*
X409281Y286623D01*
X409259Y286677D01*
X409236Y286763D01*
X409218Y286877D01*
X409205Y287020D01*
X409200Y287199D01*
X409185Y287233D01*
Y288301D01*
X409200Y288334D01*
X409203Y288443D01*
X409211Y288531D01*
X409224Y288612D01*
X409240Y288684D01*
X409261Y288750D01*
X409284Y288808D01*
X409311Y288861D01*
X409341Y288908D01*
X409374Y288951D01*
X409425Y289006D01*
X409428Y289014D01*
X409775Y289533D01*
X409899Y290158D01*
X409775Y290782D01*
X409421Y291311D01*
X408892Y291665D01*
X408268Y291789D01*
D02*
G37*
G36*
X417323Y266198D02*
X416699Y266074D01*
X416169Y265721D01*
X415816Y265191D01*
X415692Y264567D01*
X415816Y263943D01*
X416169Y263413D01*
X416322Y263311D01*
X416356Y263252D01*
X416403Y263214D01*
X416440Y263180D01*
X416476Y263141D01*
X416574Y263016D01*
X416614Y262955D01*
X416773Y262667D01*
X416824Y262558D01*
X416877Y262509D01*
X417035Y262128D01*
X417810Y261117D01*
X418820Y260342D01*
X419455Y260079D01*
X419355Y259579D01*
X414455D01*
X414421Y259594D01*
X414313Y259597D01*
X414225Y259605D01*
X414144Y259617D01*
X414072Y259634D01*
X414006Y259654D01*
X413948Y259678D01*
X413895Y259705D01*
X413848Y259735D01*
X413805Y259768D01*
X413750Y259819D01*
X413742Y259822D01*
X413223Y260169D01*
X412598Y260293D01*
X411974Y260169D01*
X411445Y259815D01*
X411091Y259286D01*
X410967Y258661D01*
X411091Y258037D01*
X411445Y257508D01*
X411974Y257154D01*
X412598Y257030D01*
X413223Y257154D01*
X413742Y257501D01*
X413750Y257504D01*
X413805Y257555D01*
X413848Y257588D01*
X413895Y257618D01*
X413948Y257645D01*
X414006Y257668D01*
X414072Y257689D01*
X414144Y257705D01*
X414225Y257718D01*
X414313Y257726D01*
X414421Y257729D01*
X414455Y257744D01*
X420064D01*
X420164Y257244D01*
X419409Y256931D01*
X418317Y256093D01*
X417478Y255000D01*
X416951Y253728D01*
X416771Y252362D01*
X416771D01*
X416787Y252345D01*
X416699Y251680D01*
X416436Y251044D01*
X416017Y250498D01*
X415471Y250079D01*
X414835Y249815D01*
X414152Y249725D01*
Y249716D01*
X410974D01*
X410940Y249731D01*
X410764Y249735D01*
X410624Y249748D01*
X410511Y249767D01*
X410428Y249789D01*
X410375Y249811D01*
X410362Y249818D01*
X410359Y249843D01*
X410341Y249878D01*
Y250773D01*
X409326D01*
X409314Y250779D01*
X409290Y250782D01*
X409281Y250796D01*
X409259Y250850D01*
X409236Y250936D01*
X409218Y251051D01*
X409205Y251193D01*
X409200Y251372D01*
X409185Y251406D01*
Y258043D01*
X409200Y258077D01*
X409205Y258256D01*
X409218Y258398D01*
X409236Y258513D01*
X409259Y258598D01*
X409281Y258653D01*
X409290Y258667D01*
X409314Y258669D01*
X409326Y258676D01*
X410341D01*
Y262626D01*
X406194D01*
Y258676D01*
X407210D01*
X407222Y258669D01*
X407246Y258667D01*
X407254Y258653D01*
X407276Y258598D01*
X407299Y258513D01*
X407318Y258398D01*
X407330Y258256D01*
X407335Y258077D01*
X407350Y258043D01*
Y251406D01*
X407335Y251372D01*
X407330Y251193D01*
X407318Y251051D01*
X407299Y250936D01*
X407276Y250850D01*
X407254Y250796D01*
X407246Y250782D01*
X407222Y250779D01*
X407210Y250773D01*
X406194D01*
Y246823D01*
X410341D01*
Y247719D01*
X410359Y247753D01*
X410362Y247778D01*
X410375Y247785D01*
X410428Y247807D01*
X410511Y247829D01*
X410624Y247848D01*
X410764Y247861D01*
X410940Y247865D01*
X410974Y247880D01*
X414152D01*
Y247860D01*
X415318Y248013D01*
X416404Y248463D01*
X417336Y249178D01*
X418052Y250111D01*
X418267Y250631D01*
X418767Y250532D01*
Y249495D01*
X418752Y249461D01*
X418749Y249353D01*
X418741Y249264D01*
X418729Y249184D01*
X418712Y249111D01*
X418692Y249046D01*
X418668Y248987D01*
X418642Y248935D01*
X418612Y248887D01*
X418579Y248844D01*
X418528Y248790D01*
X418525Y248781D01*
X418178Y248262D01*
X418054Y247638D01*
X418178Y247013D01*
X418532Y246484D01*
X419061Y246131D01*
X419685Y246006D01*
X420309Y246131D01*
X420839Y246484D01*
X421192Y247013D01*
X421316Y247638D01*
X421192Y248262D01*
X420845Y248781D01*
X420842Y248790D01*
X420791Y248844D01*
X420758Y248887D01*
X420728Y248935D01*
X420702Y248987D01*
X420678Y249045D01*
X420658Y249111D01*
X420641Y249184D01*
X420629Y249264D01*
X420621Y249353D01*
X420618Y249461D01*
X420603Y249495D01*
Y253150D01*
X420623D01*
X420671Y253393D01*
X420809Y253600D01*
X420822Y253608D01*
X421260Y253787D01*
X421760Y253790D01*
X421787Y253790D01*
X421810Y253765D01*
X422008Y253289D01*
X421899Y253127D01*
X421826Y252756D01*
X421899Y252385D01*
X422110Y252070D01*
X422424Y251860D01*
X422774Y251790D01*
X422780Y251787D01*
X422832Y251782D01*
X422840Y251780D01*
X422856Y251771D01*
X422885Y251747D01*
X422925Y251704D01*
X422972Y251636D01*
X423024Y251543D01*
X423078Y251426D01*
X423132Y251284D01*
X423187Y251109D01*
X423250Y251033D01*
X423506Y250416D01*
X424250Y249447D01*
X425219Y248703D01*
X425836Y248447D01*
X425912Y248383D01*
X426087Y248328D01*
X426229Y248275D01*
X426346Y248221D01*
X426439Y248169D01*
X426507Y248121D01*
X426551Y248082D01*
X426574Y248053D01*
X426583Y248037D01*
X426585Y248029D01*
X426590Y247977D01*
X426593Y247971D01*
X426663Y247621D01*
X426873Y247306D01*
X427188Y247096D01*
X427559Y247022D01*
X427930Y247096D01*
X428245Y247306D01*
X428842D01*
X429156Y247096D01*
X429528Y247022D01*
X429899Y247096D01*
X430060Y247204D01*
X430538Y247006D01*
X430561Y246983D01*
X430563Y246767D01*
X430578Y246730D01*
Y246063D01*
X430572D01*
X430469Y245283D01*
X430168Y244557D01*
X429689Y243933D01*
X429065Y243454D01*
X429048Y243446D01*
X429034Y243445D01*
X428981Y243419D01*
X428875Y243375D01*
X428831Y243363D01*
X428784Y243355D01*
X428742Y243354D01*
X428704Y243357D01*
X428667Y243366D01*
X428627Y243380D01*
X428585Y243403D01*
X428519Y243447D01*
X428439Y243463D01*
X428183Y243633D01*
X427559Y243757D01*
X426935Y243633D01*
X426405Y243280D01*
X426052Y242750D01*
X425928Y242126D01*
X426052Y241502D01*
X426405Y240972D01*
X426935Y240619D01*
X427559Y240495D01*
X428183Y240619D01*
X428713Y240972D01*
X428815Y241125D01*
X428874Y241159D01*
X428912Y241206D01*
X428946Y241243D01*
X428985Y241280D01*
X429110Y241377D01*
X429171Y241417D01*
X429459Y241576D01*
X429568Y241627D01*
X429616Y241680D01*
X429998Y241838D01*
X430891Y242523D01*
X431391Y242352D01*
Y239214D01*
X435538D01*
Y243164D01*
X434522D01*
X434510Y243170D01*
X434487Y243173D01*
X434478Y243187D01*
X434456Y243241D01*
X434433Y243327D01*
X434414Y243442D01*
X434402Y243584D01*
X434397Y243763D01*
X434382Y243797D01*
Y246731D01*
X434398Y246768D01*
X434403Y247727D01*
X434404Y247751D01*
X434399Y247765D01*
X434405Y247782D01*
X434397Y247803D01*
X434434Y247992D01*
Y250039D01*
X434361Y250411D01*
X434150Y250725D01*
X433836Y250935D01*
X433465Y251009D01*
X433093Y250935D01*
X432779Y250725D01*
X432182D01*
X431867Y250935D01*
X431496Y251009D01*
X431125Y250935D01*
X430813Y250727D01*
X430810Y250725D01*
X430213Y250725D01*
X430210Y250727D01*
X429899Y250935D01*
X429528Y251009D01*
X429156Y250935D01*
X428842Y250725D01*
X428245D01*
X427930Y250935D01*
X427559Y251009D01*
X427188Y250935D01*
X426873Y250725D01*
X426663Y250411D01*
X426152Y250319D01*
X425569Y250766D01*
X425122Y251349D01*
X425214Y251860D01*
X425528Y252070D01*
X425738Y252385D01*
X425812Y252756D01*
X425738Y253127D01*
X425528Y253442D01*
Y254039D01*
X425738Y254353D01*
X425812Y254724D01*
X425738Y255096D01*
X425528Y255410D01*
Y256007D01*
X425738Y256322D01*
X425812Y256693D01*
X425738Y257064D01*
X425530Y257376D01*
X425528Y257379D01*
X425528Y257976D01*
X425530Y257979D01*
X425738Y258290D01*
X425812Y258661D01*
X425738Y259033D01*
X425530Y259344D01*
X425528Y259347D01*
X425528Y259944D01*
X425530Y259947D01*
X425738Y260259D01*
X425812Y260630D01*
X425738Y261001D01*
X425528Y261316D01*
X425214Y261526D01*
X424843Y261600D01*
X422795D01*
X422606Y261562D01*
X422585Y261571D01*
X422583Y261570D01*
X422581Y261571D01*
X421570Y261563D01*
X421260Y261554D01*
X421260Y261554D01*
X421260Y261554D01*
X420480Y261657D01*
X419754Y261958D01*
X419130Y262437D01*
X418651Y263060D01*
X418643Y263078D01*
X418642Y263092D01*
X418616Y263145D01*
X418572Y263251D01*
X418560Y263295D01*
X418552Y263342D01*
X418551Y263384D01*
X418554Y263422D01*
X418563Y263459D01*
X418577Y263498D01*
X418599Y263541D01*
X418643Y263607D01*
X418659Y263687D01*
X418830Y263943D01*
X418954Y264567D01*
X418830Y265191D01*
X418476Y265721D01*
X417947Y266074D01*
X417323Y266198D01*
D02*
G37*
G36*
X436424Y261620D02*
X426569D01*
Y251765D01*
X436424D01*
Y261620D01*
D02*
G37*
G36*
X417323Y238246D02*
X416699Y238121D01*
X416169Y237768D01*
X415816Y237239D01*
X415692Y236614D01*
X415816Y235990D01*
X416169Y235461D01*
X416182Y235452D01*
X416186Y235443D01*
X416237Y235389D01*
X416270Y235347D01*
X416300Y235301D01*
X416327Y235250D01*
X416350Y235193D01*
X416371Y235129D01*
X416387Y235057D01*
X416400Y234978D01*
X416408Y234890D01*
X416411Y234782D01*
X416426Y234748D01*
Y234203D01*
X416411Y234169D01*
X416406Y233992D01*
X416394Y233852D01*
X416375Y233739D01*
X416353Y233656D01*
X416331Y233603D01*
X416323Y233591D01*
X416298Y233588D01*
X416264Y233569D01*
X415369D01*
Y232554D01*
X415362Y232542D01*
X415360Y232518D01*
X415346Y232509D01*
X415291Y232488D01*
X415206Y232465D01*
X415091Y232446D01*
X414949Y232434D01*
X414770Y232429D01*
X414736Y232414D01*
X410974D01*
X410940Y232429D01*
X410761Y232434D01*
X410619Y232446D01*
X410504Y232465D01*
X410419Y232488D01*
X410364Y232509D01*
X410350Y232518D01*
X410348Y232542D01*
X410341Y232554D01*
Y233056D01*
X406194D01*
Y229107D01*
X410341D01*
Y230438D01*
X410348Y230450D01*
X410350Y230474D01*
X410364Y230483D01*
X410419Y230505D01*
X410504Y230527D01*
X410619Y230546D01*
X410761Y230559D01*
X410940Y230563D01*
X410974Y230578D01*
X414736D01*
X414770Y230563D01*
X414949Y230559D01*
X415091Y230546D01*
X415206Y230527D01*
X415291Y230505D01*
X415346Y230483D01*
X415360Y230474D01*
X415362Y230450D01*
X415369Y230438D01*
Y229423D01*
X419318D01*
Y233569D01*
X418423D01*
X418389Y233588D01*
X418364Y233591D01*
X418356Y233603D01*
X418335Y233656D01*
X418312Y233739D01*
X418294Y233852D01*
X418281Y233992D01*
X418277Y234169D01*
X418261Y234203D01*
Y234767D01*
X418277Y234801D01*
X418280Y234910D01*
X418287Y234998D01*
X418300Y235080D01*
X418316Y235154D01*
X418336Y235220D01*
X418360Y235280D01*
X418387Y235334D01*
X418417Y235382D01*
X418449Y235427D01*
X418500Y235483D01*
X418509Y235510D01*
X418830Y235990D01*
X418954Y236614D01*
X418830Y237239D01*
X418476Y237768D01*
X417947Y238121D01*
X417323Y238246D01*
D02*
G37*
G36*
X498425Y207931D02*
X497801Y207806D01*
X497282Y207459D01*
X497273Y207456D01*
X497219Y207406D01*
X497176Y207372D01*
X497128Y207343D01*
X497076Y207316D01*
X497017Y207292D01*
X496952Y207272D01*
X496879Y207255D01*
X496799Y207243D01*
X496710Y207235D01*
X496602Y207232D01*
X496568Y207217D01*
X453543D01*
Y207232D01*
X451877Y207101D01*
X450252Y206711D01*
X448709Y206071D01*
X447284Y205198D01*
X446013Y204113D01*
X444928Y202842D01*
X444055Y201417D01*
X443415Y199873D01*
X443025Y198249D01*
X442894Y196583D01*
X442909D01*
Y142183D01*
X442894Y142149D01*
X442889Y141972D01*
X442877Y141832D01*
X442858Y141720D01*
X442836Y141636D01*
X442814Y141584D01*
X442806Y141571D01*
X442781Y141568D01*
X442747Y141550D01*
X442246D01*
Y134057D01*
X445408D01*
Y141550D01*
X444906D01*
X444872Y141568D01*
X444847Y141571D01*
X444839Y141584D01*
X444818Y141636D01*
X444795Y141720D01*
X444777Y141832D01*
X444764Y141972D01*
X444760Y142149D01*
X444744Y142183D01*
Y196583D01*
X444738Y196616D01*
X444904Y198301D01*
X445405Y199954D01*
X446219Y201477D01*
X447314Y202812D01*
X448649Y203907D01*
X450172Y204721D01*
X451825Y205222D01*
X453510Y205388D01*
X453543Y205382D01*
X496568D01*
X496602Y205366D01*
X496710Y205363D01*
X496799Y205356D01*
X496879Y205343D01*
X496952Y205327D01*
X497017Y205306D01*
X497076Y205282D01*
X497128Y205256D01*
X497176Y205226D01*
X497219Y205193D01*
X497273Y205142D01*
X497282Y205139D01*
X497801Y204792D01*
X498425Y204668D01*
X499050Y204792D01*
X499579Y205146D01*
X499932Y205675D01*
X500057Y206299D01*
X499932Y206924D01*
X499579Y207453D01*
X499050Y207806D01*
X498425Y207931D01*
D02*
G37*
G36*
X507087Y223679D02*
X506462Y223554D01*
X505933Y223201D01*
X505579Y222672D01*
X505455Y222047D01*
X505579Y221423D01*
X505926Y220904D01*
X505929Y220896D01*
X505980Y220841D01*
X506013Y220798D01*
X506043Y220750D01*
X506070Y220698D01*
X506094Y220639D01*
X506114Y220574D01*
X506131Y220501D01*
X506143Y220421D01*
X506151Y220333D01*
X506154Y220224D01*
X506169Y220190D01*
Y212362D01*
X506177Y212324D01*
X506006Y210588D01*
X505488Y208882D01*
X504648Y207310D01*
X503517Y205932D01*
X502139Y204801D01*
X500567Y203961D01*
X498861Y203443D01*
X497125Y203272D01*
X497087Y203280D01*
X458748D01*
Y203296D01*
X457038Y203161D01*
X455369Y202761D01*
X453784Y202104D01*
X452321Y201208D01*
X451017Y200094D01*
X449902Y198789D01*
X449006Y197326D01*
X448350Y195741D01*
X447949Y194073D01*
X447814Y192362D01*
X447830D01*
Y142183D01*
X447815Y142149D01*
X447811Y141972D01*
X447798Y141832D01*
X447779Y141720D01*
X447757Y141636D01*
X447736Y141584D01*
X447728Y141571D01*
X447703Y141568D01*
X447669Y141550D01*
X447167D01*
Y134057D01*
X450329D01*
Y141550D01*
X449828D01*
X449793Y141568D01*
X449768Y141571D01*
X449761Y141584D01*
X449739Y141636D01*
X449717Y141720D01*
X449698Y141832D01*
X449685Y141972D01*
X449681Y142149D01*
X449666Y142183D01*
Y192362D01*
X449658Y192401D01*
X449829Y194136D01*
X450347Y195842D01*
X451187Y197414D01*
X452318Y198793D01*
X453696Y199923D01*
X455268Y200764D01*
X456974Y201281D01*
X458710Y201452D01*
X458748Y201445D01*
X497087D01*
Y201429D01*
X498797Y201563D01*
X500465Y201964D01*
X502050Y202620D01*
X503513Y203517D01*
X504818Y204631D01*
X505932Y205936D01*
X506829Y207398D01*
X507485Y208983D01*
X507886Y210652D01*
X508020Y212362D01*
X508004D01*
Y220190D01*
X508019Y220224D01*
X508022Y220333D01*
X508030Y220421D01*
X508043Y220501D01*
X508059Y220574D01*
X508080Y220639D01*
X508103Y220698D01*
X508130Y220750D01*
X508160Y220798D01*
X508193Y220841D01*
X508244Y220896D01*
X508247Y220904D01*
X508594Y221423D01*
X508718Y222047D01*
X508594Y222672D01*
X508240Y223201D01*
X507711Y223554D01*
X507087Y223679D01*
D02*
G37*
G36*
X521955Y204337D02*
X511313D01*
Y199209D01*
X496850D01*
X495832Y199075D01*
X494884Y198682D01*
X494069Y198057D01*
X493444Y197242D01*
X493051Y196294D01*
X492917Y195276D01*
X493051Y194257D01*
X493444Y193309D01*
X494069Y192494D01*
X494884Y191869D01*
X495832Y191476D01*
X496850Y191342D01*
X511313D01*
Y189364D01*
X521955D01*
Y204337D01*
D02*
G37*
G36*
X476378Y178979D02*
X474949Y178838D01*
X473575Y178421D01*
X472308Y177744D01*
X471198Y176833D01*
X470287Y175723D01*
X469611Y174457D01*
X469194Y173083D01*
X469053Y171653D01*
X469194Y170224D01*
X469611Y168850D01*
X470287Y167584D01*
X471198Y166474D01*
X472308Y165563D01*
X473575Y164886D01*
X474949Y164469D01*
X476378Y164329D01*
X477807Y164469D01*
X479181Y164886D01*
X480447Y165563D01*
X481558Y166474D01*
X482469Y167584D01*
X483145Y168850D01*
X483562Y170224D01*
X483703Y171653D01*
X483562Y173083D01*
X483145Y174457D01*
X482469Y175723D01*
X481558Y176833D01*
X480447Y177744D01*
X479181Y178421D01*
X477807Y178838D01*
X476378Y178979D01*
D02*
G37*
G36*
X535039Y178979D02*
X533610Y178838D01*
X532236Y178421D01*
X530970Y177744D01*
X529860Y176833D01*
X528949Y175723D01*
X528272Y174457D01*
X527855Y173083D01*
X527714Y171653D01*
X527855Y170224D01*
X528272Y168850D01*
X528949Y167584D01*
X529860Y166474D01*
X530970Y165563D01*
X532236Y164886D01*
X533610Y164469D01*
X535039Y164329D01*
X536468Y164469D01*
X537843Y164886D01*
X539109Y165563D01*
X540219Y166474D01*
X541130Y167584D01*
X541807Y168850D01*
X542224Y170224D01*
X542364Y171653D01*
X542224Y173083D01*
X541807Y174457D01*
X541130Y175723D01*
X540219Y176833D01*
X539109Y177744D01*
X537843Y178421D01*
X536468Y178838D01*
X535039Y178979D01*
D02*
G37*
G36*
X408661Y212655D02*
X408037Y212531D01*
X407508Y212177D01*
X407154Y211648D01*
X407030Y211024D01*
X407154Y210399D01*
X407508Y209870D01*
X408037Y209516D01*
X408661Y209392D01*
X409286Y209516D01*
X409805Y209863D01*
X409813Y209866D01*
X409868Y209917D01*
X409911Y209950D01*
X409958Y209980D01*
X410011Y210007D01*
X410069Y210031D01*
X410135Y210051D01*
X410207Y210068D01*
X410288Y210080D01*
X410376Y210088D01*
X410484Y210091D01*
X410518Y210106D01*
X412146D01*
X412184Y210114D01*
X413920Y209943D01*
X415626Y209425D01*
X417198Y208585D01*
X418576Y207454D01*
X419707Y206076D01*
X420547Y204504D01*
X421065Y202798D01*
X421236Y201062D01*
X421228Y201024D01*
Y141978D01*
X421213Y141944D01*
X421208Y141768D01*
X421196Y141628D01*
X421177Y141515D01*
X421155Y141432D01*
X421133Y141379D01*
X421125Y141366D01*
X421100Y141364D01*
X421066Y141345D01*
X420565D01*
Y133852D01*
X423727D01*
Y141345D01*
X423225D01*
X423191Y141364D01*
X423166Y141366D01*
X423158Y141379D01*
X423137Y141432D01*
X423114Y141515D01*
X423096Y141628D01*
X423083Y141768D01*
X423078Y141944D01*
X423063Y141978D01*
Y201024D01*
X423079D01*
X422945Y202734D01*
X422544Y204402D01*
X421888Y205987D01*
X420991Y207450D01*
X419877Y208755D01*
X418572Y209869D01*
X417109Y210766D01*
X415524Y211422D01*
X413856Y211823D01*
X412146Y211957D01*
Y211941D01*
X410518D01*
X410484Y211956D01*
X410376Y211960D01*
X410288Y211967D01*
X410207Y211980D01*
X410135Y211996D01*
X410069Y212017D01*
X410011Y212040D01*
X409958Y212067D01*
X409911Y212097D01*
X409868Y212130D01*
X409813Y212181D01*
X409805Y212184D01*
X409286Y212531D01*
X408661Y212655D01*
D02*
G37*
%LPD*%
G36*
X615370Y429530D02*
X615306Y429500D01*
X615250Y429450D01*
X615202Y429380D01*
X615160Y429290D01*
X615127Y429180D01*
X615101Y429050D01*
X615082Y428900D01*
X615071Y428730D01*
X615067Y428540D01*
X614067D01*
X614062Y428730D01*
X614047Y428900D01*
X614022Y429050D01*
X613987Y429180D01*
X613942Y429290D01*
X613887Y429380D01*
X613822Y429450D01*
X613747Y429500D01*
X613662Y429530D01*
X613567Y429540D01*
X615441D01*
X615370Y429530D01*
D02*
G37*
G36*
X615070Y427674D02*
X615080Y427558D01*
X615098Y427449D01*
X615121Y427345D01*
X615152Y427246D01*
X615189Y427154D01*
X615234Y427067D01*
X615284Y426986D01*
X615342Y426911D01*
X615407Y426841D01*
X613727D01*
X613792Y426911D01*
X613849Y426986D01*
X613900Y427067D01*
X613944Y427154D01*
X613982Y427246D01*
X614012Y427345D01*
X614036Y427449D01*
X614053Y427558D01*
X614064Y427674D01*
X614067Y427795D01*
X615067D01*
X615070Y427674D01*
D02*
G37*
G36*
X582299Y429530D02*
X582235Y429500D01*
X582179Y429450D01*
X582131Y429380D01*
X582090Y429290D01*
X582056Y429180D01*
X582030Y429050D01*
X582011Y428900D01*
X582000Y428730D01*
X581996Y428540D01*
X580996D01*
X580991Y428730D01*
X580976Y428900D01*
X580951Y429050D01*
X580916Y429180D01*
X580871Y429290D01*
X580816Y429380D01*
X580751Y429450D01*
X580676Y429500D01*
X580591Y429530D01*
X580496Y429540D01*
X582370D01*
X582299Y429530D01*
D02*
G37*
G36*
X581999Y424524D02*
X582010Y424409D01*
X582027Y424299D01*
X582051Y424195D01*
X582081Y424097D01*
X582119Y424004D01*
X582163Y423917D01*
X582214Y423836D01*
X582271Y423761D01*
X582336Y423692D01*
X580656D01*
X580721Y423761D01*
X580779Y423836D01*
X580829Y423917D01*
X580874Y424004D01*
X580911Y424097D01*
X580942Y424195D01*
X580966Y424299D01*
X580982Y424409D01*
X580993Y424524D01*
X580996Y424646D01*
X581996D01*
X581999Y424524D01*
D02*
G37*
G36*
X422952Y429923D02*
X422867Y429893D01*
X422792Y429843D01*
X422727Y429773D01*
X422672Y429683D01*
X422627Y429573D01*
X422592Y429443D01*
X422567Y429293D01*
X422552Y429123D01*
X422547Y428933D01*
X421547D01*
X421542Y429123D01*
X421527Y429293D01*
X421502Y429443D01*
X421467Y429573D01*
X421422Y429683D01*
X421367Y429773D01*
X421302Y429843D01*
X421227Y429893D01*
X421142Y429923D01*
X421047Y429933D01*
X423047D01*
X422952Y429923D01*
D02*
G37*
G36*
X422551Y426493D02*
X422561Y426377D01*
X422578Y426267D01*
X422602Y426163D01*
X422632Y426065D01*
X422670Y425973D01*
X422714Y425886D01*
X422765Y425805D01*
X422823Y425730D01*
X422887Y425660D01*
X421207D01*
X421272Y425730D01*
X421330Y425805D01*
X421381Y425886D01*
X421425Y425973D01*
X421462Y426065D01*
X421493Y426163D01*
X421517Y426267D01*
X421534Y426377D01*
X421544Y426493D01*
X421547Y426614D01*
X422547D01*
X422551Y426493D01*
D02*
G37*
G36*
X577283Y429530D02*
X577198Y429500D01*
X577123Y429450D01*
X577058Y429380D01*
X577003Y429290D01*
X576958Y429180D01*
X576923Y429050D01*
X576898Y428900D01*
X576883Y428730D01*
X576878Y428540D01*
X575878D01*
X575873Y428730D01*
X575858Y428900D01*
X575833Y429050D01*
X575798Y429180D01*
X575753Y429290D01*
X575698Y429380D01*
X575633Y429450D01*
X575558Y429500D01*
X575473Y429530D01*
X575378Y429540D01*
X577378D01*
X577283Y429530D01*
D02*
G37*
G36*
X576881Y424131D02*
X576892Y424015D01*
X576909Y423905D01*
X576932Y423801D01*
X576963Y423703D01*
X577000Y423610D01*
X577044Y423524D01*
X577096Y423443D01*
X577153Y423367D01*
X577218Y423298D01*
X575538D01*
X575602Y423367D01*
X575660Y423443D01*
X575711Y423524D01*
X575756Y423610D01*
X575793Y423703D01*
X575823Y423801D01*
X575847Y423905D01*
X575864Y424015D01*
X575875Y424131D01*
X575878Y424252D01*
X576878D01*
X576881Y424131D01*
D02*
G37*
G36*
X427775Y429923D02*
X427690Y429893D01*
X427615Y429843D01*
X427550Y429773D01*
X427495Y429683D01*
X427450Y429573D01*
X427415Y429443D01*
X427390Y429293D01*
X427375Y429123D01*
X427370Y428933D01*
X426370D01*
X426365Y429123D01*
X426350Y429293D01*
X426325Y429443D01*
X426290Y429573D01*
X426245Y429683D01*
X426190Y429773D01*
X426125Y429843D01*
X426050Y429893D01*
X425965Y429923D01*
X425870Y429933D01*
X427870D01*
X427775Y429923D01*
D02*
G37*
G36*
X417729Y141743D02*
X417744Y141573D01*
X417769Y141423D01*
X417804Y141293D01*
X417849Y141183D01*
X417904Y141093D01*
X417969Y141023D01*
X418044Y140973D01*
X418129Y140943D01*
X418224Y140933D01*
X416224D01*
X416319Y140943D01*
X416404Y140973D01*
X416479Y141023D01*
X416544Y141093D01*
X416599Y141183D01*
X416644Y141293D01*
X416679Y141423D01*
X416704Y141573D01*
X416719Y141743D01*
X416724Y141933D01*
X417724D01*
X417729Y141743D01*
D02*
G37*
G36*
X534182Y309396D02*
X534113Y309461D01*
X534038Y309519D01*
X533957Y309570D01*
X533870Y309614D01*
X533777Y309651D01*
X533679Y309682D01*
X533575Y309706D01*
X533465Y309723D01*
X533350Y309733D01*
X533228Y309736D01*
Y310736D01*
X533350Y310740D01*
X533465Y310750D01*
X533575Y310767D01*
X533679Y310791D01*
X533777Y310821D01*
X533870Y310859D01*
X533957Y310903D01*
X534038Y310954D01*
X534113Y311012D01*
X534182Y311076D01*
Y309396D01*
D02*
G37*
G36*
X444627Y311012D02*
X444703Y310954D01*
X444784Y310903D01*
X444870Y310859D01*
X444963Y310821D01*
X445061Y310791D01*
X445165Y310767D01*
X445275Y310750D01*
X445390Y310740D01*
X445512Y310736D01*
Y309736D01*
X445390Y309733D01*
X445275Y309723D01*
X445165Y309706D01*
X445061Y309682D01*
X444963Y309651D01*
X444870Y309614D01*
X444784Y309570D01*
X444703Y309519D01*
X444627Y309461D01*
X444558Y309396D01*
Y311076D01*
X444627Y311012D01*
D02*
G37*
G36*
X430039Y290860D02*
X429954Y290830D01*
X429879Y290779D01*
X429814Y290708D01*
X429759Y290617D01*
X429714Y290506D01*
X429679Y290375D01*
X429654Y290223D01*
X429639Y290051D01*
X429634Y289859D01*
X428634D01*
X428629Y290051D01*
X428614Y290223D01*
X428589Y290375D01*
X428554Y290506D01*
X428509Y290617D01*
X428454Y290708D01*
X428389Y290779D01*
X428314Y290830D01*
X428229Y290860D01*
X428134Y290870D01*
X430134D01*
X430039Y290860D01*
D02*
G37*
G36*
X429639Y286995D02*
X429654Y286823D01*
X429679Y286671D01*
X429714Y286540D01*
X429759Y286429D01*
X429814Y286337D01*
X429879Y286267D01*
X429954Y286216D01*
X430039Y286186D01*
X430134Y286176D01*
X428134D01*
X428229Y286186D01*
X428314Y286216D01*
X428389Y286267D01*
X428454Y286337D01*
X428509Y286429D01*
X428554Y286540D01*
X428589Y286671D01*
X428614Y286823D01*
X428629Y286995D01*
X428634Y287188D01*
X429634D01*
X429639Y286995D01*
D02*
G37*
G36*
X409043Y289231D02*
X408985Y289156D01*
X408934Y289075D01*
X408890Y288988D01*
X408853Y288895D01*
X408822Y288797D01*
X408798Y288693D01*
X408781Y288583D01*
X408771Y288468D01*
X408768Y288347D01*
X407768D01*
X407764Y288468D01*
X407754Y288583D01*
X407737Y288693D01*
X407713Y288797D01*
X407683Y288895D01*
X407645Y288988D01*
X407601Y289075D01*
X407550Y289156D01*
X407492Y289231D01*
X407428Y289300D01*
X409108D01*
X409043Y289231D01*
D02*
G37*
G36*
X408773Y286995D02*
X408788Y286823D01*
X408813Y286671D01*
X408848Y286540D01*
X408893Y286429D01*
X408948Y286337D01*
X409013Y286267D01*
X409088Y286216D01*
X409173Y286186D01*
X409268Y286176D01*
X407268D01*
X407363Y286186D01*
X407448Y286216D01*
X407523Y286267D01*
X407588Y286337D01*
X407643Y286429D01*
X407688Y286540D01*
X407723Y286671D01*
X407748Y286823D01*
X407763Y286995D01*
X407768Y287188D01*
X408768D01*
X408773Y286995D01*
D02*
G37*
G36*
X418226Y263762D02*
X418180Y263673D01*
X418147Y263583D01*
X418126Y263491D01*
X418117Y263397D01*
X418120Y263301D01*
X418136Y263203D01*
X418163Y263103D01*
X418203Y263001D01*
X418255Y262898D01*
X417216Y262741D01*
X417159Y262863D01*
X416985Y263179D01*
X416926Y263269D01*
X416806Y263422D01*
X416746Y263487D01*
X416685Y263544D01*
X416623Y263592D01*
X418284Y263848D01*
X418226Y263762D01*
D02*
G37*
G36*
X422585Y260122D02*
X422573Y260123D01*
X422541Y260125D01*
X421573Y260130D01*
Y261130D01*
X422585Y261138D01*
Y260122D01*
D02*
G37*
G36*
Y258154D02*
X422573Y258155D01*
X422541Y258156D01*
X421573Y258161D01*
Y259161D01*
X422585Y259169D01*
Y258154D01*
D02*
G37*
G36*
X409173Y259090D02*
X409088Y259060D01*
X409013Y259009D01*
X408948Y258938D01*
X408893Y258847D01*
X408848Y258736D01*
X408813Y258604D01*
X408788Y258452D01*
X408773Y258280D01*
X408768Y258088D01*
X407768D01*
X407763Y258280D01*
X407748Y258452D01*
X407723Y258604D01*
X407688Y258736D01*
X407643Y258847D01*
X407588Y258938D01*
X407523Y259009D01*
X407448Y259060D01*
X407363Y259090D01*
X407268Y259100D01*
X409268D01*
X409173Y259090D01*
D02*
G37*
G36*
X413525Y259437D02*
X413600Y259379D01*
X413681Y259328D01*
X413768Y259284D01*
X413861Y259246D01*
X413959Y259216D01*
X414063Y259192D01*
X414173Y259175D01*
X414288Y259165D01*
X414409Y259161D01*
Y258161D01*
X414288Y258158D01*
X414173Y258148D01*
X414063Y258131D01*
X413959Y258107D01*
X413861Y258076D01*
X413768Y258039D01*
X413681Y257995D01*
X413600Y257944D01*
X413525Y257886D01*
X413455Y257821D01*
Y259501D01*
X413525Y259437D01*
D02*
G37*
G36*
X422585Y254217D02*
X422573Y254218D01*
X422541Y254219D01*
X421573Y254224D01*
Y255224D01*
X422585Y255232D01*
Y254217D01*
D02*
G37*
G36*
X424322Y254187D02*
X424819D01*
X424724Y254176D01*
X424639Y254146D01*
X424564Y254096D01*
X424499Y254025D01*
X424444Y253934D01*
X424399Y253822D01*
X424377Y253740D01*
X424399Y253658D01*
X424444Y253547D01*
X424499Y253456D01*
X424564Y253385D01*
X424639Y253334D01*
X424724Y253304D01*
X424819Y253294D01*
X424322D01*
X424319Y253175D01*
X423319D01*
X423316Y253294D01*
X422819D01*
X422914Y253304D01*
X422999Y253334D01*
X423074Y253385D01*
X423139Y253456D01*
X423194Y253547D01*
X423239Y253658D01*
X423261Y253740D01*
X423239Y253822D01*
X423194Y253934D01*
X423139Y254025D01*
X423074Y254096D01*
X422999Y254146D01*
X422914Y254176D01*
X422819Y254187D01*
X423316D01*
X423319Y254306D01*
X424319D01*
X424322Y254187D01*
D02*
G37*
G36*
X424802Y252218D02*
X424728Y252189D01*
X424669Y252140D01*
X424625Y252073D01*
X424597Y251986D01*
X424583Y251879D01*
X424585Y251754D01*
X424603Y251609D01*
X424636Y251445D01*
X424684Y251262D01*
X423599Y251239D01*
X423541Y251426D01*
X423478Y251592D01*
X423410Y251739D01*
X423339Y251867D01*
X423263Y251975D01*
X423183Y252063D01*
X423099Y252131D01*
X423011Y252180D01*
X422919Y252209D01*
X422822Y252218D01*
X424892Y252228D01*
X424802Y252218D01*
D02*
G37*
G36*
X408773Y251168D02*
X408788Y250996D01*
X408813Y250845D01*
X408848Y250713D01*
X408893Y250602D01*
X408948Y250511D01*
X409013Y250440D01*
X409088Y250389D01*
X409173Y250359D01*
X409268Y250349D01*
X407268D01*
X407363Y250359D01*
X407448Y250389D01*
X407523Y250440D01*
X407588Y250511D01*
X407643Y250602D01*
X407688Y250713D01*
X407723Y250845D01*
X407748Y250996D01*
X407763Y251168D01*
X407768Y251361D01*
X408768D01*
X408773Y251168D01*
D02*
G37*
G36*
X427021Y248019D02*
X427012Y248115D01*
X426983Y248208D01*
X426934Y248296D01*
X426866Y248380D01*
X426778Y248460D01*
X426670Y248536D01*
X426543Y248607D01*
X426395Y248675D01*
X426229Y248738D01*
X426042Y248796D01*
X426065Y249881D01*
X426249Y249833D01*
X426412Y249800D01*
X426557Y249782D01*
X426683Y249780D01*
X426789Y249794D01*
X426876Y249822D01*
X426943Y249866D01*
X426992Y249925D01*
X427021Y249999D01*
X427031Y250089D01*
X427021Y248019D01*
D02*
G37*
G36*
X428990Y249519D02*
X429109Y249516D01*
Y248516D01*
X428990Y248513D01*
Y248016D01*
X428980Y248111D01*
X428949Y248196D01*
X428899Y248271D01*
X428828Y248336D01*
X428737Y248391D01*
X428625Y248436D01*
X428543Y248458D01*
X428461Y248436D01*
X428350Y248391D01*
X428259Y248336D01*
X428188Y248271D01*
X428137Y248196D01*
X428107Y248111D01*
X428097Y248016D01*
Y248513D01*
X427978Y248516D01*
Y249516D01*
X428097Y249519D01*
Y250016D01*
X428107Y249921D01*
X428137Y249836D01*
X428188Y249761D01*
X428259Y249696D01*
X428350Y249641D01*
X428461Y249596D01*
X428543Y249574D01*
X428625Y249596D01*
X428737Y249641D01*
X428828Y249696D01*
X428899Y249761D01*
X428949Y249836D01*
X428980Y249921D01*
X428990Y250016D01*
Y249519D01*
D02*
G37*
G36*
X420188Y249327D02*
X420199Y249212D01*
X420216Y249102D01*
X420239Y248998D01*
X420270Y248900D01*
X420307Y248807D01*
X420352Y248721D01*
X420403Y248640D01*
X420460Y248564D01*
X420525Y248495D01*
X418845D01*
X418910Y248564D01*
X418967Y248640D01*
X419018Y248721D01*
X419063Y248807D01*
X419100Y248900D01*
X419131Y248998D01*
X419154Y249102D01*
X419171Y249212D01*
X419182Y249327D01*
X419185Y249449D01*
X420185D01*
X420188Y249327D01*
D02*
G37*
G36*
X409939Y249703D02*
X409969Y249618D01*
X410019Y249543D01*
X410089Y249478D01*
X410179Y249423D01*
X410289Y249378D01*
X410419Y249343D01*
X410569Y249318D01*
X410739Y249303D01*
X410929Y249298D01*
Y248298D01*
X410739Y248293D01*
X410569Y248278D01*
X410419Y248253D01*
X410289Y248218D01*
X410179Y248173D01*
X410089Y248118D01*
X410019Y248053D01*
X409969Y247978D01*
X409939Y247893D01*
X409929Y247798D01*
Y249798D01*
X409939Y249703D01*
D02*
G37*
G36*
X433971Y247769D02*
X433970Y247738D01*
X433965Y246770D01*
X432965D01*
X432957Y247782D01*
X433973D01*
X433971Y247769D01*
D02*
G37*
G36*
X432002D02*
X432001Y247738D01*
X431996Y246770D01*
X430996D01*
X430988Y247782D01*
X432004D01*
X432002Y247769D01*
D02*
G37*
G36*
X433970Y243560D02*
X433985Y243388D01*
X434010Y243236D01*
X434045Y243104D01*
X434090Y242993D01*
X434145Y242902D01*
X434210Y242831D01*
X434285Y242780D01*
X434370Y242750D01*
X434465Y242740D01*
X432465D01*
X432560Y242750D01*
X432645Y242780D01*
X432720Y242831D01*
X432785Y242902D01*
X432840Y242993D01*
X432885Y243104D01*
X432920Y243236D01*
X432945Y243388D01*
X432960Y243560D01*
X432965Y243752D01*
X433965D01*
X433970Y243560D01*
D02*
G37*
G36*
X428364Y243029D02*
X428452Y242984D01*
X428543Y242950D01*
X428635Y242929D01*
X428729Y242920D01*
X428825Y242923D01*
X428923Y242939D01*
X429023Y242967D01*
X429124Y243006D01*
X429228Y243059D01*
X429385Y242019D01*
X429263Y241962D01*
X428946Y241788D01*
X428857Y241729D01*
X428704Y241609D01*
X428639Y241549D01*
X428582Y241488D01*
X428534Y241426D01*
X428278Y243087D01*
X428364Y243029D01*
D02*
G37*
G36*
X418114Y235701D02*
X418057Y235625D01*
X418007Y235543D01*
X417964Y235456D01*
X417927Y235363D01*
X417897Y235264D01*
X417874Y235160D01*
X417857Y235050D01*
X417847Y234934D01*
X417844Y234813D01*
X416844Y234794D01*
X416840Y234915D01*
X416830Y235031D01*
X416813Y235140D01*
X416788Y235244D01*
X416757Y235342D01*
X416719Y235434D01*
X416674Y235520D01*
X416622Y235600D01*
X416564Y235674D01*
X416498Y235743D01*
X418178Y235772D01*
X418114Y235701D01*
D02*
G37*
G36*
X417849Y233967D02*
X417864Y233797D01*
X417889Y233647D01*
X417924Y233517D01*
X417969Y233407D01*
X418024Y233317D01*
X418089Y233247D01*
X418164Y233197D01*
X418249Y233167D01*
X418344Y233157D01*
X416344D01*
X416439Y233167D01*
X416524Y233197D01*
X416599Y233247D01*
X416664Y233317D01*
X416719Y233407D01*
X416764Y233517D01*
X416799Y233647D01*
X416824Y233797D01*
X416839Y233967D01*
X416844Y234157D01*
X417844D01*
X417849Y233967D01*
D02*
G37*
G36*
X415793Y230496D02*
X415783Y230591D01*
X415753Y230676D01*
X415702Y230751D01*
X415631Y230816D01*
X415540Y230871D01*
X415429Y230916D01*
X415297Y230951D01*
X415145Y230976D01*
X414973Y230991D01*
X414781Y230996D01*
Y231996D01*
X414973Y232001D01*
X415145Y232016D01*
X415297Y232041D01*
X415429Y232076D01*
X415540Y232121D01*
X415631Y232176D01*
X415702Y232241D01*
X415753Y232316D01*
X415783Y232401D01*
X415793Y232496D01*
Y230496D01*
D02*
G37*
G36*
X409927Y232401D02*
X409957Y232316D01*
X410008Y232241D01*
X410079Y232176D01*
X410170Y232121D01*
X410281Y232076D01*
X410413Y232041D01*
X410565Y232016D01*
X410737Y232001D01*
X410929Y231996D01*
Y230996D01*
X410737Y230991D01*
X410565Y230976D01*
X410413Y230951D01*
X410281Y230916D01*
X410170Y230871D01*
X410079Y230816D01*
X410008Y230751D01*
X409957Y230676D01*
X409927Y230591D01*
X409917Y230496D01*
Y232496D01*
X409927Y232401D01*
D02*
G37*
G36*
X497568Y205459D02*
X497499Y205524D01*
X497423Y205582D01*
X497342Y205633D01*
X497256Y205677D01*
X497163Y205714D01*
X497065Y205745D01*
X496961Y205769D01*
X496851Y205786D01*
X496736Y205796D01*
X496614Y205799D01*
Y206799D01*
X496736Y206803D01*
X496851Y206813D01*
X496961Y206830D01*
X497065Y206854D01*
X497163Y206884D01*
X497256Y206922D01*
X497342Y206966D01*
X497423Y207017D01*
X497499Y207075D01*
X497568Y207139D01*
Y205459D01*
D02*
G37*
G36*
X444332Y141948D02*
X444347Y141778D01*
X444372Y141628D01*
X444407Y141498D01*
X444452Y141388D01*
X444507Y141298D01*
X444572Y141228D01*
X444647Y141178D01*
X444732Y141148D01*
X444827Y141138D01*
X442827D01*
X442922Y141148D01*
X443007Y141178D01*
X443082Y141228D01*
X443147Y141298D01*
X443202Y141388D01*
X443247Y141498D01*
X443282Y141628D01*
X443307Y141778D01*
X443322Y141948D01*
X443327Y142138D01*
X444327D01*
X444332Y141948D01*
D02*
G37*
G36*
X507862Y221121D02*
X507804Y221045D01*
X507753Y220964D01*
X507709Y220878D01*
X507672Y220785D01*
X507641Y220687D01*
X507617Y220583D01*
X507600Y220473D01*
X507590Y220358D01*
X507587Y220236D01*
X506587D01*
X506583Y220358D01*
X506573Y220473D01*
X506556Y220583D01*
X506532Y220687D01*
X506502Y220785D01*
X506464Y220878D01*
X506420Y220964D01*
X506369Y221045D01*
X506311Y221121D01*
X506247Y221190D01*
X507927D01*
X507862Y221121D01*
D02*
G37*
G36*
X449253Y141948D02*
X449268Y141778D01*
X449293Y141628D01*
X449328Y141498D01*
X449373Y141388D01*
X449428Y141298D01*
X449493Y141228D01*
X449568Y141178D01*
X449653Y141148D01*
X449748Y141138D01*
X447748D01*
X447843Y141148D01*
X447928Y141178D01*
X448003Y141228D01*
X448068Y141298D01*
X448123Y141388D01*
X448168Y141498D01*
X448203Y141628D01*
X448228Y141778D01*
X448243Y141948D01*
X448248Y142138D01*
X449248D01*
X449253Y141948D01*
D02*
G37*
G36*
X409588Y211799D02*
X409663Y211741D01*
X409744Y211690D01*
X409831Y211646D01*
X409924Y211609D01*
X410022Y211578D01*
X410126Y211554D01*
X410236Y211537D01*
X410351Y211527D01*
X410472Y211524D01*
Y210524D01*
X410351Y210520D01*
X410236Y210510D01*
X410126Y210493D01*
X410022Y210469D01*
X409924Y210439D01*
X409831Y210401D01*
X409744Y210357D01*
X409663Y210306D01*
X409588Y210248D01*
X409518Y210184D01*
Y211864D01*
X409588Y211799D01*
D02*
G37*
G36*
X422651Y141743D02*
X422666Y141573D01*
X422691Y141423D01*
X422726Y141293D01*
X422771Y141183D01*
X422826Y141093D01*
X422891Y141023D01*
X422966Y140973D01*
X423051Y140943D01*
X423146Y140933D01*
X421146D01*
X421241Y140943D01*
X421326Y140973D01*
X421401Y141023D01*
X421466Y141093D01*
X421521Y141183D01*
X421566Y141293D01*
X421601Y141423D01*
X421626Y141573D01*
X421641Y141743D01*
X421646Y141933D01*
X422646D01*
X422651Y141743D01*
D02*
G37*
%LPC*%
G36*
X483904Y270022D02*
X480702D01*
Y263710D01*
X481204D01*
X481238Y263692D01*
X481263Y263689D01*
X481271Y263676D01*
X481292Y263623D01*
X481315Y263540D01*
X481334Y263427D01*
X481346Y263288D01*
X481349Y263177D01*
X481348Y263132D01*
X481340Y263044D01*
X481327Y262963D01*
X481311Y262891D01*
X481290Y262825D01*
X481267Y262767D01*
X481240Y262714D01*
X481210Y262667D01*
X481177Y262624D01*
X481126Y262569D01*
X481123Y262561D01*
X480776Y262042D01*
X480652Y261417D01*
X480776Y260793D01*
X481130Y260264D01*
X481659Y259910D01*
X482283Y259786D01*
X482908Y259910D01*
X483437Y260264D01*
X483791Y260793D01*
X483915Y261417D01*
X483791Y262042D01*
X483444Y262561D01*
X483441Y262569D01*
X483390Y262624D01*
X483357Y262667D01*
X483327Y262714D01*
X483300Y262767D01*
X483277Y262825D01*
X483256Y262891D01*
X483240Y262963D01*
X483227Y263044D01*
X483219Y263132D01*
X483218Y263177D01*
X483221Y263288D01*
X483233Y263427D01*
X483252Y263540D01*
X483275Y263623D01*
X483296Y263676D01*
X483304Y263689D01*
X483329Y263692D01*
X483363Y263710D01*
X483904D01*
Y270022D01*
D02*
G37*
%LPD*%
G36*
X483188Y264112D02*
X483104Y264082D01*
X483029Y264032D01*
X482964Y263962D01*
X482908Y263872D01*
X482864Y263762D01*
X482829Y263632D01*
X482803Y263482D01*
X482789Y263312D01*
X482785Y263177D01*
X482787Y263107D01*
X482797Y262991D01*
X482814Y262882D01*
X482838Y262778D01*
X482868Y262679D01*
X482906Y262587D01*
X482950Y262500D01*
X483001Y262419D01*
X483059Y262344D01*
X483123Y262274D01*
X481444D01*
X481508Y262344D01*
X481566Y262419D01*
X481617Y262500D01*
X481661Y262587D01*
X481699Y262679D01*
X481729Y262778D01*
X481753Y262882D01*
X481770Y262991D01*
X481780Y263107D01*
X481782Y263177D01*
X481778Y263312D01*
X481764Y263482D01*
X481739Y263632D01*
X481704Y263762D01*
X481659Y263872D01*
X481603Y263962D01*
X481538Y264032D01*
X481463Y264082D01*
X481379Y264112D01*
X481284Y264122D01*
X483284D01*
X483188Y264112D01*
D02*
G37*
D11*
X467717Y300394D02*
G03*
X467303Y299980I0J-413D01*
G01*
X489764Y216535D02*
G03*
X495669Y222441I0J5906D01*
G01*
X408268Y217323D02*
G03*
X411417Y214173I3150J0D01*
G01*
X492756D02*
G03*
X502756Y224173I0J10000D01*
G01*
X511417Y237795D02*
G03*
X502756Y229134I0J-8661D01*
G01*
X535039Y237795D02*
G03*
X540287Y243043I0J5248D01*
G01*
X421260Y254724D02*
G03*
X419685Y253150I0J-1575D01*
G01*
X423819Y252756D02*
G03*
X427559Y249016I3740J0D01*
G01*
X557480Y316428D02*
G03*
X557087Y316821I-394J0D01*
G01*
X446850Y271654D02*
G03*
X446063Y270866I0J-787D01*
G01*
X427559Y270079D02*
G03*
X425591Y272047I-1969J0D01*
G01*
X411024D02*
G03*
X408268Y269291I0J-2756D01*
G01*
X417323Y264567D02*
G03*
X421260Y260630I3937J0D01*
G01*
X408682Y231496D02*
G03*
X408268Y231082I0J-415D01*
G01*
X455118Y249714D02*
G03*
X455226Y249606I108J0D01*
G01*
X427559Y242126D02*
G03*
X431496Y246063I0J3937D01*
G01*
X478346Y218504D02*
G03*
X482303Y222461I0J3957D01*
G01*
X447244Y222441D02*
G03*
X451181Y218504I3937J0D01*
G01*
X447244Y253543D02*
G03*
X446063Y254724I-1181J0D01*
G01*
X455118Y253937D02*
G03*
X452362Y256693I-2756J0D01*
G01*
X459449Y276378D02*
G03*
X459034Y275963I0J-415D01*
G01*
X446457Y273622D02*
G03*
X448032Y275197I0J1575D01*
G01*
X435433Y273622D02*
G03*
X431496Y269685I0J-3937D01*
G01*
X422047Y256693D02*
G03*
X417717Y252362I0J-4331D01*
G01*
X414152Y248798D02*
G03*
X417717Y252362I0J3564D01*
G01*
X429134Y292412D02*
G03*
X429026Y292520I-108J0D01*
G01*
X429528Y277974D02*
G03*
X429425Y278239I-394J0D01*
G01*
X429134Y278367D02*
G03*
X429263Y278239I129J0D01*
G01*
X627953Y412598D02*
G03*
X622835Y417717I-5118J0D01*
G01*
X609350Y423327D02*
G03*
X614961Y417717I5610J0D01*
G01*
X617953Y246063D02*
G03*
X627953Y256063I0J10000D01*
G01*
X606457Y246063D02*
G03*
X596457Y236063I0J-10000D01*
G01*
X614567Y432579D02*
G03*
X614272Y432874I-295J0D01*
G01*
X627067Y225886D02*
G03*
X627165Y225984I0J98D01*
G01*
X608366Y230315D02*
G03*
X608858Y230807I0J492D01*
G01*
X596457Y207874D02*
G03*
X601083Y203248I4626J0D01*
G01*
X593701Y203445D02*
G03*
X598819Y198327I5118J0D01*
G01*
X599114Y225886D02*
G03*
X593701Y220472I0J-5413D01*
G01*
X576378Y432776D02*
G03*
X576279Y432874I-98J0D01*
G01*
X497087Y202362D02*
G03*
X507087Y212362I0J10000D01*
G01*
X458748Y202362D02*
G03*
X448748Y192362I0J-10000D01*
G01*
X581201Y432874D02*
G03*
X580709Y432382I0J-492D01*
G01*
X453543Y206299D02*
G03*
X443827Y196583I0J-9717D01*
G01*
X422047Y433169D02*
G03*
X421949Y433268I-98J0D01*
G01*
X422146Y201024D02*
G03*
X412146Y211024I-10000J0D01*
G01*
X416832Y409055D02*
G03*
X426870Y419093I0J10038D01*
G01*
X413937Y409055D02*
G03*
X403937Y399055I0J-10000D01*
G01*
X417224Y199705D02*
G03*
X409842Y207087I-7382J0D01*
G01*
X403937Y212992D02*
G03*
X409842Y207087I5906J0D01*
G01*
X414961Y216535D02*
X489764D01*
X513386Y213819D02*
X533071D01*
X433465Y264370D02*
Y268897D01*
X423228Y214173D02*
X492756Y214173D01*
X423228Y214173D02*
Y214173D01*
X411417D02*
X423228D01*
X408268Y217323D02*
Y224824D01*
X502756Y224173D02*
Y229134D01*
X511417Y237795D02*
X535039D01*
X412598Y258661D02*
X423819D01*
X513386Y213779D02*
Y213819D01*
X474803Y280772D02*
Y284625D01*
X552362Y306672D02*
X557087D01*
X443701Y310236D02*
X535039D01*
X423819Y252756D02*
Y254724D01*
X421260D02*
X423819D01*
X427559Y249016D02*
X429528D01*
X419685Y247638D02*
Y253150D01*
X540287Y243043D02*
Y258768D01*
X552362Y306672D02*
Y306693D01*
X557087Y307874D02*
Y316428D01*
X545669Y316575D02*
X545669D01*
Y302735D02*
Y316575D01*
X408268Y284625D02*
Y290158D01*
Y273622D02*
Y278367D01*
X445276Y260630D02*
X446063Y261417D01*
X439173Y258661D02*
X458268D01*
Y258661D01*
X439173Y260630D02*
X445276D01*
X446850Y271654D02*
X452777D01*
X446063Y270866D02*
X446456Y271259D01*
X427559Y264370D02*
Y270079D01*
X411024Y272047D02*
X425591D01*
X408268Y266908D02*
Y269291D01*
X427559Y264370D02*
X427559D01*
X408682Y231496D02*
X417344D01*
Y236614D01*
X417323D02*
X417344D01*
X421260Y260630D02*
X423819D01*
X455226Y249606D02*
X460236D01*
X455118Y249714D02*
Y253937D01*
X431496Y246063D02*
Y249016D01*
X433465D02*
X433465D01*
Y241189D02*
Y249016D01*
X451181Y218504D02*
X478346D01*
X447244Y222441D02*
Y243328D01*
X482303Y222461D02*
Y229071D01*
X447244Y249585D02*
Y253543D01*
X446063Y254724D02*
Y254724D01*
X439173Y254724D02*
X446063D01*
X439173Y256693D02*
X452362D01*
X482283Y261417D02*
Y266866D01*
X459034Y271654D02*
Y275963D01*
X459055Y276772D02*
X459449Y276378D01*
X458957Y276772D02*
X459055D01*
X482283Y266866D02*
X482303D01*
X435433Y264370D02*
X452254D01*
X435433Y273622D02*
X446457D01*
X431496Y264370D02*
Y269685D01*
X448032Y275197D02*
Y278367D01*
X422047Y256693D02*
X423819D01*
X408268Y248798D02*
X414152D01*
X408268D02*
Y260651D01*
X423819Y258661D02*
Y258661D01*
X429134Y284625D02*
Y292412D01*
X429425Y278239D02*
X438583D01*
X429263D02*
X429425D01*
X429528Y264370D02*
Y277974D01*
X614961Y417717D02*
X622835D01*
X609350Y423327D02*
Y432874D01*
X627953Y256063D02*
Y412598D01*
X606457Y246063D02*
X617953D01*
X596457Y230709D02*
Y236063D01*
X614567Y425984D02*
Y432579D01*
X608858Y225886D02*
X627067D01*
X627165Y225984D02*
X627953D01*
X599114Y225886D02*
X608858D01*
X596457Y230709D02*
X608366D01*
X601083Y203248D02*
X608858D01*
X598819Y198327D02*
X608858D01*
X593701Y203445D02*
Y220472D01*
X453543Y206299D02*
X498425D01*
X576378Y422441D02*
Y432776D01*
X458748Y202362D02*
X497087D01*
X448748Y137803D02*
Y192362D01*
X507087Y212362D02*
Y222047D01*
X581496Y422835D02*
Y431595D01*
X580709Y432382D02*
X581496Y431595D01*
X443827Y137803D02*
Y196583D01*
X422047Y424803D02*
Y433169D01*
X408661Y211024D02*
X412146D01*
X422146Y137598D02*
Y201024D01*
X417224Y137598D02*
Y199705D01*
X413937Y409055D02*
X416832D01*
X403937Y392913D02*
X403937Y212992D01*
X403937Y392913D02*
Y399055D01*
X426870Y419093D02*
Y433268D01*
D18*
X417224Y137598D02*
D03*
X422146D02*
D03*
X443827Y137803D02*
D03*
X448748D02*
D03*
X421949Y433268D02*
D03*
X426870D02*
D03*
X576279Y432874D02*
D03*
X581201D02*
D03*
X609350D02*
D03*
X614272D02*
D03*
D19*
X409941Y124409D02*
D03*
X429429D02*
D03*
X436543Y124614D02*
D03*
X456032D02*
D03*
X414665Y446457D02*
D03*
X434154D02*
D03*
X568996Y446063D02*
D03*
X588484D02*
D03*
X602067D02*
D03*
X621555D02*
D03*
D20*
X535039Y303110D02*
D03*
Y296102D02*
D03*
X543307Y213819D02*
D03*
Y220827D02*
D03*
X533071Y213819D02*
D03*
Y220827D02*
D03*
X545669Y316575D02*
D03*
Y323583D02*
D03*
D21*
X408268Y266908D02*
D03*
Y260651D02*
D03*
Y278367D02*
D03*
Y284625D02*
D03*
X545669Y295690D02*
D03*
Y301948D02*
D03*
X557087Y300415D02*
D03*
Y306672D02*
D03*
X408268Y224824D02*
D03*
Y231082D02*
D03*
X447244Y243328D02*
D03*
Y249585D02*
D03*
X408268Y248798D02*
D03*
Y242541D02*
D03*
X429134Y278367D02*
D03*
Y284625D02*
D03*
X448032D02*
D03*
Y278367D02*
D03*
X557087Y323079D02*
D03*
Y316821D02*
D03*
X455118Y243457D02*
D03*
Y249714D02*
D03*
X433465Y241189D02*
D03*
Y234932D02*
D03*
X438583Y284496D02*
D03*
Y278239D02*
D03*
D22*
X417344Y231496D02*
D03*
X423601D02*
D03*
X459034Y271654D02*
D03*
X452777D02*
D03*
X435284Y292520D02*
D03*
X429026D02*
D03*
X458512Y264173D02*
D03*
X452254D02*
D03*
D23*
X516634Y196850D02*
D03*
X541634D02*
D03*
D24*
X435433Y264370D02*
D03*
X433465D02*
D03*
X431496D02*
D03*
X429528D02*
D03*
X427559D02*
D03*
Y249016D02*
D03*
X429528D02*
D03*
X431496D02*
D03*
X433465D02*
D03*
X435433D02*
D03*
D25*
X423819Y260630D02*
D03*
Y258661D02*
D03*
Y256693D02*
D03*
Y254724D02*
D03*
Y252756D02*
D03*
X439173D02*
D03*
Y254724D02*
D03*
Y256693D02*
D03*
Y258661D02*
D03*
Y260630D02*
D03*
D26*
X431496Y256693D02*
D03*
D27*
X474803Y280772D02*
D03*
Y242976D02*
D03*
D28*
X467303Y289039D02*
D03*
X472303D02*
D03*
X477303D02*
D03*
X482303D02*
D03*
X482303Y266866D02*
D03*
X477303D02*
D03*
X472303D02*
D03*
X467303D02*
D03*
X467303Y251244D02*
D03*
X472303D02*
D03*
X477303D02*
D03*
X482303D02*
D03*
X482303Y229071D02*
D03*
X477303D02*
D03*
X472303D02*
D03*
X467303D02*
D03*
D29*
X622047Y238090D02*
D03*
Y218602D02*
D03*
Y210531D02*
D03*
Y191043D02*
D03*
D30*
X608858Y230807D02*
D03*
Y225886D02*
D03*
Y203248D02*
D03*
Y198327D02*
D03*
D31*
X495011Y258767D02*
D03*
X540287Y258768D02*
D03*
D32*
X573622Y300098D02*
D03*
Y325098D02*
D03*
D54*
X507923Y195276D02*
X515059D01*
X504331D02*
X507923D01*
X500394D02*
X504331D01*
X496850D02*
X500394D01*
X515059D02*
X516634Y196850D01*
D55*
X570866Y354331D02*
D03*
X460630D02*
D03*
D56*
X570866Y228740D02*
D03*
Y248425D02*
D03*
D57*
X571345Y205526D02*
D03*
Y191746D02*
D03*
D58*
X496063Y171653D02*
D03*
X476378D02*
D03*
X554724Y171653D02*
D03*
X535039D02*
D03*
X612205D02*
D03*
X592520D02*
D03*
X466535Y399213D02*
D03*
X486221D02*
D03*
X524409D02*
D03*
X544095D02*
D03*
D59*
X507874Y132283D02*
D03*
X464567D02*
D03*
X566535Y132283D02*
D03*
X523228D02*
D03*
X624016D02*
D03*
X580709D02*
D03*
X454724Y438583D02*
D03*
X498032D02*
D03*
X512598D02*
D03*
X555905D02*
D03*
D60*
X598819Y406693D02*
D03*
X618504D02*
D03*
X598819Y371260D02*
D03*
X618504D02*
D03*
X598819Y335827D02*
D03*
X618504D02*
D03*
X598819Y300394D02*
D03*
X618504D02*
D03*
X598819Y264961D02*
D03*
X618504D02*
D03*
D61*
X496850Y195276D02*
D03*
X500394D02*
D03*
X504331D02*
D03*
X477953Y300394D02*
D03*
X467717D02*
D03*
X471260D02*
D03*
X474409D02*
D03*
X495669Y222441D02*
D03*
X414961Y216535D02*
D03*
X412598Y258661D02*
D03*
X513386Y213779D02*
D03*
X433857Y268897D02*
D03*
X507923Y195276D02*
D03*
X535039Y310236D02*
D03*
X443701D02*
D03*
X552362Y306693D02*
D03*
X419685Y247638D02*
D03*
X446063Y261417D02*
D03*
X446456Y271259D02*
D03*
X408268Y273622D02*
D03*
Y290158D02*
D03*
X417323Y236614D02*
D03*
Y264567D02*
D03*
X427559Y242126D02*
D03*
X460236Y249606D02*
D03*
X458957Y276772D02*
D03*
X482283Y261417D02*
D03*
X614567Y425984D02*
D03*
X627953Y225984D02*
D03*
X596457Y230709D02*
D03*
Y207874D02*
D03*
X498425Y206299D02*
D03*
X576378Y422441D02*
D03*
X507087Y222047D02*
D03*
X581496Y422835D02*
D03*
X422047Y424803D02*
D03*
X408661Y211024D02*
D03*
M02*
