M48
;Layer_Color=9474304
;FILE_FORMAT=2:5
INCH,TZ
;TYPE=PLATED
T1F00S00C0.01200
T2F00S00C0.03543
T3F00S00C0.03937
T4F00S00C0.06693
T5F00S00C0.11811
%
T01
X627953Y225984
X596457Y230709
Y207874
X513386Y213779
X507087Y222047
X495669Y222441
X498425Y206299
X496850Y195276
X500394
X504331
X507923
X482283Y261417
X477953Y300394
X474409
X471260
X535039Y310236
X552362Y306693
X467717Y300394
X458957Y276772
X446456Y271259
X446063Y261417
X433857Y268897
X417323Y264567
X412598Y258661
X419685Y247638
X417323Y236614
X427559Y242126
X414961Y216535
X408661Y211024
X408268Y273622
Y290158
X443701Y310236
X460236Y249606
X422047Y424803
X576378Y422441
X581496Y422835
X614567Y425984
X525000Y330000
X483000Y323000
T02
X570866Y228740
Y248425
T03
X464567Y132283
X507874
X523228Y132283
X566535
X580709
X624016
X571345Y191746
Y205526
X454724Y438583
X498032
X512598
X555905
T04
X476378Y171653
X496063
X535039Y171653
X554724
X592520
X612205
X618504Y264961
X598819
Y300394
X618504
X466535Y399213
X486220
X524409
X544095
X598819Y406693
X618504
Y371260
X598819
Y335827
X618504
T05
X460630Y354331
X570866
M30
