G04*
G04 #@! TF.GenerationSoftware,Altium Limited,Altium Designer,20.0.2 (26)*
G04*
G04 Layer_Color=255*
%FSLAX25Y25*%
%MOIN*%
G70*
G01*
G75*
%ADD55C,0.19685*%
%ADD56O,0.08500X0.05500*%
%ADD57C,0.06299*%
%ADD58C,0.13780*%
%ADD59C,0.07874*%
%ADD60C,0.15748*%
D55*
X570866Y354331D02*
D03*
X460630D02*
D03*
D56*
X570866Y228740D02*
D03*
Y248425D02*
D03*
D57*
X571345Y205526D02*
D03*
Y191746D02*
D03*
D58*
X496063Y171653D02*
D03*
X476378D02*
D03*
X554724Y171653D02*
D03*
X535039D02*
D03*
X612205D02*
D03*
X592520D02*
D03*
X466535Y399213D02*
D03*
X486221D02*
D03*
X524409D02*
D03*
X544095D02*
D03*
D59*
X507874Y132283D02*
D03*
X464567D02*
D03*
X566535Y132283D02*
D03*
X523228D02*
D03*
X624016D02*
D03*
X580709D02*
D03*
X454724Y438583D02*
D03*
X498032D02*
D03*
X512598D02*
D03*
X555905D02*
D03*
D60*
X598819Y406693D02*
D03*
X618504D02*
D03*
X598819Y371260D02*
D03*
X618504D02*
D03*
X598819Y335827D02*
D03*
X618504D02*
D03*
X598819Y300394D02*
D03*
X618504D02*
D03*
X598819Y264961D02*
D03*
X618504D02*
D03*
M02*
