G04*
G04 #@! TF.GenerationSoftware,Altium Limited,Altium Designer,20.0.2 (26)*
G04*
G04 Layer_Physical_Order=2*
G04 Layer_Color=16711680*
%FSLAX25Y25*%
%MOIN*%
G70*
G01*
G75*
%ADD11C,0.01000*%
%ADD54C,0.07000*%
%ADD55C,0.19685*%
%ADD56O,0.08500X0.05500*%
%ADD57C,0.06299*%
%ADD58C,0.13780*%
%ADD59C,0.07874*%
%ADD60C,0.15748*%
%ADD61C,0.02400*%
G36*
X625738Y452529D02*
X626813Y452084D01*
X627780Y451438D01*
X628603Y450615D01*
X629249Y449648D01*
X629694Y448573D01*
X629921Y447432D01*
X629921Y446850D01*
X629921D01*
X629921Y446850D01*
Y227042D01*
X629824Y226963D01*
X629155Y227065D01*
X629113Y227128D01*
X629110Y227136D01*
X629059Y227191D01*
X629026Y227234D01*
X628996Y227281D01*
X628969Y227334D01*
X628946Y227392D01*
X628926Y227457D01*
X628909Y227530D01*
X628896Y227611D01*
X628889Y227699D01*
X628886Y227807D01*
X628870Y227841D01*
Y412992D01*
X628888D01*
X628749Y414403D01*
X628337Y415761D01*
X627668Y417011D01*
X626769Y418107D01*
X625673Y419007D01*
X624422Y419675D01*
X623065Y420087D01*
X621654Y420226D01*
Y420226D01*
X621155Y420206D01*
X619761Y420389D01*
X618364Y420968D01*
X617164Y421888D01*
X616243Y423088D01*
X615734Y424318D01*
X615738Y424344D01*
X615713Y424442D01*
X615700Y424516D01*
X615695Y424583D01*
X615695Y424643D01*
X615701Y424697D01*
X615712Y424746D01*
X615728Y424792D01*
X615749Y424836D01*
X615776Y424880D01*
X615824Y424942D01*
X615843Y425014D01*
X616074Y425360D01*
X616198Y425984D01*
X616074Y426609D01*
X615721Y427138D01*
X615191Y427491D01*
X614567Y427616D01*
X613943Y427491D01*
X613413Y427138D01*
X613060Y426609D01*
X612936Y425984D01*
X613060Y425360D01*
X613413Y424831D01*
X613499Y424774D01*
X613518Y424733D01*
X613569Y424687D01*
X613606Y424649D01*
X613643Y424602D01*
X613680Y424548D01*
X613717Y424485D01*
X613754Y424414D01*
X613787Y424339D01*
X613857Y424144D01*
X613888Y424034D01*
X613935Y423974D01*
X614211Y423065D01*
X614916Y421745D01*
X615865Y420589D01*
X617021Y419640D01*
X618340Y418935D01*
X619771Y418501D01*
X621260Y418355D01*
Y418355D01*
X621760Y418373D01*
X623050Y418204D01*
X624351Y417665D01*
X625469Y416807D01*
X626326Y415690D01*
X626865Y414389D01*
X627043Y413034D01*
X627035Y412992D01*
Y408795D01*
X626535Y408721D01*
X626185Y409875D01*
X625417Y411312D01*
X624383Y412572D01*
X623123Y413606D01*
X621686Y414374D01*
X620126Y414847D01*
X618504Y415007D01*
X616882Y414847D01*
X615322Y414374D01*
X613885Y413606D01*
X612625Y412572D01*
X611591Y411312D01*
X610823Y409875D01*
X610350Y408315D01*
X610190Y406693D01*
X610350Y405071D01*
X610823Y403511D01*
X611591Y402074D01*
X612625Y400814D01*
X613885Y399780D01*
X615322Y399012D01*
X616882Y398539D01*
X618504Y398379D01*
X620126Y398539D01*
X621686Y399012D01*
X623123Y399780D01*
X624383Y400814D01*
X625417Y402074D01*
X626185Y403511D01*
X626535Y404665D01*
X627035Y404591D01*
Y373362D01*
X626535Y373288D01*
X626185Y374442D01*
X625417Y375879D01*
X624383Y377139D01*
X623123Y378173D01*
X621686Y378941D01*
X620126Y379414D01*
X618504Y379574D01*
X616882Y379414D01*
X615322Y378941D01*
X613885Y378173D01*
X612625Y377139D01*
X611591Y375879D01*
X610823Y374442D01*
X610350Y372882D01*
X610190Y371260D01*
X610350Y369638D01*
X610823Y368078D01*
X611591Y366641D01*
X612625Y365381D01*
X613885Y364347D01*
X615322Y363579D01*
X616882Y363106D01*
X618504Y362946D01*
X620126Y363106D01*
X621686Y363579D01*
X623123Y364347D01*
X624383Y365381D01*
X625417Y366641D01*
X626185Y368078D01*
X626535Y369232D01*
X627035Y369158D01*
Y337929D01*
X626535Y337855D01*
X626185Y339008D01*
X625417Y340446D01*
X624383Y341706D01*
X623123Y342740D01*
X621686Y343508D01*
X620126Y343981D01*
X618504Y344141D01*
X616882Y343981D01*
X615322Y343508D01*
X613885Y342740D01*
X612625Y341706D01*
X611591Y340446D01*
X610823Y339008D01*
X610350Y337449D01*
X610190Y335827D01*
X610350Y334205D01*
X610823Y332645D01*
X611591Y331208D01*
X612625Y329948D01*
X613885Y328914D01*
X615322Y328146D01*
X616882Y327673D01*
X618504Y327513D01*
X620126Y327673D01*
X621686Y328146D01*
X623123Y328914D01*
X624383Y329948D01*
X625417Y331208D01*
X626185Y332645D01*
X626535Y333799D01*
X627035Y333725D01*
Y302496D01*
X626535Y302421D01*
X626185Y303575D01*
X625417Y305013D01*
X624383Y306273D01*
X623123Y307307D01*
X621686Y308075D01*
X620126Y308548D01*
X618504Y308708D01*
X616882Y308548D01*
X615322Y308075D01*
X613885Y307307D01*
X612625Y306273D01*
X611591Y305013D01*
X610823Y303575D01*
X610350Y302016D01*
X610190Y300394D01*
X610350Y298772D01*
X610823Y297212D01*
X611591Y295775D01*
X612625Y294515D01*
X613885Y293481D01*
X615322Y292712D01*
X616882Y292239D01*
X618504Y292080D01*
X620126Y292239D01*
X621686Y292712D01*
X623123Y293481D01*
X624383Y294515D01*
X625417Y295775D01*
X626185Y297212D01*
X626535Y298366D01*
X627035Y298292D01*
Y267063D01*
X626535Y266988D01*
X626185Y268142D01*
X625417Y269580D01*
X624383Y270840D01*
X623123Y271873D01*
X621686Y272642D01*
X620126Y273115D01*
X618504Y273275D01*
X616882Y273115D01*
X615322Y272642D01*
X613885Y271873D01*
X612625Y270840D01*
X611591Y269580D01*
X610823Y268142D01*
X610350Y266583D01*
X610190Y264961D01*
X610350Y263339D01*
X610823Y261779D01*
X611591Y260342D01*
X612625Y259082D01*
X613885Y258048D01*
X615322Y257279D01*
X616882Y256806D01*
X618504Y256647D01*
X620126Y256806D01*
X621686Y257279D01*
X623123Y258048D01*
X624383Y259082D01*
X625417Y260342D01*
X626185Y261779D01*
X626535Y262933D01*
X627035Y262859D01*
Y227841D01*
X627020Y227807D01*
X627017Y227699D01*
X627009Y227611D01*
X626997Y227530D01*
X626980Y227457D01*
X626960Y227392D01*
X626936Y227334D01*
X626909Y227281D01*
X626880Y227234D01*
X626846Y227191D01*
X626796Y227136D01*
X626793Y227128D01*
X626446Y226608D01*
X626321Y225984D01*
X626446Y225360D01*
X626799Y224831D01*
X627328Y224477D01*
X627953Y224353D01*
X628577Y224477D01*
X629106Y224831D01*
X629155Y224903D01*
X629824Y225005D01*
X629921Y224926D01*
Y124016D01*
Y123473D01*
X629709Y122408D01*
X629294Y121405D01*
X628691Y120502D01*
X627923Y119734D01*
X627020Y119131D01*
X626017Y118716D01*
X624952Y118504D01*
X624409D01*
X516890Y118100D01*
X516535Y118453D01*
X516535Y208152D01*
X517023Y208568D01*
X518137Y209873D01*
X519033Y211335D01*
X519690Y212920D01*
X520090Y214589D01*
X520225Y216299D01*
X520209D01*
Y359685D01*
X520201Y359723D01*
X520372Y361459D01*
X520890Y363165D01*
X521730Y364737D01*
X522861Y366115D01*
X524239Y367246D01*
X525811Y368087D01*
X527517Y368604D01*
X529253Y368775D01*
X529291Y368767D01*
X571496D01*
Y368751D01*
X573207Y368886D01*
X574875Y369286D01*
X576460Y369943D01*
X577923Y370840D01*
X579227Y371954D01*
X580342Y373258D01*
X581238Y374721D01*
X581895Y376306D01*
X582295Y377975D01*
X582430Y379685D01*
X582414D01*
Y420978D01*
X582429Y421012D01*
X582432Y421120D01*
X582440Y421208D01*
X582452Y421289D01*
X582469Y421361D01*
X582489Y421427D01*
X582513Y421485D01*
X582540Y421538D01*
X582569Y421585D01*
X582602Y421628D01*
X582653Y421683D01*
X582656Y421691D01*
X583003Y422210D01*
X583127Y422835D01*
X583003Y423459D01*
X582650Y423988D01*
X582120Y424342D01*
X581496Y424466D01*
X580872Y424342D01*
X580342Y423988D01*
X579989Y423459D01*
X579865Y422835D01*
X579989Y422210D01*
X580336Y421691D01*
X580339Y421683D01*
X580390Y421628D01*
X580423Y421585D01*
X580453Y421538D01*
X580479Y421485D01*
X580503Y421427D01*
X580523Y421361D01*
X580540Y421289D01*
X580552Y421208D01*
X580560Y421120D01*
X580563Y421012D01*
X580578Y420978D01*
Y379685D01*
X580586Y379647D01*
X580415Y377911D01*
X579898Y376205D01*
X579057Y374633D01*
X577926Y373255D01*
X576548Y372124D01*
X574976Y371284D01*
X573270Y370766D01*
X571534Y370595D01*
X571496Y370603D01*
X529291D01*
Y370619D01*
X527581Y370484D01*
X525913Y370084D01*
X524328Y369427D01*
X522865Y368531D01*
X521560Y367416D01*
X520446Y366112D01*
X519549Y364649D01*
X518893Y363064D01*
X518492Y361395D01*
X518358Y359685D01*
X518374D01*
Y216299D01*
X518381Y216261D01*
X518210Y214525D01*
X517693Y212819D01*
X517035Y211589D01*
X516535Y211714D01*
Y226466D01*
X516730Y226783D01*
X517353Y228288D01*
X517733Y229872D01*
X517861Y231496D01*
X517847D01*
Y364409D01*
X517839Y364448D01*
X518010Y366184D01*
X518528Y367889D01*
X519368Y369462D01*
X520499Y370840D01*
X521877Y371971D01*
X523449Y372811D01*
X525155Y373328D01*
X526891Y373499D01*
X526929Y373492D01*
X568504D01*
Y373467D01*
X570224Y373636D01*
X571878Y374138D01*
X573402Y374953D01*
X574738Y376049D01*
X575835Y377385D01*
X576649Y378909D01*
X577151Y380563D01*
X577320Y382283D01*
X577296D01*
Y420584D01*
X577311Y420618D01*
X577314Y420726D01*
X577322Y420815D01*
X577334Y420895D01*
X577351Y420968D01*
X577371Y421033D01*
X577395Y421092D01*
X577421Y421144D01*
X577451Y421192D01*
X577484Y421235D01*
X577535Y421289D01*
X577538Y421297D01*
X577885Y421817D01*
X578009Y422441D01*
X577885Y423065D01*
X577531Y423595D01*
X577002Y423948D01*
X576378Y424072D01*
X575754Y423948D01*
X575224Y423595D01*
X574871Y423065D01*
X574747Y422441D01*
X574871Y421817D01*
X575218Y421297D01*
X575221Y421289D01*
X575272Y421235D01*
X575305Y421192D01*
X575335Y421144D01*
X575361Y421092D01*
X575385Y421033D01*
X575405Y420968D01*
X575422Y420895D01*
X575434Y420815D01*
X575442Y420726D01*
X575445Y420618D01*
X575460Y420584D01*
Y382283D01*
X575461Y382280D01*
X575328Y380926D01*
X574932Y379621D01*
X574289Y378418D01*
X573424Y377364D01*
X572369Y376499D01*
X571167Y375856D01*
X569861Y375460D01*
X568508Y375326D01*
X568504Y375327D01*
X526929D01*
Y375343D01*
X525219Y375208D01*
X523550Y374808D01*
X521965Y374151D01*
X520503Y373255D01*
X519198Y372141D01*
X518084Y370836D01*
X517187Y369373D01*
X517026Y368984D01*
X516535Y369081D01*
Y383465D01*
X564567Y383465D01*
X564567Y452756D01*
X624016Y452756D01*
X624597Y452756D01*
X625738Y452529D01*
D02*
G37*
G36*
X615419Y425126D02*
X615368Y425043D01*
X615326Y424955D01*
X615295Y424864D01*
X615274Y424769D01*
X615263Y424670D01*
X615262Y424568D01*
X615270Y424462D01*
X615289Y424352D01*
X615318Y424238D01*
X614304Y424153D01*
X614269Y424275D01*
X614189Y424500D01*
X614145Y424601D01*
X614096Y424695D01*
X614045Y424781D01*
X613991Y424861D01*
X613933Y424933D01*
X613872Y424998D01*
X613807Y425055D01*
X615480Y425206D01*
X615419Y425126D01*
D02*
G37*
G36*
X582271Y421908D02*
X582214Y421833D01*
X582163Y421752D01*
X582119Y421665D01*
X582081Y421573D01*
X582051Y421474D01*
X582027Y421370D01*
X582010Y421260D01*
X581999Y421145D01*
X581996Y421024D01*
X580996D01*
X580993Y421145D01*
X580982Y421260D01*
X580966Y421370D01*
X580942Y421474D01*
X580911Y421573D01*
X580874Y421665D01*
X580829Y421752D01*
X580779Y421833D01*
X580721Y421908D01*
X580656Y421978D01*
X582336D01*
X582271Y421908D01*
D02*
G37*
G36*
X577153Y421514D02*
X577096Y421439D01*
X577044Y421358D01*
X577000Y421271D01*
X576963Y421179D01*
X576932Y421081D01*
X576909Y420977D01*
X576892Y420867D01*
X576881Y420751D01*
X576878Y420630D01*
X575878D01*
X575875Y420751D01*
X575864Y420867D01*
X575847Y420977D01*
X575823Y421081D01*
X575793Y421179D01*
X575756Y421271D01*
X575711Y421358D01*
X575660Y421439D01*
X575602Y421514D01*
X575538Y421584D01*
X577218D01*
X577153Y421514D01*
D02*
G37*
G36*
X628456Y227674D02*
X628466Y227558D01*
X628483Y227449D01*
X628507Y227345D01*
X628538Y227246D01*
X628575Y227154D01*
X628619Y227067D01*
X628670Y226986D01*
X628728Y226911D01*
X628793Y226841D01*
X627113D01*
X627177Y226911D01*
X627235Y226986D01*
X627286Y227067D01*
X627330Y227154D01*
X627368Y227246D01*
X627398Y227345D01*
X627422Y227449D01*
X627439Y227558D01*
X627449Y227674D01*
X627453Y227795D01*
X628453D01*
X628456Y227674D01*
D02*
G37*
G36*
X562205Y386614D02*
X513779D01*
X513779Y225775D01*
X513519Y225457D01*
X512225Y224395D01*
X510748Y223606D01*
X509146Y223120D01*
X508642Y223071D01*
X508574Y223073D01*
X508509Y223080D01*
X508452Y223093D01*
X508399Y223109D01*
X508351Y223130D01*
X508306Y223156D01*
X508262Y223186D01*
X508204Y223237D01*
X508166Y223250D01*
X507711Y223554D01*
X507087Y223679D01*
X506462Y223554D01*
X505933Y223201D01*
X505579Y222672D01*
X505455Y222047D01*
X505579Y221423D01*
X505933Y220894D01*
X506462Y220540D01*
X507087Y220416D01*
X507711Y220540D01*
X508240Y220894D01*
X508256Y220918D01*
X508272Y220924D01*
X508322Y220973D01*
X508363Y221008D01*
X508411Y221041D01*
X508466Y221073D01*
X508529Y221104D01*
X508600Y221132D01*
X508673Y221157D01*
X508868Y221204D01*
X508976Y221223D01*
X508995Y221234D01*
X509104Y221243D01*
X510688Y221623D01*
X512193Y222247D01*
X513279Y222912D01*
X513779Y222632D01*
Y215727D01*
X513393Y215409D01*
X513386Y215411D01*
X512761Y215287D01*
X512242Y214940D01*
X512234Y214937D01*
X512180Y214886D01*
X512136Y214853D01*
X512089Y214823D01*
X512037Y214796D01*
X511978Y214773D01*
X511913Y214752D01*
X511840Y214736D01*
X511759Y214723D01*
X511671Y214715D01*
X511563Y214712D01*
X511529Y214697D01*
X500000D01*
Y214700D01*
X499118Y214817D01*
X498295Y215157D01*
X497589Y215699D01*
X497047Y216405D01*
X496706Y217228D01*
X496590Y218110D01*
X496587D01*
Y220584D01*
X496602Y220618D01*
X496605Y220726D01*
X496613Y220814D01*
X496625Y220895D01*
X496642Y220968D01*
X496662Y221033D01*
X496686Y221092D01*
X496713Y221144D01*
X496743Y221192D01*
X496776Y221235D01*
X496827Y221289D01*
X496830Y221297D01*
X497177Y221817D01*
X497301Y222441D01*
X497177Y223065D01*
X496823Y223594D01*
X496294Y223948D01*
X495669Y224072D01*
X495045Y223948D01*
X494516Y223594D01*
X494162Y223065D01*
X494038Y222441D01*
X494162Y221817D01*
X494509Y221297D01*
X494512Y221289D01*
X494563Y221235D01*
X494596Y221192D01*
X494626Y221144D01*
X494653Y221092D01*
X494676Y221033D01*
X494697Y220968D01*
X494713Y220895D01*
X494726Y220814D01*
X494733Y220726D01*
X494736Y220618D01*
X494752Y220584D01*
Y218110D01*
X494724D01*
X494904Y216745D01*
X495431Y215472D01*
X496269Y214380D01*
X497362Y213541D01*
X498634Y213014D01*
X500000Y212834D01*
Y212862D01*
X511529D01*
X511563Y212847D01*
X511671Y212844D01*
X511759Y212836D01*
X511840Y212823D01*
X511913Y212807D01*
X511978Y212787D01*
X512037Y212763D01*
X512089Y212736D01*
X512136Y212706D01*
X512179Y212673D01*
X512234Y212622D01*
X512242Y212619D01*
X512761Y212272D01*
X513386Y212148D01*
X513393Y212150D01*
X513779Y211832D01*
Y208436D01*
X512771Y207898D01*
X511065Y207380D01*
X509330Y207209D01*
X509291Y207217D01*
X500282D01*
X500248Y207232D01*
X500140Y207235D01*
X500052Y207243D01*
X499971Y207255D01*
X499898Y207272D01*
X499833Y207292D01*
X499775Y207316D01*
X499722Y207343D01*
X499675Y207372D01*
X499632Y207406D01*
X499577Y207456D01*
X499569Y207459D01*
X499050Y207806D01*
X498425Y207931D01*
X497801Y207806D01*
X497272Y207453D01*
X496918Y206924D01*
X496794Y206299D01*
X496918Y205675D01*
X497272Y205146D01*
X497801Y204792D01*
X498425Y204668D01*
X499050Y204792D01*
X499569Y205139D01*
X499577Y205142D01*
X499632Y205193D01*
X499675Y205226D01*
X499722Y205256D01*
X499775Y205282D01*
X499833Y205306D01*
X499898Y205327D01*
X499971Y205343D01*
X500052Y205356D01*
X500140Y205363D01*
X500248Y205366D01*
X500282Y205382D01*
X509291D01*
Y205365D01*
X511002Y205500D01*
X512670Y205901D01*
X513364Y206188D01*
X513779Y205910D01*
Y196090D01*
X513279Y196058D01*
X513248Y196294D01*
X512855Y197242D01*
X512230Y198057D01*
X511416Y198682D01*
X510467Y199075D01*
X509449Y199209D01*
X498976D01*
X498920Y199202D01*
X497790Y199313D01*
X496650Y199659D01*
X495599Y200221D01*
X494678Y200977D01*
X493922Y201898D01*
X493360Y202949D01*
X493014Y204090D01*
X492903Y205220D01*
X492910Y205276D01*
Y290394D01*
X492919D01*
X492748Y292575D01*
X492237Y294702D01*
X491400Y296724D01*
X490257Y298589D01*
X488836Y300253D01*
X487172Y301674D01*
X485306Y302817D01*
X483285Y303654D01*
X481157Y304165D01*
X478976Y304337D01*
Y304327D01*
X467717D01*
X466698Y304193D01*
X465750Y303800D01*
X464935Y303175D01*
X464310Y302361D01*
X463917Y301412D01*
X463783Y300394D01*
X463917Y299376D01*
X464310Y298427D01*
X464935Y297612D01*
X465750Y296987D01*
X466698Y296594D01*
X467717Y296460D01*
X478976D01*
X479033Y296467D01*
X480162Y296356D01*
X481303Y296010D01*
X482354Y295448D01*
X483275Y294692D01*
X484031Y293771D01*
X484593Y292720D01*
X484939Y291580D01*
X485050Y290450D01*
X485043Y290394D01*
Y205276D01*
X485033D01*
X485205Y203094D01*
X485716Y200967D01*
X486553Y198946D01*
X487696Y197080D01*
X489117Y195416D01*
X490781Y193995D01*
X492646Y192852D01*
X494668Y192015D01*
X496795Y191504D01*
X498976Y191333D01*
Y191342D01*
X509449D01*
X510467Y191476D01*
X511416Y191869D01*
X512230Y192494D01*
X512855Y193309D01*
X513248Y194257D01*
X513279Y194494D01*
X513779Y194461D01*
X513779Y118110D01*
X407874Y118110D01*
X407254D01*
X406037Y118352D01*
X404890Y118827D01*
X403859Y119517D01*
X402981Y120394D01*
X402292Y121426D01*
X401817Y122572D01*
X401575Y123789D01*
Y124409D01*
Y447244D01*
Y447748D01*
X401771Y448737D01*
X402157Y449668D01*
X402717Y450507D01*
X403430Y451220D01*
X404269Y451780D01*
X405200Y452166D01*
X406189Y452362D01*
X562205D01*
Y386614D01*
D02*
G37*
G36*
X507994Y222846D02*
X508074Y222790D01*
X508158Y222742D01*
X508247Y222703D01*
X508340Y222674D01*
X508439Y222653D01*
X508542Y222640D01*
X508650Y222637D01*
X508763Y222643D01*
X508880Y222657D01*
X508904Y221650D01*
X508781Y221629D01*
X508553Y221573D01*
X508449Y221539D01*
X508352Y221499D01*
X508262Y221455D01*
X508178Y221407D01*
X508101Y221353D01*
X508031Y221295D01*
X507967Y221232D01*
X507919Y222912D01*
X507994Y222846D01*
D02*
G37*
G36*
X496445Y221514D02*
X496387Y221439D01*
X496336Y221358D01*
X496292Y221271D01*
X496254Y221179D01*
X496224Y221081D01*
X496200Y220977D01*
X496183Y220867D01*
X496173Y220751D01*
X496169Y220630D01*
X495169D01*
X495166Y220751D01*
X495156Y220867D01*
X495139Y220977D01*
X495115Y221081D01*
X495084Y221179D01*
X495047Y221271D01*
X495003Y221358D01*
X494952Y221439D01*
X494894Y221514D01*
X494829Y221584D01*
X496509D01*
X496445Y221514D01*
D02*
G37*
G36*
X512529Y212940D02*
X512459Y213004D01*
X512384Y213062D01*
X512303Y213113D01*
X512216Y213157D01*
X512124Y213194D01*
X512025Y213225D01*
X511922Y213249D01*
X511812Y213266D01*
X511696Y213276D01*
X511575Y213280D01*
Y214280D01*
X511696Y214283D01*
X511812Y214293D01*
X511922Y214310D01*
X512025Y214334D01*
X512124Y214365D01*
X512216Y214402D01*
X512303Y214446D01*
X512384Y214497D01*
X512459Y214555D01*
X512529Y214619D01*
Y212940D01*
D02*
G37*
G36*
X499352Y207075D02*
X499427Y207017D01*
X499508Y206966D01*
X499595Y206922D01*
X499687Y206884D01*
X499786Y206854D01*
X499890Y206830D01*
X499999Y206813D01*
X500115Y206803D01*
X500236Y206799D01*
Y205799D01*
X500115Y205796D01*
X499999Y205786D01*
X499890Y205769D01*
X499786Y205745D01*
X499687Y205714D01*
X499595Y205677D01*
X499508Y205633D01*
X499427Y205582D01*
X499352Y205524D01*
X499282Y205459D01*
Y207139D01*
X499352Y207075D01*
D02*
G37*
%LPC*%
G36*
X570866Y364623D02*
X568858Y364425D01*
X566927Y363839D01*
X565148Y362888D01*
X563588Y361608D01*
X562309Y360049D01*
X561357Y358269D01*
X560772Y356339D01*
X560574Y354331D01*
X560772Y352323D01*
X561357Y350392D01*
X562309Y348613D01*
X563588Y347053D01*
X565148Y345773D01*
X566927Y344822D01*
X568858Y344236D01*
X570866Y344039D01*
X572874Y344236D01*
X574805Y344822D01*
X576584Y345773D01*
X578144Y347053D01*
X579424Y348613D01*
X580375Y350392D01*
X580961Y352323D01*
X581158Y354331D01*
X580961Y356339D01*
X580375Y358269D01*
X579424Y360049D01*
X578144Y361608D01*
X576584Y362888D01*
X574805Y363839D01*
X572874Y364425D01*
X570866Y364623D01*
D02*
G37*
G36*
X535039Y311868D02*
X534415Y311743D01*
X533886Y311390D01*
X533532Y310860D01*
X533408Y310236D01*
X533532Y309612D01*
X533886Y309083D01*
X534415Y308729D01*
X535039Y308605D01*
X535664Y308729D01*
X536183Y309076D01*
X536191Y309079D01*
X536246Y309130D01*
X536289Y309163D01*
X536336Y309193D01*
X536389Y309220D01*
X536447Y309243D01*
X536513Y309263D01*
X536585Y309280D01*
X536666Y309293D01*
X536754Y309300D01*
X536862Y309303D01*
X536896Y309319D01*
X548819D01*
Y309309D01*
X549496Y309220D01*
X550127Y308958D01*
X550668Y308542D01*
X551045Y308052D01*
X551054Y308036D01*
X551082Y307977D01*
X551099Y307926D01*
X551108Y307882D01*
X551111Y307845D01*
X551109Y307810D01*
X551102Y307776D01*
X551089Y307739D01*
X551068Y307696D01*
X551025Y307630D01*
X551011Y307550D01*
X550855Y307317D01*
X550731Y306693D01*
X550855Y306069D01*
X551209Y305539D01*
X551738Y305186D01*
X552362Y305062D01*
X552986Y305186D01*
X553516Y305539D01*
X553869Y306069D01*
X553994Y306693D01*
X553869Y307317D01*
X553516Y307846D01*
X553344Y307961D01*
X553307Y308025D01*
X553261Y308060D01*
X553224Y308092D01*
X553187Y308130D01*
X553086Y308254D01*
X553043Y308316D01*
X552870Y308604D01*
X552813Y308714D01*
X552779Y308742D01*
X552700Y308934D01*
X551988Y309862D01*
X551060Y310574D01*
X549979Y311022D01*
X548819Y311175D01*
Y311154D01*
X536896D01*
X536862Y311169D01*
X536754Y311172D01*
X536666Y311180D01*
X536585Y311192D01*
X536513Y311209D01*
X536447Y311229D01*
X536389Y311253D01*
X536336Y311280D01*
X536289Y311310D01*
X536246Y311343D01*
X536191Y311393D01*
X536183Y311396D01*
X535664Y311743D01*
X535039Y311868D01*
D02*
G37*
G36*
X598819Y273275D02*
X597197Y273115D01*
X595637Y272642D01*
X594200Y271873D01*
X592940Y270840D01*
X591906Y269580D01*
X591138Y268142D01*
X590665Y266583D01*
X590505Y264961D01*
X590665Y263339D01*
X591138Y261779D01*
X591906Y260342D01*
X592940Y259082D01*
X594200Y258048D01*
X595637Y257279D01*
X597197Y256806D01*
X598819Y256647D01*
X600441Y256806D01*
X602001Y257279D01*
X603438Y258048D01*
X604698Y259082D01*
X605732Y260342D01*
X606500Y261779D01*
X606973Y263339D01*
X607133Y264961D01*
X606973Y266583D01*
X606500Y268142D01*
X605732Y269580D01*
X604698Y270840D01*
X603438Y271873D01*
X602001Y272642D01*
X600441Y273115D01*
X598819Y273275D01*
D02*
G37*
G36*
X572366Y251602D02*
X569366D01*
X568544Y251494D01*
X567777Y251177D01*
X567120Y250672D01*
X566615Y250014D01*
X566297Y249248D01*
X566189Y248425D01*
X566297Y247603D01*
X566615Y246837D01*
X567120Y246179D01*
X567777Y245674D01*
X568544Y245356D01*
X569366Y245248D01*
X572366D01*
X573188Y245356D01*
X573955Y245674D01*
X574613Y246179D01*
X575118Y246837D01*
X575435Y247603D01*
X575543Y248425D01*
X575435Y249248D01*
X575118Y250014D01*
X574613Y250672D01*
X573955Y251177D01*
X573188Y251494D01*
X572366Y251602D01*
D02*
G37*
G36*
Y231917D02*
X569366D01*
X568544Y231809D01*
X567777Y231492D01*
X567120Y230987D01*
X566615Y230329D01*
X566297Y229562D01*
X566189Y228740D01*
X566297Y227918D01*
X566615Y227152D01*
X567120Y226494D01*
X567777Y225989D01*
X568544Y225671D01*
X569366Y225563D01*
X572366D01*
X573188Y225671D01*
X573955Y225989D01*
X574613Y226494D01*
X575118Y227152D01*
X575435Y227918D01*
X575543Y228740D01*
X575435Y229562D01*
X575118Y230329D01*
X574613Y230987D01*
X573955Y231492D01*
X573188Y231809D01*
X572366Y231917D01*
D02*
G37*
G36*
X596457Y232340D02*
X595832Y232216D01*
X595303Y231862D01*
X594949Y231333D01*
X594825Y230709D01*
X594949Y230084D01*
X595296Y229565D01*
X595299Y229557D01*
X595350Y229502D01*
X595383Y229459D01*
X595413Y229412D01*
X595440Y229359D01*
X595464Y229301D01*
X595484Y229236D01*
X595501Y229163D01*
X595513Y229082D01*
X595521Y228994D01*
X595524Y228886D01*
X595539Y228852D01*
Y209731D01*
X595524Y209697D01*
X595521Y209589D01*
X595513Y209500D01*
X595501Y209420D01*
X595484Y209347D01*
X595464Y209282D01*
X595440Y209223D01*
X595413Y209171D01*
X595383Y209123D01*
X595350Y209080D01*
X595299Y209026D01*
X595296Y209018D01*
X594949Y208498D01*
X594825Y207874D01*
X594949Y207250D01*
X595303Y206720D01*
X595832Y206367D01*
X596457Y206243D01*
X597081Y206367D01*
X597610Y206720D01*
X597964Y207250D01*
X598088Y207874D01*
X597964Y208498D01*
X597617Y209018D01*
X597614Y209026D01*
X597563Y209080D01*
X597530Y209123D01*
X597500Y209171D01*
X597473Y209223D01*
X597450Y209282D01*
X597429Y209347D01*
X597413Y209420D01*
X597400Y209500D01*
X597393Y209589D01*
X597390Y209697D01*
X597374Y209731D01*
Y228852D01*
X597390Y228886D01*
X597393Y228994D01*
X597400Y229082D01*
X597413Y229163D01*
X597429Y229236D01*
X597450Y229301D01*
X597473Y229359D01*
X597500Y229412D01*
X597530Y229459D01*
X597563Y229502D01*
X597614Y229557D01*
X597617Y229565D01*
X597964Y230084D01*
X598088Y230709D01*
X597964Y231333D01*
X597610Y231862D01*
X597081Y232216D01*
X596457Y232340D01*
D02*
G37*
G36*
X571345Y209106D02*
X570419Y208984D01*
X569555Y208627D01*
X568814Y208058D01*
X568245Y207316D01*
X567887Y206453D01*
X567765Y205526D01*
X567887Y204600D01*
X568245Y203736D01*
X568814Y202995D01*
X569555Y202426D01*
X570419Y202068D01*
X571345Y201946D01*
X572272Y202068D01*
X573135Y202426D01*
X573877Y202995D01*
X574446Y203736D01*
X574803Y204600D01*
X574925Y205526D01*
X574803Y206453D01*
X574446Y207316D01*
X573877Y208058D01*
X573135Y208627D01*
X572272Y208984D01*
X571345Y209106D01*
D02*
G37*
G36*
Y195326D02*
X570419Y195204D01*
X569555Y194847D01*
X568814Y194278D01*
X568245Y193536D01*
X567887Y192673D01*
X567765Y191746D01*
X567887Y190820D01*
X568245Y189956D01*
X568814Y189215D01*
X569555Y188646D01*
X570419Y188288D01*
X571345Y188166D01*
X572272Y188288D01*
X573135Y188646D01*
X573877Y189215D01*
X574446Y189956D01*
X574803Y190820D01*
X574925Y191746D01*
X574803Y192673D01*
X574446Y193536D01*
X573877Y194278D01*
X573135Y194847D01*
X572272Y195204D01*
X571345Y195326D01*
D02*
G37*
G36*
X612205Y178979D02*
X610776Y178838D01*
X609402Y178421D01*
X608135Y177744D01*
X607025Y176833D01*
X606114Y175723D01*
X605437Y174457D01*
X605020Y173083D01*
X604880Y171653D01*
X605020Y170224D01*
X605437Y168850D01*
X606114Y167584D01*
X607025Y166474D01*
X608135Y165563D01*
X609402Y164886D01*
X610776Y164469D01*
X612205Y164329D01*
X613634Y164469D01*
X615008Y164886D01*
X616274Y165563D01*
X617384Y166474D01*
X618295Y167584D01*
X618972Y168850D01*
X619389Y170224D01*
X619530Y171653D01*
X619389Y173083D01*
X618972Y174457D01*
X618295Y175723D01*
X617384Y176833D01*
X616274Y177744D01*
X615008Y178421D01*
X613634Y178838D01*
X612205Y178979D01*
D02*
G37*
G36*
X592520D02*
X591091Y178838D01*
X589716Y178421D01*
X588450Y177744D01*
X587340Y176833D01*
X586429Y175723D01*
X585752Y174457D01*
X585335Y173083D01*
X585195Y171653D01*
X585335Y170224D01*
X585752Y168850D01*
X586429Y167584D01*
X587340Y166474D01*
X588450Y165563D01*
X589716Y164886D01*
X591091Y164469D01*
X592520Y164329D01*
X593949Y164469D01*
X595323Y164886D01*
X596589Y165563D01*
X597699Y166474D01*
X598610Y167584D01*
X599287Y168850D01*
X599704Y170224D01*
X599845Y171653D01*
X599704Y173083D01*
X599287Y174457D01*
X598610Y175723D01*
X597699Y176833D01*
X596589Y177744D01*
X595323Y178421D01*
X593949Y178838D01*
X592520Y178979D01*
D02*
G37*
G36*
X554724D02*
X553295Y178838D01*
X551921Y178421D01*
X550655Y177744D01*
X549545Y176833D01*
X548634Y175723D01*
X547957Y174457D01*
X547540Y173083D01*
X547399Y171653D01*
X547540Y170224D01*
X547957Y168850D01*
X548634Y167584D01*
X549545Y166474D01*
X550655Y165563D01*
X551921Y164886D01*
X553295Y164469D01*
X554724Y164329D01*
X556153Y164469D01*
X557528Y164886D01*
X558794Y165563D01*
X559904Y166474D01*
X560815Y167584D01*
X561492Y168850D01*
X561909Y170224D01*
X562049Y171653D01*
X561909Y173083D01*
X561492Y174457D01*
X560815Y175723D01*
X559904Y176833D01*
X558794Y177744D01*
X557528Y178421D01*
X556153Y178838D01*
X554724Y178979D01*
D02*
G37*
G36*
X624016Y136658D02*
X622884Y136509D01*
X621829Y136072D01*
X620923Y135377D01*
X620227Y134471D01*
X619790Y133416D01*
X619641Y132283D01*
X619790Y131151D01*
X620227Y130096D01*
X620923Y129190D01*
X621829Y128495D01*
X622884Y128058D01*
X624016Y127909D01*
X625148Y128058D01*
X626203Y128495D01*
X627109Y129190D01*
X627804Y130096D01*
X628241Y131151D01*
X628390Y132283D01*
X628241Y133416D01*
X627804Y134471D01*
X627109Y135377D01*
X626203Y136072D01*
X625148Y136509D01*
X624016Y136658D01*
D02*
G37*
G36*
X580709D02*
X579576Y136509D01*
X578521Y136072D01*
X577615Y135377D01*
X576920Y134471D01*
X576483Y133416D01*
X576334Y132283D01*
X576483Y131151D01*
X576920Y130096D01*
X577615Y129190D01*
X578521Y128495D01*
X579576Y128058D01*
X580709Y127909D01*
X581841Y128058D01*
X582896Y128495D01*
X583802Y129190D01*
X584497Y130096D01*
X584934Y131151D01*
X585083Y132283D01*
X584934Y133416D01*
X584497Y134471D01*
X583802Y135377D01*
X582896Y136072D01*
X581841Y136509D01*
X580709Y136658D01*
D02*
G37*
G36*
X566535D02*
X565403Y136509D01*
X564348Y136072D01*
X563442Y135377D01*
X562747Y134471D01*
X562310Y133416D01*
X562161Y132283D01*
X562310Y131151D01*
X562747Y130096D01*
X563442Y129190D01*
X564348Y128495D01*
X565403Y128058D01*
X566535Y127909D01*
X567668Y128058D01*
X568723Y128495D01*
X569629Y129190D01*
X570324Y130096D01*
X570761Y131151D01*
X570910Y132283D01*
X570761Y133416D01*
X570324Y134471D01*
X569629Y135377D01*
X568723Y136072D01*
X567668Y136509D01*
X566535Y136658D01*
D02*
G37*
G36*
X523228D02*
X522096Y136509D01*
X521041Y136072D01*
X520135Y135377D01*
X519440Y134471D01*
X519003Y133416D01*
X518854Y132283D01*
X519003Y131151D01*
X519440Y130096D01*
X520135Y129190D01*
X521041Y128495D01*
X522096Y128058D01*
X523228Y127909D01*
X524361Y128058D01*
X525416Y128495D01*
X526322Y129190D01*
X527017Y130096D01*
X527454Y131151D01*
X527603Y132283D01*
X527454Y133416D01*
X527017Y134471D01*
X526322Y135377D01*
X525416Y136072D01*
X524361Y136509D01*
X523228Y136658D01*
D02*
G37*
%LPD*%
G36*
X535966Y311012D02*
X536041Y310954D01*
X536122Y310903D01*
X536209Y310859D01*
X536302Y310821D01*
X536400Y310791D01*
X536504Y310767D01*
X536614Y310750D01*
X536729Y310740D01*
X536850Y310736D01*
Y309736D01*
X536729Y309733D01*
X536614Y309723D01*
X536504Y309706D01*
X536400Y309682D01*
X536302Y309651D01*
X536209Y309614D01*
X536122Y309570D01*
X536041Y309519D01*
X535966Y309461D01*
X535896Y309396D01*
Y311076D01*
X535966Y311012D01*
D02*
G37*
G36*
X552492Y308393D02*
X552679Y308080D01*
X552741Y307992D01*
X552864Y307842D01*
X552924Y307780D01*
X552985Y307725D01*
X553045Y307680D01*
X551389Y307395D01*
X551446Y307483D01*
X551490Y307573D01*
X551521Y307663D01*
X551539Y307755D01*
X551545Y307849D01*
X551537Y307943D01*
X551517Y308039D01*
X551484Y308137D01*
X551439Y308236D01*
X551380Y308336D01*
X552429Y308514D01*
X552492Y308393D01*
D02*
G37*
G36*
X597232Y229782D02*
X597174Y229707D01*
X597123Y229626D01*
X597079Y229539D01*
X597042Y229447D01*
X597011Y229348D01*
X596987Y229244D01*
X596970Y229134D01*
X596960Y229019D01*
X596957Y228898D01*
X595957D01*
X595953Y229019D01*
X595943Y229134D01*
X595926Y229244D01*
X595902Y229348D01*
X595872Y229447D01*
X595834Y229539D01*
X595790Y229626D01*
X595739Y229707D01*
X595681Y229782D01*
X595617Y229852D01*
X597297D01*
X597232Y229782D01*
D02*
G37*
G36*
X596960Y209564D02*
X596970Y209448D01*
X596987Y209338D01*
X597011Y209234D01*
X597042Y209136D01*
X597079Y209044D01*
X597123Y208957D01*
X597174Y208876D01*
X597232Y208801D01*
X597297Y208731D01*
X595617D01*
X595681Y208801D01*
X595739Y208876D01*
X595790Y208957D01*
X595834Y209044D01*
X595872Y209136D01*
X595902Y209234D01*
X595926Y209338D01*
X595943Y209448D01*
X595953Y209564D01*
X595957Y209685D01*
X596957D01*
X596960Y209564D01*
D02*
G37*
%LPC*%
G36*
X555905Y442957D02*
X554773Y442808D01*
X553718Y442371D01*
X552812Y441676D01*
X552117Y440770D01*
X551680Y439715D01*
X551531Y438583D01*
X551680Y437451D01*
X552117Y436396D01*
X552812Y435490D01*
X553718Y434794D01*
X554773Y434357D01*
X555905Y434208D01*
X557038Y434357D01*
X558093Y434794D01*
X558999Y435490D01*
X559694Y436396D01*
X560131Y437451D01*
X560280Y438583D01*
X560131Y439715D01*
X559694Y440770D01*
X558999Y441676D01*
X558093Y442371D01*
X557038Y442808D01*
X555905Y442957D01*
D02*
G37*
G36*
X512598D02*
X511466Y442808D01*
X510411Y442371D01*
X509505Y441676D01*
X508810Y440770D01*
X508373Y439715D01*
X508224Y438583D01*
X508373Y437451D01*
X508810Y436396D01*
X509505Y435490D01*
X510411Y434794D01*
X511466Y434357D01*
X512598Y434208D01*
X513731Y434357D01*
X514786Y434794D01*
X515692Y435490D01*
X516387Y436396D01*
X516824Y437451D01*
X516973Y438583D01*
X516824Y439715D01*
X516387Y440770D01*
X515692Y441676D01*
X514786Y442371D01*
X513731Y442808D01*
X512598Y442957D01*
D02*
G37*
G36*
X498032D02*
X496899Y442808D01*
X495844Y442371D01*
X494938Y441676D01*
X494243Y440770D01*
X493806Y439715D01*
X493657Y438583D01*
X493806Y437451D01*
X494243Y436396D01*
X494938Y435490D01*
X495844Y434794D01*
X496899Y434357D01*
X498032Y434208D01*
X499164Y434357D01*
X500219Y434794D01*
X501125Y435490D01*
X501820Y436396D01*
X502257Y437451D01*
X502406Y438583D01*
X502257Y439715D01*
X501820Y440770D01*
X501125Y441676D01*
X500219Y442371D01*
X499164Y442808D01*
X498032Y442957D01*
D02*
G37*
G36*
X454724D02*
X453592Y442808D01*
X452537Y442371D01*
X451631Y441676D01*
X450936Y440770D01*
X450499Y439715D01*
X450350Y438583D01*
X450499Y437451D01*
X450936Y436396D01*
X451631Y435490D01*
X452537Y434794D01*
X453592Y434357D01*
X454724Y434208D01*
X455857Y434357D01*
X456912Y434794D01*
X457818Y435490D01*
X458513Y436396D01*
X458950Y437451D01*
X459099Y438583D01*
X458950Y439715D01*
X458513Y440770D01*
X457818Y441676D01*
X456912Y442371D01*
X455857Y442808D01*
X454724Y442957D01*
D02*
G37*
G36*
X422047Y426435D02*
X421423Y426310D01*
X420894Y425957D01*
X420540Y425427D01*
X420416Y424803D01*
X420540Y424179D01*
X420887Y423660D01*
X420890Y423652D01*
X420941Y423597D01*
X420974Y423554D01*
X421004Y423506D01*
X421031Y423454D01*
X421054Y423395D01*
X421074Y423330D01*
X421091Y423257D01*
X421104Y423177D01*
X421111Y423088D01*
X421114Y422980D01*
X421130Y422946D01*
Y416929D01*
X421129D01*
X421003Y415649D01*
X420629Y414418D01*
X420023Y413283D01*
X419207Y412289D01*
X418213Y411473D01*
X417078Y410867D01*
X415847Y410493D01*
X414567Y410367D01*
Y410366D01*
X413386D01*
Y410381D01*
X411762Y410253D01*
X410178Y409873D01*
X408673Y409249D01*
X407284Y408398D01*
X406045Y407340D01*
X404988Y406102D01*
X404137Y404713D01*
X403513Y403208D01*
X403133Y401624D01*
X403005Y400000D01*
X403019D01*
Y215748D01*
X402988D01*
X403182Y214280D01*
X403749Y212912D01*
X404650Y211737D01*
X405825Y210835D01*
X406615Y210508D01*
X406673Y210452D01*
X406789Y210406D01*
X406884Y210365D01*
X407065Y210273D01*
X407133Y210232D01*
X407196Y210190D01*
X407249Y210149D01*
X407294Y210109D01*
X407331Y210072D01*
X407371Y210023D01*
X407424Y209995D01*
X407508Y209870D01*
X408037Y209516D01*
X408661Y209392D01*
X409286Y209516D01*
X409815Y209870D01*
X410169Y210399D01*
X410293Y211024D01*
X410169Y211648D01*
X409815Y212177D01*
X409286Y212531D01*
X408661Y212655D01*
X408037Y212531D01*
X407747Y212337D01*
X407668Y212319D01*
X407604Y212273D01*
X407560Y212249D01*
X407518Y212232D01*
X407477Y212221D01*
X407434Y212214D01*
X407387Y212213D01*
X407335Y212218D01*
X407309Y212223D01*
X406758Y212451D01*
X405969Y213056D01*
X405365Y213844D01*
X404984Y214763D01*
X404854Y215747D01*
X404855Y215748D01*
Y400000D01*
X404849Y400029D01*
X405010Y401666D01*
X405496Y403268D01*
X406285Y404744D01*
X407347Y406039D01*
X408641Y407101D01*
X410118Y407890D01*
X411720Y408376D01*
X413356Y408537D01*
X413386Y408531D01*
X414567D01*
Y408508D01*
X416210Y408670D01*
X417790Y409149D01*
X419245Y409927D01*
X420521Y410975D01*
X421569Y412251D01*
X422347Y413707D01*
X422826Y415286D01*
X422988Y416929D01*
X422965D01*
Y422946D01*
X422980Y422980D01*
X422983Y423088D01*
X422991Y423177D01*
X423003Y423257D01*
X423020Y423330D01*
X423040Y423395D01*
X423064Y423454D01*
X423091Y423506D01*
X423120Y423554D01*
X423154Y423597D01*
X423204Y423652D01*
X423207Y423660D01*
X423554Y424179D01*
X423679Y424803D01*
X423554Y425427D01*
X423201Y425957D01*
X422672Y426310D01*
X422047Y426435D01*
D02*
G37*
G36*
X524409Y406538D02*
X522980Y406397D01*
X521606Y405980D01*
X520340Y405303D01*
X519230Y404392D01*
X518319Y403282D01*
X517642Y402016D01*
X517225Y400642D01*
X517084Y399213D01*
X517225Y397784D01*
X517642Y396409D01*
X518319Y395143D01*
X519230Y394033D01*
X520340Y393122D01*
X521606Y392445D01*
X522980Y392028D01*
X524409Y391888D01*
X525839Y392028D01*
X527213Y392445D01*
X528479Y393122D01*
X529589Y394033D01*
X530500Y395143D01*
X531177Y396409D01*
X531594Y397784D01*
X531735Y399213D01*
X531594Y400642D01*
X531177Y402016D01*
X530500Y403282D01*
X529589Y404392D01*
X528479Y405303D01*
X527213Y405980D01*
X525839Y406397D01*
X524409Y406538D01*
D02*
G37*
G36*
X466535D02*
X465106Y406397D01*
X463732Y405980D01*
X462466Y405303D01*
X461356Y404392D01*
X460445Y403282D01*
X459768Y402016D01*
X459351Y400642D01*
X459210Y399213D01*
X459351Y397784D01*
X459768Y396409D01*
X460445Y395143D01*
X461356Y394033D01*
X462466Y393122D01*
X463732Y392445D01*
X465106Y392028D01*
X466535Y391888D01*
X467965Y392028D01*
X469339Y392445D01*
X470605Y393122D01*
X471715Y394033D01*
X472626Y395143D01*
X473303Y396409D01*
X473720Y397784D01*
X473861Y399213D01*
X473720Y400642D01*
X473303Y402016D01*
X472626Y403282D01*
X471715Y404392D01*
X470605Y405303D01*
X469339Y405980D01*
X467965Y406397D01*
X466535Y406538D01*
D02*
G37*
G36*
X460630Y364623D02*
X458622Y364425D01*
X456691Y363839D01*
X454912Y362888D01*
X453352Y361608D01*
X452072Y360049D01*
X451121Y358269D01*
X450536Y356339D01*
X450338Y354331D01*
X450536Y352323D01*
X451121Y350392D01*
X452072Y348613D01*
X453352Y347053D01*
X454912Y345773D01*
X456691Y344822D01*
X458622Y344236D01*
X460630Y344039D01*
X462638Y344236D01*
X464569Y344822D01*
X466348Y345773D01*
X467907Y347053D01*
X469187Y348613D01*
X470139Y350392D01*
X470724Y352323D01*
X470922Y354331D01*
X470724Y356339D01*
X470139Y358269D01*
X469187Y360049D01*
X467907Y361608D01*
X466348Y362888D01*
X464569Y363839D01*
X462638Y364425D01*
X460630Y364623D01*
D02*
G37*
G36*
X443701Y311868D02*
X443077Y311743D01*
X442547Y311390D01*
X442194Y310860D01*
X442069Y310236D01*
X442194Y309612D01*
X442541Y309093D01*
X442544Y309085D01*
X442594Y309030D01*
X442627Y308987D01*
X442657Y308939D01*
X442684Y308887D01*
X442708Y308828D01*
X442728Y308763D01*
X442745Y308690D01*
X442757Y308610D01*
X442765Y308522D01*
X442768Y308413D01*
X442783Y308379D01*
Y271654D01*
X442790Y271618D01*
X442622Y269910D01*
X442114Y268234D01*
X441288Y266689D01*
X440177Y265335D01*
X438823Y264224D01*
X437278Y263398D01*
X435602Y262890D01*
X433894Y262721D01*
X433858Y262729D01*
X429685D01*
Y262745D01*
X427975Y262610D01*
X426306Y262210D01*
X424721Y261553D01*
X423258Y260657D01*
X421954Y259542D01*
X420840Y258238D01*
X419943Y256775D01*
X419286Y255190D01*
X418886Y253521D01*
X418751Y251811D01*
X418767D01*
Y249757D01*
X418741Y249727D01*
X418240Y249916D01*
Y262710D01*
X418256Y262744D01*
X418259Y262852D01*
X418266Y262941D01*
X418279Y263021D01*
X418296Y263094D01*
X418316Y263159D01*
X418340Y263218D01*
X418366Y263270D01*
X418396Y263317D01*
X418429Y263361D01*
X418480Y263415D01*
X418483Y263423D01*
X418830Y263943D01*
X418954Y264567D01*
X418830Y265191D01*
X418476Y265721D01*
X417947Y266074D01*
X417323Y266198D01*
X416838Y266102D01*
X416523Y266512D01*
X416880Y266978D01*
X417586Y267519D01*
X418408Y267860D01*
X419291Y267976D01*
Y267980D01*
X432000D01*
X432034Y267964D01*
X432143Y267961D01*
X432231Y267953D01*
X432312Y267941D01*
X432384Y267924D01*
X432449Y267904D01*
X432508Y267880D01*
X432561Y267854D01*
X432608Y267824D01*
X432651Y267791D01*
X432706Y267740D01*
X432714Y267737D01*
X433233Y267390D01*
X433857Y267266D01*
X434482Y267390D01*
X435011Y267744D01*
X435365Y268273D01*
X435489Y268897D01*
X435365Y269521D01*
X435018Y270041D01*
X435015Y270049D01*
X434964Y270104D01*
X434931Y270146D01*
X434901Y270194D01*
X434874Y270246D01*
X434851Y270305D01*
X434830Y270370D01*
X434813Y270443D01*
X434801Y270524D01*
X434793Y270612D01*
X434790Y270720D01*
X434775Y270754D01*
Y280157D01*
X434791D01*
X434656Y281868D01*
X434256Y283536D01*
X433599Y285121D01*
X432703Y286584D01*
X431589Y287889D01*
X430284Y289003D01*
X428821Y289899D01*
X427236Y290556D01*
X425568Y290957D01*
X423857Y291091D01*
Y291075D01*
X410125D01*
X410091Y291090D01*
X409982Y291093D01*
X409894Y291101D01*
X409814Y291114D01*
X409741Y291130D01*
X409676Y291151D01*
X409617Y291174D01*
X409565Y291201D01*
X409517Y291231D01*
X409474Y291264D01*
X409419Y291315D01*
X409411Y291318D01*
X408892Y291665D01*
X408268Y291789D01*
X407643Y291665D01*
X407114Y291311D01*
X406761Y290782D01*
X406636Y290158D01*
X406761Y289533D01*
X407114Y289004D01*
X407643Y288650D01*
X408268Y288526D01*
X408892Y288650D01*
X409411Y288997D01*
X409419Y289000D01*
X409474Y289051D01*
X409517Y289084D01*
X409564Y289114D01*
X409617Y289141D01*
X409676Y289164D01*
X409741Y289185D01*
X409814Y289201D01*
X409894Y289214D01*
X409982Y289222D01*
X410091Y289225D01*
X410125Y289240D01*
X423857D01*
X423896Y289247D01*
X425632Y289076D01*
X427337Y288559D01*
X428910Y287719D01*
X430288Y286588D01*
X431419Y285210D01*
X432259Y283637D01*
X432776Y281932D01*
X432947Y280196D01*
X432940Y280157D01*
Y270754D01*
X432925Y270720D01*
X432922Y270612D01*
X432914Y270524D01*
X432901Y270443D01*
X432885Y270370D01*
X432864Y270305D01*
X432841Y270246D01*
X432814Y270194D01*
X432784Y270147D01*
X432751Y270104D01*
X432703Y270052D01*
X432651Y270004D01*
X432608Y269970D01*
X432561Y269941D01*
X432508Y269914D01*
X432450Y269890D01*
X432384Y269870D01*
X432312Y269853D01*
X432231Y269841D01*
X432143Y269833D01*
X432034Y269830D01*
X432000Y269815D01*
X419291D01*
Y269842D01*
X417926Y269662D01*
X416653Y269135D01*
X415561Y268297D01*
X414722Y267205D01*
X414195Y265932D01*
X414015Y264567D01*
X414043D01*
Y260940D01*
X413543Y260751D01*
X413516Y260781D01*
Y270079D01*
X413537D01*
X413384Y271239D01*
X412936Y272320D01*
X412224Y273248D01*
X411296Y273960D01*
X410215Y274408D01*
X410174Y274413D01*
X410066Y274443D01*
X409962Y274475D01*
X409769Y274548D01*
X409695Y274581D01*
X409628Y274617D01*
X409570Y274651D01*
X409523Y274684D01*
X409485Y274714D01*
X409442Y274756D01*
X409432Y274760D01*
X409421Y274776D01*
X408892Y275129D01*
X408268Y275253D01*
X407643Y275129D01*
X407114Y274776D01*
X406761Y274246D01*
X406636Y273622D01*
X406761Y272998D01*
X407114Y272468D01*
X407643Y272115D01*
X408268Y271991D01*
X408892Y272115D01*
X409365Y272431D01*
X409395Y272441D01*
X409457Y272497D01*
X409501Y272528D01*
X409543Y272551D01*
X409583Y272567D01*
X409624Y272578D01*
X409668Y272584D01*
X409717Y272585D01*
X409774Y272579D01*
X409816Y272571D01*
X410363Y272344D01*
X410905Y271928D01*
X411320Y271387D01*
X411582Y270756D01*
X411671Y270079D01*
X411681D01*
Y260518D01*
X411666Y260484D01*
X411663Y260376D01*
X411655Y260288D01*
X411642Y260207D01*
X411626Y260135D01*
X411605Y260069D01*
X411582Y260011D01*
X411555Y259958D01*
X411525Y259911D01*
X411492Y259868D01*
X411441Y259813D01*
X411438Y259805D01*
X411091Y259286D01*
X410967Y258661D01*
X411091Y258037D01*
X411445Y257508D01*
X411974Y257154D01*
X412598Y257030D01*
X413223Y257154D01*
X413543Y257368D01*
X414043Y257112D01*
Y218392D01*
X414028Y218358D01*
X414025Y218250D01*
X414017Y218162D01*
X414005Y218081D01*
X413988Y218009D01*
X413968Y217943D01*
X413944Y217885D01*
X413917Y217832D01*
X413887Y217785D01*
X413854Y217742D01*
X413803Y217687D01*
X413800Y217679D01*
X413453Y217160D01*
X413329Y216535D01*
X413453Y215911D01*
X413807Y215382D01*
X414336Y215028D01*
X414961Y214904D01*
X415585Y215028D01*
X416114Y215382D01*
X416468Y215911D01*
X416592Y216535D01*
X416468Y217160D01*
X416121Y217679D01*
X416118Y217687D01*
X416067Y217742D01*
X416034Y217785D01*
X416004Y217832D01*
X415977Y217885D01*
X415954Y217943D01*
X415933Y218009D01*
X415917Y218081D01*
X415904Y218162D01*
X415897Y218250D01*
X415893Y218358D01*
X415878Y218392D01*
Y235065D01*
X416378Y235321D01*
X416699Y235107D01*
X417323Y234983D01*
X417947Y235107D01*
X418476Y235461D01*
X418830Y235990D01*
X418954Y236614D01*
X418830Y237239D01*
X418483Y237758D01*
X418480Y237766D01*
X418429Y237821D01*
X418396Y237864D01*
X418366Y237911D01*
X418340Y237964D01*
X418316Y238022D01*
X418296Y238087D01*
X418279Y238160D01*
X418266Y238241D01*
X418259Y238329D01*
X418256Y238437D01*
X418240Y238471D01*
Y246088D01*
X418741Y246345D01*
X419061Y246131D01*
X419685Y246006D01*
X420309Y246131D01*
X420839Y246484D01*
X421192Y247013D01*
X421316Y247638D01*
X421192Y248262D01*
X420845Y248781D01*
X420842Y248790D01*
X420791Y248844D01*
X420758Y248887D01*
X420728Y248935D01*
X420702Y248987D01*
X420678Y249045D01*
X420658Y249111D01*
X420641Y249184D01*
X420629Y249264D01*
X420621Y249353D01*
X420618Y249461D01*
X420603Y249495D01*
Y251811D01*
X420595Y251849D01*
X420766Y253585D01*
X421283Y255291D01*
X422124Y256863D01*
X423255Y258241D01*
X424633Y259372D01*
X426205Y260213D01*
X427911Y260730D01*
X429647Y260901D01*
X429685Y260893D01*
X433858D01*
Y260878D01*
X435544Y261011D01*
X437188Y261405D01*
X438750Y262052D01*
X440192Y262936D01*
X441478Y264034D01*
X442576Y265320D01*
X443460Y266761D01*
X444107Y268324D01*
X444501Y269968D01*
X444532Y270362D01*
X445044Y270493D01*
X445296Y270116D01*
X445299Y270108D01*
X445350Y270053D01*
X445383Y270010D01*
X445413Y269963D01*
X445439Y269910D01*
X445463Y269851D01*
X445483Y269786D01*
X445500Y269713D01*
X445512Y269633D01*
X445520Y269545D01*
X445523Y269436D01*
X445539Y269402D01*
Y263380D01*
X445523Y263347D01*
X445520Y263239D01*
X445511Y263159D01*
X445498Y263092D01*
X445483Y263038D01*
X445465Y262997D01*
X445448Y262966D01*
X445430Y262943D01*
X445412Y262925D01*
X445391Y262909D01*
X445340Y262881D01*
X445302Y262833D01*
X444909Y262571D01*
X444556Y262042D01*
X444432Y261417D01*
X444556Y260793D01*
X444909Y260264D01*
X445439Y259910D01*
X446063Y259786D01*
X446687Y259910D01*
X447217Y260264D01*
X447570Y260793D01*
X447694Y261417D01*
X447570Y262042D01*
X447533Y262098D01*
X447531Y262132D01*
X447503Y262195D01*
X447481Y262251D01*
X447463Y262308D01*
X447427Y262464D01*
X447415Y262534D01*
X447391Y262838D01*
X447389Y262945D01*
X447374Y262981D01*
Y269402D01*
X447389Y269436D01*
X447392Y269545D01*
X447400Y269633D01*
X447412Y269713D01*
X447429Y269786D01*
X447449Y269851D01*
X447473Y269910D01*
X447500Y269963D01*
X447529Y270010D01*
X447563Y270053D01*
X447613Y270108D01*
X447616Y270116D01*
X447963Y270635D01*
X448088Y271259D01*
X447963Y271884D01*
X447610Y272413D01*
X447080Y272766D01*
X446456Y272891D01*
X445832Y272766D01*
X445303Y272413D01*
X445118Y272137D01*
X444618Y272289D01*
Y308379D01*
X444634Y308413D01*
X444637Y308522D01*
X444644Y308610D01*
X444657Y308690D01*
X444673Y308763D01*
X444694Y308828D01*
X444718Y308887D01*
X444744Y308939D01*
X444774Y308987D01*
X444807Y309030D01*
X444858Y309085D01*
X444861Y309093D01*
X445208Y309612D01*
X445332Y310236D01*
X445208Y310860D01*
X444854Y311390D01*
X444325Y311743D01*
X443701Y311868D01*
D02*
G37*
G36*
X458957Y278403D02*
X458332Y278279D01*
X457803Y277925D01*
X457449Y277396D01*
X457325Y276772D01*
X457449Y276147D01*
X457803Y275618D01*
X458332Y275265D01*
X458957Y275140D01*
X459581Y275265D01*
X460100Y275611D01*
X460108Y275615D01*
X460163Y275665D01*
X460206Y275698D01*
X460253Y275728D01*
X460306Y275755D01*
X460364Y275779D01*
X460430Y275799D01*
X460502Y275816D01*
X460583Y275828D01*
X460671Y275836D01*
X460780Y275839D01*
X460814Y275854D01*
X477953D01*
Y275851D01*
X478835Y275735D01*
X479658Y275394D01*
X480364Y274852D01*
X480906Y274146D01*
X481246Y273323D01*
X481363Y272441D01*
X481366D01*
Y263274D01*
X481351Y263240D01*
X481348Y263132D01*
X481340Y263044D01*
X481327Y262963D01*
X481311Y262891D01*
X481290Y262825D01*
X481267Y262767D01*
X481240Y262714D01*
X481210Y262667D01*
X481177Y262624D01*
X481126Y262569D01*
X481123Y262561D01*
X480776Y262042D01*
X480652Y261417D01*
X480776Y260793D01*
X481130Y260264D01*
X481659Y259910D01*
X482283Y259786D01*
X482908Y259910D01*
X483437Y260264D01*
X483791Y260793D01*
X483915Y261417D01*
X483791Y262042D01*
X483444Y262561D01*
X483441Y262569D01*
X483390Y262624D01*
X483357Y262667D01*
X483327Y262714D01*
X483300Y262767D01*
X483277Y262825D01*
X483256Y262891D01*
X483240Y262963D01*
X483227Y263044D01*
X483219Y263132D01*
X483216Y263240D01*
X483201Y263274D01*
Y272441D01*
X483229D01*
X483049Y273806D01*
X482522Y275079D01*
X481683Y276171D01*
X480591Y277010D01*
X479318Y277537D01*
X477953Y277717D01*
Y277689D01*
X460814D01*
X460780Y277704D01*
X460671Y277708D01*
X460583Y277715D01*
X460502Y277728D01*
X460430Y277744D01*
X460365Y277765D01*
X460306Y277788D01*
X460253Y277815D01*
X460206Y277845D01*
X460163Y277878D01*
X460108Y277929D01*
X460100Y277932D01*
X459581Y278279D01*
X458957Y278403D01*
D02*
G37*
G36*
X460236Y251238D02*
X459612Y251114D01*
X459083Y250760D01*
X458729Y250231D01*
X458605Y249606D01*
X458729Y248982D01*
X459076Y248463D01*
X459079Y248455D01*
X459130Y248400D01*
X459163Y248357D01*
X459193Y248309D01*
X459220Y248257D01*
X459243Y248199D01*
X459264Y248133D01*
X459280Y248060D01*
X459293Y247980D01*
X459300Y247892D01*
X459303Y247783D01*
X459319Y247749D01*
Y244488D01*
X459314D01*
X459204Y243937D01*
X458892Y243470D01*
X458425Y243158D01*
X457874Y243048D01*
Y243044D01*
X429416D01*
X429382Y243059D01*
X429274Y243062D01*
X429185Y243070D01*
X429105Y243082D01*
X429032Y243099D01*
X428967Y243119D01*
X428908Y243143D01*
X428856Y243169D01*
X428808Y243199D01*
X428765Y243232D01*
X428711Y243283D01*
X428703Y243286D01*
X428183Y243633D01*
X427559Y243757D01*
X426935Y243633D01*
X426405Y243280D01*
X426052Y242750D01*
X425928Y242126D01*
X426052Y241502D01*
X426405Y240972D01*
X426935Y240619D01*
X427559Y240495D01*
X428183Y240619D01*
X428703Y240966D01*
X428711Y240969D01*
X428765Y241020D01*
X428808Y241053D01*
X428856Y241083D01*
X428908Y241109D01*
X428967Y241133D01*
X429032Y241153D01*
X429105Y241170D01*
X429185Y241182D01*
X429274Y241190D01*
X429382Y241193D01*
X429416Y241208D01*
X457874D01*
Y241198D01*
X458726Y241310D01*
X459519Y241639D01*
X460201Y242161D01*
X460723Y242843D01*
X461052Y243637D01*
X461164Y244488D01*
X461154D01*
Y247749D01*
X461169Y247783D01*
X461172Y247892D01*
X461180Y247980D01*
X461192Y248060D01*
X461209Y248133D01*
X461229Y248198D01*
X461253Y248257D01*
X461280Y248309D01*
X461309Y248357D01*
X461343Y248400D01*
X461393Y248455D01*
X461396Y248463D01*
X461743Y248982D01*
X461868Y249606D01*
X461743Y250231D01*
X461390Y250760D01*
X460860Y251114D01*
X460236Y251238D01*
D02*
G37*
G36*
X496063Y178979D02*
X494634Y178838D01*
X493260Y178421D01*
X491993Y177744D01*
X490883Y176833D01*
X489972Y175723D01*
X489296Y174457D01*
X488879Y173083D01*
X488738Y171653D01*
X488879Y170224D01*
X489296Y168850D01*
X489972Y167584D01*
X490883Y166474D01*
X491993Y165563D01*
X493260Y164886D01*
X494634Y164469D01*
X496063Y164329D01*
X497492Y164469D01*
X498866Y164886D01*
X500133Y165563D01*
X501243Y166474D01*
X502153Y167584D01*
X502831Y168850D01*
X503247Y170224D01*
X503388Y171653D01*
X503247Y173083D01*
X502831Y174457D01*
X502153Y175723D01*
X501243Y176833D01*
X500133Y177744D01*
X498866Y178421D01*
X497492Y178838D01*
X496063Y178979D01*
D02*
G37*
G36*
X507874Y136658D02*
X506742Y136509D01*
X505687Y136072D01*
X504781Y135377D01*
X504086Y134471D01*
X503649Y133416D01*
X503500Y132283D01*
X503649Y131151D01*
X504086Y130096D01*
X504781Y129190D01*
X505687Y128495D01*
X506742Y128058D01*
X507874Y127909D01*
X509006Y128058D01*
X510061Y128495D01*
X510967Y129190D01*
X511662Y130096D01*
X512099Y131151D01*
X512248Y132283D01*
X512099Y133416D01*
X511662Y134471D01*
X510967Y135377D01*
X510061Y136072D01*
X509006Y136509D01*
X507874Y136658D01*
D02*
G37*
G36*
X464567D02*
X463435Y136509D01*
X462380Y136072D01*
X461474Y135377D01*
X460779Y134471D01*
X460342Y133416D01*
X460192Y132283D01*
X460342Y131151D01*
X460779Y130096D01*
X461474Y129190D01*
X462380Y128495D01*
X463435Y128058D01*
X464567Y127909D01*
X465699Y128058D01*
X466754Y128495D01*
X467660Y129190D01*
X468355Y130096D01*
X468792Y131151D01*
X468941Y132283D01*
X468792Y133416D01*
X468355Y134471D01*
X467660Y135377D01*
X466754Y136072D01*
X465699Y136509D01*
X464567Y136658D01*
D02*
G37*
%LPD*%
G36*
X422823Y423877D02*
X422765Y423801D01*
X422714Y423720D01*
X422670Y423634D01*
X422632Y423541D01*
X422602Y423443D01*
X422578Y423339D01*
X422561Y423229D01*
X422551Y423113D01*
X422547Y422992D01*
X421547D01*
X421544Y423113D01*
X421534Y423229D01*
X421517Y423339D01*
X421493Y423443D01*
X421462Y423541D01*
X421425Y423634D01*
X421381Y423720D01*
X421330Y423801D01*
X421272Y423877D01*
X421207Y423946D01*
X422887D01*
X422823Y423877D01*
D02*
G37*
G36*
X407705Y210299D02*
X407653Y210362D01*
X407592Y210424D01*
X407525Y210483D01*
X407449Y210541D01*
X407366Y210598D01*
X407274Y210652D01*
X407069Y210757D01*
X406954Y210806D01*
X406832Y210855D01*
X406957Y211883D01*
X407066Y211840D01*
X407171Y211808D01*
X407274Y211788D01*
X407374Y211780D01*
X407472Y211782D01*
X407567Y211796D01*
X407659Y211822D01*
X407748Y211858D01*
X407834Y211906D01*
X407918Y211966D01*
X407705Y210299D01*
D02*
G37*
G36*
X444476Y309310D02*
X444418Y309234D01*
X444367Y309153D01*
X444323Y309067D01*
X444286Y308974D01*
X444255Y308876D01*
X444231Y308772D01*
X444214Y308662D01*
X444204Y308547D01*
X444201Y308425D01*
X443201D01*
X443197Y308547D01*
X443187Y308662D01*
X443170Y308772D01*
X443146Y308876D01*
X443116Y308974D01*
X443078Y309067D01*
X443034Y309153D01*
X442983Y309234D01*
X442925Y309310D01*
X442861Y309379D01*
X444541D01*
X444476Y309310D01*
D02*
G37*
G36*
X409194Y290933D02*
X409270Y290875D01*
X409350Y290824D01*
X409437Y290780D01*
X409530Y290742D01*
X409628Y290712D01*
X409732Y290688D01*
X409842Y290671D01*
X409957Y290661D01*
X410079Y290657D01*
Y289657D01*
X409957Y289654D01*
X409842Y289644D01*
X409732Y289627D01*
X409628Y289603D01*
X409530Y289573D01*
X409437Y289535D01*
X409350Y289491D01*
X409270Y289440D01*
X409194Y289382D01*
X409125Y289317D01*
Y290998D01*
X409194Y290933D01*
D02*
G37*
G36*
X409198Y274390D02*
X409263Y274337D01*
X409336Y274287D01*
X409416Y274238D01*
X409506Y274192D01*
X409603Y274148D01*
X409822Y274066D01*
X409943Y274028D01*
X410073Y273992D01*
X410053Y272954D01*
X409944Y272987D01*
X409838Y273008D01*
X409735Y273018D01*
X409635Y273016D01*
X409539Y273003D01*
X409446Y272978D01*
X409356Y272942D01*
X409270Y272895D01*
X409187Y272836D01*
X409108Y272765D01*
X409141Y274445D01*
X409198Y274390D01*
D02*
G37*
G36*
X434361Y270587D02*
X434371Y270471D01*
X434388Y270361D01*
X434412Y270257D01*
X434442Y270159D01*
X434480Y270067D01*
X434524Y269980D01*
X434575Y269899D01*
X434633Y269824D01*
X434697Y269754D01*
X433017D01*
X433082Y269824D01*
X433140Y269899D01*
X433191Y269980D01*
X433235Y270067D01*
X433272Y270159D01*
X433303Y270257D01*
X433327Y270361D01*
X433344Y270471D01*
X433354Y270587D01*
X433357Y270708D01*
X434357D01*
X434361Y270587D01*
D02*
G37*
G36*
X447231Y270333D02*
X447174Y270257D01*
X447123Y270177D01*
X447079Y270090D01*
X447041Y269997D01*
X447011Y269899D01*
X446987Y269795D01*
X446970Y269685D01*
X446960Y269570D01*
X446956Y269448D01*
X445956D01*
X445953Y269570D01*
X445943Y269685D01*
X445926Y269795D01*
X445902Y269899D01*
X445871Y269997D01*
X445834Y270090D01*
X445789Y270177D01*
X445739Y270257D01*
X445681Y270333D01*
X445616Y270402D01*
X447296D01*
X447231Y270333D01*
D02*
G37*
G36*
X433000Y268057D02*
X432931Y268122D01*
X432856Y268179D01*
X432775Y268231D01*
X432688Y268275D01*
X432595Y268312D01*
X432497Y268343D01*
X432393Y268367D01*
X432283Y268384D01*
X432168Y268394D01*
X432047Y268397D01*
Y269397D01*
X432168Y269401D01*
X432283Y269411D01*
X432393Y269428D01*
X432497Y269451D01*
X432595Y269482D01*
X432688Y269519D01*
X432775Y269564D01*
X432856Y269615D01*
X432931Y269672D01*
X433000Y269737D01*
Y268057D01*
D02*
G37*
G36*
X418098Y263640D02*
X418040Y263565D01*
X417989Y263484D01*
X417945Y263397D01*
X417908Y263305D01*
X417877Y263207D01*
X417853Y263103D01*
X417836Y262993D01*
X417826Y262877D01*
X417823Y262756D01*
X416823D01*
X416819Y262877D01*
X416809Y262993D01*
X416792Y263103D01*
X416768Y263207D01*
X416738Y263305D01*
X416700Y263397D01*
X416656Y263484D01*
X416605Y263565D01*
X416547Y263640D01*
X416483Y263710D01*
X418163D01*
X418098Y263640D01*
D02*
G37*
G36*
X446956Y262939D02*
X446958Y262817D01*
X446985Y262482D01*
X447002Y262381D01*
X447045Y262194D01*
X447072Y262108D01*
X447103Y262027D01*
X447137Y261952D01*
X445550Y262502D01*
X445627Y262545D01*
X445696Y262597D01*
X445757Y262657D01*
X445810Y262727D01*
X445855Y262806D01*
X445891Y262893D01*
X445920Y262990D01*
X445940Y263095D01*
X445952Y263209D01*
X445956Y263333D01*
X446956Y262939D01*
D02*
G37*
G36*
X413102Y260351D02*
X413112Y260236D01*
X413129Y260126D01*
X413153Y260022D01*
X413183Y259924D01*
X413221Y259831D01*
X413265Y259744D01*
X413316Y259663D01*
X413374Y259588D01*
X413438Y259518D01*
X411758D01*
X411823Y259588D01*
X411881Y259663D01*
X411932Y259744D01*
X411976Y259831D01*
X412013Y259924D01*
X412044Y260022D01*
X412068Y260126D01*
X412085Y260236D01*
X412095Y260351D01*
X412098Y260472D01*
X413098D01*
X413102Y260351D01*
D02*
G37*
G36*
X420188Y249327D02*
X420199Y249212D01*
X420216Y249102D01*
X420239Y248998D01*
X420270Y248900D01*
X420307Y248807D01*
X420352Y248721D01*
X420403Y248640D01*
X420460Y248564D01*
X420525Y248495D01*
X418845D01*
X418910Y248564D01*
X418967Y248640D01*
X419018Y248721D01*
X419063Y248807D01*
X419100Y248900D01*
X419131Y248998D01*
X419154Y249102D01*
X419171Y249212D01*
X419182Y249327D01*
X419185Y249449D01*
X420185D01*
X420188Y249327D01*
D02*
G37*
G36*
X417826Y238304D02*
X417836Y238188D01*
X417853Y238078D01*
X417877Y237975D01*
X417908Y237876D01*
X417945Y237784D01*
X417989Y237697D01*
X418040Y237616D01*
X418098Y237541D01*
X418163Y237471D01*
X416483D01*
X416547Y237541D01*
X416605Y237616D01*
X416656Y237697D01*
X416700Y237784D01*
X416738Y237876D01*
X416768Y237975D01*
X416792Y238078D01*
X416809Y238188D01*
X416819Y238304D01*
X416823Y238425D01*
X417823D01*
X417826Y238304D01*
D02*
G37*
G36*
X415464Y218225D02*
X415474Y218109D01*
X415491Y218000D01*
X415515Y217896D01*
X415546Y217797D01*
X415583Y217705D01*
X415627Y217618D01*
X415678Y217537D01*
X415736Y217462D01*
X415801Y217392D01*
X414121D01*
X414185Y217462D01*
X414243Y217537D01*
X414294Y217618D01*
X414338Y217705D01*
X414376Y217797D01*
X414406Y217896D01*
X414430Y218000D01*
X414447Y218109D01*
X414457Y218225D01*
X414461Y218346D01*
X415461D01*
X415464Y218225D01*
D02*
G37*
G36*
X459883Y277547D02*
X459959Y277489D01*
X460040Y277438D01*
X460126Y277394D01*
X460219Y277357D01*
X460317Y277326D01*
X460421Y277302D01*
X460531Y277285D01*
X460646Y277275D01*
X460768Y277272D01*
Y276272D01*
X460646Y276268D01*
X460531Y276258D01*
X460421Y276241D01*
X460317Y276217D01*
X460219Y276187D01*
X460126Y276149D01*
X460040Y276105D01*
X459959Y276054D01*
X459883Y275996D01*
X459814Y275932D01*
Y277612D01*
X459883Y277547D01*
D02*
G37*
G36*
X482787Y263107D02*
X482797Y262991D01*
X482814Y262882D01*
X482838Y262778D01*
X482868Y262679D01*
X482906Y262587D01*
X482950Y262500D01*
X483001Y262419D01*
X483059Y262344D01*
X483123Y262274D01*
X481444D01*
X481508Y262344D01*
X481566Y262419D01*
X481617Y262500D01*
X481661Y262587D01*
X481699Y262679D01*
X481729Y262778D01*
X481753Y262882D01*
X481770Y262991D01*
X481780Y263107D01*
X481783Y263228D01*
X482784D01*
X482787Y263107D01*
D02*
G37*
G36*
X461012Y248680D02*
X460954Y248604D01*
X460903Y248523D01*
X460859Y248437D01*
X460821Y248344D01*
X460791Y248246D01*
X460767Y248142D01*
X460750Y248032D01*
X460740Y247917D01*
X460736Y247795D01*
X459736D01*
X459733Y247917D01*
X459723Y248032D01*
X459706Y248142D01*
X459682Y248246D01*
X459651Y248344D01*
X459614Y248437D01*
X459570Y248523D01*
X459519Y248604D01*
X459461Y248680D01*
X459396Y248749D01*
X461076D01*
X461012Y248680D01*
D02*
G37*
G36*
X428486Y242901D02*
X428561Y242844D01*
X428642Y242793D01*
X428729Y242748D01*
X428821Y242711D01*
X428919Y242680D01*
X429023Y242657D01*
X429133Y242640D01*
X429249Y242629D01*
X429370Y242626D01*
Y241626D01*
X429249Y241623D01*
X429133Y241612D01*
X429023Y241595D01*
X428919Y241572D01*
X428821Y241541D01*
X428729Y241504D01*
X428642Y241459D01*
X428561Y241408D01*
X428486Y241351D01*
X428416Y241286D01*
Y242966D01*
X428486Y242901D01*
D02*
G37*
D11*
X495669Y218110D02*
G03*
X500000Y213779I4331J0D01*
G01*
X433857Y280157D02*
G03*
X423857Y290158I-10000J0D01*
G01*
X419291Y268897D02*
G03*
X414961Y264567I0J-4330D01*
G01*
X412598Y270079D02*
G03*
X409055Y273622I-3543J0D01*
G01*
X552362Y306693D02*
G03*
X548819Y310236I-3543J0D01*
G01*
X433858Y261811D02*
G03*
X443701Y271654I0J9843D01*
G01*
X429685Y261811D02*
G03*
X419685Y251811I0J-10000D01*
G01*
X457874Y242126D02*
G03*
X460236Y244488I0J2362D01*
G01*
X482283Y272441D02*
G03*
X477953Y276772I-4331J0D01*
G01*
X614567Y425984D02*
G03*
X621260Y419291I6693J0D01*
G01*
X627953Y412992D02*
G03*
X621654Y419291I-6299J0D01*
G01*
X568504Y374410D02*
G03*
X576378Y382283I0J7874D01*
G01*
X526929Y374410D02*
G03*
X516929Y364409I0J-10000D01*
G01*
X507480Y222047D02*
G03*
X516929Y231496I0J9449D01*
G01*
X571496Y369685D02*
G03*
X581496Y379685I0J10000D01*
G01*
X529291Y369685D02*
G03*
X519291Y359685I0J-10000D01*
G01*
X509291Y206299D02*
G03*
X519291Y216299I0J10000D01*
G01*
X414567Y409449D02*
G03*
X422047Y416929I0J7480D01*
G01*
X413386Y409449D02*
G03*
X403937Y400000I0J-9449D01*
G01*
Y215748D02*
G03*
X408661Y211024I4724J0D01*
G01*
X495669Y218110D02*
Y222441D01*
X433857Y268897D02*
Y280157D01*
X500000Y213779D02*
X513386D01*
X408268Y290158D02*
X423857D01*
X419291Y268897D02*
X433857D01*
X414961Y216535D02*
Y264567D01*
X408268Y273622D02*
X409055D01*
X412598Y258661D02*
Y270079D01*
X535039Y310236D02*
X548819D01*
X429685Y261811D02*
X433858D01*
X419685Y247638D02*
Y251811D01*
X443701Y271654D02*
Y310236D01*
X417323Y236614D02*
Y264567D01*
X446063Y261417D02*
X446456Y261810D01*
Y271259D01*
X427559Y242126D02*
X457874D01*
X460236Y244488D02*
Y249606D01*
X482283Y261417D02*
Y272441D01*
X458957Y276772D02*
X477953D01*
X621260Y419291D02*
X621654D01*
X627953Y225984D02*
Y412992D01*
X596457Y207874D02*
Y230709D01*
X498425Y206299D02*
X509291D01*
X526929Y374410D02*
X568504D01*
X516929Y231496D02*
Y364409D01*
X507087Y222047D02*
X507480D01*
X576378Y382283D02*
Y422441D01*
X529291Y369685D02*
X571496D01*
X581496Y379685D02*
Y422835D01*
X519291Y216299D02*
Y359685D01*
X403937Y215748D02*
Y400000D01*
X413386Y409449D02*
X414567D01*
X422047Y416929D02*
Y424803D01*
D54*
X488976Y205276D02*
G03*
X498976Y195276I10000J0D01*
G01*
X488976Y290394D02*
G03*
X478976Y300394I-10000J0D01*
G01*
X488976Y205276D02*
Y290394D01*
X498976Y195276D02*
X500394D01*
X477953Y300394D02*
X478976D01*
X504331Y195276D02*
X507923D01*
X500394D02*
X504331D01*
X474409Y300394D02*
X477953D01*
X471260D02*
X474409D01*
X467717D02*
X471260D01*
X507923Y195276D02*
X509449D01*
D55*
X570866Y354331D02*
D03*
X460630D02*
D03*
D56*
X570866Y228740D02*
D03*
Y248425D02*
D03*
D57*
X571345Y205526D02*
D03*
Y191746D02*
D03*
D58*
X496063Y171653D02*
D03*
X476378D02*
D03*
X554724Y171653D02*
D03*
X535039D02*
D03*
X612205D02*
D03*
X592520D02*
D03*
X466535Y399213D02*
D03*
X486221D02*
D03*
X524409D02*
D03*
X544095D02*
D03*
D59*
X507874Y132283D02*
D03*
X464567D02*
D03*
X566535Y132283D02*
D03*
X523228D02*
D03*
X624016D02*
D03*
X580709D02*
D03*
X454724Y438583D02*
D03*
X498032D02*
D03*
X512598D02*
D03*
X555905D02*
D03*
D60*
X598819Y406693D02*
D03*
X618504D02*
D03*
X598819Y371260D02*
D03*
X618504D02*
D03*
X598819Y335827D02*
D03*
X618504D02*
D03*
X598819Y300394D02*
D03*
X618504D02*
D03*
X598819Y264961D02*
D03*
X618504D02*
D03*
D61*
X496850Y195276D02*
D03*
X500394D02*
D03*
X504331D02*
D03*
X477953Y300394D02*
D03*
X467717D02*
D03*
X471260D02*
D03*
X474409D02*
D03*
X495669Y222441D02*
D03*
X414961Y216535D02*
D03*
X412598Y258661D02*
D03*
X513386Y213779D02*
D03*
X433857Y268897D02*
D03*
X507923Y195276D02*
D03*
X535039Y310236D02*
D03*
X443701D02*
D03*
X552362Y306693D02*
D03*
X419685Y247638D02*
D03*
X446063Y261417D02*
D03*
X446456Y271259D02*
D03*
X408268Y273622D02*
D03*
Y290158D02*
D03*
X417323Y236614D02*
D03*
Y264567D02*
D03*
X427559Y242126D02*
D03*
X460236Y249606D02*
D03*
X458957Y276772D02*
D03*
X482283Y261417D02*
D03*
X614567Y425984D02*
D03*
X627953Y225984D02*
D03*
X596457Y230709D02*
D03*
Y207874D02*
D03*
X498425Y206299D02*
D03*
X576378Y422441D02*
D03*
X507087Y222047D02*
D03*
X581496Y422835D02*
D03*
X422047Y424803D02*
D03*
X408661Y211024D02*
D03*
M02*
