M48
;Layer_Color=9474304
;FILE_FORMAT=2:5
INCH,TZ
;TYPE=PLATED
T1F00S00C0.01400
T3F00S00C0.06693
T4F00S00C0.10236
%
T01
X550500Y144571
Y175571
X501571Y183500
X470571
X484000Y203000
X489000Y231000
X501571Y250000
X470571
X431071
X400071
X418000Y231000
X430500Y215500
X413000Y203000
X400000Y183500
X432000
X360000Y183000
X329000
X342000Y203000
X347000Y231000
X359929Y250000
X328929
X272000Y258429
Y289429
T03
X332677Y149606
X352362
X403543
X423228
X474409
X494095
Y283465
X474409
X423228Y283500
X403543
X352362Y283465
X332677
T04
X526378Y202402
Y230748
X300222
Y202402
M30
