G04*
G04 #@! TF.GenerationSoftware,Altium Limited,Altium Designer,20.0.2 (26)*
G04*
G04 Layer_Color=8421504*
%FSLAX25Y25*%
%MOIN*%
G70*
G01*
G75*
%ADD14R,0.05512X0.05000*%
%ADD15R,0.04567X0.05787*%
%ADD16R,0.11024X0.03937*%
%ADD17R,0.06693X0.02362*%
%ADD18R,0.03937X0.11024*%
%ADD19R,0.02362X0.06693*%
D14*
X438640Y215952D02*
D03*
X447341D02*
D03*
D15*
X460496Y216000D02*
D03*
X467504D02*
D03*
D16*
X271654Y263878D02*
D03*
Y283366D02*
D03*
X551181Y170177D02*
D03*
Y150689D02*
D03*
D17*
X284842Y271161D02*
D03*
Y276083D02*
D03*
X537992Y162894D02*
D03*
Y157972D02*
D03*
D18*
X425098Y183071D02*
D03*
X405610D02*
D03*
X334744Y250000D02*
D03*
X354232D02*
D03*
X495965Y183071D02*
D03*
X476476D02*
D03*
X476476Y250000D02*
D03*
X495965D02*
D03*
X354232Y183071D02*
D03*
X334744D02*
D03*
X405610Y250000D02*
D03*
X425098D02*
D03*
D19*
X417815Y196260D02*
D03*
X412894D02*
D03*
X342028Y236811D02*
D03*
X346949D02*
D03*
X488681Y196260D02*
D03*
X483760D02*
D03*
X483760Y236811D02*
D03*
X488681D02*
D03*
X346949Y196260D02*
D03*
X342028D02*
D03*
X412894Y236811D02*
D03*
X417815D02*
D03*
M02*
