G04*
G04 #@! TF.GenerationSoftware,Altium Limited,Altium Designer,20.0.2 (26)*
G04*
G04 Layer_Physical_Order=1*
G04 Layer_Color=255*
%FSLAX25Y25*%
%MOIN*%
G70*
G01*
G75*
%ADD11C,0.01000*%
%ADD14R,0.05512X0.05000*%
%ADD15R,0.04567X0.05787*%
%ADD16R,0.11024X0.03937*%
%ADD17R,0.06693X0.02362*%
%ADD18R,0.03937X0.11024*%
%ADD19R,0.02362X0.06693*%
%ADD29R,0.15748X0.06890*%
%ADD30O,0.15748X0.19685*%
%ADD31C,0.15748*%
%ADD32C,0.02400*%
%ADD33C,0.02800*%
G36*
X573910Y294158D02*
X576443Y293479D01*
X578865Y292476D01*
X581135Y291165D01*
X583215Y289569D01*
X585069Y287715D01*
X586665Y285635D01*
X587976Y283365D01*
X588979Y280943D01*
X589658Y278410D01*
X590000Y275811D01*
X590000Y274500D01*
X590000D01*
X590000Y274500D01*
X590000Y158000D01*
X590000Y156722D01*
X589666Y154188D01*
X589005Y151718D01*
X588027Y149357D01*
X586749Y147143D01*
X585192Y145115D01*
X583385Y143307D01*
X581357Y141751D01*
X579143Y140473D01*
X576782Y139495D01*
X574312Y138834D01*
X571778Y138500D01*
X570500Y138500D01*
X257000D01*
X255657Y138500D01*
X252994Y138851D01*
X250399Y139546D01*
X247917Y140574D01*
X245591Y141917D01*
X243460Y143552D01*
X241560Y145451D01*
X239925Y147583D01*
X238582Y149909D01*
X237554Y152391D01*
X236859Y154985D01*
X236508Y157649D01*
X236508Y158992D01*
X236992Y275492D01*
Y276738D01*
X237317Y279208D01*
X237962Y281615D01*
X238915Y283917D01*
X240161Y286075D01*
X241678Y288052D01*
X243440Y289813D01*
X245417Y291330D01*
X247575Y292576D01*
X249877Y293530D01*
X252284Y294175D01*
X254754Y294500D01*
X256000Y294500D01*
X256000Y294500D01*
X570000Y294500D01*
X571311Y294500D01*
X573910Y294158D01*
D02*
G37*
%LPC*%
G36*
X403543Y292417D02*
X401804Y292246D01*
X400131Y291738D01*
X398589Y290914D01*
X397238Y289805D01*
X396129Y288454D01*
X395305Y286912D01*
X394798Y285240D01*
X394626Y283500D01*
X394798Y281760D01*
X395305Y280088D01*
X396129Y278546D01*
X397238Y277195D01*
X398589Y276086D01*
X400131Y275262D01*
X401804Y274754D01*
X403543Y274583D01*
X405283Y274754D01*
X406956Y275262D01*
X408497Y276086D01*
X409848Y277195D01*
X410957Y278546D01*
X411782Y280088D01*
X412289Y281760D01*
X412460Y283500D01*
X412289Y285240D01*
X411782Y286912D01*
X410957Y288454D01*
X409848Y289805D01*
X408497Y290914D01*
X406956Y291738D01*
X405283Y292246D01*
X403543Y292417D01*
D02*
G37*
G36*
X474409Y292382D02*
X472670Y292210D01*
X470997Y291703D01*
X469455Y290879D01*
X468104Y289770D01*
X466995Y288419D01*
X466171Y286877D01*
X465664Y285204D01*
X465492Y283465D01*
X465664Y281725D01*
X466171Y280052D01*
X466995Y278511D01*
X468104Y277159D01*
X469455Y276050D01*
X470997Y275226D01*
X472670Y274719D01*
X474409Y274548D01*
X476149Y274719D01*
X477822Y275226D01*
X479363Y276050D01*
X480715Y277159D01*
X481824Y278511D01*
X482648Y280052D01*
X483155Y281725D01*
X483326Y283465D01*
X483155Y285204D01*
X482648Y286877D01*
X481824Y288419D01*
X480715Y289770D01*
X479363Y290879D01*
X477822Y291703D01*
X476149Y292210D01*
X474409Y292382D01*
D02*
G37*
G36*
X332677D02*
X330938Y292210D01*
X329265Y291703D01*
X327723Y290879D01*
X326372Y289770D01*
X325263Y288419D01*
X324439Y286877D01*
X323932Y285204D01*
X323760Y283465D01*
X323932Y281725D01*
X324439Y280052D01*
X325263Y278511D01*
X326372Y277159D01*
X327723Y276050D01*
X329265Y275226D01*
X330938Y274719D01*
X332677Y274548D01*
X334417Y274719D01*
X336090Y275226D01*
X337631Y276050D01*
X338982Y277159D01*
X340091Y278511D01*
X340915Y280052D01*
X341423Y281725D01*
X341594Y283465D01*
X341423Y285204D01*
X340915Y286877D01*
X340091Y288419D01*
X338982Y289770D01*
X337631Y290879D01*
X336090Y291703D01*
X334417Y292210D01*
X332677Y292382D01*
D02*
G37*
G36*
X289189Y278264D02*
X280496D01*
Y273902D01*
X289189D01*
Y274471D01*
X297366D01*
X298646Y273191D01*
X298439Y272691D01*
X289189D01*
Y273342D01*
X280496D01*
Y268980D01*
X289189D01*
Y269632D01*
X298205D01*
X302919Y264919D01*
X303415Y264587D01*
X304000Y264471D01*
X339367D01*
X340471Y263367D01*
Y241158D01*
X339846D01*
Y232465D01*
X340471D01*
Y218000D01*
X340587Y217415D01*
X340919Y216919D01*
X345419Y212418D01*
Y200606D01*
X344768D01*
Y191913D01*
X345419D01*
Y176051D01*
X345536Y175466D01*
X345867Y174970D01*
X349919Y170919D01*
X350415Y170587D01*
X351000Y170471D01*
X412000D01*
X412585Y170587D01*
X413081Y170919D01*
X418896Y176734D01*
X419228Y177230D01*
X419344Y177815D01*
Y191913D01*
X419996D01*
Y200606D01*
X419478D01*
Y213051D01*
X419362Y213636D01*
X419030Y214133D01*
X414529Y218634D01*
Y232465D01*
X415075D01*
Y241158D01*
X414423D01*
Y254260D01*
X420133Y259971D01*
X477867D01*
X482231Y255607D01*
Y241158D01*
X481579D01*
Y232465D01*
X482471D01*
Y218000D01*
X482587Y217415D01*
X482919Y216919D01*
X487419Y212418D01*
Y200606D01*
X486500D01*
Y191913D01*
X487152D01*
Y171319D01*
X487268Y170734D01*
X487600Y170238D01*
X489808Y168029D01*
X489671Y167592D01*
X489623Y167529D01*
X487634D01*
X485289Y169874D01*
Y191913D01*
X485941D01*
Y199556D01*
X485949Y199594D01*
X485941Y199633D01*
Y200606D01*
X485853D01*
X485739Y200761D01*
X485730Y201270D01*
X486261Y202064D01*
X486447Y203000D01*
X486261Y203936D01*
X485730Y204730D01*
X484936Y205261D01*
X484000Y205447D01*
X483064Y205261D01*
X482270Y204730D01*
X481739Y203936D01*
X481553Y203000D01*
X481739Y202064D01*
X482270Y201270D01*
X482273Y201062D01*
X481836Y200606D01*
X481579D01*
Y191913D01*
X482231D01*
Y169240D01*
X482347Y168655D01*
X482678Y168159D01*
X485919Y164919D01*
X486415Y164587D01*
X487000Y164471D01*
X509367D01*
X516946Y156891D01*
X517442Y156560D01*
X518028Y156443D01*
X533646D01*
Y155791D01*
X542339D01*
Y160153D01*
X533646D01*
Y159502D01*
X518661D01*
X517299Y160864D01*
X517506Y161364D01*
X533646D01*
Y160713D01*
X542339D01*
Y165075D01*
X533646D01*
Y164423D01*
X517740D01*
X512081Y170081D01*
X511585Y170413D01*
X511000Y170529D01*
X491634D01*
X490210Y171952D01*
Y191913D01*
X490862D01*
Y199556D01*
X490870Y199594D01*
X490862Y199633D01*
Y200606D01*
X490478D01*
Y213051D01*
X490362Y213636D01*
X490030Y214133D01*
X485529Y218634D01*
Y232465D01*
X485941D01*
Y233438D01*
X485949Y233477D01*
X485941Y233515D01*
Y241158D01*
X485289D01*
Y256240D01*
X485173Y256825D01*
X484841Y257322D01*
X479581Y262581D01*
X479085Y262913D01*
X478500Y263029D01*
X419500D01*
X418915Y262913D01*
X418419Y262581D01*
X411812Y255975D01*
X411481Y255479D01*
X411364Y254894D01*
Y241158D01*
X410713D01*
Y232465D01*
X411471D01*
Y218000D01*
X411587Y217415D01*
X411919Y216919D01*
X416419Y212418D01*
Y200606D01*
X415634D01*
Y191913D01*
X416286D01*
Y178448D01*
X411367Y173529D01*
X351634D01*
X348478Y176685D01*
Y191913D01*
X349130D01*
Y200606D01*
X348478D01*
Y213051D01*
X348362Y213636D01*
X348030Y214133D01*
X343529Y218634D01*
Y232465D01*
X344209D01*
Y241158D01*
X343529D01*
Y264000D01*
X343413Y264585D01*
X343081Y265081D01*
X341192Y266971D01*
X341329Y267408D01*
X341377Y267471D01*
X342367D01*
X345419Y264418D01*
Y241158D01*
X344768D01*
Y232465D01*
X344768D01*
X344912Y232195D01*
X344739Y231936D01*
X344553Y231000D01*
X344739Y230064D01*
X345270Y229270D01*
X346064Y228739D01*
X347000Y228553D01*
X347936Y228739D01*
X348730Y229270D01*
X349261Y230064D01*
X349447Y231000D01*
X349261Y231936D01*
X349031Y232280D01*
X349130Y232465D01*
X349130D01*
Y241158D01*
X348478D01*
Y265051D01*
X348362Y265636D01*
X348030Y266133D01*
X344081Y270081D01*
X343585Y270413D01*
X343000Y270529D01*
X305633D01*
X299081Y277081D01*
X298585Y277413D01*
X298000Y277529D01*
X289189D01*
Y278264D01*
D02*
G37*
G36*
X419996Y241158D02*
X415634D01*
Y232465D01*
X415634D01*
X415837Y232084D01*
X415739Y231936D01*
X415553Y231000D01*
X415739Y230064D01*
X416270Y229270D01*
X417064Y228739D01*
X418000Y228553D01*
X418936Y228739D01*
X419730Y229270D01*
X420261Y230064D01*
X420447Y231000D01*
X420261Y231936D01*
X419957Y232391D01*
X419996Y232465D01*
X419996D01*
Y241158D01*
D02*
G37*
G36*
X490862D02*
X486500D01*
Y232465D01*
X486562D01*
X486798Y232024D01*
X486739Y231936D01*
X486553Y231000D01*
X486739Y230064D01*
X487270Y229270D01*
X488064Y228739D01*
X489000Y228553D01*
X489936Y228739D01*
X490730Y229270D01*
X491261Y230064D01*
X491447Y231000D01*
X491261Y231936D01*
X490862Y232533D01*
Y233438D01*
X490870Y233477D01*
X490862Y233515D01*
Y241158D01*
D02*
G37*
G36*
X300222Y241634D02*
X298482Y241462D01*
X296810Y240955D01*
X295268Y240131D01*
X293917Y239022D01*
X292808Y237670D01*
X291984Y236129D01*
X291476Y234456D01*
X291305Y232716D01*
Y228780D01*
X291476Y227040D01*
X291984Y225367D01*
X292808Y223826D01*
X293917Y222474D01*
X295268Y221365D01*
X296810Y220541D01*
X298482Y220034D01*
X300222Y219863D01*
X301962Y220034D01*
X303634Y220541D01*
X305176Y221365D01*
X306527Y222474D01*
X307636Y223826D01*
X308460Y225367D01*
X308968Y227040D01*
X309139Y228780D01*
Y232716D01*
X308968Y234456D01*
X308460Y236129D01*
X307636Y237670D01*
X306527Y239022D01*
X305176Y240131D01*
X303634Y240955D01*
X301962Y241462D01*
X300222Y241634D01*
D02*
G37*
G36*
X464221Y219894D02*
X463779D01*
X463721Y219894D01*
X457213D01*
Y217529D01*
X451096D01*
Y219452D01*
X443585D01*
Y212452D01*
X451096D01*
Y214471D01*
X457213D01*
Y212106D01*
X463721D01*
X463779Y212106D01*
X464221D01*
X464280Y212106D01*
X470787D01*
Y214471D01*
X472876D01*
X472914Y214414D01*
X473642Y213928D01*
X474500Y213757D01*
X475358Y213928D01*
X476086Y214414D01*
X476572Y215142D01*
X476743Y216000D01*
X476572Y216858D01*
X476086Y217586D01*
X475358Y218072D01*
X474500Y218243D01*
X473642Y218072D01*
X472914Y217586D01*
X472876Y217529D01*
X470787D01*
Y219894D01*
X464280D01*
X464221Y219894D01*
D02*
G37*
G36*
X413000Y205447D02*
X412064Y205261D01*
X411270Y204730D01*
X410739Y203936D01*
X410553Y203000D01*
X410739Y202064D01*
X411270Y201270D01*
X411273Y201062D01*
X410836Y200606D01*
X410713D01*
Y191913D01*
X415075D01*
Y200606D01*
X414853D01*
X414739Y200761D01*
X414730Y201270D01*
X415261Y202064D01*
X415447Y203000D01*
X415261Y203936D01*
X414730Y204730D01*
X413936Y205261D01*
X413000Y205447D01*
D02*
G37*
G36*
X342000D02*
X341064Y205261D01*
X340270Y204730D01*
X339739Y203936D01*
X339553Y203000D01*
X339739Y202064D01*
X340270Y201270D01*
X340273Y201062D01*
X339846Y200606D01*
X339846D01*
Y191913D01*
X344209D01*
Y200606D01*
X343853D01*
X343739Y200761D01*
X343730Y201270D01*
X344261Y202064D01*
X344447Y203000D01*
X344261Y203936D01*
X343730Y204730D01*
X342936Y205261D01*
X342000Y205447D01*
D02*
G37*
G36*
X526378Y213287D02*
X524638Y213116D01*
X522966Y212608D01*
X521424Y211784D01*
X520073Y210675D01*
X518964Y209324D01*
X518140Y207783D01*
X517632Y206110D01*
X517461Y204370D01*
Y200433D01*
X517632Y198694D01*
X518140Y197021D01*
X518964Y195479D01*
X520073Y194128D01*
X521424Y193019D01*
X522966Y192195D01*
X524638Y191687D01*
X526378Y191516D01*
X528118Y191687D01*
X529790Y192195D01*
X531332Y193019D01*
X532683Y194128D01*
X533792Y195479D01*
X534616Y197021D01*
X535124Y198694D01*
X535295Y200433D01*
Y204370D01*
X535124Y206110D01*
X534616Y207783D01*
X533792Y209324D01*
X532683Y210675D01*
X531332Y211784D01*
X529790Y212608D01*
X528118Y213116D01*
X526378Y213287D01*
D02*
G37*
G36*
X494095Y158523D02*
X492355Y158352D01*
X490682Y157844D01*
X489141Y157020D01*
X487789Y155912D01*
X486680Y154560D01*
X485856Y153019D01*
X485349Y151346D01*
X485178Y149606D01*
X485349Y147867D01*
X485856Y146194D01*
X486680Y144652D01*
X487789Y143301D01*
X489141Y142192D01*
X490682Y141368D01*
X492355Y140861D01*
X494095Y140689D01*
X495834Y140861D01*
X497507Y141368D01*
X499049Y142192D01*
X500400Y143301D01*
X501509Y144652D01*
X502333Y146194D01*
X502840Y147867D01*
X503011Y149606D01*
X502840Y151346D01*
X502333Y153019D01*
X501509Y154560D01*
X500400Y155912D01*
X499049Y157020D01*
X497507Y157844D01*
X495834Y158352D01*
X494095Y158523D01*
D02*
G37*
G36*
X423228D02*
X421489Y158352D01*
X419816Y157844D01*
X418274Y157020D01*
X416923Y155912D01*
X415814Y154560D01*
X414990Y153019D01*
X414483Y151346D01*
X414311Y149606D01*
X414483Y147867D01*
X414990Y146194D01*
X415814Y144652D01*
X416923Y143301D01*
X418274Y142192D01*
X419816Y141368D01*
X421489Y140861D01*
X423228Y140689D01*
X424968Y140861D01*
X426641Y141368D01*
X428182Y142192D01*
X429534Y143301D01*
X430643Y144652D01*
X431466Y146194D01*
X431974Y147867D01*
X432145Y149606D01*
X431974Y151346D01*
X431466Y153019D01*
X430643Y154560D01*
X429534Y155912D01*
X428182Y157020D01*
X426641Y157844D01*
X424968Y158352D01*
X423228Y158523D01*
D02*
G37*
G36*
X352362D02*
X350623Y158352D01*
X348950Y157844D01*
X347408Y157020D01*
X346057Y155912D01*
X344948Y154560D01*
X344124Y153019D01*
X343617Y151346D01*
X343445Y149606D01*
X343617Y147867D01*
X344124Y146194D01*
X344948Y144652D01*
X346057Y143301D01*
X347408Y142192D01*
X348950Y141368D01*
X350623Y140861D01*
X352362Y140689D01*
X354102Y140861D01*
X355775Y141368D01*
X357316Y142192D01*
X358667Y143301D01*
X359776Y144652D01*
X360600Y146194D01*
X361108Y147867D01*
X361279Y149606D01*
X361108Y151346D01*
X360600Y153019D01*
X359776Y154560D01*
X358667Y155912D01*
X357316Y157020D01*
X355775Y157844D01*
X354102Y158352D01*
X352362Y158523D01*
D02*
G37*
%LPD*%
G36*
X288187Y276905D02*
X288217Y276820D01*
X288267Y276745D01*
X288337Y276680D01*
X288427Y276625D01*
X288537Y276580D01*
X288667Y276545D01*
X288817Y276520D01*
X288987Y276505D01*
X289177Y276500D01*
Y275500D01*
X288987Y275495D01*
X288817Y275480D01*
X288667Y275455D01*
X288537Y275420D01*
X288427Y275375D01*
X288337Y275320D01*
X288267Y275255D01*
X288217Y275180D01*
X288187Y275095D01*
X288177Y275000D01*
Y277000D01*
X288187Y276905D01*
D02*
G37*
G36*
Y272066D02*
X288217Y271981D01*
X288267Y271906D01*
X288337Y271841D01*
X288427Y271786D01*
X288537Y271741D01*
X288667Y271706D01*
X288817Y271681D01*
X288987Y271666D01*
X289177Y271661D01*
Y270661D01*
X288987Y270656D01*
X288817Y270641D01*
X288667Y270616D01*
X288537Y270581D01*
X288427Y270536D01*
X288337Y270481D01*
X288267Y270416D01*
X288217Y270341D01*
X288187Y270256D01*
X288177Y270161D01*
Y272161D01*
X288187Y272066D01*
D02*
G37*
G36*
X484265Y240953D02*
X484280Y240781D01*
X484305Y240629D01*
X484340Y240498D01*
X484385Y240387D01*
X484440Y240295D01*
X484505Y240225D01*
X484580Y240174D01*
X484665Y240144D01*
X484760Y240134D01*
X482760D01*
X482855Y240144D01*
X482940Y240174D01*
X483015Y240225D01*
X483080Y240295D01*
X483135Y240387D01*
X483180Y240498D01*
X483215Y240629D01*
X483240Y240781D01*
X483255Y240953D01*
X483260Y241145D01*
X484260D01*
X484265Y240953D01*
D02*
G37*
G36*
X413399D02*
X413414Y240781D01*
X413439Y240629D01*
X413474Y240498D01*
X413519Y240387D01*
X413574Y240295D01*
X413639Y240225D01*
X413714Y240174D01*
X413799Y240144D01*
X413894Y240134D01*
X411894D01*
X411989Y240144D01*
X412074Y240174D01*
X412149Y240225D01*
X412214Y240295D01*
X412269Y240387D01*
X412314Y240498D01*
X412349Y240629D01*
X412374Y240781D01*
X412389Y240953D01*
X412394Y241145D01*
X413394D01*
X413399Y240953D01*
D02*
G37*
G36*
X347454D02*
X347469Y240781D01*
X347494Y240629D01*
X347529Y240498D01*
X347574Y240387D01*
X347629Y240295D01*
X347694Y240225D01*
X347769Y240174D01*
X347854Y240144D01*
X347949Y240134D01*
X345949D01*
X346044Y240144D01*
X346129Y240174D01*
X346204Y240225D01*
X346269Y240295D01*
X346324Y240387D01*
X346369Y240498D01*
X346404Y240629D01*
X346429Y240781D01*
X346444Y240953D01*
X346449Y241145D01*
X347449D01*
X347454Y240953D01*
D02*
G37*
G36*
X342505D02*
X342520Y240781D01*
X342545Y240629D01*
X342580Y240498D01*
X342625Y240387D01*
X342680Y240295D01*
X342745Y240225D01*
X342820Y240174D01*
X342905Y240144D01*
X343000Y240134D01*
X341000D01*
X341095Y240144D01*
X341180Y240174D01*
X341255Y240225D01*
X341320Y240295D01*
X341375Y240387D01*
X341420Y240498D01*
X341455Y240629D01*
X341480Y240781D01*
X341495Y240953D01*
X341500Y241145D01*
X342500D01*
X342505Y240953D01*
D02*
G37*
G36*
X484847Y233467D02*
X484774Y233437D01*
X484710Y233387D01*
X484654Y233317D01*
X484607Y233227D01*
X484569Y233117D01*
X484539Y232987D01*
X484517Y232837D01*
X484504Y232667D01*
X484500Y232477D01*
X483500D01*
X483495Y232667D01*
X483480Y232837D01*
X483455Y232987D01*
X483420Y233117D01*
X483375Y233227D01*
X483320Y233317D01*
X483255Y233387D01*
X483180Y233437D01*
X483095Y233467D01*
X483000Y233477D01*
X484929D01*
X484847Y233467D01*
D02*
G37*
G36*
X413905D02*
X413820Y233437D01*
X413745Y233387D01*
X413680Y233317D01*
X413625Y233227D01*
X413580Y233117D01*
X413545Y232987D01*
X413520Y232837D01*
X413505Y232667D01*
X413500Y232477D01*
X412500D01*
X412495Y232667D01*
X412480Y232837D01*
X412455Y232987D01*
X412420Y233117D01*
X412375Y233227D01*
X412320Y233317D01*
X412255Y233387D01*
X412180Y233437D01*
X412095Y233467D01*
X412000Y233477D01*
X414000D01*
X413905Y233467D01*
D02*
G37*
G36*
X342905D02*
X342820Y233437D01*
X342745Y233387D01*
X342680Y233317D01*
X342625Y233227D01*
X342580Y233117D01*
X342545Y232987D01*
X342520Y232837D01*
X342505Y232667D01*
X342500Y232477D01*
X341500D01*
X341495Y232667D01*
X341480Y232837D01*
X341455Y232987D01*
X341420Y233117D01*
X341375Y233227D01*
X341320Y233317D01*
X341255Y233387D01*
X341180Y233437D01*
X341095Y233467D01*
X341000Y233477D01*
X343000D01*
X342905Y233467D01*
D02*
G37*
G36*
X347879D02*
X347794Y233437D01*
X347719Y233387D01*
X347654Y233317D01*
X347599Y233227D01*
X347554Y233117D01*
X347519Y232987D01*
X347499Y232866D01*
X347518Y232769D01*
X347552Y232649D01*
X347596Y232533D01*
X347650Y232421D01*
X347713Y232313D01*
X347786Y232210D01*
X347869Y232112D01*
X347962Y232017D01*
X346002Y231982D01*
X346092Y232080D01*
X346172Y232182D01*
X346243Y232288D01*
X346304Y232397D01*
X346356Y232511D01*
X346399Y232628D01*
X346432Y232750D01*
X346451Y232854D01*
X346429Y232987D01*
X346394Y233117D01*
X346349Y233227D01*
X346294Y233317D01*
X346229Y233387D01*
X346154Y233437D01*
X346069Y233467D01*
X345974Y233477D01*
X347974D01*
X347879Y233467D01*
D02*
G37*
G36*
X484899Y201913D02*
X484818Y201812D01*
X484747Y201706D01*
X484685Y201597D01*
X484633Y201484D01*
X484590Y201367D01*
X484557Y201245D01*
X484533Y201120D01*
X484518Y200991D01*
X484514Y200858D01*
X483514Y200847D01*
X483509Y200981D01*
X483494Y201110D01*
X483470Y201235D01*
X483436Y201356D01*
X483393Y201472D01*
X483340Y201584D01*
X483277Y201692D01*
X483204Y201796D01*
X483122Y201895D01*
X483030Y201991D01*
X484990Y202010D01*
X484899Y201913D01*
D02*
G37*
G36*
X489453Y200404D02*
X489485Y200084D01*
X489513Y199954D01*
X489549Y199844D01*
X489593Y199754D01*
X489645Y199684D01*
X489706Y199634D01*
X489774Y199604D01*
X489850Y199594D01*
X487949D01*
X488044Y199604D01*
X488129Y199634D01*
X488204Y199684D01*
X488269Y199754D01*
X488324Y199844D01*
X488369Y199954D01*
X488404Y200084D01*
X488429Y200234D01*
X488444Y200404D01*
X488449Y200594D01*
X489449D01*
X489453Y200404D01*
D02*
G37*
G36*
X484518D02*
X484551Y200084D01*
X484580Y199954D01*
X484618Y199844D01*
X484663Y199754D01*
X484717Y199684D01*
X484780Y199634D01*
X484850Y199604D01*
X484929Y199594D01*
X483014D01*
X483109Y199604D01*
X483194Y199634D01*
X483269Y199684D01*
X483334Y199754D01*
X483389Y199844D01*
X483434Y199954D01*
X483469Y200084D01*
X483494Y200234D01*
X483509Y200404D01*
X483514Y200594D01*
X484514D01*
X484518Y200404D01*
D02*
G37*
G36*
X418454D02*
X418469Y200234D01*
X418494Y200084D01*
X418529Y199954D01*
X418574Y199844D01*
X418629Y199754D01*
X418694Y199684D01*
X418769Y199634D01*
X418854Y199604D01*
X418949Y199594D01*
X416949D01*
X417044Y199604D01*
X417129Y199634D01*
X417204Y199684D01*
X417269Y199754D01*
X417324Y199844D01*
X417369Y199954D01*
X417404Y200084D01*
X417429Y200234D01*
X417444Y200404D01*
X417449Y200594D01*
X418449D01*
X418454Y200404D01*
D02*
G37*
G36*
X347454D02*
X347469Y200234D01*
X347494Y200084D01*
X347529Y199954D01*
X347574Y199844D01*
X347629Y199754D01*
X347694Y199684D01*
X347769Y199634D01*
X347854Y199604D01*
X347949Y199594D01*
X345949D01*
X346044Y199604D01*
X346129Y199634D01*
X346204Y199684D01*
X346269Y199754D01*
X346324Y199844D01*
X346369Y199954D01*
X346404Y200084D01*
X346429Y200234D01*
X346444Y200404D01*
X346449Y200594D01*
X347449D01*
X347454Y200404D01*
D02*
G37*
G36*
X489586Y192927D02*
X489501Y192897D01*
X489426Y192846D01*
X489361Y192775D01*
X489306Y192684D01*
X489261Y192573D01*
X489226Y192441D01*
X489201Y192290D01*
X489186Y192118D01*
X489181Y191925D01*
X488181D01*
X488176Y192118D01*
X488161Y192290D01*
X488136Y192441D01*
X488101Y192573D01*
X488056Y192684D01*
X488001Y192775D01*
X487936Y192846D01*
X487861Y192897D01*
X487776Y192927D01*
X487681Y192937D01*
X489681D01*
X489586Y192927D01*
D02*
G37*
G36*
X484665D02*
X484580Y192897D01*
X484505Y192846D01*
X484440Y192775D01*
X484385Y192684D01*
X484340Y192573D01*
X484305Y192441D01*
X484280Y192290D01*
X484265Y192118D01*
X484260Y191925D01*
X483260D01*
X483255Y192118D01*
X483240Y192290D01*
X483215Y192441D01*
X483180Y192573D01*
X483135Y192684D01*
X483080Y192775D01*
X483015Y192846D01*
X482940Y192897D01*
X482855Y192927D01*
X482760Y192937D01*
X484760D01*
X484665Y192927D01*
D02*
G37*
G36*
X418720D02*
X418635Y192897D01*
X418560Y192846D01*
X418495Y192775D01*
X418440Y192684D01*
X418395Y192573D01*
X418360Y192441D01*
X418335Y192290D01*
X418320Y192118D01*
X418315Y191925D01*
X417315D01*
X417310Y192118D01*
X417295Y192290D01*
X417270Y192441D01*
X417235Y192573D01*
X417190Y192684D01*
X417135Y192775D01*
X417070Y192846D01*
X416995Y192897D01*
X416910Y192927D01*
X416815Y192937D01*
X418815D01*
X418720Y192927D01*
D02*
G37*
G36*
X347854D02*
X347769Y192897D01*
X347694Y192846D01*
X347629Y192775D01*
X347574Y192684D01*
X347529Y192573D01*
X347494Y192441D01*
X347469Y192290D01*
X347454Y192118D01*
X347449Y191925D01*
X346449D01*
X346444Y192118D01*
X346429Y192290D01*
X346404Y192441D01*
X346369Y192573D01*
X346324Y192684D01*
X346269Y192775D01*
X346204Y192846D01*
X346129Y192897D01*
X346044Y192927D01*
X345949Y192937D01*
X347949D01*
X347854Y192927D01*
D02*
G37*
G36*
X534658Y161894D02*
X534648Y161989D01*
X534618Y162074D01*
X534568Y162149D01*
X534498Y162214D01*
X534408Y162269D01*
X534298Y162314D01*
X534168Y162349D01*
X534018Y162374D01*
X533848Y162389D01*
X533658Y162394D01*
Y163394D01*
X533848Y163399D01*
X534018Y163414D01*
X534168Y163439D01*
X534298Y163474D01*
X534408Y163519D01*
X534498Y163574D01*
X534568Y163639D01*
X534618Y163714D01*
X534648Y163799D01*
X534658Y163894D01*
Y161894D01*
D02*
G37*
G36*
Y156972D02*
X534648Y157067D01*
X534618Y157152D01*
X534568Y157227D01*
X534498Y157292D01*
X534408Y157347D01*
X534298Y157392D01*
X534168Y157427D01*
X534018Y157452D01*
X533848Y157467D01*
X533658Y157472D01*
Y158472D01*
X533848Y158477D01*
X534018Y158492D01*
X534168Y158517D01*
X534298Y158552D01*
X534408Y158597D01*
X534498Y158652D01*
X534568Y158717D01*
X534618Y158792D01*
X534648Y158877D01*
X534658Y158972D01*
Y156972D01*
D02*
G37*
G36*
X418879Y233467D02*
X418794Y233437D01*
X418719Y233387D01*
X418654Y233317D01*
X418599Y233227D01*
X418554Y233117D01*
X418519Y232987D01*
X418499Y232866D01*
X418518Y232769D01*
X418552Y232649D01*
X418596Y232533D01*
X418650Y232421D01*
X418713Y232313D01*
X418786Y232210D01*
X418869Y232112D01*
X418962Y232017D01*
X417002Y231982D01*
X417092Y232080D01*
X417172Y232182D01*
X417243Y232288D01*
X417304Y232397D01*
X417356Y232511D01*
X417399Y232628D01*
X417432Y232750D01*
X417451Y232854D01*
X417429Y232987D01*
X417394Y233117D01*
X417349Y233227D01*
X417294Y233317D01*
X417229Y233387D01*
X417154Y233437D01*
X417069Y233467D01*
X416974Y233477D01*
X418974D01*
X418879Y233467D01*
D02*
G37*
G36*
X489779D02*
X489715Y233437D01*
X489659Y233387D01*
X489610Y233317D01*
X489568Y233227D01*
X489535Y233117D01*
X489508Y232987D01*
X489496Y232886D01*
X489518Y232769D01*
X489552Y232649D01*
X489596Y232533D01*
X489650Y232421D01*
X489713Y232313D01*
X489786Y232210D01*
X489869Y232112D01*
X489962Y232017D01*
X488002Y231982D01*
X488092Y232080D01*
X488172Y232182D01*
X488243Y232288D01*
X488304Y232397D01*
X488356Y232511D01*
X488399Y232628D01*
X488432Y232750D01*
X488451Y232854D01*
X488429Y232987D01*
X488394Y233117D01*
X488349Y233227D01*
X488294Y233317D01*
X488229Y233387D01*
X488154Y233437D01*
X488069Y233467D01*
X487974Y233477D01*
X489850D01*
X489779Y233467D01*
D02*
G37*
G36*
X458237Y215000D02*
X458226Y215095D01*
X458196Y215180D01*
X458146Y215255D01*
X458075Y215320D01*
X457984Y215375D01*
X457872Y215420D01*
X457741Y215455D01*
X457589Y215480D01*
X457417Y215495D01*
X457225Y215500D01*
Y216500D01*
X457417Y216505D01*
X457589Y216520D01*
X457741Y216545D01*
X457872Y216580D01*
X457984Y216625D01*
X458075Y216680D01*
X458146Y216745D01*
X458196Y216820D01*
X458226Y216905D01*
X458237Y217000D01*
Y215000D01*
D02*
G37*
G36*
X450083Y216905D02*
X450113Y216820D01*
X450164Y216745D01*
X450234Y216680D01*
X450325Y216625D01*
X450437Y216580D01*
X450568Y216545D01*
X450720Y216520D01*
X450892Y216505D01*
X451085Y216500D01*
Y215500D01*
X450892Y215495D01*
X450720Y215480D01*
X450568Y215455D01*
X450437Y215420D01*
X450325Y215375D01*
X450234Y215320D01*
X450164Y215255D01*
X450113Y215180D01*
X450083Y215095D01*
X450072Y215000D01*
Y217000D01*
X450083Y216905D01*
D02*
G37*
G36*
X413899Y201913D02*
X413818Y201812D01*
X413747Y201706D01*
X413685Y201597D01*
X413633Y201484D01*
X413590Y201367D01*
X413557Y201245D01*
X413533Y201120D01*
X413518Y200991D01*
X413514Y200858D01*
X412514Y200847D01*
X412509Y200981D01*
X412494Y201110D01*
X412470Y201235D01*
X412436Y201356D01*
X412393Y201472D01*
X412340Y201584D01*
X412277Y201692D01*
X412204Y201796D01*
X412122Y201895D01*
X412030Y201991D01*
X413990Y202010D01*
X413899Y201913D01*
D02*
G37*
G36*
X413519Y200404D02*
X413534Y200234D01*
X413559Y200084D01*
X413594Y199954D01*
X413639Y199844D01*
X413694Y199754D01*
X413759Y199684D01*
X413834Y199634D01*
X413919Y199604D01*
X414014Y199594D01*
X412014D01*
X412109Y199604D01*
X412194Y199634D01*
X412269Y199684D01*
X412334Y199754D01*
X412389Y199844D01*
X412434Y199954D01*
X412469Y200084D01*
X412494Y200234D01*
X412509Y200404D01*
X412514Y200594D01*
X413514D01*
X413519Y200404D01*
D02*
G37*
G36*
X342899Y201913D02*
X342818Y201812D01*
X342747Y201706D01*
X342685Y201597D01*
X342633Y201484D01*
X342590Y201367D01*
X342557Y201245D01*
X342533Y201120D01*
X342518Y200991D01*
X342514Y200858D01*
X341514Y200847D01*
X341509Y200981D01*
X341494Y201110D01*
X341470Y201235D01*
X341436Y201356D01*
X341393Y201472D01*
X341340Y201584D01*
X341277Y201692D01*
X341204Y201796D01*
X341122Y201895D01*
X341030Y201991D01*
X342990Y202010D01*
X342899Y201913D01*
D02*
G37*
G36*
X342519Y200404D02*
X342534Y200234D01*
X342559Y200084D01*
X342594Y199954D01*
X342639Y199844D01*
X342694Y199754D01*
X342759Y199684D01*
X342834Y199634D01*
X342919Y199604D01*
X343014Y199594D01*
X341014D01*
X341109Y199604D01*
X341194Y199634D01*
X341269Y199684D01*
X341334Y199754D01*
X341389Y199844D01*
X341434Y199954D01*
X341469Y200084D01*
X341494Y200234D01*
X341509Y200404D01*
X341514Y200594D01*
X342514D01*
X342519Y200404D01*
D02*
G37*
D11*
X430952Y215952D02*
G03*
X430500Y215500I0J-452D01*
G01*
X354232Y183071D02*
G03*
X354303Y183000I71J0D01*
G01*
X329071Y183071D02*
G03*
X329000Y183000I0J-71D01*
G01*
X484000Y218000D02*
X488949Y213051D01*
X484000Y218000D02*
Y236783D01*
X488949Y196260D02*
Y213051D01*
X342000Y218000D02*
Y264000D01*
X417949Y196260D02*
Y213051D01*
X467504Y216000D02*
X474500D01*
X405181Y183500D02*
X405610Y183071D01*
X400000Y183500D02*
X405181D01*
X425098Y183071D02*
X425527Y183500D01*
X432000D01*
X478500Y261500D02*
X483760Y256240D01*
Y236811D02*
Y256240D01*
X419500Y261500D02*
X478500D01*
X412894Y236811D02*
Y254894D01*
X419500Y261500D01*
X417815Y177815D02*
Y196260D01*
X412000Y172000D02*
X417815Y177815D01*
X351000Y172000D02*
X412000D01*
X346949Y176051D02*
X351000Y172000D01*
X346949Y176051D02*
Y196260D01*
X447341Y216000D02*
X460496D01*
X447341Y215952D02*
Y216000D01*
X430952Y215952D02*
X438640D01*
X550571Y169827D02*
Y175500D01*
X550500Y144571D02*
Y150268D01*
X495827Y183429D02*
X501500D01*
X470571Y183500D02*
X476268D01*
X495827Y249929D02*
X501500D01*
X470571Y250000D02*
X476268D01*
X425327Y249929D02*
X431000D01*
X400071Y250000D02*
X405768D01*
X271929Y258500D02*
Y264173D01*
X272000Y283732D02*
Y289429D01*
X329000Y250071D02*
X334673D01*
X354232Y250000D02*
X359929D01*
X354303Y183000D02*
X360000D01*
X329071Y183071D02*
X334744D01*
X346949Y236811D02*
Y265051D01*
X343000Y269000D02*
X346949Y265051D01*
X305000Y269000D02*
X343000D01*
X340000Y266000D02*
X342000Y264000D01*
X304000Y266000D02*
X340000D01*
X298839Y271161D02*
X304000Y266000D01*
X284842Y271161D02*
X298839D01*
X298000Y276000D02*
X305000Y269000D01*
X284842Y276083D02*
X284925Y276000D01*
X298000D01*
X518028Y157972D02*
X537992D01*
X510000Y166000D02*
X518028Y157972D01*
X487000Y166000D02*
X510000D01*
X483760Y169240D02*
X487000Y166000D01*
X517106Y162894D02*
X537992D01*
X511000Y169000D02*
X517106Y162894D01*
X491000Y169000D02*
X511000D01*
X488681Y171319D02*
Y196260D01*
Y171319D02*
X491000Y169000D01*
X483760Y169240D02*
Y196260D01*
X488974Y231026D02*
Y236785D01*
X484014Y196274D02*
Y202986D01*
X417974Y231026D02*
Y236785D01*
X413014Y196274D02*
Y202986D01*
X413000Y218000D02*
X417949Y213051D01*
X413000Y218000D02*
Y236783D01*
X346949Y196260D02*
Y213051D01*
X342000Y218000D02*
X346949Y213051D01*
X342014Y196274D02*
X342028Y196260D01*
X342014Y196274D02*
Y202986D01*
X342000Y203000D02*
X342014Y202986D01*
X346949Y236811D02*
X346974Y236785D01*
Y231026D02*
Y236785D01*
Y231026D02*
X347000Y231000D01*
D14*
X438640Y215952D02*
D03*
X447341D02*
D03*
D15*
X460496Y216000D02*
D03*
X467504D02*
D03*
D16*
X271654Y263878D02*
D03*
Y283366D02*
D03*
X551181Y170177D02*
D03*
Y150689D02*
D03*
D17*
X284842Y271161D02*
D03*
Y276083D02*
D03*
X537992Y162894D02*
D03*
Y157972D02*
D03*
D18*
X425098Y183071D02*
D03*
X405610D02*
D03*
X334744Y250000D02*
D03*
X354232D02*
D03*
X495965Y183071D02*
D03*
X476476D02*
D03*
X476476Y250000D02*
D03*
X495965D02*
D03*
X354232Y183071D02*
D03*
X334744D02*
D03*
X405610Y250000D02*
D03*
X425098D02*
D03*
D19*
X417815Y196260D02*
D03*
X412894D02*
D03*
X342028Y236811D02*
D03*
X346949D02*
D03*
X488681Y196260D02*
D03*
X483760D02*
D03*
X483760Y236811D02*
D03*
X488681D02*
D03*
X346949Y196260D02*
D03*
X342028D02*
D03*
X412894Y236811D02*
D03*
X417815D02*
D03*
D29*
X550000Y190000D02*
D03*
Y243150D02*
D03*
X276600D02*
D03*
Y190000D02*
D03*
D30*
X526378Y202402D02*
D03*
Y230748D02*
D03*
X300222D02*
D03*
Y202402D02*
D03*
D31*
X494095Y283465D02*
D03*
X474409D02*
D03*
X423228Y283500D02*
D03*
X403543D02*
D03*
X352362Y283465D02*
D03*
X332677D02*
D03*
X474409Y149606D02*
D03*
X494095D02*
D03*
X403543D02*
D03*
X423228D02*
D03*
X332677D02*
D03*
X352362D02*
D03*
D32*
X474500Y216000D02*
D03*
D33*
X484000Y203000D02*
D03*
X489000Y231000D02*
D03*
X413000Y203000D02*
D03*
X418000Y231000D02*
D03*
X347000D02*
D03*
X342000Y203000D02*
D03*
M02*
