M48
;Layer_Color=9474304
;FILE_FORMAT=2:5
INCH,TZ
;TYPE=PLATED
T1F00S00C0.01200
T2F00S00C0.01400
T4F00S00C0.06693
T5F00S00C0.10236
%
T01
X474500Y216000
T02
X484000Y203000
X489000Y231000
X418000
X413000Y203000
X342000
X347000Y231000
T04
X332677Y149606
X352362
X403543
X423228
X474409
X494095
Y283465
X474409
X423228Y283500
X403543
X352362Y283465
X332677
T05
X526378Y202402
Y230748
X300222
Y202402
M30
