G04*
G04 #@! TF.GenerationSoftware,Altium Limited,Altium Designer,20.0.2 (26)*
G04*
G04 Layer_Color=128*
%FSLAX25Y25*%
%MOIN*%
G70*
G01*
G75*
%ADD10C,0.01000*%
%ADD11C,0.00600*%
%ADD12C,0.00200*%
D10*
X255906Y295276D02*
G03*
X236221Y275590I0J-19685D01*
G01*
Y157480D02*
G03*
X255906Y137795I19685J0D01*
G01*
X570866D02*
G03*
X590551Y157480I0J19685D01*
G01*
Y275590D02*
G03*
X570866Y295276I-19685J-0D01*
G01*
X255906Y295276D02*
X570866D01*
X590551Y157480D02*
Y275590D01*
X255906Y137795D02*
X570866D01*
X236221Y157480D02*
Y275590D01*
X604000Y143795D02*
X606000Y137795D01*
X608000Y143795D01*
X606000Y295276D02*
X608000Y289276D01*
X604000D02*
X606000Y295276D01*
Y137795D02*
Y193842D01*
Y236029D02*
Y295276D01*
X572366Y137795D02*
X607000D01*
X572366Y295276D02*
X607000D01*
X236221Y118500D02*
X242220Y120500D01*
X236221Y118500D02*
X242220Y116500D01*
X584551D02*
X590551Y118500D01*
X584551Y120500D02*
X590551Y118500D01*
X236221D02*
X390692D01*
X432879D02*
X590551D01*
X236221Y117500D02*
Y155980D01*
X590551Y117500D02*
Y155980D01*
D11*
X609599Y198441D02*
X603601D01*
X606600Y195442D01*
Y199441D01*
X604601Y201440D02*
X603601Y202439D01*
Y204439D01*
X604601Y205438D01*
X608599D01*
X609599Y204439D01*
Y202439D01*
X608599Y201440D01*
X604601D01*
X609599Y207438D02*
X608599D01*
Y208437D01*
X609599D01*
Y207438D01*
X604601Y212436D02*
X603601Y213436D01*
Y215435D01*
X604601Y216435D01*
X608599D01*
X609599Y215435D01*
Y213436D01*
X608599Y212436D01*
X604601D01*
Y218434D02*
X603601Y219434D01*
Y221433D01*
X604601Y222433D01*
X608599D01*
X609599Y221433D01*
Y219434D01*
X608599Y218434D01*
X604601D01*
X609599Y224432D02*
X605600D01*
Y225432D01*
X606600Y226432D01*
X609599D01*
X606600D01*
X605600Y227431D01*
X606600Y228431D01*
X609599D01*
Y230430D02*
X605600D01*
Y231430D01*
X606600Y232430D01*
X609599D01*
X606600D01*
X605600Y233429D01*
X606600Y234429D01*
X609599D01*
X392292Y115901D02*
X393292Y114901D01*
X395291D01*
X396291Y115901D01*
Y119899D01*
X395291Y120899D01*
X393292D01*
X392292Y119899D01*
Y118900D01*
X393292Y117900D01*
X396291D01*
X398290Y119899D02*
X399290Y120899D01*
X401289D01*
X402289Y119899D01*
Y115901D01*
X401289Y114901D01*
X399290D01*
X398290Y115901D01*
Y119899D01*
X404288Y114901D02*
Y115901D01*
X405288D01*
Y114901D01*
X404288D01*
X409287Y119899D02*
X410286Y120899D01*
X412286D01*
X413285Y119899D01*
Y115901D01*
X412286Y114901D01*
X410286D01*
X409287Y115901D01*
Y119899D01*
X415285D02*
X416284Y120899D01*
X418284D01*
X419283Y119899D01*
Y115901D01*
X418284Y114901D01*
X416284D01*
X415285Y115901D01*
Y119899D01*
X421283Y114901D02*
Y118900D01*
X422282D01*
X423282Y117900D01*
Y114901D01*
Y117900D01*
X424282Y118900D01*
X425281Y117900D01*
Y114901D01*
X427281D02*
Y118900D01*
X428280D01*
X429280Y117900D01*
Y114901D01*
Y117900D01*
X430280Y118900D01*
X431280Y117900D01*
Y114901D01*
D12*
X521260Y230748D02*
X531496D01*
X526378Y225630D02*
Y235866D01*
X521260Y202402D02*
X531496D01*
X526378Y197283D02*
Y207520D01*
X548819Y243150D02*
X551181D01*
X550000Y241968D02*
Y244331D01*
X548819Y190000D02*
X551181D01*
X550000Y188819D02*
Y191181D01*
X490748Y283465D02*
X497441D01*
X494095Y280118D02*
Y286811D01*
X471063Y283465D02*
X477756D01*
X474409Y280118D02*
Y286811D01*
X295104Y202402D02*
X305340D01*
X300222Y197283D02*
Y207520D01*
X295104Y230748D02*
X305340D01*
X300222Y225630D02*
Y235866D01*
X275419Y190000D02*
X277781D01*
X276600Y188819D02*
Y191181D01*
X275419Y243150D02*
X277781D01*
X276600Y241968D02*
Y244331D01*
X419882Y283500D02*
X426575D01*
X423228Y280153D02*
Y286846D01*
X400197Y283500D02*
X406890D01*
X403543Y280153D02*
Y286846D01*
X349016Y283465D02*
X355709D01*
X352362Y280118D02*
Y286811D01*
X329331Y283465D02*
X336024D01*
X332677Y280118D02*
Y286811D01*
X471063Y149606D02*
X477756D01*
X474409Y146260D02*
Y152953D01*
X490748Y149606D02*
X497441D01*
X494095Y146260D02*
Y152953D01*
X400197Y149606D02*
X406890D01*
X403543Y146260D02*
Y152953D01*
X419882Y149606D02*
X426575D01*
X423228Y146260D02*
Y152953D01*
X329331Y149606D02*
X336024D01*
X332677Y146260D02*
Y152953D01*
X349016Y149606D02*
X355709D01*
X352362Y146260D02*
Y152953D01*
X431300Y183500D02*
X432700D01*
X432000Y182800D02*
Y184200D01*
X399300Y183500D02*
X400700D01*
X400000Y182800D02*
Y184200D01*
X429800Y215500D02*
X431200D01*
X430500Y214800D02*
Y216200D01*
X549800Y144571D02*
X551200D01*
X550500Y143871D02*
Y145271D01*
X549800Y175571D02*
X551200D01*
X550500Y174871D02*
Y176271D01*
X469871Y183500D02*
X471271D01*
X470571Y182800D02*
Y184200D01*
X500871Y183500D02*
X502271D01*
X501571Y182800D02*
Y184200D01*
X469871Y250000D02*
X471271D01*
X470571Y249300D02*
Y250700D01*
X500871Y250000D02*
X502271D01*
X501571Y249300D02*
Y250700D01*
X399371Y250000D02*
X400771D01*
X400071Y249300D02*
Y250700D01*
X430371Y250000D02*
X431771D01*
X431071Y249300D02*
Y250700D01*
X271300Y289429D02*
X272700D01*
X272000Y288729D02*
Y290129D01*
X271300Y258429D02*
X272700D01*
X272000Y257729D02*
Y259129D01*
X359229Y250000D02*
X360629D01*
X359929Y249300D02*
Y250700D01*
X328229Y250000D02*
X329629D01*
X328929Y249300D02*
Y250700D01*
X328300Y183000D02*
X329700D01*
X329000Y182300D02*
Y183700D01*
X359300Y183000D02*
X360700D01*
X360000Y182300D02*
Y183700D01*
X483300Y203000D02*
X484700D01*
X484000Y202300D02*
Y203700D01*
X488300Y231000D02*
X489700D01*
X489000Y230300D02*
Y231700D01*
X412300Y203000D02*
X413700D01*
X413000Y202300D02*
Y203700D01*
X417300Y231000D02*
X418700D01*
X418000Y230300D02*
Y231700D01*
X346300Y231000D02*
X347700D01*
X347000Y230300D02*
Y231700D01*
X341300Y203000D02*
X342700D01*
X342000Y202300D02*
Y203700D01*
M02*
