G04*
G04 #@! TF.GenerationSoftware,Altium Limited,Altium Designer,20.0.2 (26)*
G04*
G04 Layer_Color=65535*
%FSLAX25Y25*%
%MOIN*%
G70*
G01*
G75*
%ADD10C,0.00787*%
%ADD11C,0.01000*%
%ADD12C,0.00700*%
%ADD13C,0.00984*%
G36*
X541052Y229140D02*
X538625D01*
Y230427D01*
X541052D01*
Y229140D01*
D02*
G37*
G36*
X287975Y202722D02*
X285548D01*
Y204010D01*
X287975D01*
Y202722D01*
D02*
G37*
G36*
X287222Y232159D02*
X288788D01*
Y230839D01*
X287222D01*
Y229265D01*
X285902D01*
Y230839D01*
X284327D01*
Y232159D01*
X285902D01*
Y233726D01*
X287222D01*
Y232159D01*
D02*
G37*
G36*
X276722Y217015D02*
X274571D01*
Y217441D01*
X276722D01*
Y217015D01*
D02*
G37*
G36*
X289488Y216527D02*
X289433Y216611D01*
X289340Y216753D01*
X289231Y216921D01*
X289089Y216704D01*
X288979Y216533D01*
X287429Y218893D01*
X287943D01*
X289231Y216921D01*
X290514Y218893D01*
X291022D01*
X289488Y216527D01*
D02*
G37*
G36*
X269919Y214247D02*
X269401D01*
X268418Y218244D01*
X267402Y214247D01*
X267080D01*
X266065Y218244D01*
X265082Y214247D01*
X264563D01*
X265824Y218893D01*
X266299D01*
X267222Y215230D01*
X268183Y218893D01*
X268653D01*
X269919Y214247D01*
D02*
G37*
G36*
X290984D02*
X290476D01*
X289237Y216140D01*
X289351Y216316D01*
X289488Y216527D01*
X290984Y214247D01*
D02*
G37*
G36*
X289078Y216382D02*
X289160Y216256D01*
X289237Y216140D01*
X288008Y214247D01*
X287501D01*
X288979Y216533D01*
X289078Y216382D01*
D02*
G37*
G36*
X286021Y214673D02*
X287424D01*
Y214247D01*
X284148D01*
Y214673D01*
X285557D01*
Y218893D01*
X286021D01*
Y214673D01*
D02*
G37*
G36*
X282636Y218932D02*
X282679Y218926D01*
X282772Y218915D01*
X282881Y218899D01*
X283001Y218871D01*
X283121Y218833D01*
X283236Y218779D01*
X283242D01*
X283247Y218773D01*
X283263Y218762D01*
X283285Y218746D01*
X283334Y218708D01*
X283400Y218658D01*
X283471Y218588D01*
X283542Y218506D01*
X283613Y218407D01*
X283679Y218298D01*
Y218293D01*
X283684Y218282D01*
X283689Y218265D01*
X283700Y218244D01*
X283711Y218211D01*
X283728Y218173D01*
X283738Y218134D01*
X283749Y218085D01*
X283777Y217976D01*
X283804Y217845D01*
X283820Y217698D01*
X283826Y217539D01*
Y217534D01*
Y217528D01*
Y217523D01*
Y217490D01*
X283820Y217441D01*
Y217370D01*
X283809Y217294D01*
X283799Y217201D01*
X283788Y217102D01*
X283766Y216999D01*
Y216993D01*
X283760Y216988D01*
Y216971D01*
X283755Y216950D01*
X283738Y216895D01*
X283722Y216818D01*
X283695Y216731D01*
X283667Y216638D01*
X283629Y216535D01*
X283591Y216431D01*
X283586Y216425D01*
X283575Y216404D01*
X283564Y216376D01*
X283547Y216343D01*
X283542Y216333D01*
X283531Y216311D01*
X283520Y216283D01*
X283504Y216245D01*
X282494Y214247D01*
X281980D01*
X283036Y216310D01*
X283012Y216289D01*
X282958Y216251D01*
X282892Y216218D01*
X282881Y216213D01*
X282859Y216201D01*
X282821Y216191D01*
X282772Y216174D01*
X282712Y216158D01*
X282641Y216142D01*
X282565Y216136D01*
X282477Y216131D01*
X282412D01*
X282379Y216136D01*
X282335Y216142D01*
X282248Y216152D01*
X282139Y216169D01*
X282030Y216201D01*
X281915Y216240D01*
X281806Y216294D01*
X281800D01*
X281795Y216300D01*
X281757Y216327D01*
X281707Y216360D01*
X281647Y216414D01*
X281576Y216480D01*
X281505Y216562D01*
X281440Y216660D01*
X281380Y216769D01*
Y216775D01*
X281374Y216786D01*
X281363Y216802D01*
X281358Y216824D01*
X281347Y216857D01*
X281331Y216890D01*
X281320Y216933D01*
X281303Y216982D01*
X281281Y217091D01*
X281254Y217217D01*
X281238Y217365D01*
X281232Y217523D01*
Y217528D01*
Y217545D01*
Y217566D01*
Y217599D01*
X281238Y217637D01*
Y217681D01*
X281249Y217785D01*
X281271Y217905D01*
X281298Y218036D01*
X281336Y218167D01*
X281385Y218293D01*
Y218298D01*
X281391Y218309D01*
X281402Y218325D01*
X281413Y218342D01*
X281451Y218402D01*
X281500Y218473D01*
X281560Y218549D01*
X281636Y218631D01*
X281729Y218708D01*
X281833Y218773D01*
X281838D01*
X281844Y218779D01*
X281860Y218790D01*
X281882Y218800D01*
X281915Y218811D01*
X281948Y218822D01*
X282030Y218855D01*
X282133Y218882D01*
X282248Y218910D01*
X282384Y218932D01*
X282532Y218937D01*
X282603D01*
X282636Y218932D01*
D02*
G37*
G36*
X273517Y214247D02*
X273179D01*
Y214673D01*
X273059D01*
Y214247D01*
X271645D01*
X271612Y214252D01*
X271568Y214258D01*
X271470Y214269D01*
X271355Y214290D01*
X271230Y214323D01*
X271104Y214367D01*
X270984Y214427D01*
X270978D01*
X270968Y214433D01*
X270951Y214443D01*
X270929Y214460D01*
X270875Y214498D01*
X270804Y214553D01*
X270727Y214624D01*
X270645Y214711D01*
X270564Y214809D01*
X270493Y214924D01*
Y214929D01*
X270487Y214940D01*
X270476Y214957D01*
X270465Y214979D01*
X270454Y215011D01*
X270438Y215050D01*
X270422Y215088D01*
X270405Y215137D01*
X270372Y215246D01*
X270345Y215377D01*
X270323Y215519D01*
X270318Y215672D01*
Y215677D01*
Y215688D01*
Y215710D01*
Y215743D01*
X270323Y215781D01*
X270329Y215819D01*
X270340Y215923D01*
X270361Y216038D01*
X270389Y216163D01*
X270432Y216289D01*
X270493Y216414D01*
Y216420D01*
X270498Y216431D01*
X270509Y216447D01*
X270525Y216469D01*
X270564Y216524D01*
X270618Y216600D01*
X270689Y216677D01*
X270771Y216764D01*
X270869Y216846D01*
X270984Y216917D01*
X270989D01*
X271000Y216922D01*
X271017Y216933D01*
X271039Y216944D01*
X271071Y216955D01*
X271104Y216971D01*
X271148Y216988D01*
X271191Y217004D01*
X271301Y217037D01*
X271426Y217064D01*
X271563Y217086D01*
X271716Y217091D01*
X273059D01*
Y218893D01*
X273517D01*
Y214247D01*
D02*
G37*
G36*
X279147Y218932D02*
X279201Y218926D01*
X279261Y218921D01*
X279332Y218910D01*
X279409Y218893D01*
X279567Y218855D01*
X279649Y218822D01*
X279731Y218790D01*
X279813Y218751D01*
X279889Y218708D01*
X279966Y218653D01*
X280031Y218593D01*
X280037Y218588D01*
X280048Y218577D01*
X280064Y218555D01*
X280086Y218528D01*
X280108Y218495D01*
X280140Y218451D01*
X280168Y218402D01*
X280201Y218342D01*
X280233Y218276D01*
X280260Y218205D01*
X280293Y218124D01*
X280315Y218036D01*
X280337Y217943D01*
X280353Y217845D01*
X280364Y217736D01*
X280370Y217621D01*
Y215508D01*
Y215503D01*
Y215481D01*
Y215448D01*
X280364Y215404D01*
X280359Y215350D01*
X280353Y215290D01*
X280342Y215224D01*
X280326Y215153D01*
X280288Y214995D01*
X280260Y214913D01*
X280228Y214831D01*
X280189Y214755D01*
X280140Y214678D01*
X280091Y214602D01*
X280031Y214536D01*
X280026Y214531D01*
X280015Y214520D01*
X279993Y214504D01*
X279966Y214482D01*
X279933Y214454D01*
X279889Y214427D01*
X279835Y214394D01*
X279780Y214362D01*
X279709Y214329D01*
X279638Y214296D01*
X279556Y214269D01*
X279469Y214241D01*
X279370Y214220D01*
X279267Y214203D01*
X279158Y214192D01*
X279037Y214187D01*
X278977D01*
X278928Y214192D01*
X278874Y214198D01*
X278814Y214203D01*
X278743Y214214D01*
X278672Y214230D01*
X278508Y214274D01*
X278426Y214301D01*
X278344Y214334D01*
X278268Y214372D01*
X278191Y214422D01*
X278115Y214476D01*
X278049Y214536D01*
X278044Y214542D01*
X278033Y214553D01*
X278016Y214575D01*
X277995Y214602D01*
X277973Y214634D01*
X277940Y214678D01*
X277913Y214727D01*
X277880Y214787D01*
X277847Y214853D01*
X277820Y214924D01*
X277787Y215006D01*
X277765Y215093D01*
X277743Y215186D01*
X277727Y215284D01*
X277716Y215393D01*
X277711Y215508D01*
Y217621D01*
Y217627D01*
Y217648D01*
Y217681D01*
X277716Y217725D01*
X277722Y217779D01*
X277727Y217840D01*
X277738Y217905D01*
X277754Y217976D01*
X277793Y218134D01*
X277820Y218216D01*
X277853Y218298D01*
X277891Y218375D01*
X277940Y218451D01*
X277989Y218528D01*
X278049Y218593D01*
X278055Y218599D01*
X278066Y218609D01*
X278082Y218626D01*
X278115Y218648D01*
X278148Y218675D01*
X278191Y218702D01*
X278240Y218735D01*
X278300Y218762D01*
X278366Y218795D01*
X278437Y218828D01*
X278519Y218855D01*
X278606Y218882D01*
X278704Y218904D01*
X278808Y218921D01*
X278917Y218932D01*
X279037Y218937D01*
X279098D01*
X279147Y218932D01*
D02*
G37*
G36*
X537621Y216616D02*
X539171Y214256D01*
X538657D01*
X537369Y216229D01*
X537511Y216446D01*
X537621Y216616D01*
X537522Y216768D01*
X537440Y216894D01*
X537363Y217010D01*
X537249Y216833D01*
X537112Y216622D01*
X535616Y218903D01*
X536124D01*
X537363Y217010D01*
X538592Y218903D01*
X539100D01*
X537621Y216616D01*
D02*
G37*
G36*
X554988Y218897D02*
X555032Y218892D01*
X555130Y218881D01*
X555245Y218859D01*
X555370Y218826D01*
X555496Y218783D01*
X555616Y218723D01*
X555621D01*
X555632Y218717D01*
X555649Y218706D01*
X555671Y218690D01*
X555725Y218652D01*
X555796Y218597D01*
X555873Y218526D01*
X555955Y218439D01*
X556036Y218340D01*
X556107Y218226D01*
Y218220D01*
X556113Y218209D01*
X556124Y218193D01*
X556135Y218171D01*
X556146Y218138D01*
X556162Y218100D01*
X556178Y218062D01*
X556195Y218013D01*
X556227Y217904D01*
X556255Y217773D01*
X556277Y217631D01*
X556282Y217478D01*
Y217472D01*
Y217461D01*
Y217440D01*
Y217407D01*
X556277Y217369D01*
X556271Y217330D01*
X556260Y217227D01*
X556239Y217112D01*
X556211Y216986D01*
X556168Y216861D01*
X556107Y216735D01*
Y216730D01*
X556102Y216719D01*
X556091Y216702D01*
X556075Y216681D01*
X556036Y216626D01*
X555982Y216549D01*
X555911Y216473D01*
X555829Y216386D01*
X555731Y216304D01*
X555616Y216233D01*
X555611D01*
X555600Y216227D01*
X555583Y216216D01*
X555561Y216206D01*
X555529Y216195D01*
X555496Y216178D01*
X555452Y216162D01*
X555409Y216145D01*
X555299Y216113D01*
X555174Y216085D01*
X555037Y216063D01*
X554884Y216058D01*
X553541D01*
Y216484D01*
X553421D01*
Y216058D01*
X553541D01*
Y214256D01*
X553083D01*
Y218903D01*
X553421D01*
Y218477D01*
X553541D01*
Y216484D01*
X554950D01*
X555005Y216489D01*
X555070Y216500D01*
X555141Y216517D01*
X555223Y216539D01*
X555305Y216566D01*
X555387Y216610D01*
X555398Y216615D01*
X555419Y216631D01*
X555458Y216659D01*
X555507Y216702D01*
X555556Y216752D01*
X555611Y216812D01*
X555660Y216882D01*
X555709Y216959D01*
X555714Y216970D01*
X555725Y216997D01*
X555747Y217046D01*
X555769Y217106D01*
X555785Y217183D01*
X555807Y217270D01*
X555818Y217369D01*
X555824Y217478D01*
Y217483D01*
Y217489D01*
Y217505D01*
Y217527D01*
X555818Y217587D01*
X555807Y217658D01*
X555796Y217740D01*
X555774Y217827D01*
X555747Y217915D01*
X555709Y218002D01*
X555703Y218013D01*
X555687Y218040D01*
X555660Y218078D01*
X555627Y218127D01*
X555578Y218187D01*
X555523Y218242D01*
X555458Y218302D01*
X555387Y218351D01*
X555376Y218357D01*
X555348Y218373D01*
X555305Y218390D01*
X555250Y218417D01*
X555179Y218439D01*
X555097Y218455D01*
X555005Y218471D01*
X554906Y218477D01*
X553541D01*
Y218903D01*
X554955D01*
X554988Y218897D01*
D02*
G37*
G36*
X552029Y215709D02*
X549878D01*
Y216135D01*
X552029D01*
Y215709D01*
D02*
G37*
G36*
X560776Y214256D02*
X560301D01*
X559378Y217920D01*
X558417Y214256D01*
X557947D01*
X556681Y218903D01*
X557199Y218903D01*
X558182Y214906D01*
X559198Y218903D01*
X559520D01*
X560535Y214906D01*
X561518Y218903D01*
X562037D01*
X560776Y214256D01*
D02*
G37*
G36*
X542452Y218477D02*
X541043D01*
Y214256D01*
X540579D01*
Y218477D01*
X539176D01*
Y218903D01*
X542452D01*
Y218477D01*
D02*
G37*
G36*
X537167Y216539D02*
X537259Y216397D01*
X537369Y216229D01*
X536086Y214256D01*
X535578D01*
X537112Y216622D01*
X537167Y216539D01*
D02*
G37*
G36*
X547672Y218957D02*
X547726Y218952D01*
X547786Y218946D01*
X547857Y218935D01*
X547928Y218919D01*
X548092Y218875D01*
X548174Y218848D01*
X548256Y218815D01*
X548332Y218777D01*
X548409Y218728D01*
X548485Y218673D01*
X548551Y218613D01*
X548556Y218608D01*
X548567Y218597D01*
X548584Y218575D01*
X548605Y218548D01*
X548627Y218515D01*
X548660Y218471D01*
X548687Y218422D01*
X548720Y218362D01*
X548753Y218297D01*
X548780Y218226D01*
X548813Y218144D01*
X548835Y218056D01*
X548856Y217964D01*
X548873Y217865D01*
X548884Y217756D01*
X548889Y217641D01*
Y215528D01*
Y215523D01*
Y215501D01*
Y215468D01*
X548884Y215425D01*
X548878Y215370D01*
X548873Y215310D01*
X548862Y215245D01*
X548846Y215174D01*
X548807Y215015D01*
X548780Y214933D01*
X548747Y214851D01*
X548709Y214775D01*
X548660Y214699D01*
X548611Y214622D01*
X548551Y214557D01*
X548545Y214551D01*
X548534Y214540D01*
X548518Y214524D01*
X548485Y214502D01*
X548453Y214475D01*
X548409Y214447D01*
X548360Y214415D01*
X548300Y214387D01*
X548234Y214355D01*
X548163Y214322D01*
X548081Y214295D01*
X547994Y214267D01*
X547896Y214245D01*
X547792Y214229D01*
X547683Y214218D01*
X547563Y214213D01*
X547503D01*
X547453Y214218D01*
X547399Y214224D01*
X547339Y214229D01*
X547268Y214240D01*
X547191Y214256D01*
X547033Y214295D01*
X546951Y214327D01*
X546869Y214360D01*
X546787Y214398D01*
X546711Y214442D01*
X546634Y214496D01*
X546569Y214557D01*
X546563Y214562D01*
X546552Y214573D01*
X546536Y214595D01*
X546514Y214622D01*
X546492Y214655D01*
X546460Y214699D01*
X546432Y214748D01*
X546399Y214808D01*
X546367Y214873D01*
X546340Y214944D01*
X546307Y215026D01*
X546285Y215113D01*
X546263Y215206D01*
X546247Y215305D01*
X546236Y215414D01*
X546230Y215528D01*
Y217641D01*
Y217647D01*
Y217669D01*
Y217702D01*
X546236Y217745D01*
X546241Y217800D01*
X546247Y217860D01*
X546258Y217925D01*
X546274Y217996D01*
X546312Y218155D01*
X546340Y218237D01*
X546372Y218319D01*
X546411Y218395D01*
X546460Y218471D01*
X546509Y218548D01*
X546569Y218613D01*
X546574Y218619D01*
X546585Y218630D01*
X546607Y218646D01*
X546634Y218668D01*
X546667Y218695D01*
X546711Y218723D01*
X546765Y218755D01*
X546820Y218788D01*
X546891Y218821D01*
X546962Y218854D01*
X547044Y218881D01*
X547131Y218908D01*
X547229Y218930D01*
X547333Y218946D01*
X547442Y218957D01*
X547563Y218963D01*
X547623D01*
X547672Y218957D01*
D02*
G37*
G36*
X543564Y216840D02*
X543544Y216823D01*
X543506Y216784D01*
X543473Y216752D01*
X543451Y216724D01*
X543440Y216708D01*
X543435Y216702D01*
Y216588D01*
X543564Y216840D01*
X543588Y216861D01*
X543642Y216899D01*
X543708Y216932D01*
X543719Y216937D01*
X543741Y216948D01*
X543779Y216959D01*
X543828Y216975D01*
X543888Y216992D01*
X543959Y217008D01*
X544035Y217014D01*
X544123Y217019D01*
X544188D01*
X544221Y217014D01*
X544265Y217008D01*
X544352Y216997D01*
X544461Y216981D01*
X544570Y216948D01*
X544685Y216910D01*
X544794Y216855D01*
X544800D01*
X544805Y216850D01*
X544843Y216823D01*
X544893Y216790D01*
X544953Y216735D01*
X545024Y216670D01*
X545095Y216588D01*
X545160Y216489D01*
X545220Y216380D01*
Y216375D01*
X545226Y216364D01*
X545237Y216348D01*
X545242Y216326D01*
X545253Y216293D01*
X545269Y216260D01*
X545280Y216216D01*
X545297Y216167D01*
X545319Y216058D01*
X545346Y215932D01*
X545362Y215785D01*
X545368Y215627D01*
Y215621D01*
Y215605D01*
Y215583D01*
Y215550D01*
X545362Y215512D01*
Y215468D01*
X545351Y215365D01*
X545329Y215245D01*
X545302Y215113D01*
X545264Y214983D01*
X545215Y214857D01*
Y214851D01*
X545209Y214841D01*
X545198Y214824D01*
X545187Y214808D01*
X545149Y214748D01*
X545100Y214677D01*
X545040Y214600D01*
X544964Y214518D01*
X544871Y214442D01*
X544767Y214376D01*
X544762D01*
X544756Y214371D01*
X544740Y214360D01*
X544718Y214349D01*
X544685Y214338D01*
X544652Y214327D01*
X544570Y214295D01*
X544467Y214267D01*
X544352Y214240D01*
X544215Y214218D01*
X544068Y214213D01*
X543997D01*
X543964Y214218D01*
X543921Y214224D01*
X543828Y214234D01*
X543719Y214251D01*
X543599Y214278D01*
X543478Y214316D01*
X543364Y214371D01*
X543358D01*
X543353Y214376D01*
X543336Y214387D01*
X543315Y214404D01*
X543265Y214442D01*
X543200Y214491D01*
X543129Y214562D01*
X543058Y214644D01*
X542987Y214742D01*
X542921Y214851D01*
Y214857D01*
X542916Y214868D01*
X542911Y214884D01*
X542900Y214906D01*
X542889Y214939D01*
X542872Y214977D01*
X542862Y215015D01*
X542851Y215064D01*
X542823Y215174D01*
X542796Y215305D01*
X542780Y215452D01*
X542774Y215610D01*
Y215616D01*
Y215621D01*
Y215627D01*
Y215659D01*
X542780Y215709D01*
Y215780D01*
X542791Y215856D01*
X542801Y215949D01*
X542812Y216047D01*
X542834Y216151D01*
Y216156D01*
X542840Y216162D01*
Y216178D01*
X542845Y216200D01*
X542862Y216255D01*
X542878Y216331D01*
X542905Y216418D01*
X542932Y216511D01*
X542971Y216615D01*
X543009Y216719D01*
X543014Y216724D01*
X543025Y216746D01*
X543036Y216773D01*
X543053Y216806D01*
X543058Y216817D01*
X543069Y216839D01*
X543080Y216866D01*
X543096Y216904D01*
X544106Y218903D01*
X544620D01*
X543564Y216840D01*
D02*
G37*
G36*
X540698Y202310D02*
X542273D01*
Y200990D01*
X540698D01*
Y199424D01*
X539378D01*
Y200990D01*
X537812D01*
Y202310D01*
X539378D01*
Y203885D01*
X540698D01*
Y202310D01*
D02*
G37*
G36*
X534312Y275073D02*
X534395Y275062D01*
X534489Y275052D01*
X534583Y275042D01*
X534697Y275021D01*
X534937Y274958D01*
X535197Y274865D01*
X535332Y274813D01*
X535457Y274740D01*
X535593Y274667D01*
X535717Y274573D01*
X535728Y274563D01*
X535749Y274552D01*
X535780Y274521D01*
X535822Y274480D01*
X535863Y274427D01*
X535926Y274365D01*
X535978Y274292D01*
X536040Y274209D01*
X536155Y274011D01*
X536259Y273782D01*
X536300Y273657D01*
X536332Y273511D01*
X536352Y273366D01*
X536363Y273210D01*
Y273199D01*
Y273168D01*
Y273126D01*
X536352Y273064D01*
X536342Y272991D01*
X536332Y272908D01*
X536280Y272699D01*
X536196Y272481D01*
X536144Y272356D01*
X536082Y272231D01*
X535998Y272116D01*
X535905Y271991D01*
X535801Y271877D01*
X535686Y271762D01*
X535676Y271752D01*
X535655Y271742D01*
X535613Y271710D01*
X535561Y271669D01*
X535488Y271627D01*
X535416Y271575D01*
X535312Y271523D01*
X535207Y271461D01*
X535082Y271409D01*
X534947Y271357D01*
X534801Y271304D01*
X534645Y271263D01*
X534479Y271221D01*
X534302Y271190D01*
X534114Y271180D01*
X533917Y271169D01*
X533812D01*
X533750Y271180D01*
X533687Y271190D01*
X533604D01*
X533510Y271211D01*
X533313Y271242D01*
X533073Y271304D01*
X532813Y271377D01*
X532522Y271481D01*
Y271117D01*
Y271107D01*
Y271096D01*
Y271034D01*
X532542Y270951D01*
X532563Y270846D01*
X532594Y270722D01*
X532657Y270597D01*
X532730Y270472D01*
X532834Y270357D01*
X532844Y270347D01*
X532886Y270305D01*
X532959Y270264D01*
X533052Y270201D01*
X533177Y270149D01*
X533313Y270097D01*
X533479Y270066D01*
X533667Y270055D01*
X533729D01*
X533771Y270066D01*
X533896Y270076D01*
X534052Y270118D01*
X534229Y270170D01*
X534416Y270253D01*
X534604Y270368D01*
X534697Y270440D01*
X534781Y270524D01*
X536321Y270253D01*
X536311Y270232D01*
X536290Y270191D01*
X536248Y270118D01*
X536186Y270024D01*
X536103Y269920D01*
X535988Y269795D01*
X535863Y269670D01*
X535707Y269535D01*
X535530Y269399D01*
X535312Y269274D01*
X535082Y269150D01*
X534812Y269045D01*
X534510Y268952D01*
X534177Y268879D01*
X533812Y268837D01*
X533406Y268816D01*
X533261D01*
X533188Y268827D01*
X533094D01*
X532896Y268837D01*
X532667Y268868D01*
X532428Y268900D01*
X532189Y268952D01*
X531959Y269014D01*
X531949D01*
X531939Y269025D01*
X531907Y269035D01*
X531866Y269045D01*
X531762Y269097D01*
X531637Y269150D01*
X531501Y269222D01*
X531366Y269316D01*
X531231Y269410D01*
X531116Y269524D01*
X531106Y269535D01*
X531075Y269576D01*
X531023Y269639D01*
X530960Y269722D01*
X530898Y269826D01*
X530835Y269941D01*
X530773Y270076D01*
X530721Y270211D01*
X530710Y270232D01*
X530700Y270284D01*
X530679Y270368D01*
X530658Y270493D01*
X530637Y270659D01*
X530617Y270867D01*
X530606Y270992D01*
X530596Y271117D01*
Y271252D01*
Y271409D01*
Y273605D01*
X529628D01*
Y275000D01*
X532522D01*
Y274521D01*
X532532Y274532D01*
X532553Y274542D01*
X532594Y274573D01*
X532657Y274604D01*
X532730Y274646D01*
X532813Y274698D01*
X532907Y274750D01*
X533021Y274802D01*
X533271Y274906D01*
X533542Y275000D01*
X533844Y275062D01*
X534010Y275073D01*
X534166Y275083D01*
X534250D01*
X534312Y275073D01*
D02*
G37*
G36*
X573391D02*
X573464D01*
X573547Y275062D01*
X573745Y275021D01*
X573964Y274969D01*
X574193Y274886D01*
X574422Y274761D01*
X574526Y274688D01*
X574620Y274604D01*
Y274594D01*
X574640Y274584D01*
X574661Y274552D01*
X574692Y274511D01*
X574734Y274459D01*
X574776Y274407D01*
X574817Y274334D01*
X574859Y274251D01*
X574911Y274157D01*
X574953Y274053D01*
X575036Y273813D01*
X575088Y273532D01*
X575099Y273387D01*
X575109Y273220D01*
Y270368D01*
X576015D01*
Y268973D01*
X573194D01*
Y272731D01*
Y272751D01*
Y272803D01*
X573183Y272876D01*
X573173Y272970D01*
X573131Y273178D01*
X573100Y273272D01*
X573058Y273345D01*
X573048Y273355D01*
X573027Y273366D01*
X572996Y273397D01*
X572944Y273418D01*
X572881Y273449D01*
X572788Y273480D01*
X572683Y273491D01*
X572558Y273501D01*
X572538D01*
X572475Y273491D01*
X572371Y273480D01*
X572236Y273449D01*
X572080Y273397D01*
X571903Y273324D01*
X571694Y273220D01*
X571486Y273074D01*
Y270368D01*
X572413D01*
Y268973D01*
X569560D01*
Y273605D01*
X568592D01*
Y275000D01*
X571486D01*
Y274490D01*
X571497Y274500D01*
X571528Y274511D01*
X571569Y274542D01*
X571632Y274584D01*
X571715Y274625D01*
X571809Y274677D01*
X571913Y274729D01*
X572038Y274781D01*
X572298Y274896D01*
X572600Y274990D01*
X572756Y275031D01*
X572912Y275062D01*
X573079Y275073D01*
X573245Y275083D01*
X573329D01*
X573391Y275073D01*
D02*
G37*
G36*
X568082Y276332D02*
X567062D01*
Y270368D01*
X567905D01*
Y268973D01*
X565136D01*
Y269732D01*
X565126Y269722D01*
X565095Y269691D01*
X565053Y269649D01*
X564990Y269597D01*
X564918Y269535D01*
X564834Y269462D01*
X564730Y269389D01*
X564616Y269306D01*
X564480Y269222D01*
X564345Y269150D01*
X564043Y269014D01*
X563876Y268962D01*
X563710Y268910D01*
X563533Y268889D01*
X563346Y268879D01*
X563294D01*
X563231Y268889D01*
X563148D01*
X563044Y268910D01*
X562929Y268931D01*
X562804Y268962D01*
X562659Y268993D01*
X562513Y269045D01*
X562357Y269108D01*
X562200Y269191D01*
X562044Y269285D01*
X561888Y269389D01*
X561742Y269524D01*
X561597Y269670D01*
X561461Y269837D01*
X561451Y269847D01*
X561430Y269878D01*
X561399Y269930D01*
X561347Y270003D01*
X561295Y270097D01*
X561243Y270201D01*
X561180Y270326D01*
X561107Y270472D01*
X561045Y270617D01*
X560983Y270794D01*
X560930Y270971D01*
X560868Y271169D01*
X560826Y271367D01*
X560795Y271585D01*
X560774Y271814D01*
X560764Y272044D01*
Y272054D01*
Y272106D01*
Y272168D01*
X560774Y272262D01*
X560785Y272377D01*
X560806Y272512D01*
X560826Y272658D01*
X560858Y272824D01*
X560889Y272991D01*
X560941Y273178D01*
X560993Y273355D01*
X561066Y273543D01*
X561149Y273730D01*
X561243Y273917D01*
X561357Y274094D01*
X561482Y274261D01*
X561493Y274271D01*
X561513Y274303D01*
X561555Y274344D01*
X561607Y274396D01*
X561680Y274459D01*
X561763Y274542D01*
X561867Y274615D01*
X561982Y274698D01*
X562117Y274781D01*
X562253Y274854D01*
X562409Y274927D01*
X562575Y275000D01*
X562763Y275052D01*
X562950Y275094D01*
X563158Y275125D01*
X563377Y275135D01*
X563418D01*
X563471Y275125D01*
X563543D01*
X563627Y275114D01*
X563720Y275094D01*
X563835Y275073D01*
X563960Y275042D01*
X564095Y275000D01*
X564230Y274948D01*
X564376Y274896D01*
X564522Y274823D01*
X564678Y274729D01*
X564834Y274636D01*
X564990Y274521D01*
X565136Y274386D01*
Y276332D01*
X563929D01*
Y277727D01*
X568082D01*
Y276332D01*
D02*
G37*
G36*
X529242D02*
X528222D01*
Y270368D01*
X529066D01*
Y268973D01*
X526296D01*
Y269732D01*
X526286Y269722D01*
X526255Y269691D01*
X526213Y269649D01*
X526151Y269597D01*
X526078Y269535D01*
X525994Y269462D01*
X525890Y269389D01*
X525776Y269306D01*
X525641Y269222D01*
X525505Y269150D01*
X525203Y269014D01*
X525037Y268962D01*
X524870Y268910D01*
X524693Y268889D01*
X524506Y268879D01*
X524454D01*
X524391Y268889D01*
X524308D01*
X524204Y268910D01*
X524089Y268931D01*
X523965Y268962D01*
X523819Y268993D01*
X523673Y269045D01*
X523517Y269108D01*
X523361Y269191D01*
X523205Y269285D01*
X523048Y269389D01*
X522903Y269524D01*
X522757Y269670D01*
X522622Y269837D01*
X522611Y269847D01*
X522590Y269878D01*
X522559Y269930D01*
X522507Y270003D01*
X522455Y270097D01*
X522403Y270201D01*
X522341Y270326D01*
X522268Y270472D01*
X522205Y270617D01*
X522143Y270794D01*
X522091Y270971D01*
X522028Y271169D01*
X521987Y271367D01*
X521955Y271585D01*
X521935Y271814D01*
X521924Y272044D01*
Y272054D01*
Y272106D01*
Y272168D01*
X521935Y272262D01*
X521945Y272377D01*
X521966Y272512D01*
X521987Y272658D01*
X522018Y272824D01*
X522049Y272991D01*
X522101Y273178D01*
X522153Y273355D01*
X522226Y273543D01*
X522309Y273730D01*
X522403Y273917D01*
X522518Y274094D01*
X522643Y274261D01*
X522653Y274271D01*
X522674Y274303D01*
X522715Y274344D01*
X522767Y274396D01*
X522840Y274459D01*
X522924Y274542D01*
X523028Y274615D01*
X523142Y274698D01*
X523278Y274781D01*
X523413Y274854D01*
X523569Y274927D01*
X523736Y275000D01*
X523923Y275052D01*
X524110Y275094D01*
X524319Y275125D01*
X524537Y275135D01*
X524579D01*
X524631Y275125D01*
X524704D01*
X524787Y275114D01*
X524881Y275094D01*
X524995Y275073D01*
X525120Y275042D01*
X525255Y275000D01*
X525391Y274948D01*
X525536Y274896D01*
X525682Y274823D01*
X525838Y274729D01*
X525994Y274636D01*
X526151Y274521D01*
X526296Y274386D01*
Y276332D01*
X525089Y276332D01*
Y277727D01*
X529242Y277727D01*
Y276332D01*
D02*
G37*
G36*
X579315Y275094D02*
X579398D01*
X579492Y275073D01*
X579606Y275062D01*
X579720Y275031D01*
X579856Y275000D01*
X579991Y274958D01*
X580137Y274896D01*
X580283Y274833D01*
X580428Y274750D01*
X580574Y274657D01*
X580710Y274542D01*
X580834Y274407D01*
X580959Y274261D01*
Y275000D01*
X582427D01*
Y272044D01*
X580959D01*
Y272054D01*
Y272075D01*
Y272127D01*
X580949Y272179D01*
X580938Y272241D01*
X580928Y272325D01*
X580897Y272502D01*
X580845Y272699D01*
X580772Y272897D01*
X580678Y273085D01*
X580543Y273251D01*
X580522Y273272D01*
X580470Y273314D01*
X580387Y273366D01*
X580283Y273439D01*
X580147Y273511D01*
X579991Y273563D01*
X579814Y273605D01*
X579627Y273626D01*
X579564D01*
X579492Y273616D01*
X579398Y273595D01*
X579294Y273563D01*
X579179Y273511D01*
X579065Y273449D01*
X578961Y273355D01*
X578950Y273345D01*
X578919Y273303D01*
X578867Y273251D01*
X578815Y273168D01*
X578773Y273074D01*
X578721Y272960D01*
X578690Y272835D01*
X578680Y272699D01*
Y272679D01*
Y272637D01*
X578690Y272564D01*
X578711Y272470D01*
X578742Y272366D01*
X578794Y272252D01*
X578857Y272137D01*
X578950Y272033D01*
X578961Y272023D01*
X579002Y271981D01*
X579075Y271929D01*
X579169Y271856D01*
X579304Y271762D01*
X579481Y271658D01*
X579679Y271544D01*
X579929Y271419D01*
X579950Y271409D01*
X579991Y271388D01*
X580075Y271346D01*
X580168Y271294D01*
X580293Y271232D01*
X580439Y271159D01*
X580585Y271075D01*
X580751Y270992D01*
X581095Y270794D01*
X581428Y270576D01*
X581584Y270472D01*
X581730Y270357D01*
X581855Y270253D01*
X581969Y270149D01*
X581980Y270139D01*
X581990Y270118D01*
X582021Y270087D01*
X582052Y270045D01*
X582094Y269993D01*
X582136Y269920D01*
X582188Y269837D01*
X582229Y269753D01*
X582281Y269649D01*
X582333Y269535D01*
X582375Y269410D01*
X582417Y269274D01*
X582479Y268973D01*
X582490Y268816D01*
X582500Y268639D01*
Y268629D01*
Y268587D01*
Y268535D01*
X582490Y268452D01*
X582479Y268358D01*
X582458Y268244D01*
X582438Y268129D01*
X582406Y267994D01*
X582323Y267713D01*
X582271Y267567D01*
X582198Y267422D01*
X582115Y267276D01*
X582021Y267130D01*
X581917Y267005D01*
X581792Y266880D01*
X581782Y266870D01*
X581761Y266849D01*
X581719Y266818D01*
X581667Y266776D01*
X581605Y266735D01*
X581522Y266682D01*
X581428Y266620D01*
X581324Y266558D01*
X581209Y266505D01*
X581084Y266443D01*
X580814Y266339D01*
X580668Y266308D01*
X580512Y266276D01*
X580345Y266256D01*
X580179Y266245D01*
X580075D01*
X580012Y266256D01*
X579918Y266266D01*
X579825Y266287D01*
X579710Y266318D01*
X579596Y266349D01*
X579460Y266391D01*
X579335Y266443D01*
X579200Y266505D01*
X579065Y266589D01*
X578940Y266682D01*
X578804Y266787D01*
X578690Y266911D01*
X578575Y267057D01*
Y266329D01*
X577108D01*
Y268973D01*
X578575D01*
Y268962D01*
Y268941D01*
X578586Y268910D01*
X578596Y268868D01*
X578617Y268764D01*
X578659Y268629D01*
X578711Y268483D01*
X578784Y268327D01*
X578877Y268171D01*
X579002Y268036D01*
X579023Y268025D01*
X579065Y267984D01*
X579138Y267932D01*
X579242Y267859D01*
X579356Y267796D01*
X579502Y267744D01*
X579658Y267703D01*
X579825Y267692D01*
X579887D01*
X579950Y267703D01*
X580033Y267713D01*
X580137Y267744D01*
X580241Y267776D01*
X580345Y267828D01*
X580439Y267890D01*
X580449Y267900D01*
X580480Y267921D01*
X580512Y267973D01*
X580553Y268025D01*
X580605Y268098D01*
X580637Y268192D01*
X580668Y268286D01*
X580678Y268400D01*
Y268410D01*
Y268442D01*
X580668Y268494D01*
X580657Y268556D01*
X580626Y268639D01*
X580595Y268723D01*
X580543Y268806D01*
X580480Y268900D01*
X580470Y268910D01*
X580428Y268941D01*
X580366Y269004D01*
X580314Y269035D01*
X580251Y269077D01*
X580179Y269118D01*
X580095Y269170D01*
X579991Y269233D01*
X579887Y269295D01*
X579752Y269358D01*
X579616Y269431D01*
X579450Y269503D01*
X579273Y269587D01*
X579262D01*
X579231Y269608D01*
X579179Y269628D01*
X579117Y269660D01*
X579034Y269691D01*
X578940Y269743D01*
X578732Y269847D01*
X578492Y269962D01*
X578253Y270087D01*
X578013Y270222D01*
X577909Y270295D01*
X577805Y270357D01*
X577795D01*
X577784Y270368D01*
X577722Y270420D01*
X577628Y270493D01*
X577503Y270597D01*
X577378Y270722D01*
X577243Y270878D01*
X577108Y271055D01*
X576983Y271252D01*
Y271263D01*
X576972Y271273D01*
X576952Y271304D01*
X576931Y271346D01*
X576910Y271398D01*
X576889Y271461D01*
X576827Y271617D01*
X576775Y271804D01*
X576722Y272023D01*
X576691Y272273D01*
X576681Y272533D01*
Y272543D01*
Y272585D01*
Y272658D01*
X576691Y272741D01*
X576702Y272845D01*
X576722Y272970D01*
X576743Y273105D01*
X576775Y273251D01*
X576816Y273407D01*
X576868Y273563D01*
X576920Y273730D01*
X576993Y273886D01*
X577087Y274042D01*
X577180Y274188D01*
X577295Y274334D01*
X577430Y274459D01*
X577441Y274469D01*
X577462Y274490D01*
X577503Y274521D01*
X577566Y274563D01*
X577638Y274604D01*
X577722Y274667D01*
X577826Y274719D01*
X577930Y274781D01*
X578055Y274844D01*
X578190Y274896D01*
X578336Y274958D01*
X578492Y275000D01*
X578659Y275042D01*
X578836Y275073D01*
X579023Y275094D01*
X579210Y275104D01*
X579262D01*
X579315Y275094D01*
D02*
G37*
G36*
X540287Y275125D02*
X540392D01*
X540527Y275104D01*
X540683Y275094D01*
X540850Y275062D01*
X541037Y275031D01*
X541235Y274979D01*
X541443Y274927D01*
X541651Y274854D01*
X541859Y274771D01*
X542068Y274677D01*
X542276Y274563D01*
X542463Y274427D01*
X542651Y274282D01*
X542661Y274271D01*
X542692Y274240D01*
X542734Y274188D01*
X542796Y274126D01*
X542869Y274042D01*
X542942Y273928D01*
X543025Y273813D01*
X543109Y273668D01*
X543202Y273511D01*
X543286Y273345D01*
X543358Y273147D01*
X543431Y272949D01*
X543494Y272731D01*
X543535Y272491D01*
X543567Y272241D01*
X543577Y271981D01*
Y271960D01*
Y271919D01*
X543567Y271846D01*
Y271742D01*
X543546Y271627D01*
X543525Y271481D01*
X543504Y271325D01*
X543463Y271159D01*
X543410Y270982D01*
X543348Y270794D01*
X543275Y270607D01*
X543192Y270420D01*
X543088Y270232D01*
X542963Y270045D01*
X542817Y269878D01*
X542661Y269712D01*
X542651Y269701D01*
X542619Y269681D01*
X542567Y269639D01*
X542494Y269576D01*
X542411Y269514D01*
X542307Y269451D01*
X542182Y269368D01*
X542047Y269295D01*
X541901Y269222D01*
X541734Y269139D01*
X541558Y269077D01*
X541370Y269004D01*
X541172Y268952D01*
X540964Y268910D01*
X540756Y268889D01*
X540527Y268879D01*
X540433D01*
X540360Y268889D01*
X540277Y268900D01*
X540173Y268910D01*
X540058Y268931D01*
X539933Y268952D01*
X539652Y269025D01*
X539496Y269077D01*
X539340Y269129D01*
X539184Y269202D01*
X539017Y269285D01*
X538851Y269379D01*
X538695Y269483D01*
Y268973D01*
X537383D01*
Y271419D01*
X538757D01*
Y271409D01*
X538778Y271377D01*
X538809Y271325D01*
X538840Y271263D01*
X538893Y271180D01*
X538955Y271096D01*
X539028Y271013D01*
X539111Y270909D01*
X539215Y270815D01*
X539319Y270732D01*
X539444Y270638D01*
X539569Y270565D01*
X539715Y270503D01*
X539871Y270451D01*
X540048Y270420D01*
X540225Y270409D01*
X540287D01*
X540329Y270420D01*
X540444Y270430D01*
X540579Y270461D01*
X540745Y270513D01*
X540912Y270586D01*
X541079Y270690D01*
X541224Y270836D01*
X541245Y270857D01*
X541287Y270909D01*
X541339Y271003D01*
X541412Y271128D01*
X541485Y271294D01*
X541537Y271481D01*
X541578Y271710D01*
X541599Y271960D01*
Y271971D01*
Y272002D01*
Y272044D01*
X541589Y272096D01*
Y272168D01*
X541578Y272252D01*
X541547Y272439D01*
X541505Y272647D01*
X541433Y272855D01*
X541339Y273053D01*
X541276Y273137D01*
X541203Y273220D01*
X541183Y273241D01*
X541131Y273282D01*
X541047Y273345D01*
X540933Y273418D01*
X540798Y273501D01*
X540631Y273563D01*
X540444Y273605D01*
X540235Y273626D01*
X540152D01*
X540069Y273616D01*
X539954Y273595D01*
X539819Y273563D01*
X539673Y273511D01*
X539528Y273449D01*
X539371Y273366D01*
X539351Y273355D01*
X539298Y273314D01*
X539226Y273261D01*
X539132Y273178D01*
X539028Y273074D01*
X538913Y272949D01*
X538809Y272814D01*
X538705Y272658D01*
X537206Y273324D01*
X537217Y273345D01*
X537248Y273397D01*
X537300Y273491D01*
X537373Y273605D01*
X537466Y273740D01*
X537581Y273897D01*
X537727Y274063D01*
X537883Y274230D01*
X538081Y274396D01*
X538289Y274563D01*
X538528Y274719D01*
X538799Y274854D01*
X539090Y274969D01*
X539403Y275052D01*
X539756Y275114D01*
X539944Y275125D01*
X540131Y275135D01*
X540204D01*
X540287Y275125D01*
D02*
G37*
G36*
X552644Y273605D02*
X551530D01*
Y270368D01*
X552582D01*
Y268973D01*
X549771D01*
Y270493D01*
X549760Y270472D01*
X549750Y270440D01*
X549740Y270388D01*
X549719Y270336D01*
X549688Y270274D01*
X549615Y270118D01*
X549521Y269941D01*
X549396Y269743D01*
X549230Y269556D01*
X549032Y269368D01*
X549021Y269358D01*
X549001Y269347D01*
X548969Y269326D01*
X548928Y269295D01*
X548876Y269254D01*
X548803Y269212D01*
X548647Y269118D01*
X548439Y269035D01*
X548209Y268952D01*
X547949Y268900D01*
X547814Y268879D01*
X547470D01*
X547345Y268889D01*
Y270701D01*
X547533D01*
X547606Y270711D01*
X547772Y270722D01*
X547960Y270742D01*
X548168Y270774D01*
X548366Y270815D01*
X548553Y270867D01*
X548574Y270878D01*
X548626Y270899D01*
X548709Y270951D01*
X548824Y271023D01*
X548938Y271117D01*
X549063Y271242D01*
X549198Y271398D01*
X549313Y271585D01*
Y271596D01*
X549323Y271606D01*
X549344Y271638D01*
X549355Y271679D01*
X549375Y271731D01*
X549407Y271794D01*
X549459Y271950D01*
X549511Y272137D01*
X549563Y272356D01*
X549594Y272595D01*
X549604Y272866D01*
Y273605D01*
X548397D01*
Y275000D01*
X552644D01*
Y273605D01*
D02*
G37*
G36*
X556590Y275125D02*
X556694D01*
X556829Y275114D01*
X556985Y275094D01*
X557162Y275062D01*
X557349Y275031D01*
X557547Y274990D01*
X557745Y274927D01*
X557953Y274865D01*
X558161Y274781D01*
X558370Y274688D01*
X558567Y274573D01*
X558755Y274448D01*
X558932Y274303D01*
X558942Y274292D01*
X558973Y274261D01*
X559015Y274219D01*
X559067Y274146D01*
X559140Y274063D01*
X559213Y273959D01*
X559296Y273845D01*
X559369Y273709D01*
X559452Y273553D01*
X559536Y273387D01*
X559608Y273210D01*
X559681Y273012D01*
X559733Y272803D01*
X559775Y272574D01*
X559806Y272335D01*
X559817Y272085D01*
Y272064D01*
Y272023D01*
X559806Y271950D01*
Y271856D01*
X559785Y271731D01*
X559765Y271596D01*
X559744Y271440D01*
X559702Y271273D01*
X559650Y271086D01*
X559588Y270899D01*
X559515Y270711D01*
X559431Y270513D01*
X559327Y270316D01*
X559202Y270118D01*
X559057Y269930D01*
X558900Y269753D01*
X558890Y269743D01*
X558859Y269712D01*
X558807Y269670D01*
X558734Y269608D01*
X558640Y269535D01*
X558536Y269451D01*
X558401Y269368D01*
X558255Y269285D01*
X558099Y269202D01*
X557922Y269108D01*
X557724Y269035D01*
X557516Y268962D01*
X557297Y268900D01*
X557058Y268858D01*
X556808Y268827D01*
X556548Y268816D01*
X556444D01*
X556371Y268827D01*
X556288Y268837D01*
X556183Y268848D01*
X556069Y268858D01*
X555934Y268879D01*
X555663Y268941D01*
X555361Y269035D01*
X555205Y269097D01*
X555059Y269170D01*
X554914Y269254D01*
X554768Y269347D01*
X554757Y269358D01*
X554737Y269368D01*
X554695Y269399D01*
X554643Y269441D01*
X554580Y269493D01*
X554507Y269556D01*
X554351Y269701D01*
X554174Y269889D01*
X554008Y270118D01*
X553841Y270368D01*
X553779Y270503D01*
X553716Y270649D01*
Y270659D01*
X553706Y270680D01*
X553685Y270722D01*
X553664Y270784D01*
X553644Y270857D01*
X553623Y270940D01*
X553591Y271044D01*
X553560Y271148D01*
X553539Y271273D01*
X553508Y271409D01*
X553456Y271700D01*
X553425Y272023D01*
X553414Y272377D01*
X557912D01*
Y272387D01*
Y272408D01*
X557901Y272460D01*
Y272512D01*
X557891Y272585D01*
X557870Y272658D01*
X557828Y272835D01*
X557766Y273032D01*
X557683Y273220D01*
X557558Y273407D01*
X557485Y273480D01*
X557402Y273553D01*
X557391D01*
X557381Y273563D01*
X557318Y273605D01*
X557225Y273657D01*
X557100Y273720D01*
X556944Y273782D01*
X556777Y273834D01*
X556590Y273876D01*
X556392Y273886D01*
X556319D01*
X556267Y273876D01*
X556204Y273865D01*
X556132Y273845D01*
X555955Y273792D01*
X555746Y273709D01*
X555621Y273657D01*
X555507Y273584D01*
X555382Y273501D01*
X555247Y273407D01*
X555122Y273303D01*
X554986Y273178D01*
X553487Y273668D01*
X553498Y273688D01*
X553529Y273730D01*
X553591Y273803D01*
X553664Y273897D01*
X553768Y274011D01*
X553893Y274136D01*
X554039Y274261D01*
X554206Y274396D01*
X554403Y274542D01*
X554622Y274667D01*
X554861Y274792D01*
X555132Y274906D01*
X555424Y275000D01*
X555736Y275073D01*
X556069Y275114D01*
X556433Y275135D01*
X556506D01*
X556590Y275125D01*
D02*
G37*
G36*
X517481Y260908D02*
X515399D01*
Y263000D01*
X517481D01*
Y260908D01*
D02*
G37*
G36*
X573383Y261532D02*
X572311D01*
X570624Y255796D01*
X571770D01*
Y254328D01*
X566117D01*
Y255796D01*
X567283D01*
X565461Y261532D01*
X564431D01*
Y263000D01*
X568688D01*
Y261532D01*
X567585D01*
X568001Y260044D01*
X570250D01*
X570708Y261532D01*
X569542D01*
Y263000D01*
X573383D01*
Y261532D01*
D02*
G37*
G36*
X564149D02*
X562963D01*
Y255796D01*
X564149D01*
Y254328D01*
X558788D01*
X558684Y254339D01*
X558559Y254349D01*
X558424Y254370D01*
X558268Y254391D01*
X558112Y254422D01*
X557935Y254464D01*
X557758Y254516D01*
X557581Y254568D01*
X557404Y254641D01*
X557237Y254734D01*
X557081Y254828D01*
X556935Y254943D01*
X556800Y255078D01*
X556789Y255088D01*
X556769Y255109D01*
X556738Y255151D01*
X556696Y255213D01*
X556644Y255276D01*
X556592Y255359D01*
X556529Y255463D01*
X556467Y255567D01*
X556415Y255692D01*
X556352Y255817D01*
X556248Y256109D01*
X556207Y256265D01*
X556175Y256421D01*
X556154Y256587D01*
X556144Y256764D01*
Y256785D01*
Y256827D01*
X556154Y256910D01*
X556165Y257004D01*
X556186Y257129D01*
X556227Y257264D01*
X556269Y257420D01*
X556331Y257587D01*
X556415Y257764D01*
X556508Y257941D01*
X556633Y258118D01*
X556779Y258295D01*
X556956Y258472D01*
X557154Y258628D01*
X557383Y258784D01*
X557654Y258919D01*
X556238Y261532D01*
X555114D01*
Y263000D01*
X557758D01*
X559725Y259200D01*
X560704D01*
Y261532D01*
X559621D01*
Y263000D01*
X564149D01*
Y261532D01*
D02*
G37*
G36*
X585084Y255796D02*
X586000D01*
Y254328D01*
X582096D01*
Y255796D01*
X582992D01*
X581586Y259960D01*
X580264Y255796D01*
X581045D01*
Y254328D01*
X577932D01*
Y255796D01*
X578744D01*
X577318Y259960D01*
X575954Y255796D01*
X576818D01*
Y254328D01*
X573352D01*
Y255796D01*
X574289D01*
X576683Y263052D01*
X578307D01*
X579671Y259107D01*
X580962Y263052D01*
X582617D01*
X585084Y255796D01*
D02*
G37*
G36*
X524196Y263094D02*
X524352Y263083D01*
X524550Y263062D01*
X524779Y263042D01*
X525029Y263000D01*
X525299Y262948D01*
X525580Y262885D01*
X525872Y262802D01*
X526174Y262698D01*
X526476Y262573D01*
X526767Y262438D01*
X527048Y262271D01*
X527319Y262073D01*
X527569Y261855D01*
X527579Y261844D01*
X527621Y261792D01*
X527683Y261730D01*
X527767Y261626D01*
X527860Y261501D01*
X527964Y261355D01*
X528079Y261178D01*
X528193Y260981D01*
X528308Y260762D01*
X528422Y260522D01*
X528526Y260252D01*
X528620Y259971D01*
X528703Y259669D01*
X528766Y259346D01*
X528807Y259003D01*
X528818Y258649D01*
Y258628D01*
Y258586D01*
Y258513D01*
X528807Y258420D01*
X528797Y258305D01*
X528787Y258170D01*
X528766Y258014D01*
X528745Y257847D01*
X528703Y257670D01*
X528672Y257483D01*
X528620Y257285D01*
X528558Y257077D01*
X528485Y256879D01*
X528402Y256671D01*
X528308Y256473D01*
X528204Y256275D01*
X528193Y256265D01*
X528172Y256234D01*
X528141Y256181D01*
X528089Y256109D01*
X528027Y256015D01*
X527954Y255921D01*
X527860Y255817D01*
X527756Y255692D01*
X527641Y255567D01*
X527517Y255442D01*
X527381Y255317D01*
X527236Y255182D01*
X527069Y255057D01*
X526902Y254943D01*
X526715Y254828D01*
X526528Y254724D01*
X526517Y254714D01*
X526476Y254703D01*
X526424Y254672D01*
X526340Y254641D01*
X526247Y254599D01*
X526122Y254557D01*
X525997Y254505D01*
X525841Y254453D01*
X525674Y254412D01*
X525497Y254360D01*
X525310Y254318D01*
X525112Y254276D01*
X524685Y254214D01*
X524467Y254204D01*
X524237Y254193D01*
X524165D01*
X524071Y254204D01*
X523946D01*
X523800Y254214D01*
X523634Y254235D01*
X523446Y254266D01*
X523238Y254297D01*
X523030Y254339D01*
X522801Y254401D01*
X522572Y254464D01*
X522353Y254547D01*
X522124Y254641D01*
X521906Y254755D01*
X521697Y254891D01*
X521510Y255036D01*
Y254328D01*
X520042D01*
Y257410D01*
X521510D01*
Y257399D01*
X521521Y257379D01*
X521541Y257337D01*
X521562Y257285D01*
X521583Y257212D01*
X521625Y257139D01*
X521718Y256973D01*
X521843Y256775D01*
X521999Y256567D01*
X522197Y256369D01*
X522312Y256275D01*
X522437Y256192D01*
X522447Y256181D01*
X522468Y256171D01*
X522499Y256150D01*
X522551Y256119D01*
X522613Y256088D01*
X522697Y256046D01*
X522780Y256005D01*
X522874Y255963D01*
X523092Y255880D01*
X523342Y255807D01*
X523613Y255755D01*
X523759Y255734D01*
X524008D01*
X524081Y255744D01*
X524165Y255755D01*
X524269Y255775D01*
X524383Y255796D01*
X524508Y255827D01*
X524644Y255869D01*
X524789Y255911D01*
X524935Y255973D01*
X525081Y256046D01*
X525226Y256129D01*
X525383Y256234D01*
X525528Y256338D01*
X525664Y256473D01*
X525674Y256483D01*
X525695Y256504D01*
X525726Y256546D01*
X525778Y256608D01*
X525830Y256681D01*
X525893Y256775D01*
X525955Y256879D01*
X526028Y257004D01*
X526090Y257139D01*
X526163Y257285D01*
X526226Y257452D01*
X526278Y257639D01*
X526330Y257837D01*
X526361Y258045D01*
X526382Y258263D01*
X526392Y258503D01*
Y258524D01*
Y258565D01*
Y258649D01*
X526382Y258742D01*
X526371Y258867D01*
X526351Y259013D01*
X526330Y259169D01*
X526299Y259336D01*
X526257Y259523D01*
X526215Y259700D01*
X526153Y259887D01*
X526080Y260075D01*
X525997Y260262D01*
X525893Y260439D01*
X525778Y260606D01*
X525653Y260762D01*
X525643Y260772D01*
X525622Y260793D01*
X525580Y260835D01*
X525518Y260887D01*
X525445Y260939D01*
X525362Y261001D01*
X525268Y261074D01*
X525153Y261147D01*
X525029Y261220D01*
X524893Y261293D01*
X524737Y261355D01*
X524581Y261407D01*
X524414Y261459D01*
X524237Y261501D01*
X524050Y261522D01*
X523852Y261532D01*
X523779D01*
X523717Y261522D01*
X523655D01*
X523582Y261511D01*
X523394Y261480D01*
X523197Y261438D01*
X522978Y261376D01*
X522759Y261282D01*
X522562Y261157D01*
X522551D01*
X522541Y261137D01*
X522478Y261085D01*
X522385Y261001D01*
X522270Y260887D01*
X522156Y260731D01*
X522031Y260554D01*
X521926Y260335D01*
X521833Y260096D01*
X523353D01*
Y258628D01*
X519293D01*
Y258649D01*
Y258701D01*
Y258784D01*
X519303Y258888D01*
X519313Y259023D01*
X519324Y259179D01*
X519345Y259346D01*
X519366Y259534D01*
X519397Y259731D01*
X519428Y259939D01*
X519532Y260356D01*
X519595Y260564D01*
X519678Y260762D01*
X519761Y260960D01*
X519865Y261137D01*
X519876Y261147D01*
X519897Y261178D01*
X519928Y261220D01*
X519969Y261293D01*
X520032Y261366D01*
X520105Y261459D01*
X520188Y261553D01*
X520292Y261657D01*
X520396Y261772D01*
X520521Y261896D01*
X520656Y262011D01*
X520813Y262136D01*
X520969Y262250D01*
X521146Y262365D01*
X521333Y262479D01*
X521531Y262584D01*
X521541Y262594D01*
X521583Y262604D01*
X521635Y262636D01*
X521718Y262667D01*
X521822Y262708D01*
X521947Y262750D01*
X522083Y262792D01*
X522239Y262844D01*
X522416Y262896D01*
X522603Y262937D01*
X522801Y262979D01*
X523020Y263021D01*
X523238Y263052D01*
X523478Y263083D01*
X523717Y263094D01*
X523967Y263104D01*
X524123D01*
X524196Y263094D01*
D02*
G37*
G36*
X552095Y256640D02*
Y261532D01*
X551002D01*
Y263000D01*
X554791D01*
Y261532D01*
X553635D01*
Y255796D01*
X554791D01*
Y254328D01*
X551158D01*
X547952Y259752D01*
Y255796D01*
X549076D01*
Y254328D01*
X545193D01*
Y255796D01*
X546411D01*
Y263063D01*
X548347D01*
X552095Y256640D01*
D02*
G37*
G36*
X544745Y261532D02*
X543434D01*
Y255796D01*
X544745D01*
Y254328D01*
X539842D01*
Y255796D01*
X541175D01*
Y261532D01*
X539842D01*
Y263000D01*
X544745D01*
Y261532D01*
D02*
G37*
G36*
X536542Y256640D02*
Y261532D01*
X535449D01*
Y263000D01*
X539238D01*
Y261532D01*
X538083D01*
Y255796D01*
X539238D01*
Y254328D01*
X535605D01*
X532399Y259752D01*
Y255796D01*
X533523D01*
Y254328D01*
X529640D01*
Y255796D01*
X530858D01*
Y263063D01*
X532795D01*
X536542Y256640D01*
D02*
G37*
G36*
X517440Y256702D02*
Y254328D01*
X515514D01*
Y256702D01*
X516014Y259971D01*
X516909D01*
X517440Y256702D01*
D02*
G37*
G36*
X533244Y286408D02*
X531162D01*
Y288500D01*
X533244D01*
Y286408D01*
D02*
G37*
G36*
X558686Y282139D02*
Y287032D01*
X557593D01*
Y288500D01*
X561382D01*
Y287032D01*
X560226D01*
Y281296D01*
X561382D01*
Y279829D01*
X557749D01*
X554542Y285252D01*
Y281296D01*
X555667D01*
Y279829D01*
X551784D01*
Y281296D01*
X553002D01*
Y288562D01*
X554938D01*
X558686Y282139D01*
D02*
G37*
G36*
X551263Y287032D02*
X550025D01*
Y281296D01*
X551263D01*
Y279829D01*
X546495D01*
Y281296D01*
X547765D01*
Y287032D01*
X545205D01*
Y284357D01*
X543518D01*
Y288500D01*
X551263D01*
Y287032D01*
D02*
G37*
G36*
X541218D02*
X540000D01*
Y284700D01*
X542352Y281296D01*
X543404D01*
Y279829D01*
X539063D01*
Y281296D01*
X539927D01*
X538657Y283399D01*
X537366Y281296D01*
X538261D01*
Y279829D01*
X534430D01*
Y281296D01*
X535502D01*
X537741Y284700D01*
Y287032D01*
X536533D01*
Y288500D01*
X541218D01*
Y287032D01*
D02*
G37*
G36*
X533202Y282202D02*
Y279829D01*
X531276D01*
Y282202D01*
X531776Y285471D01*
X532671D01*
X533202Y282202D01*
D02*
G37*
G36*
X567336Y288594D02*
X567399D01*
X567565Y288583D01*
X567763Y288562D01*
X567982Y288531D01*
X568232Y288490D01*
X568502Y288438D01*
X568783Y288365D01*
X569075Y288281D01*
X569377Y288177D01*
X569679Y288042D01*
X569970Y287896D01*
X570251Y287719D01*
X570511Y287511D01*
X570761Y287282D01*
X570772Y287261D01*
X570813Y287220D01*
X570876Y287147D01*
X570959Y287043D01*
X571053Y286918D01*
X571157Y286761D01*
X571261Y286585D01*
X571375Y286387D01*
X571500Y286168D01*
X571604Y285929D01*
X571708Y285668D01*
X571802Y285398D01*
X571885Y285106D01*
X571948Y284804D01*
X571990Y284482D01*
X572000Y284149D01*
Y284138D01*
Y284128D01*
Y284065D01*
X571990Y283972D01*
X571979Y283836D01*
X571958Y283680D01*
X571927Y283493D01*
X571896Y283285D01*
X571844Y283056D01*
X571771Y282816D01*
X571688Y282566D01*
X571584Y282306D01*
X571459Y282035D01*
X571313Y281765D01*
X571146Y281505D01*
X570949Y281244D01*
X570720Y280994D01*
X570709Y280984D01*
X570657Y280942D01*
X570584Y280870D01*
X570480Y280786D01*
X570355Y280693D01*
X570199Y280578D01*
X570012Y280464D01*
X569793Y280339D01*
X569554Y280224D01*
X569293Y280110D01*
X569002Y279995D01*
X568690Y279891D01*
X568346Y279818D01*
X567982Y279745D01*
X567597Y279703D01*
X567180Y279693D01*
X567024D01*
X566962Y279703D01*
X566805Y279714D01*
X566618Y279735D01*
X566399Y279766D01*
X566160Y279797D01*
X565900Y279860D01*
X565619Y279922D01*
X565338Y280005D01*
X565046Y280120D01*
X564744Y280245D01*
X564453Y280391D01*
X564172Y280568D01*
X563901Y280765D01*
X563651Y280994D01*
X563641Y281005D01*
X563599Y281057D01*
X563537Y281130D01*
X563453Y281223D01*
X563349Y281348D01*
X563245Y281505D01*
X563131Y281681D01*
X563006Y281879D01*
X562881Y282098D01*
X562766Y282337D01*
X562662Y282597D01*
X562558Y282879D01*
X562475Y283170D01*
X562412Y283482D01*
X562371Y283805D01*
X562360Y284149D01*
Y284169D01*
Y284232D01*
X562371Y284326D01*
X562381Y284461D01*
X562402Y284628D01*
X562433Y284804D01*
X562464Y285023D01*
X562516Y285242D01*
X562589Y285491D01*
X562673Y285741D01*
X562777Y286012D01*
X562902Y286272D01*
X563047Y286543D01*
X563224Y286803D01*
X563422Y287063D01*
X563651Y287313D01*
X563662Y287324D01*
X563714Y287365D01*
X563787Y287428D01*
X563891Y287511D01*
X564015Y287615D01*
X564182Y287719D01*
X564359Y287834D01*
X564578Y287959D01*
X564817Y288084D01*
X565077Y288198D01*
X565369Y288302D01*
X565681Y288406D01*
X566025Y288490D01*
X566389Y288552D01*
X566774Y288594D01*
X567180Y288604D01*
X567284D01*
X567336Y288594D01*
D02*
G37*
G36*
X293570Y150704D02*
X292497D01*
X290259Y147300D01*
Y144968D01*
X291467D01*
Y143500D01*
X286782D01*
Y144968D01*
X288000D01*
Y147300D01*
X285648Y150704D01*
X284596D01*
Y152172D01*
X288937D01*
Y150704D01*
X288073D01*
X289343Y148601D01*
X290634Y150704D01*
X289739D01*
Y152172D01*
X293570D01*
Y150704D01*
D02*
G37*
G36*
X276216D02*
X274998D01*
Y143438D01*
X273062D01*
X269314Y149861D01*
Y144968D01*
X270407D01*
Y143500D01*
X266618D01*
Y144968D01*
X267774D01*
Y150704D01*
X266618D01*
Y152172D01*
X270251D01*
X273458Y146748D01*
Y150704D01*
X272333D01*
Y152172D01*
X276216D01*
Y150704D01*
D02*
G37*
G36*
X296724Y149798D02*
X296224Y146529D01*
X295329D01*
X294798Y149798D01*
Y152172D01*
X296724D01*
Y149798D01*
D02*
G37*
G36*
X296838Y143500D02*
X294756D01*
Y145592D01*
X296838D01*
Y143500D01*
D02*
G37*
G36*
X281505Y150704D02*
X280235D01*
Y144968D01*
X282795D01*
Y147643D01*
X284482D01*
Y143500D01*
X276737D01*
Y144968D01*
X277976D01*
Y150704D01*
X276737D01*
Y152172D01*
X281505D01*
Y150704D01*
D02*
G37*
G36*
X261038Y152296D02*
X261195Y152286D01*
X261382Y152265D01*
X261601Y152234D01*
X261840Y152203D01*
X262100Y152140D01*
X262381Y152078D01*
X262662Y151995D01*
X262954Y151880D01*
X263256Y151755D01*
X263547Y151609D01*
X263828Y151432D01*
X264099Y151235D01*
X264349Y151006D01*
X264359Y150995D01*
X264401Y150943D01*
X264463Y150870D01*
X264547Y150777D01*
X264651Y150652D01*
X264755Y150496D01*
X264869Y150319D01*
X264994Y150121D01*
X265119Y149902D01*
X265234Y149663D01*
X265338Y149402D01*
X265442Y149121D01*
X265525Y148830D01*
X265588Y148518D01*
X265629Y148195D01*
X265640Y147851D01*
Y147831D01*
Y147768D01*
X265629Y147674D01*
X265619Y147539D01*
X265598Y147372D01*
X265567Y147196D01*
X265536Y146977D01*
X265483Y146758D01*
X265411Y146509D01*
X265327Y146259D01*
X265223Y145988D01*
X265098Y145728D01*
X264953Y145457D01*
X264776Y145197D01*
X264578Y144937D01*
X264349Y144687D01*
X264338Y144676D01*
X264286Y144635D01*
X264213Y144572D01*
X264109Y144489D01*
X263984Y144385D01*
X263818Y144281D01*
X263641Y144166D01*
X263422Y144041D01*
X263183Y143916D01*
X262923Y143802D01*
X262631Y143698D01*
X262319Y143594D01*
X261975Y143510D01*
X261611Y143448D01*
X261226Y143406D01*
X260820Y143396D01*
X260716D01*
X260664Y143406D01*
X260601D01*
X260435Y143417D01*
X260237Y143438D01*
X260018Y143469D01*
X259768Y143510D01*
X259498Y143562D01*
X259217Y143635D01*
X258925Y143719D01*
X258623Y143823D01*
X258321Y143958D01*
X258030Y144104D01*
X257749Y144281D01*
X257489Y144489D01*
X257239Y144718D01*
X257228Y144739D01*
X257187Y144780D01*
X257124Y144853D01*
X257041Y144957D01*
X256947Y145082D01*
X256843Y145238D01*
X256739Y145415D01*
X256625Y145613D01*
X256500Y145832D01*
X256396Y146071D01*
X256292Y146332D01*
X256198Y146602D01*
X256115Y146894D01*
X256052Y147196D01*
X256010Y147518D01*
X256000Y147851D01*
Y147862D01*
Y147872D01*
Y147935D01*
X256010Y148028D01*
X256021Y148164D01*
X256042Y148320D01*
X256073Y148507D01*
X256104Y148715D01*
X256156Y148944D01*
X256229Y149184D01*
X256312Y149434D01*
X256416Y149694D01*
X256541Y149965D01*
X256687Y150235D01*
X256854Y150496D01*
X257051Y150756D01*
X257280Y151006D01*
X257291Y151016D01*
X257343Y151058D01*
X257416Y151130D01*
X257520Y151214D01*
X257645Y151307D01*
X257801Y151422D01*
X257988Y151537D01*
X258207Y151661D01*
X258446Y151776D01*
X258707Y151891D01*
X258998Y152005D01*
X259310Y152109D01*
X259654Y152182D01*
X260018Y152255D01*
X260403Y152296D01*
X260820Y152307D01*
X260976D01*
X261038Y152296D01*
D02*
G37*
G36*
X303929Y177796D02*
X304054D01*
X304200Y177786D01*
X304366Y177765D01*
X304554Y177734D01*
X304762Y177703D01*
X304970Y177661D01*
X305199Y177599D01*
X305428Y177536D01*
X305647Y177453D01*
X305876Y177359D01*
X306094Y177245D01*
X306303Y177109D01*
X306490Y176964D01*
Y177672D01*
X307958D01*
Y174590D01*
X306490D01*
Y174601D01*
X306480Y174621D01*
X306459Y174663D01*
X306438Y174715D01*
X306417Y174788D01*
X306375Y174861D01*
X306282Y175027D01*
X306157Y175225D01*
X306001Y175433D01*
X305803Y175631D01*
X305688Y175725D01*
X305563Y175808D01*
X305553Y175819D01*
X305532Y175829D01*
X305501Y175850D01*
X305449Y175881D01*
X305386Y175912D01*
X305303Y175954D01*
X305220Y175996D01*
X305126Y176037D01*
X304908Y176120D01*
X304658Y176193D01*
X304387Y176245D01*
X304241Y176266D01*
X303992D01*
X303919Y176256D01*
X303835Y176245D01*
X303731Y176225D01*
X303617Y176204D01*
X303492Y176172D01*
X303357Y176131D01*
X303211Y176089D01*
X303065Y176027D01*
X302919Y175954D01*
X302774Y175871D01*
X302617Y175767D01*
X302472Y175662D01*
X302336Y175527D01*
X302326Y175517D01*
X302305Y175496D01*
X302274Y175454D01*
X302222Y175392D01*
X302170Y175319D01*
X302107Y175225D01*
X302045Y175121D01*
X301972Y174996D01*
X301909Y174861D01*
X301837Y174715D01*
X301774Y174548D01*
X301722Y174361D01*
X301670Y174163D01*
X301639Y173955D01*
X301618Y173737D01*
X301608Y173497D01*
Y173476D01*
Y173435D01*
Y173351D01*
X301618Y173258D01*
X301628Y173133D01*
X301649Y172987D01*
X301670Y172831D01*
X301701Y172664D01*
X301743Y172477D01*
X301785Y172300D01*
X301847Y172113D01*
X301920Y171925D01*
X302003Y171738D01*
X302107Y171561D01*
X302222Y171394D01*
X302347Y171238D01*
X302357Y171228D01*
X302378Y171207D01*
X302420Y171165D01*
X302482Y171113D01*
X302555Y171061D01*
X302638Y170999D01*
X302732Y170926D01*
X302847Y170853D01*
X302971Y170780D01*
X303107Y170707D01*
X303263Y170645D01*
X303419Y170593D01*
X303586Y170541D01*
X303763Y170499D01*
X303950Y170478D01*
X304148Y170468D01*
X304221D01*
X304283Y170478D01*
X304345D01*
X304418Y170489D01*
X304606Y170520D01*
X304803Y170562D01*
X305022Y170624D01*
X305241Y170718D01*
X305438Y170843D01*
X305449D01*
X305459Y170863D01*
X305522Y170915D01*
X305615Y170999D01*
X305730Y171113D01*
X305844Y171269D01*
X305970Y171446D01*
X306073Y171665D01*
X306167Y171904D01*
X304647D01*
Y173372D01*
X308707D01*
Y173351D01*
Y173299D01*
Y173216D01*
X308697Y173112D01*
X308686Y172977D01*
X308676Y172820D01*
X308655Y172654D01*
X308634Y172467D01*
X308603Y172269D01*
X308572Y172061D01*
X308468Y171644D01*
X308405Y171436D01*
X308322Y171238D01*
X308239Y171040D01*
X308135Y170863D01*
X308124Y170853D01*
X308103Y170822D01*
X308072Y170780D01*
X308031Y170707D01*
X307968Y170634D01*
X307895Y170541D01*
X307812Y170447D01*
X307708Y170343D01*
X307604Y170228D01*
X307479Y170104D01*
X307344Y169989D01*
X307187Y169864D01*
X307031Y169749D01*
X306854Y169635D01*
X306667Y169520D01*
X306469Y169416D01*
X306459Y169406D01*
X306417Y169396D01*
X306365Y169364D01*
X306282Y169333D01*
X306178Y169291D01*
X306053Y169250D01*
X305917Y169208D01*
X305761Y169156D01*
X305584Y169104D01*
X305397Y169062D01*
X305199Y169021D01*
X304980Y168979D01*
X304762Y168948D01*
X304522Y168917D01*
X304283Y168906D01*
X304033Y168896D01*
X303877D01*
X303804Y168906D01*
X303648Y168917D01*
X303450Y168938D01*
X303221Y168958D01*
X302971Y169000D01*
X302701Y169052D01*
X302420Y169114D01*
X302128Y169198D01*
X301826Y169302D01*
X301524Y169427D01*
X301233Y169562D01*
X300952Y169729D01*
X300681Y169927D01*
X300431Y170145D01*
X300421Y170156D01*
X300379Y170208D01*
X300317Y170270D01*
X300234Y170374D01*
X300140Y170499D01*
X300036Y170645D01*
X299921Y170822D01*
X299807Y171019D01*
X299692Y171238D01*
X299578Y171478D01*
X299474Y171748D01*
X299380Y172029D01*
X299297Y172331D01*
X299234Y172654D01*
X299193Y172997D01*
X299182Y173351D01*
Y173372D01*
Y173414D01*
Y173487D01*
X299193Y173580D01*
X299203Y173695D01*
X299213Y173830D01*
X299234Y173986D01*
X299255Y174153D01*
X299297Y174330D01*
X299328Y174517D01*
X299380Y174715D01*
X299442Y174923D01*
X299515Y175121D01*
X299599Y175329D01*
X299692Y175527D01*
X299796Y175725D01*
X299807Y175735D01*
X299828Y175767D01*
X299859Y175819D01*
X299911Y175891D01*
X299973Y175985D01*
X300046Y176079D01*
X300140Y176183D01*
X300244Y176308D01*
X300359Y176433D01*
X300483Y176558D01*
X300619Y176683D01*
X300764Y176818D01*
X300931Y176943D01*
X301098Y177057D01*
X301285Y177172D01*
X301472Y177276D01*
X301483Y177286D01*
X301524Y177297D01*
X301576Y177328D01*
X301660Y177359D01*
X301753Y177401D01*
X301878Y177443D01*
X302003Y177495D01*
X302159Y177547D01*
X302326Y177588D01*
X302503Y177640D01*
X302690Y177682D01*
X302888Y177724D01*
X303315Y177786D01*
X303534Y177796D01*
X303763Y177807D01*
X303835D01*
X303929Y177796D01*
D02*
G37*
G36*
X298360Y176204D02*
X297142D01*
Y168938D01*
X295205D01*
X291458Y175361D01*
Y170468D01*
X292551D01*
Y169000D01*
X288762D01*
Y170468D01*
X289917D01*
Y176204D01*
X288762D01*
Y177672D01*
X292395D01*
X295601Y172248D01*
Y176204D01*
X294477D01*
Y177672D01*
X298360D01*
Y176204D01*
D02*
G37*
G36*
X282807D02*
X281589D01*
Y168938D01*
X279653D01*
X275905Y175361D01*
Y170468D01*
X276998D01*
Y169000D01*
X273209D01*
Y170468D01*
X274365D01*
Y176204D01*
X273209D01*
Y177672D01*
X276842D01*
X280048Y172248D01*
Y176204D01*
X278924D01*
Y177672D01*
X282807D01*
Y176204D01*
D02*
G37*
G36*
X254648D02*
X253711D01*
X251317Y168948D01*
X249693D01*
X248329Y172893D01*
X247038Y168948D01*
X245383D01*
X242916Y176204D01*
X242000D01*
Y177672D01*
X245904D01*
Y176204D01*
X245008D01*
X246414Y172040D01*
X247736Y176204D01*
X246955D01*
Y177672D01*
X250068D01*
Y176204D01*
X249256D01*
X250682Y172040D01*
X252046Y176204D01*
X251182D01*
Y177672D01*
X254648D01*
Y176204D01*
D02*
G37*
G36*
X312486Y175298D02*
X311986Y172029D01*
X311091D01*
X310560Y175298D01*
Y177672D01*
X312486D01*
Y175298D01*
D02*
G37*
G36*
X312601Y169000D02*
X310519D01*
Y171092D01*
X312601D01*
Y169000D01*
D02*
G37*
G36*
X288158Y176204D02*
X286825D01*
Y170468D01*
X288158D01*
Y169000D01*
X283255D01*
Y170468D01*
X284566D01*
Y176204D01*
X283255D01*
Y177672D01*
X288158D01*
Y176204D01*
D02*
G37*
G36*
X269316Y177661D02*
X269441Y177651D01*
X269576Y177630D01*
X269732Y177609D01*
X269888Y177578D01*
X270065Y177536D01*
X270242Y177484D01*
X270419Y177432D01*
X270596Y177359D01*
X270763Y177266D01*
X270919Y177172D01*
X271065Y177057D01*
X271200Y176922D01*
X271211Y176912D01*
X271231Y176891D01*
X271263Y176849D01*
X271304Y176787D01*
X271356Y176724D01*
X271408Y176641D01*
X271471Y176537D01*
X271533Y176433D01*
X271585Y176308D01*
X271648Y176183D01*
X271752Y175891D01*
X271793Y175735D01*
X271825Y175579D01*
X271846Y175413D01*
X271856Y175236D01*
Y175215D01*
Y175173D01*
X271846Y175090D01*
X271835Y174996D01*
X271814Y174871D01*
X271773Y174736D01*
X271731Y174580D01*
X271669Y174413D01*
X271585Y174236D01*
X271492Y174059D01*
X271367Y173882D01*
X271221Y173705D01*
X271044Y173528D01*
X270846Y173372D01*
X270617Y173216D01*
X270346Y173081D01*
X271762Y170468D01*
X272886D01*
Y169000D01*
X270242D01*
X268275Y172800D01*
X267296D01*
Y170468D01*
X268379D01*
Y169000D01*
X263851D01*
Y170468D01*
X265037D01*
Y176204D01*
X263851D01*
Y177672D01*
X269212D01*
X269316Y177661D01*
D02*
G37*
G36*
X261883Y176204D02*
X260717D01*
X262539Y170468D01*
X263569D01*
Y169000D01*
X259312D01*
Y170468D01*
X260415D01*
X259999Y171956D01*
X257750D01*
X257292Y170468D01*
X258458D01*
Y169000D01*
X254617D01*
Y170468D01*
X255689D01*
X257376Y176204D01*
X256230D01*
Y177672D01*
X261883D01*
Y176204D01*
D02*
G37*
G36*
X247988Y165744D02*
X248082Y165734D01*
X248175Y165713D01*
X248290Y165682D01*
X248404Y165651D01*
X248540Y165609D01*
X248665Y165557D01*
X248800Y165495D01*
X248935Y165411D01*
X249060Y165318D01*
X249196Y165214D01*
X249310Y165089D01*
X249425Y164943D01*
Y165672D01*
X250892D01*
Y163027D01*
X249425D01*
Y163038D01*
Y163059D01*
X249414Y163090D01*
X249404Y163131D01*
X249383Y163236D01*
X249341Y163371D01*
X249289Y163517D01*
X249216Y163673D01*
X249123Y163829D01*
X248998Y163964D01*
X248977Y163975D01*
X248935Y164016D01*
X248862Y164068D01*
X248758Y164141D01*
X248644Y164204D01*
X248498Y164256D01*
X248342Y164297D01*
X248175Y164308D01*
X248113D01*
X248050Y164297D01*
X247967Y164287D01*
X247863Y164256D01*
X247759Y164225D01*
X247655Y164172D01*
X247561Y164110D01*
X247551Y164100D01*
X247519Y164079D01*
X247488Y164027D01*
X247447Y163975D01*
X247395Y163902D01*
X247363Y163808D01*
X247332Y163715D01*
X247322Y163600D01*
Y163590D01*
Y163558D01*
X247332Y163506D01*
X247343Y163444D01*
X247374Y163361D01*
X247405Y163277D01*
X247457Y163194D01*
X247519Y163100D01*
X247530Y163090D01*
X247572Y163059D01*
X247634Y162996D01*
X247686Y162965D01*
X247749Y162923D01*
X247821Y162882D01*
X247905Y162830D01*
X248009Y162767D01*
X248113Y162705D01*
X248248Y162642D01*
X248384Y162569D01*
X248550Y162496D01*
X248727Y162413D01*
X248738D01*
X248769Y162392D01*
X248821Y162372D01*
X248883Y162340D01*
X248967Y162309D01*
X249060Y162257D01*
X249268Y162153D01*
X249508Y162038D01*
X249747Y161914D01*
X249987Y161778D01*
X250091Y161705D01*
X250195Y161643D01*
X250205D01*
X250216Y161632D01*
X250278Y161580D01*
X250372Y161507D01*
X250497Y161403D01*
X250622Y161278D01*
X250757Y161122D01*
X250892Y160945D01*
X251017Y160748D01*
Y160737D01*
X251028Y160727D01*
X251048Y160696D01*
X251069Y160654D01*
X251090Y160602D01*
X251111Y160539D01*
X251173Y160383D01*
X251225Y160196D01*
X251278Y159977D01*
X251309Y159727D01*
X251319Y159467D01*
Y159457D01*
Y159415D01*
Y159342D01*
X251309Y159259D01*
X251298Y159155D01*
X251278Y159030D01*
X251257Y158895D01*
X251225Y158749D01*
X251184Y158593D01*
X251132Y158437D01*
X251080Y158270D01*
X251007Y158114D01*
X250913Y157958D01*
X250819Y157812D01*
X250705Y157666D01*
X250570Y157541D01*
X250559Y157531D01*
X250538Y157510D01*
X250497Y157479D01*
X250434Y157437D01*
X250361Y157396D01*
X250278Y157333D01*
X250174Y157281D01*
X250070Y157219D01*
X249945Y157156D01*
X249810Y157104D01*
X249664Y157042D01*
X249508Y157000D01*
X249341Y156958D01*
X249164Y156927D01*
X248977Y156906D01*
X248790Y156896D01*
X248738D01*
X248686Y156906D01*
X248602D01*
X248509Y156927D01*
X248394Y156938D01*
X248280Y156969D01*
X248144Y157000D01*
X248009Y157042D01*
X247863Y157104D01*
X247717Y157167D01*
X247572Y157250D01*
X247426Y157343D01*
X247290Y157458D01*
X247166Y157593D01*
X247041Y157739D01*
Y157000D01*
X245573D01*
Y159956D01*
X247041D01*
Y159946D01*
Y159925D01*
Y159873D01*
X247051Y159821D01*
X247061Y159759D01*
X247072Y159675D01*
X247103Y159498D01*
X247155Y159301D01*
X247228Y159103D01*
X247322Y158915D01*
X247457Y158749D01*
X247478Y158728D01*
X247530Y158686D01*
X247613Y158634D01*
X247717Y158562D01*
X247853Y158489D01*
X248009Y158437D01*
X248186Y158395D01*
X248373Y158374D01*
X248436D01*
X248509Y158385D01*
X248602Y158405D01*
X248706Y158437D01*
X248821Y158489D01*
X248935Y158551D01*
X249039Y158645D01*
X249050Y158655D01*
X249081Y158697D01*
X249133Y158749D01*
X249185Y158832D01*
X249227Y158926D01*
X249279Y159040D01*
X249310Y159165D01*
X249321Y159301D01*
Y159321D01*
Y159363D01*
X249310Y159436D01*
X249289Y159530D01*
X249258Y159634D01*
X249206Y159748D01*
X249144Y159863D01*
X249050Y159967D01*
X249039Y159977D01*
X248998Y160019D01*
X248925Y160071D01*
X248831Y160144D01*
X248696Y160238D01*
X248519Y160342D01*
X248321Y160456D01*
X248071Y160581D01*
X248050Y160591D01*
X248009Y160612D01*
X247925Y160654D01*
X247832Y160706D01*
X247707Y160768D01*
X247561Y160841D01*
X247415Y160925D01*
X247249Y161008D01*
X246905Y161206D01*
X246572Y161424D01*
X246416Y161528D01*
X246270Y161643D01*
X246145Y161747D01*
X246031Y161851D01*
X246021Y161862D01*
X246010Y161882D01*
X245979Y161914D01*
X245948Y161955D01*
X245906Y162007D01*
X245864Y162080D01*
X245812Y162163D01*
X245771Y162247D01*
X245719Y162351D01*
X245667Y162465D01*
X245625Y162590D01*
X245583Y162725D01*
X245521Y163027D01*
X245510Y163183D01*
X245500Y163361D01*
Y163371D01*
Y163413D01*
Y163465D01*
X245510Y163548D01*
X245521Y163642D01*
X245542Y163756D01*
X245563Y163871D01*
X245594Y164006D01*
X245677Y164287D01*
X245729Y164433D01*
X245802Y164578D01*
X245885Y164724D01*
X245979Y164870D01*
X246083Y164995D01*
X246208Y165120D01*
X246218Y165130D01*
X246239Y165151D01*
X246281Y165182D01*
X246333Y165224D01*
X246395Y165266D01*
X246479Y165318D01*
X246572Y165380D01*
X246676Y165443D01*
X246791Y165495D01*
X246916Y165557D01*
X247186Y165661D01*
X247332Y165692D01*
X247488Y165724D01*
X247655Y165744D01*
X247821Y165755D01*
X247925D01*
X247988Y165744D01*
D02*
G37*
G36*
X303609Y163111D02*
X303692D01*
X303796Y163090D01*
X303910Y163069D01*
X304035Y163038D01*
X304181Y163007D01*
X304327Y162954D01*
X304483Y162892D01*
X304639Y162809D01*
X304795Y162715D01*
X304952Y162611D01*
X305097Y162476D01*
X305243Y162330D01*
X305378Y162163D01*
X305389Y162153D01*
X305410Y162122D01*
X305441Y162070D01*
X305493Y161997D01*
X305545Y161903D01*
X305597Y161799D01*
X305659Y161674D01*
X305732Y161528D01*
X305795Y161383D01*
X305857Y161206D01*
X305909Y161029D01*
X305972Y160831D01*
X306013Y160633D01*
X306045Y160415D01*
X306065Y160186D01*
X306076Y159956D01*
Y159946D01*
Y159894D01*
Y159832D01*
X306065Y159738D01*
X306055Y159623D01*
X306034Y159488D01*
X306013Y159342D01*
X305982Y159176D01*
X305951Y159009D01*
X305899Y158822D01*
X305847Y158645D01*
X305774Y158457D01*
X305691Y158270D01*
X305597Y158083D01*
X305482Y157906D01*
X305358Y157739D01*
X305347Y157729D01*
X305326Y157697D01*
X305285Y157656D01*
X305233Y157604D01*
X305160Y157541D01*
X305076Y157458D01*
X304972Y157385D01*
X304858Y157302D01*
X304722Y157219D01*
X304587Y157146D01*
X304431Y157073D01*
X304264Y157000D01*
X304077Y156948D01*
X303890Y156906D01*
X303681Y156875D01*
X303463Y156865D01*
X303421D01*
X303369Y156875D01*
X303296D01*
X303213Y156886D01*
X303119Y156906D01*
X303005Y156927D01*
X302880Y156958D01*
X302745Y157000D01*
X302609Y157052D01*
X302464Y157104D01*
X302318Y157177D01*
X302162Y157271D01*
X302006Y157364D01*
X301849Y157479D01*
X301704Y157614D01*
Y155667D01*
X302911D01*
Y154273D01*
X298758D01*
Y155667D01*
X299778D01*
Y161632D01*
X298935D01*
Y163027D01*
X301704D01*
Y162267D01*
X301714Y162278D01*
X301745Y162309D01*
X301787Y162351D01*
X301849Y162403D01*
X301922Y162465D01*
X302006Y162538D01*
X302110Y162611D01*
X302224Y162694D01*
X302359Y162777D01*
X302495Y162850D01*
X302797Y162986D01*
X302963Y163038D01*
X303130Y163090D01*
X303307Y163111D01*
X303494Y163121D01*
X303546D01*
X303609Y163111D01*
D02*
G37*
G36*
X264769D02*
X264852D01*
X264956Y163090D01*
X265071Y163069D01*
X265196Y163038D01*
X265341Y163007D01*
X265487Y162954D01*
X265643Y162892D01*
X265799Y162809D01*
X265956Y162715D01*
X266112Y162611D01*
X266258Y162476D01*
X266403Y162330D01*
X266539Y162163D01*
X266549Y162153D01*
X266570Y162122D01*
X266601Y162070D01*
X266653Y161997D01*
X266705Y161903D01*
X266757Y161799D01*
X266820Y161674D01*
X266893Y161528D01*
X266955Y161383D01*
X267018Y161206D01*
X267070Y161029D01*
X267132Y160831D01*
X267174Y160633D01*
X267205Y160415D01*
X267226Y160186D01*
X267236Y159956D01*
Y159946D01*
Y159894D01*
Y159832D01*
X267226Y159738D01*
X267215Y159623D01*
X267194Y159488D01*
X267174Y159342D01*
X267142Y159176D01*
X267111Y159009D01*
X267059Y158822D01*
X267007Y158645D01*
X266934Y158457D01*
X266851Y158270D01*
X266757Y158083D01*
X266643Y157906D01*
X266518Y157739D01*
X266507Y157729D01*
X266487Y157697D01*
X266445Y157656D01*
X266393Y157604D01*
X266320Y157541D01*
X266237Y157458D01*
X266133Y157385D01*
X266018Y157302D01*
X265883Y157219D01*
X265747Y157146D01*
X265591Y157073D01*
X265425Y157000D01*
X265237Y156948D01*
X265050Y156906D01*
X264842Y156875D01*
X264623Y156865D01*
X264581D01*
X264529Y156875D01*
X264457D01*
X264373Y156886D01*
X264280Y156906D01*
X264165Y156927D01*
X264040Y156958D01*
X263905Y157000D01*
X263770Y157052D01*
X263624Y157104D01*
X263478Y157177D01*
X263322Y157271D01*
X263166Y157364D01*
X263010Y157479D01*
X262864Y157614D01*
Y155667D01*
X264071D01*
Y154273D01*
X259918D01*
Y155667D01*
X260938D01*
Y161632D01*
X260095D01*
Y163027D01*
X262864D01*
Y162267D01*
X262874Y162278D01*
X262906Y162309D01*
X262947Y162351D01*
X263010Y162403D01*
X263083Y162465D01*
X263166Y162538D01*
X263270Y162611D01*
X263384Y162694D01*
X263520Y162777D01*
X263655Y162850D01*
X263957Y162986D01*
X264124Y163038D01*
X264290Y163090D01*
X264467Y163111D01*
X264654Y163121D01*
X264706D01*
X264769Y163111D01*
D02*
G37*
G36*
X280655D02*
Y161299D01*
X280467D01*
X280394Y161289D01*
X280228Y161278D01*
X280040Y161258D01*
X279832Y161226D01*
X279634Y161185D01*
X279447Y161133D01*
X279426Y161122D01*
X279374Y161101D01*
X279291Y161049D01*
X279176Y160977D01*
X279062Y160883D01*
X278937Y160758D01*
X278802Y160602D01*
X278687Y160415D01*
Y160404D01*
X278677Y160394D01*
X278656Y160362D01*
X278645Y160321D01*
X278625Y160269D01*
X278593Y160206D01*
X278541Y160050D01*
X278489Y159863D01*
X278437Y159644D01*
X278406Y159405D01*
X278396Y159134D01*
Y158395D01*
X279603D01*
Y157000D01*
X275356D01*
Y158395D01*
X276470D01*
Y161632D01*
X275418D01*
Y163027D01*
X278229D01*
Y161507D01*
X278239Y161528D01*
X278250Y161560D01*
X278260Y161612D01*
X278281Y161664D01*
X278312Y161726D01*
X278385Y161882D01*
X278479Y162059D01*
X278604Y162257D01*
X278770Y162444D01*
X278968Y162632D01*
X278979Y162642D01*
X278999Y162653D01*
X279031Y162673D01*
X279072Y162705D01*
X279124Y162746D01*
X279197Y162788D01*
X279353Y162882D01*
X279561Y162965D01*
X279790Y163048D01*
X280051Y163100D01*
X280186Y163121D01*
X280530D01*
X280655Y163111D01*
D02*
G37*
G36*
X287640D02*
X287723Y163100D01*
X287827Y163090D01*
X287942Y163069D01*
X288067Y163048D01*
X288348Y162975D01*
X288504Y162923D01*
X288660Y162871D01*
X288816Y162798D01*
X288983Y162715D01*
X289149Y162621D01*
X289305Y162517D01*
Y163027D01*
X290617D01*
Y160581D01*
X289243D01*
Y160591D01*
X289222Y160623D01*
X289191Y160675D01*
X289159Y160737D01*
X289107Y160820D01*
X289045Y160904D01*
X288972Y160987D01*
X288889Y161091D01*
X288785Y161185D01*
X288681Y161268D01*
X288556Y161362D01*
X288431Y161435D01*
X288285Y161497D01*
X288129Y161549D01*
X287952Y161580D01*
X287775Y161591D01*
X287713D01*
X287671Y161580D01*
X287556Y161570D01*
X287421Y161539D01*
X287255Y161487D01*
X287088Y161414D01*
X286921Y161310D01*
X286776Y161164D01*
X286755Y161143D01*
X286713Y161091D01*
X286661Y160997D01*
X286588Y160872D01*
X286515Y160706D01*
X286463Y160519D01*
X286422Y160290D01*
X286401Y160040D01*
Y160029D01*
Y159998D01*
Y159956D01*
X286411Y159904D01*
Y159832D01*
X286422Y159748D01*
X286453Y159561D01*
X286495Y159353D01*
X286567Y159144D01*
X286661Y158947D01*
X286724Y158863D01*
X286796Y158780D01*
X286817Y158759D01*
X286869Y158718D01*
X286953Y158655D01*
X287067Y158582D01*
X287203Y158499D01*
X287369Y158437D01*
X287556Y158395D01*
X287765Y158374D01*
X287848D01*
X287931Y158385D01*
X288046Y158405D01*
X288181Y158437D01*
X288327Y158489D01*
X288473Y158551D01*
X288629Y158634D01*
X288649Y158645D01*
X288702Y158686D01*
X288774Y158739D01*
X288868Y158822D01*
X288972Y158926D01*
X289087Y159051D01*
X289191Y159186D01*
X289295Y159342D01*
X290794Y158676D01*
X290784Y158655D01*
X290752Y158603D01*
X290700Y158509D01*
X290627Y158395D01*
X290534Y158260D01*
X290419Y158104D01*
X290273Y157937D01*
X290117Y157770D01*
X289919Y157604D01*
X289711Y157437D01*
X289472Y157281D01*
X289201Y157146D01*
X288910Y157031D01*
X288597Y156948D01*
X288244Y156886D01*
X288056Y156875D01*
X287869Y156865D01*
X287796D01*
X287713Y156875D01*
X287608D01*
X287473Y156896D01*
X287317Y156906D01*
X287150Y156938D01*
X286963Y156969D01*
X286765Y157021D01*
X286557Y157073D01*
X286349Y157146D01*
X286141Y157229D01*
X285932Y157323D01*
X285724Y157437D01*
X285537Y157573D01*
X285349Y157718D01*
X285339Y157729D01*
X285308Y157760D01*
X285266Y157812D01*
X285204Y157874D01*
X285131Y157958D01*
X285058Y158072D01*
X284975Y158187D01*
X284891Y158333D01*
X284798Y158489D01*
X284715Y158655D01*
X284642Y158853D01*
X284569Y159051D01*
X284506Y159269D01*
X284465Y159509D01*
X284433Y159759D01*
X284423Y160019D01*
Y160040D01*
Y160081D01*
X284433Y160154D01*
Y160258D01*
X284454Y160373D01*
X284475Y160519D01*
X284496Y160675D01*
X284538Y160841D01*
X284590Y161018D01*
X284652Y161206D01*
X284725Y161393D01*
X284808Y161580D01*
X284912Y161768D01*
X285037Y161955D01*
X285183Y162122D01*
X285339Y162288D01*
X285349Y162299D01*
X285381Y162320D01*
X285433Y162361D01*
X285506Y162424D01*
X285589Y162486D01*
X285693Y162548D01*
X285818Y162632D01*
X285953Y162705D01*
X286099Y162777D01*
X286266Y162861D01*
X286442Y162923D01*
X286630Y162996D01*
X286828Y163048D01*
X287036Y163090D01*
X287244Y163111D01*
X287473Y163121D01*
X287567D01*
X287640Y163111D01*
D02*
G37*
G36*
X294812Y163173D02*
X294906D01*
X295104Y163163D01*
X295333Y163131D01*
X295572Y163100D01*
X295812Y163048D01*
X296041Y162986D01*
X296051D01*
X296061Y162975D01*
X296093Y162965D01*
X296134Y162954D01*
X296238Y162902D01*
X296363Y162850D01*
X296499Y162777D01*
X296634Y162684D01*
X296769Y162590D01*
X296884Y162476D01*
X296894Y162465D01*
X296925Y162424D01*
X296977Y162361D01*
X297040Y162278D01*
X297102Y162174D01*
X297165Y162059D01*
X297227Y161924D01*
X297279Y161789D01*
X297290Y161768D01*
X297300Y161716D01*
X297321Y161632D01*
X297342Y161507D01*
X297363Y161341D01*
X297383Y161133D01*
X297394Y161008D01*
X297404Y160883D01*
Y160748D01*
Y160591D01*
Y158395D01*
X298372D01*
Y157000D01*
X295478D01*
Y157479D01*
X295468Y157468D01*
X295447Y157458D01*
X295406Y157427D01*
X295343Y157396D01*
X295270Y157354D01*
X295187Y157302D01*
X295093Y157250D01*
X294979Y157198D01*
X294729Y157094D01*
X294458Y157000D01*
X294156Y156938D01*
X293990Y156927D01*
X293834Y156917D01*
X293750D01*
X293688Y156927D01*
X293605Y156938D01*
X293511Y156948D01*
X293417Y156958D01*
X293303Y156979D01*
X293063Y157042D01*
X292803Y157135D01*
X292668Y157187D01*
X292543Y157260D01*
X292407Y157333D01*
X292283Y157427D01*
X292272Y157437D01*
X292251Y157448D01*
X292220Y157479D01*
X292178Y157520D01*
X292137Y157573D01*
X292074Y157635D01*
X292022Y157708D01*
X291960Y157791D01*
X291845Y157989D01*
X291741Y158218D01*
X291700Y158343D01*
X291668Y158489D01*
X291648Y158634D01*
X291637Y158791D01*
Y158801D01*
Y158832D01*
Y158874D01*
X291648Y158936D01*
X291658Y159009D01*
X291668Y159092D01*
X291720Y159301D01*
X291804Y159519D01*
X291856Y159644D01*
X291918Y159769D01*
X292002Y159884D01*
X292095Y160009D01*
X292199Y160123D01*
X292314Y160238D01*
X292324Y160248D01*
X292345Y160258D01*
X292387Y160290D01*
X292439Y160331D01*
X292512Y160373D01*
X292584Y160425D01*
X292688Y160477D01*
X292793Y160539D01*
X292917Y160591D01*
X293053Y160643D01*
X293199Y160696D01*
X293355Y160737D01*
X293521Y160779D01*
X293698Y160810D01*
X293886Y160820D01*
X294083Y160831D01*
X294188D01*
X294250Y160820D01*
X294313Y160810D01*
X294396D01*
X294490Y160789D01*
X294687Y160758D01*
X294927Y160696D01*
X295187Y160623D01*
X295478Y160519D01*
Y160883D01*
Y160893D01*
Y160904D01*
Y160966D01*
X295458Y161049D01*
X295437Y161154D01*
X295406Y161278D01*
X295343Y161403D01*
X295270Y161528D01*
X295166Y161643D01*
X295156Y161653D01*
X295114Y161695D01*
X295041Y161737D01*
X294948Y161799D01*
X294823Y161851D01*
X294687Y161903D01*
X294521Y161934D01*
X294333Y161945D01*
X294271D01*
X294229Y161934D01*
X294104Y161924D01*
X293948Y161882D01*
X293771Y161830D01*
X293584Y161747D01*
X293396Y161632D01*
X293303Y161560D01*
X293219Y161476D01*
X291679Y161747D01*
X291689Y161768D01*
X291710Y161809D01*
X291752Y161882D01*
X291814Y161976D01*
X291897Y162080D01*
X292012Y162205D01*
X292137Y162330D01*
X292293Y162465D01*
X292470Y162601D01*
X292688Y162725D01*
X292917Y162850D01*
X293188Y162954D01*
X293490Y163048D01*
X293823Y163121D01*
X294188Y163163D01*
X294594Y163183D01*
X294739D01*
X294812Y163173D01*
D02*
G37*
G36*
X258440Y158395D02*
X259408D01*
Y157000D01*
X256514D01*
Y157510D01*
X256503Y157500D01*
X256472Y157489D01*
X256431Y157458D01*
X256368Y157416D01*
X256285Y157375D01*
X256191Y157323D01*
X256087Y157271D01*
X255962Y157219D01*
X255702Y157104D01*
X255400Y157010D01*
X255244Y156969D01*
X255088Y156938D01*
X254921Y156927D01*
X254754Y156917D01*
X254671D01*
X254609Y156927D01*
X254536D01*
X254453Y156938D01*
X254255Y156979D01*
X254036Y157031D01*
X253807Y157115D01*
X253578Y157239D01*
X253474Y157312D01*
X253380Y157396D01*
Y157406D01*
X253360Y157416D01*
X253339Y157448D01*
X253308Y157489D01*
X253266Y157541D01*
X253224Y157593D01*
X253183Y157666D01*
X253141Y157749D01*
X253089Y157843D01*
X253047Y157947D01*
X252964Y158187D01*
X252912Y158468D01*
X252902Y158614D01*
X252891Y158780D01*
Y161632D01*
X251985D01*
Y163027D01*
X254806D01*
Y159269D01*
Y159249D01*
Y159196D01*
X254817Y159124D01*
X254827Y159030D01*
X254869Y158822D01*
X254900Y158728D01*
X254942Y158655D01*
X254952Y158645D01*
X254973Y158634D01*
X255004Y158603D01*
X255056Y158582D01*
X255119Y158551D01*
X255212Y158520D01*
X255317Y158509D01*
X255442Y158499D01*
X255462D01*
X255525Y158509D01*
X255629Y158520D01*
X255764Y158551D01*
X255920Y158603D01*
X256097Y158676D01*
X256306Y158780D01*
X256514Y158926D01*
Y161632D01*
X255587D01*
Y163027D01*
X258440D01*
Y158395D01*
D02*
G37*
G36*
X271629Y163173D02*
X271712Y163163D01*
X271816Y163152D01*
X271931Y163142D01*
X272066Y163121D01*
X272337Y163059D01*
X272639Y162965D01*
X272795Y162902D01*
X272941Y162830D01*
X273087Y162746D01*
X273232Y162653D01*
X273243Y162642D01*
X273264Y162632D01*
X273305Y162601D01*
X273357Y162559D01*
X273420Y162507D01*
X273493Y162444D01*
X273649Y162299D01*
X273826Y162111D01*
X273992Y161882D01*
X274159Y161632D01*
X274221Y161497D01*
X274284Y161351D01*
Y161341D01*
X274294Y161320D01*
X274315Y161278D01*
X274336Y161216D01*
X274357Y161143D01*
X274377Y161060D01*
X274409Y160956D01*
X274440Y160852D01*
X274461Y160727D01*
X274492Y160591D01*
X274544Y160300D01*
X274575Y159977D01*
X274586Y159623D01*
X270088D01*
Y159613D01*
Y159592D01*
X270099Y159540D01*
Y159488D01*
X270109Y159415D01*
X270130Y159342D01*
X270172Y159165D01*
X270234Y158967D01*
X270317Y158780D01*
X270442Y158593D01*
X270515Y158520D01*
X270599Y158447D01*
X270609D01*
X270619Y158437D01*
X270682Y158395D01*
X270776Y158343D01*
X270900Y158280D01*
X271057Y158218D01*
X271223Y158166D01*
X271410Y158124D01*
X271608Y158114D01*
X271681D01*
X271733Y158124D01*
X271796Y158135D01*
X271868Y158156D01*
X272045Y158208D01*
X272254Y158291D01*
X272379Y158343D01*
X272493Y158416D01*
X272618Y158499D01*
X272753Y158593D01*
X272878Y158697D01*
X273014Y158822D01*
X274513Y158333D01*
X274502Y158312D01*
X274471Y158270D01*
X274409Y158197D01*
X274336Y158104D01*
X274232Y157989D01*
X274107Y157864D01*
X273961Y157739D01*
X273794Y157604D01*
X273597Y157458D01*
X273378Y157333D01*
X273138Y157208D01*
X272868Y157094D01*
X272576Y157000D01*
X272264Y156927D01*
X271931Y156886D01*
X271567Y156865D01*
X271494D01*
X271410Y156875D01*
X271306D01*
X271171Y156886D01*
X271015Y156906D01*
X270838Y156938D01*
X270651Y156969D01*
X270453Y157010D01*
X270255Y157073D01*
X270047Y157135D01*
X269839Y157219D01*
X269630Y157312D01*
X269433Y157427D01*
X269245Y157552D01*
X269068Y157697D01*
X269058Y157708D01*
X269027Y157739D01*
X268985Y157781D01*
X268933Y157854D01*
X268860Y157937D01*
X268787Y158041D01*
X268704Y158156D01*
X268631Y158291D01*
X268548Y158447D01*
X268464Y158614D01*
X268392Y158791D01*
X268319Y158988D01*
X268267Y159196D01*
X268225Y159425D01*
X268194Y159665D01*
X268183Y159915D01*
Y159936D01*
Y159977D01*
X268194Y160050D01*
Y160144D01*
X268215Y160269D01*
X268235Y160404D01*
X268256Y160560D01*
X268298Y160727D01*
X268350Y160914D01*
X268412Y161101D01*
X268485Y161289D01*
X268569Y161487D01*
X268673Y161685D01*
X268798Y161882D01*
X268943Y162070D01*
X269099Y162247D01*
X269110Y162257D01*
X269141Y162288D01*
X269193Y162330D01*
X269266Y162392D01*
X269360Y162465D01*
X269464Y162548D01*
X269599Y162632D01*
X269745Y162715D01*
X269901Y162798D01*
X270078Y162892D01*
X270276Y162965D01*
X270484Y163038D01*
X270703Y163100D01*
X270942Y163142D01*
X271192Y163173D01*
X271452Y163183D01*
X271556D01*
X271629Y163173D01*
D02*
G37*
%LPC*%
G36*
X286021Y214673D02*
X285557D01*
Y214433D01*
X286021D01*
Y214673D01*
D02*
G37*
G36*
X282532Y218511D02*
X282494D01*
X282466Y218506D01*
X282434D01*
X282395Y218500D01*
X282303Y218478D01*
X282204Y218451D01*
X282101Y218407D01*
X282002Y218347D01*
X281959Y218315D01*
X281915Y218271D01*
Y218265D01*
X281904Y218260D01*
X281893Y218244D01*
X281882Y218227D01*
X281860Y218200D01*
X281844Y218167D01*
X281800Y218091D01*
X281762Y217992D01*
X281724Y217872D01*
X281702Y217736D01*
X281691Y217578D01*
Y217572D01*
Y217566D01*
Y217550D01*
Y217528D01*
X281697Y217496D01*
Y217452D01*
X281702Y217408D01*
X281718Y217299D01*
X281746Y217184D01*
X281789Y217059D01*
X281844Y216944D01*
X281920Y216835D01*
Y216829D01*
X281931Y216824D01*
X281964Y216791D01*
X282013Y216747D01*
X282084Y216698D01*
X282177Y216649D01*
X282286Y216611D01*
X282417Y216578D01*
X282488Y216573D01*
X282565Y216567D01*
X282603D01*
X282630Y216573D01*
X282658D01*
X282696Y216584D01*
X282783Y216600D01*
X282876Y216633D01*
X282974Y216682D01*
X283023Y216709D01*
X283072Y216747D01*
X283116Y216786D01*
X283160Y216835D01*
Y216840D01*
X283171Y216846D01*
X283176Y216862D01*
X283192Y216884D01*
X283209Y216911D01*
X283225Y216944D01*
X283242Y216982D01*
X283263Y217026D01*
X283285Y217075D01*
X283302Y217130D01*
X283318Y217190D01*
X283334Y217261D01*
X283356Y217408D01*
X283367Y217578D01*
Y217583D01*
Y217588D01*
Y217605D01*
Y217627D01*
X283362Y217654D01*
Y217692D01*
X283356Y217736D01*
X283340Y217834D01*
X283313Y217943D01*
X283274Y218058D01*
X283220Y218173D01*
X283149Y218271D01*
X283138Y218282D01*
X283111Y218309D01*
X283056Y218347D01*
X282991Y218391D01*
X282903Y218435D01*
X282794Y218473D01*
X282674Y218500D01*
X282603Y218506D01*
X282532Y218511D01*
D02*
G37*
G36*
X283165Y216562D02*
X283036Y216310D01*
X283056Y216327D01*
X283094Y216365D01*
X283127Y216398D01*
X283149Y216425D01*
X283160Y216442D01*
X283165Y216447D01*
Y216562D01*
D02*
G37*
G36*
X273179Y217091D02*
X273059D01*
Y216666D01*
X271650D01*
X271596Y216660D01*
X271530Y216649D01*
X271459Y216633D01*
X271377Y216611D01*
X271295Y216584D01*
X271213Y216540D01*
X271202Y216535D01*
X271181Y216518D01*
X271142Y216491D01*
X271093Y216447D01*
X271044Y216398D01*
X270989Y216338D01*
X270940Y216267D01*
X270891Y216191D01*
X270886Y216180D01*
X270875Y216152D01*
X270853Y216103D01*
X270831Y216043D01*
X270815Y215967D01*
X270793Y215879D01*
X270782Y215781D01*
X270777Y215672D01*
Y215667D01*
Y215661D01*
Y215645D01*
Y215623D01*
X270782Y215563D01*
X270793Y215492D01*
X270804Y215410D01*
X270826Y215322D01*
X270853Y215235D01*
X270891Y215148D01*
X270897Y215137D01*
X270913Y215109D01*
X270940Y215071D01*
X270973Y215022D01*
X271022Y214962D01*
X271077Y214908D01*
X271142Y214847D01*
X271213Y214798D01*
X271224Y214793D01*
X271252Y214776D01*
X271295Y214760D01*
X271350Y214733D01*
X271421Y214711D01*
X271503Y214695D01*
X271596Y214678D01*
X271694Y214673D01*
X273059D01*
Y216666D01*
X273179D01*
Y217091D01*
D02*
G37*
G36*
X279037Y218517D02*
X278994D01*
X278966Y218511D01*
X278928D01*
X278885Y218506D01*
X278792Y218489D01*
X278683Y218462D01*
X278579Y218418D01*
X278475Y218364D01*
X278431Y218325D01*
X278388Y218287D01*
Y218282D01*
X278377Y218276D01*
X278355Y218244D01*
X278322Y218189D01*
X278278Y218118D01*
X278240Y218020D01*
X278207Y217905D01*
X278186Y217774D01*
X278175Y217621D01*
Y215508D01*
Y215503D01*
Y215486D01*
Y215464D01*
X278180Y215437D01*
Y215399D01*
X278186Y215361D01*
X278202Y215262D01*
X278224Y215159D01*
X278262Y215050D01*
X278317Y214940D01*
X278388Y214847D01*
X278399Y214837D01*
X278426Y214809D01*
X278475Y214776D01*
X278546Y214733D01*
X278639Y214689D01*
X278748Y214656D01*
X278885Y214629D01*
X278956Y214618D01*
X279081D01*
X279108Y214624D01*
X279147D01*
X279190Y214629D01*
X279289Y214645D01*
X279398Y214673D01*
X279507Y214716D01*
X279611Y214771D01*
X279654Y214809D01*
X279698Y214847D01*
X279709Y214858D01*
X279731Y214891D01*
X279764Y214940D01*
X279802Y215017D01*
X279840Y215109D01*
X279873Y215224D01*
X279895Y215355D01*
X279906Y215508D01*
Y217621D01*
Y217627D01*
Y217637D01*
Y217665D01*
X279900Y217692D01*
Y217730D01*
X279895Y217769D01*
X279878Y217867D01*
X279856Y217971D01*
X279818Y218085D01*
X279769Y218189D01*
X279698Y218287D01*
X279687Y218298D01*
X279660Y218325D01*
X279605Y218358D01*
X279534Y218402D01*
X279441Y218446D01*
X279327Y218478D01*
X279196Y218506D01*
X279119Y218511D01*
X279037Y218517D01*
D02*
G37*
G36*
X541043Y218717D02*
X540579D01*
Y218477D01*
X541043D01*
Y218717D01*
D02*
G37*
G36*
X547644Y218531D02*
X547519D01*
X547492Y218526D01*
X547453D01*
X547410Y218520D01*
X547311Y218504D01*
X547202Y218477D01*
X547093Y218433D01*
X546989Y218379D01*
X546946Y218340D01*
X546902Y218302D01*
X546891Y218291D01*
X546869Y218259D01*
X546836Y218209D01*
X546798Y218133D01*
X546760Y218040D01*
X546727Y217925D01*
X546705Y217794D01*
X546694Y217641D01*
Y215528D01*
Y215523D01*
Y215512D01*
Y215485D01*
X546700Y215458D01*
Y215419D01*
X546705Y215381D01*
X546722Y215283D01*
X546743Y215179D01*
X546782Y215064D01*
X546831Y214961D01*
X546902Y214862D01*
X546913Y214851D01*
X546940Y214824D01*
X546995Y214791D01*
X547066Y214748D01*
X547158Y214704D01*
X547273Y214671D01*
X547404Y214644D01*
X547481Y214638D01*
X547563Y214633D01*
X547606D01*
X547634Y214638D01*
X547672D01*
X547715Y214644D01*
X547808Y214660D01*
X547917Y214688D01*
X548021Y214731D01*
X548125Y214786D01*
X548169Y214824D01*
X548212Y214862D01*
Y214868D01*
X548223Y214873D01*
X548245Y214906D01*
X548278Y214961D01*
X548321Y215032D01*
X548360Y215130D01*
X548392Y215245D01*
X548414Y215376D01*
X548425Y215528D01*
Y217641D01*
Y217647D01*
Y217663D01*
Y217685D01*
X548420Y217712D01*
Y217751D01*
X548414Y217789D01*
X548398Y217887D01*
X548376Y217991D01*
X548338Y218100D01*
X548283Y218209D01*
X548212Y218302D01*
X548201Y218313D01*
X548174Y218340D01*
X548125Y218373D01*
X548054Y218417D01*
X547961Y218460D01*
X547852Y218493D01*
X547715Y218520D01*
X547644Y218531D01*
D02*
G37*
G36*
X544035Y216582D02*
X543997D01*
X543970Y216577D01*
X543943D01*
X543904Y216566D01*
X543817Y216549D01*
X543724Y216517D01*
X543626Y216468D01*
X543577Y216440D01*
X543528Y216402D01*
X543484Y216364D01*
X543440Y216315D01*
Y216309D01*
X543429Y216304D01*
X543424Y216287D01*
X543407Y216266D01*
X543391Y216238D01*
X543375Y216206D01*
X543358Y216167D01*
X543336Y216124D01*
X543315Y216074D01*
X543298Y216020D01*
X543282Y215960D01*
X543265Y215889D01*
X543244Y215741D01*
X543233Y215572D01*
Y215567D01*
Y215561D01*
Y215545D01*
Y215523D01*
X543238Y215496D01*
Y215458D01*
X543244Y215414D01*
X543260Y215316D01*
X543287Y215206D01*
X543326Y215092D01*
X543380Y214977D01*
X543451Y214879D01*
X543462Y214868D01*
X543489Y214841D01*
X543544Y214802D01*
X543610Y214759D01*
X543697Y214715D01*
X543806Y214677D01*
X543926Y214649D01*
X543997Y214644D01*
X544068Y214638D01*
X544106D01*
X544134Y214644D01*
X544166D01*
X544205Y214649D01*
X544298Y214671D01*
X544396Y214699D01*
X544499Y214742D01*
X544598Y214802D01*
X544641Y214835D01*
X544685Y214879D01*
Y214884D01*
X544696Y214890D01*
X544707Y214906D01*
X544718Y214922D01*
X544740Y214950D01*
X544756Y214983D01*
X544800Y215059D01*
X544838Y215157D01*
X544876Y215277D01*
X544898Y215414D01*
X544909Y215572D01*
Y215578D01*
Y215583D01*
Y215599D01*
Y215621D01*
X544904Y215654D01*
Y215698D01*
X544898Y215741D01*
X544882Y215851D01*
X544854Y215965D01*
X544811Y216091D01*
X544756Y216206D01*
X544680Y216315D01*
Y216320D01*
X544669Y216326D01*
X544636Y216358D01*
X544587Y216402D01*
X544516Y216451D01*
X544423Y216500D01*
X544314Y216539D01*
X544183Y216571D01*
X544112Y216577D01*
X544035Y216582D01*
D02*
G37*
G36*
X533740Y273886D02*
X533687D01*
X533646Y273876D01*
X533531Y273855D01*
X533386Y273803D01*
X533209Y273730D01*
X533105Y273678D01*
X533001Y273626D01*
X532886Y273553D01*
X532771Y273470D01*
X532647Y273376D01*
X532522Y273261D01*
Y272772D01*
X532532Y272762D01*
X532553Y272751D01*
X532594Y272731D01*
X532636Y272699D01*
X532699Y272668D01*
X532771Y272637D01*
X532928Y272554D01*
X533105Y272470D01*
X533292Y272408D01*
X533479Y272356D01*
X533646Y272335D01*
X533698D01*
X533760Y272345D01*
X533844Y272356D01*
X533937Y272387D01*
X534031Y272418D01*
X534135Y272470D01*
X534239Y272533D01*
X534250Y272543D01*
X534281Y272564D01*
X534323Y272616D01*
X534375Y272668D01*
X534427Y272751D01*
X534468Y272845D01*
X534500Y272960D01*
X534510Y273095D01*
Y273105D01*
Y273147D01*
X534500Y273210D01*
X534479Y273282D01*
X534458Y273376D01*
X534427Y273470D01*
X534375Y273563D01*
X534302Y273657D01*
X534291Y273668D01*
X534260Y273688D01*
X534218Y273730D01*
X534146Y273772D01*
X534073Y273813D01*
X533969Y273855D01*
X533864Y273876D01*
X533740Y273886D01*
D02*
G37*
G36*
X563929Y273616D02*
X563908D01*
X563845Y273605D01*
X563741Y273595D01*
X563627Y273563D01*
X563491Y273522D01*
X563346Y273449D01*
X563210Y273355D01*
X563075Y273230D01*
X563064Y273210D01*
X563023Y273157D01*
X562971Y273064D01*
X562908Y272928D01*
X562846Y272762D01*
X562794Y272554D01*
X562752Y272304D01*
X562742Y272012D01*
Y272002D01*
Y271981D01*
Y271939D01*
Y271877D01*
X562752Y271814D01*
X562763Y271742D01*
X562783Y271565D01*
X562825Y271377D01*
X562877Y271180D01*
X562960Y270992D01*
X563075Y270826D01*
X563085Y270805D01*
X563137Y270763D01*
X563210Y270701D01*
X563304Y270628D01*
X563429Y270555D01*
X563575Y270493D01*
X563741Y270451D01*
X563939Y270430D01*
X563991D01*
X564033Y270440D01*
X564126Y270451D01*
X564251Y270482D01*
X564397Y270524D01*
X564543Y270597D01*
X564688Y270701D01*
X564824Y270836D01*
X564834Y270857D01*
X564876Y270909D01*
X564928Y271003D01*
X564990Y271138D01*
X565053Y271304D01*
X565105Y271513D01*
X565146Y271752D01*
X565157Y272033D01*
Y272044D01*
Y272064D01*
Y272106D01*
X565146Y272148D01*
Y272210D01*
X565136Y272283D01*
X565115Y272449D01*
X565074Y272626D01*
X565011Y272824D01*
X564938Y273012D01*
X564824Y273189D01*
X564803Y273210D01*
X564761Y273251D01*
X564688Y273324D01*
X564584Y273397D01*
X564460Y273480D01*
X564303Y273553D01*
X564126Y273595D01*
X563929Y273616D01*
D02*
G37*
G36*
X525089Y273616D02*
X525068D01*
X525006Y273605D01*
X524901Y273595D01*
X524787Y273563D01*
X524652Y273522D01*
X524506Y273449D01*
X524371Y273355D01*
X524235Y273230D01*
X524225Y273210D01*
X524183Y273157D01*
X524131Y273064D01*
X524069Y272928D01*
X524006Y272762D01*
X523954Y272554D01*
X523912Y272304D01*
X523902Y272012D01*
Y272002D01*
Y271981D01*
Y271939D01*
Y271877D01*
X523912Y271814D01*
X523923Y271742D01*
X523944Y271565D01*
X523985Y271377D01*
X524037Y271180D01*
X524121Y270992D01*
X524235Y270826D01*
X524246Y270805D01*
X524298Y270763D01*
X524371Y270701D01*
X524464Y270628D01*
X524589Y270555D01*
X524735Y270493D01*
X524901Y270451D01*
X525099Y270430D01*
X525151D01*
X525193Y270440D01*
X525287Y270451D01*
X525412Y270482D01*
X525557Y270524D01*
X525703Y270597D01*
X525849Y270701D01*
X525984Y270836D01*
X525994Y270857D01*
X526036Y270909D01*
X526088Y271003D01*
X526151Y271138D01*
X526213Y271304D01*
X526265Y271513D01*
X526307Y271752D01*
X526317Y272033D01*
Y272044D01*
Y272064D01*
Y272106D01*
X526307Y272148D01*
Y272210D01*
X526296Y272283D01*
X526276Y272449D01*
X526234Y272626D01*
X526171Y272824D01*
X526099Y273012D01*
X525984Y273189D01*
X525963Y273210D01*
X525922Y273251D01*
X525849Y273324D01*
X525745Y273397D01*
X525620Y273480D01*
X525464Y273553D01*
X525287Y273595D01*
X525089Y273616D01*
D02*
G37*
G36*
X557880Y271304D02*
X555351D01*
Y271294D01*
Y271284D01*
X555372Y271221D01*
X555392Y271128D01*
X555424Y271013D01*
X555486Y270878D01*
X555548Y270732D01*
X555642Y270586D01*
X555757Y270451D01*
X555767Y270440D01*
X555819Y270399D01*
X555892Y270336D01*
X555986Y270274D01*
X556121Y270211D01*
X556267Y270149D01*
X556444Y270107D01*
X556652Y270097D01*
X556694D01*
X556746Y270107D01*
X556818Y270118D01*
X556902Y270139D01*
X556995Y270159D01*
X557100Y270201D01*
X557204Y270243D01*
X557308Y270316D01*
X557422Y270388D01*
X557526Y270493D01*
X557620Y270607D01*
X557703Y270742D01*
X557776Y270909D01*
X557839Y271096D01*
X557880Y271304D01*
D02*
G37*
G36*
X569854Y258773D02*
X568355D01*
X569073Y256171D01*
X569854Y258773D01*
D02*
G37*
G36*
X560704Y257816D02*
X559871D01*
X559798Y257805D01*
X559704Y257795D01*
X559600Y257785D01*
X559475Y257764D01*
X559350Y257733D01*
X559215Y257691D01*
X559080Y257639D01*
X558955Y257566D01*
X558830Y257483D01*
X558726Y257389D01*
X558632Y257275D01*
X558559Y257139D01*
X558518Y256983D01*
X558497Y256806D01*
Y256796D01*
Y256785D01*
Y256723D01*
X558518Y256629D01*
X558538Y256515D01*
X558580Y256400D01*
X558632Y256265D01*
X558715Y256150D01*
X558830Y256046D01*
X558840Y256036D01*
X558892Y256005D01*
X558965Y255963D01*
X559059Y255921D01*
X559194Y255880D01*
X559340Y255838D01*
X559517Y255807D01*
X559725Y255796D01*
X560704D01*
Y257816D01*
D02*
G37*
G36*
X567191Y287032D02*
X567149D01*
X567097Y287022D01*
X567024D01*
X566941Y287011D01*
X566837Y286990D01*
X566722Y286970D01*
X566608Y286939D01*
X566472Y286897D01*
X566337Y286845D01*
X566191Y286793D01*
X566056Y286720D01*
X565910Y286626D01*
X565764Y286532D01*
X565629Y286418D01*
X565494Y286283D01*
X565483Y286272D01*
X565462Y286251D01*
X565431Y286199D01*
X565379Y286147D01*
X565327Y286064D01*
X565265Y285970D01*
X565202Y285856D01*
X565140Y285731D01*
X565077Y285585D01*
X565004Y285429D01*
X564952Y285242D01*
X564900Y285054D01*
X564848Y284846D01*
X564817Y284617D01*
X564796Y284378D01*
X564786Y284117D01*
Y284107D01*
Y284065D01*
Y283993D01*
X564796Y283909D01*
X564807Y283795D01*
X564817Y283670D01*
X564838Y283534D01*
X564869Y283389D01*
X564952Y283056D01*
X565004Y282889D01*
X565067Y282712D01*
X565150Y282545D01*
X565244Y282379D01*
X565348Y282223D01*
X565462Y282067D01*
X565473Y282056D01*
X565494Y282035D01*
X565535Y281994D01*
X565587Y281942D01*
X565650Y281879D01*
X565733Y281817D01*
X565827Y281744D01*
X565931Y281671D01*
X566046Y281598D01*
X566181Y281525D01*
X566316Y281463D01*
X566472Y281400D01*
X566639Y281348D01*
X566816Y281307D01*
X566993Y281286D01*
X567191Y281276D01*
X567284D01*
X567357Y281286D01*
X567440Y281296D01*
X567545Y281317D01*
X567659Y281338D01*
X567773Y281369D01*
X567909Y281411D01*
X568044Y281463D01*
X568180Y281515D01*
X568325Y281588D01*
X568471Y281681D01*
X568617Y281775D01*
X568752Y281890D01*
X568887Y282025D01*
X568898Y282035D01*
X568919Y282056D01*
X568950Y282108D01*
X568992Y282160D01*
X569044Y282244D01*
X569106Y282337D01*
X569169Y282452D01*
X569231Y282577D01*
X569293Y282722D01*
X569356Y282889D01*
X569418Y283066D01*
X569470Y283264D01*
X569512Y283482D01*
X569543Y283711D01*
X569564Y283961D01*
X569574Y284222D01*
Y284232D01*
Y284274D01*
Y284346D01*
X569564Y284430D01*
X569554Y284544D01*
X569543Y284669D01*
X569522Y284804D01*
X569491Y284961D01*
X569408Y285283D01*
X569356Y285450D01*
X569293Y285627D01*
X569210Y285793D01*
X569116Y285960D01*
X569012Y286126D01*
X568898Y286272D01*
X568887Y286283D01*
X568867Y286303D01*
X568825Y286345D01*
X568773Y286387D01*
X568710Y286449D01*
X568627Y286512D01*
X568534Y286585D01*
X568429Y286647D01*
X568304Y286720D01*
X568180Y286793D01*
X568034Y286855D01*
X567888Y286918D01*
X567722Y286959D01*
X567555Y287001D01*
X567378Y287022D01*
X567191Y287032D01*
D02*
G37*
G36*
X260809Y150724D02*
X260716D01*
X260643Y150714D01*
X260560Y150704D01*
X260455Y150683D01*
X260341Y150662D01*
X260226Y150631D01*
X260091Y150589D01*
X259956Y150537D01*
X259821Y150485D01*
X259675Y150412D01*
X259529Y150319D01*
X259383Y150225D01*
X259248Y150110D01*
X259113Y149975D01*
X259102Y149965D01*
X259081Y149944D01*
X259050Y149892D01*
X259009Y149840D01*
X258956Y149756D01*
X258894Y149663D01*
X258832Y149548D01*
X258769Y149423D01*
X258707Y149277D01*
X258644Y149111D01*
X258582Y148934D01*
X258530Y148736D01*
X258488Y148518D01*
X258457Y148289D01*
X258436Y148039D01*
X258425Y147778D01*
Y147768D01*
Y147727D01*
Y147654D01*
X258436Y147570D01*
X258446Y147456D01*
X258457Y147331D01*
X258478Y147196D01*
X258509Y147039D01*
X258592Y146717D01*
X258644Y146550D01*
X258707Y146373D01*
X258790Y146207D01*
X258884Y146040D01*
X258988Y145873D01*
X259102Y145728D01*
X259113Y145717D01*
X259133Y145696D01*
X259175Y145655D01*
X259227Y145613D01*
X259290Y145551D01*
X259373Y145488D01*
X259467Y145415D01*
X259571Y145353D01*
X259696Y145280D01*
X259821Y145207D01*
X259966Y145145D01*
X260112Y145082D01*
X260279Y145041D01*
X260445Y144999D01*
X260622Y144978D01*
X260809Y144968D01*
X260851D01*
X260903Y144978D01*
X260976D01*
X261059Y144989D01*
X261163Y145009D01*
X261278Y145030D01*
X261392Y145062D01*
X261528Y145103D01*
X261663Y145155D01*
X261809Y145207D01*
X261944Y145280D01*
X262090Y145374D01*
X262236Y145467D01*
X262371Y145582D01*
X262506Y145717D01*
X262517Y145728D01*
X262538Y145749D01*
X262569Y145801D01*
X262621Y145853D01*
X262673Y145936D01*
X262735Y146030D01*
X262798Y146144D01*
X262860Y146269D01*
X262923Y146415D01*
X262996Y146571D01*
X263048Y146758D01*
X263100Y146946D01*
X263152Y147154D01*
X263183Y147383D01*
X263204Y147622D01*
X263214Y147883D01*
Y147893D01*
Y147935D01*
Y148008D01*
X263204Y148091D01*
X263193Y148205D01*
X263183Y148330D01*
X263162Y148466D01*
X263131Y148611D01*
X263048Y148944D01*
X262996Y149111D01*
X262933Y149288D01*
X262850Y149454D01*
X262756Y149621D01*
X262652Y149777D01*
X262538Y149933D01*
X262527Y149944D01*
X262506Y149965D01*
X262465Y150006D01*
X262413Y150058D01*
X262350Y150121D01*
X262267Y150183D01*
X262173Y150256D01*
X262069Y150329D01*
X261954Y150402D01*
X261819Y150475D01*
X261684Y150537D01*
X261528Y150600D01*
X261361Y150652D01*
X261184Y150693D01*
X261007Y150714D01*
X260809Y150724D01*
D02*
G37*
G36*
X268275Y176204D02*
X267296D01*
Y174184D01*
X268129D01*
X268202Y174195D01*
X268296Y174205D01*
X268400Y174215D01*
X268525Y174236D01*
X268650Y174267D01*
X268785Y174309D01*
X268920Y174361D01*
X269045Y174434D01*
X269170Y174517D01*
X269274Y174611D01*
X269368Y174725D01*
X269441Y174861D01*
X269482Y175017D01*
X269503Y175194D01*
Y175204D01*
Y175215D01*
Y175277D01*
X269482Y175371D01*
X269462Y175485D01*
X269420Y175600D01*
X269368Y175735D01*
X269285Y175850D01*
X269170Y175954D01*
X269160Y175964D01*
X269108Y175996D01*
X269035Y176037D01*
X268941Y176079D01*
X268806Y176120D01*
X268660Y176162D01*
X268483Y176193D01*
X268275Y176204D01*
D02*
G37*
G36*
X258927Y175829D02*
X258146Y173226D01*
X259645D01*
X258927Y175829D01*
D02*
G37*
G36*
X302901Y161570D02*
X302849D01*
X302807Y161560D01*
X302713Y161549D01*
X302588Y161518D01*
X302443Y161476D01*
X302297Y161403D01*
X302151Y161299D01*
X302016Y161164D01*
X302006Y161143D01*
X301964Y161091D01*
X301912Y160997D01*
X301849Y160862D01*
X301787Y160696D01*
X301735Y160487D01*
X301693Y160248D01*
X301683Y159967D01*
Y159956D01*
Y159936D01*
Y159894D01*
X301693Y159852D01*
Y159790D01*
X301704Y159717D01*
X301724Y159550D01*
X301766Y159373D01*
X301829Y159176D01*
X301901Y158988D01*
X302016Y158811D01*
X302037Y158791D01*
X302078Y158749D01*
X302151Y158676D01*
X302255Y158603D01*
X302380Y158520D01*
X302536Y158447D01*
X302713Y158405D01*
X302911Y158385D01*
X302932D01*
X302994Y158395D01*
X303099Y158405D01*
X303213Y158437D01*
X303348Y158478D01*
X303494Y158551D01*
X303629Y158645D01*
X303765Y158770D01*
X303775Y158791D01*
X303817Y158843D01*
X303869Y158936D01*
X303931Y159072D01*
X303994Y159238D01*
X304046Y159446D01*
X304087Y159696D01*
X304098Y159988D01*
Y159998D01*
Y160019D01*
Y160061D01*
Y160123D01*
X304087Y160186D01*
X304077Y160258D01*
X304056Y160435D01*
X304015Y160623D01*
X303963Y160820D01*
X303879Y161008D01*
X303765Y161174D01*
X303754Y161195D01*
X303702Y161237D01*
X303629Y161299D01*
X303536Y161372D01*
X303411Y161445D01*
X303265Y161507D01*
X303099Y161549D01*
X302901Y161570D01*
D02*
G37*
G36*
X264061D02*
X264009D01*
X263967Y161560D01*
X263874Y161549D01*
X263749Y161518D01*
X263603Y161476D01*
X263457Y161403D01*
X263312Y161299D01*
X263176Y161164D01*
X263166Y161143D01*
X263124Y161091D01*
X263072Y160997D01*
X263010Y160862D01*
X262947Y160696D01*
X262895Y160487D01*
X262854Y160248D01*
X262843Y159967D01*
Y159956D01*
Y159936D01*
Y159894D01*
X262854Y159852D01*
Y159790D01*
X262864Y159717D01*
X262885Y159550D01*
X262926Y159373D01*
X262989Y159176D01*
X263062Y158988D01*
X263176Y158811D01*
X263197Y158791D01*
X263239Y158749D01*
X263312Y158676D01*
X263416Y158603D01*
X263541Y158520D01*
X263697Y158447D01*
X263874Y158405D01*
X264071Y158385D01*
X264092D01*
X264155Y158395D01*
X264259Y158405D01*
X264373Y158437D01*
X264509Y158478D01*
X264654Y158551D01*
X264790Y158645D01*
X264925Y158770D01*
X264935Y158791D01*
X264977Y158843D01*
X265029Y158936D01*
X265092Y159072D01*
X265154Y159238D01*
X265206Y159446D01*
X265248Y159696D01*
X265258Y159988D01*
Y159998D01*
Y160019D01*
Y160061D01*
Y160123D01*
X265248Y160186D01*
X265237Y160258D01*
X265216Y160435D01*
X265175Y160623D01*
X265123Y160820D01*
X265040Y161008D01*
X264925Y161174D01*
X264915Y161195D01*
X264863Y161237D01*
X264790Y161299D01*
X264696Y161372D01*
X264571Y161445D01*
X264425Y161507D01*
X264259Y161549D01*
X264061Y161570D01*
D02*
G37*
G36*
X294354Y159665D02*
X294302D01*
X294240Y159654D01*
X294156Y159644D01*
X294063Y159613D01*
X293969Y159582D01*
X293865Y159530D01*
X293761Y159467D01*
X293750Y159457D01*
X293719Y159436D01*
X293677Y159384D01*
X293625Y159332D01*
X293573Y159249D01*
X293532Y159155D01*
X293500Y159040D01*
X293490Y158905D01*
Y158895D01*
Y158853D01*
X293500Y158791D01*
X293521Y158718D01*
X293542Y158624D01*
X293573Y158530D01*
X293625Y158437D01*
X293698Y158343D01*
X293709Y158333D01*
X293740Y158312D01*
X293782Y158270D01*
X293854Y158228D01*
X293927Y158187D01*
X294031Y158145D01*
X294135Y158124D01*
X294260Y158114D01*
X294313D01*
X294354Y158124D01*
X294469Y158145D01*
X294614Y158197D01*
X294791Y158270D01*
X294895Y158322D01*
X295000Y158374D01*
X295114Y158447D01*
X295229Y158530D01*
X295354Y158624D01*
X295478Y158739D01*
Y159228D01*
X295468Y159238D01*
X295447Y159249D01*
X295406Y159269D01*
X295364Y159301D01*
X295301Y159332D01*
X295229Y159363D01*
X295072Y159446D01*
X294895Y159530D01*
X294708Y159592D01*
X294521Y159644D01*
X294354Y159665D01*
D02*
G37*
G36*
X271348Y161903D02*
X271306D01*
X271254Y161893D01*
X271182Y161882D01*
X271098Y161862D01*
X271005Y161841D01*
X270900Y161799D01*
X270796Y161757D01*
X270692Y161685D01*
X270578Y161612D01*
X270474Y161507D01*
X270380Y161393D01*
X270297Y161258D01*
X270224Y161091D01*
X270161Y160904D01*
X270120Y160696D01*
X272649D01*
Y160706D01*
Y160716D01*
X272628Y160779D01*
X272608Y160872D01*
X272576Y160987D01*
X272514Y161122D01*
X272451Y161268D01*
X272358Y161414D01*
X272243Y161549D01*
X272233Y161560D01*
X272181Y161601D01*
X272108Y161664D01*
X272014Y161726D01*
X271879Y161789D01*
X271733Y161851D01*
X271556Y161893D01*
X271348Y161903D01*
D02*
G37*
%LPD*%
D10*
X286876Y267618D02*
G03*
X286876Y267618I-557J0D01*
G01*
X537073Y166437D02*
G03*
X537073Y166437I-557J0D01*
G01*
X421915Y197736D02*
G03*
X421915Y197736I-557J0D01*
G01*
X339041Y235335D02*
G03*
X339041Y235335I-557J0D01*
G01*
X492781Y197736D02*
G03*
X492781Y197736I-557J0D01*
G01*
X480773Y235335D02*
G03*
X480773Y235335I-557J0D01*
G01*
X351049Y197736D02*
G03*
X351049Y197736I-557J0D01*
G01*
X409907Y235335D02*
G03*
X409907Y235335I-557J0D01*
G01*
X470968Y211925D02*
Y220075D01*
X457031Y211925D02*
Y220075D01*
Y211925D02*
X462228D01*
X465772D02*
X470968D01*
X465772Y220075D02*
X470968D01*
X457031D02*
X462228D01*
X267323Y261811D02*
Y285433D01*
Y261811D02*
X284055D01*
Y285433D01*
X267323D02*
X284055D01*
X555512Y148622D02*
Y172244D01*
X538779D02*
X555512D01*
X538779Y148622D02*
Y172244D01*
Y148622D02*
X555512D01*
X403543Y178740D02*
X427165D01*
Y195472D01*
X403543D02*
X427165D01*
X403543Y178740D02*
Y195472D01*
X332677Y254331D02*
X356299D01*
X332677Y237598D02*
Y254331D01*
Y237598D02*
X356299D01*
Y254331D01*
X474409Y178740D02*
X498032D01*
Y195472D01*
X474409D02*
X498032D01*
X474409Y178740D02*
Y195472D01*
X474409Y254331D02*
X498032D01*
X474409Y237598D02*
Y254331D01*
Y237598D02*
X498032D01*
Y254331D01*
X332677Y178740D02*
X356299D01*
Y195472D01*
X332677D02*
X356299D01*
X332677Y178740D02*
Y195472D01*
X403543Y254331D02*
X427165D01*
X403543Y237598D02*
Y254331D01*
Y237598D02*
X427165D01*
Y254331D01*
D11*
X517520Y247087D02*
X589370D01*
X517520Y186063D02*
X589370D01*
X517520D02*
Y247087D01*
X589370Y186063D02*
Y247087D01*
X237230Y186063D02*
X309080D01*
X237230Y247087D02*
X309080D01*
Y186063D02*
Y247087D01*
X237230Y186063D02*
Y247087D01*
D12*
X434600Y212452D02*
X435486D01*
X434600D02*
Y219452D01*
X435490Y212452D02*
X451268D01*
Y219452D01*
X434600D02*
X451268D01*
X442500Y215000D02*
X443500Y214000D01*
X442500Y217000D02*
X443500Y218000D01*
D13*
X504331Y279528D02*
Y287402D01*
X498032Y273228D02*
X504331Y279528D01*
X464173Y273228D02*
X498032D01*
Y293701D02*
X504331Y287402D01*
X464173Y293701D02*
X498032D01*
X464173Y273228D02*
Y293701D01*
X433464Y279563D02*
Y287437D01*
X427165Y273264D02*
X433464Y279563D01*
X393307Y273264D02*
X427165D01*
Y293736D02*
X433464Y287437D01*
X393307Y293736D02*
X427165D01*
X393307Y273264D02*
Y293736D01*
X362598Y279528D02*
Y287402D01*
X356299Y273228D02*
X362598Y279528D01*
X322441Y273228D02*
X356299D01*
Y293701D02*
X362598Y287402D01*
X322441Y293701D02*
X356299D01*
X322441Y273228D02*
Y293701D01*
X464173Y145669D02*
Y153543D01*
X470472Y159843D01*
X504331D01*
X464173Y145669D02*
X470472Y139370D01*
X504331D01*
Y159843D01*
X393307Y145669D02*
Y153543D01*
X399606Y159843D01*
X433465D01*
X393307Y145669D02*
X399606Y139370D01*
X433465D01*
Y159843D01*
X322441Y145669D02*
Y153543D01*
X328740Y159843D01*
X362598D01*
X322441Y145669D02*
X328740Y139370D01*
X362598D01*
Y159843D01*
M02*
