G04*
G04 #@! TF.GenerationSoftware,Altium Limited,Altium Designer,20.0.2 (26)*
G04*
G04 Layer_Color=32896*
%FSLAX25Y25*%
%MOIN*%
G70*
G01*
G75*
%ADD34C,0.00100*%
G36*
X395091Y186472D02*
Y186008D01*
X395183D01*
Y185545D01*
X395276D01*
Y185453D01*
X395369D01*
Y185267D01*
X395461D01*
Y185175D01*
X395554D01*
Y185082D01*
X395647D01*
Y184990D01*
X395739D01*
Y184897D01*
X395832D01*
Y184804D01*
X395924D01*
Y184712D01*
X396017D01*
X396110D01*
Y184619D01*
X396202D01*
X396295D01*
Y184526D01*
X396388D01*
X396480D01*
Y184434D01*
X396573D01*
X396665D01*
X396758D01*
Y184341D01*
X396851D01*
X396943D01*
X397036D01*
Y184248D01*
X397129D01*
Y184341D01*
X397221D01*
X397314D01*
X397406D01*
X397499D01*
X397592D01*
X397684D01*
Y184248D01*
X397777D01*
Y184341D01*
X397870D01*
X397962D01*
X398055D01*
Y184434D01*
X398147D01*
X398240D01*
X398333D01*
Y184526D01*
X398425D01*
X398518D01*
Y184619D01*
X398611D01*
X398703D01*
X398796D01*
Y184712D01*
X398888D01*
X398981D01*
Y184897D01*
X399074D01*
X399166D01*
X399259D01*
Y184990D01*
X399352D01*
Y185175D01*
X399444D01*
Y185267D01*
X399537D01*
Y185360D01*
X399629D01*
Y185638D01*
X399722D01*
Y185823D01*
X399815D01*
Y186194D01*
X399907D01*
X400000D01*
X400093D01*
Y186101D01*
X400185D01*
Y186008D01*
X400278D01*
Y185916D01*
X400371D01*
X400463D01*
Y185823D01*
X400556D01*
X400648D01*
Y185731D01*
X400741D01*
Y185638D01*
X400834D01*
Y185545D01*
X400926D01*
X401019D01*
X401112D01*
Y185360D01*
X401204D01*
X401297D01*
Y185267D01*
X401389D01*
Y185175D01*
X401482D01*
X401575D01*
Y185082D01*
X401667D01*
X401760D01*
Y184897D01*
X401853D01*
X401945D01*
X402038D01*
Y184712D01*
X402131D01*
X402223D01*
Y184619D01*
X402316D01*
X402408D01*
Y184526D01*
X402501D01*
Y184434D01*
X402594D01*
X402686D01*
Y184248D01*
X402779D01*
Y185823D01*
X402686D01*
X402594D01*
X402501D01*
Y185916D01*
X402408D01*
Y186008D01*
X402316D01*
X402223D01*
Y186101D01*
X402131D01*
X402038D01*
Y186286D01*
X401945D01*
X401853D01*
Y186379D01*
X401760D01*
Y186472D01*
X401667D01*
X401575D01*
X401482D01*
Y186564D01*
X401389D01*
Y186657D01*
X401297D01*
Y186749D01*
X401204D01*
X401112D01*
X401019D01*
Y186842D01*
X400926D01*
Y186935D01*
X400834D01*
Y187027D01*
X400741D01*
X400648D01*
Y187120D01*
X400556D01*
X400463D01*
Y187213D01*
X400371D01*
Y187305D01*
X400278D01*
Y187398D01*
X400185D01*
X400093D01*
X400000D01*
Y187490D01*
X399907D01*
Y187583D01*
X399815D01*
Y187676D01*
X399722D01*
X399629D01*
Y187768D01*
X399537D01*
X399444D01*
Y187861D01*
X399352D01*
Y187954D01*
X399259D01*
Y188046D01*
X399166D01*
X399074D01*
Y188139D01*
X398981D01*
X398888D01*
Y188232D01*
X398796D01*
Y186379D01*
X398703D01*
Y186194D01*
X398611D01*
Y186008D01*
X398518D01*
Y185916D01*
X398425D01*
Y185823D01*
X398333D01*
Y185731D01*
X398240D01*
Y185638D01*
X398147D01*
Y185545D01*
X398055D01*
X397962D01*
X397870D01*
X397777D01*
Y185453D01*
X397684D01*
X397592D01*
X397499D01*
X397406D01*
X397314D01*
X397221D01*
Y185545D01*
X397129D01*
X397036D01*
X396943D01*
Y185638D01*
X396851D01*
X396758D01*
Y185731D01*
X396665D01*
Y185823D01*
X396573D01*
Y185916D01*
X396480D01*
Y186008D01*
X396388D01*
Y186194D01*
X396295D01*
Y188880D01*
X396388D01*
X396480D01*
X396573D01*
X396665D01*
X396758D01*
X396851D01*
X396943D01*
X397036D01*
X397129D01*
X397221D01*
X397314D01*
X397406D01*
X397499D01*
X397592D01*
X397684D01*
X397777D01*
X397870D01*
X397962D01*
X398055D01*
X398147D01*
X398240D01*
X398333D01*
X398425D01*
X398518D01*
X398611D01*
X398703D01*
X398796D01*
X398888D01*
X398981D01*
X399074D01*
X399166D01*
X399259D01*
X399352D01*
X399444D01*
X399537D01*
X399629D01*
X399722D01*
X399815D01*
X399907D01*
X400000D01*
X400093D01*
X400185D01*
X400278D01*
X400371D01*
X400463D01*
X400556D01*
X400648D01*
X400741D01*
X400834D01*
X400926D01*
X401019D01*
X401112D01*
X401204D01*
X401297D01*
X401389D01*
X401482D01*
X401575D01*
X401667D01*
X401760D01*
X401853D01*
X401945D01*
X402038D01*
X402131D01*
X402223D01*
X402316D01*
X402408D01*
X402501D01*
X402594D01*
X402686D01*
X402779D01*
Y190084D01*
X402686D01*
Y189991D01*
X402594D01*
X402501D01*
X402408D01*
X402316D01*
X402223D01*
X402131D01*
X402038D01*
X401945D01*
X401853D01*
X401760D01*
X401667D01*
X401575D01*
X401482D01*
X401389D01*
X401297D01*
X401204D01*
X401112D01*
X401019D01*
X400926D01*
X400834D01*
X400741D01*
X400648D01*
X400556D01*
X400463D01*
X400371D01*
X400278D01*
X400185D01*
X400093D01*
X400000D01*
X399907D01*
X399815D01*
X399722D01*
X399629D01*
X399537D01*
X399444D01*
X399352D01*
X399259D01*
X399166D01*
X399074D01*
X398981D01*
X398888D01*
X398796D01*
X398703D01*
X398611D01*
X398518D01*
X398425D01*
X398333D01*
X398240D01*
X398147D01*
X398055D01*
X397962D01*
X397870D01*
X397777D01*
X397684D01*
X397592D01*
X397499D01*
X397406D01*
X397314D01*
X397221D01*
X397129D01*
X397036D01*
X396943D01*
X396851D01*
X396758D01*
X396665D01*
X396573D01*
X396480D01*
X396388D01*
X396295D01*
X396202D01*
X396110D01*
X396017D01*
X395924D01*
X395832D01*
X395739D01*
X395647D01*
X395554D01*
X395461D01*
X395369D01*
X395276D01*
X395183D01*
X395091D01*
Y190084D01*
X394998D01*
Y186472D01*
X395091D01*
D02*
G37*
G36*
Y190640D02*
X395183D01*
X395276D01*
X395369D01*
X395461D01*
X395554D01*
X395647D01*
X395739D01*
X395832D01*
X395924D01*
X396017D01*
X396110D01*
X396202D01*
X396295D01*
Y193141D01*
X396388D01*
X396480D01*
X396573D01*
X396665D01*
X396758D01*
X396851D01*
X396943D01*
X397036D01*
X397129D01*
X397221D01*
X397314D01*
X397406D01*
X397499D01*
X397592D01*
X397684D01*
X397777D01*
X397870D01*
X397962D01*
X398055D01*
X398147D01*
X398240D01*
X398333D01*
Y191751D01*
X398425D01*
X398518D01*
X398611D01*
X398703D01*
X398796D01*
X398888D01*
X398981D01*
X399074D01*
X399166D01*
X399259D01*
X399352D01*
X399444D01*
X399537D01*
Y193141D01*
X399629D01*
X399722D01*
X399815D01*
X399907D01*
X400000D01*
X400093D01*
X400185D01*
X400278D01*
X400371D01*
X400463D01*
X400556D01*
X400648D01*
X400741D01*
X400834D01*
X400926D01*
X401019D01*
X401112D01*
X401204D01*
X401297D01*
X401389D01*
X401482D01*
X401575D01*
Y190640D01*
X401667D01*
X401760D01*
X401853D01*
X401945D01*
X402038D01*
X402131D01*
X402223D01*
X402316D01*
X402408D01*
X402501D01*
X402594D01*
X402686D01*
X402779D01*
Y194345D01*
X402686D01*
X402594D01*
X402501D01*
X402408D01*
X402316D01*
X402223D01*
X402131D01*
X402038D01*
X401945D01*
X401853D01*
X401760D01*
X401667D01*
X401575D01*
X401482D01*
X401389D01*
X401297D01*
X401204D01*
X401112D01*
X401019D01*
X400926D01*
X400834D01*
X400741D01*
X400648D01*
X400556D01*
X400463D01*
X400371D01*
X400278D01*
X400185D01*
X400093D01*
X400000D01*
X399907D01*
X399815D01*
X399722D01*
X399629D01*
X399537D01*
X399444D01*
X399352D01*
X399259D01*
X399166D01*
X399074D01*
X398981D01*
X398888D01*
X398796D01*
X398703D01*
X398611D01*
X398518D01*
X398425D01*
X398333D01*
X398240D01*
X398147D01*
X398055D01*
X397962D01*
X397870D01*
X397777D01*
X397684D01*
X397592D01*
X397499D01*
X397406D01*
X397314D01*
X397221D01*
X397129D01*
X397036D01*
X396943D01*
X396851D01*
X396758D01*
X396665D01*
X396573D01*
X396480D01*
X396388D01*
X396295D01*
X396202D01*
X396110D01*
X396017D01*
X395924D01*
X395832D01*
X395739D01*
X395647D01*
X395554D01*
X395461D01*
X395369D01*
X395276D01*
X395183D01*
X395091D01*
X394998D01*
Y190640D01*
X395091D01*
D02*
G37*
G36*
Y198606D02*
Y197957D01*
X395183D01*
Y197402D01*
X395276D01*
Y197216D01*
X395369D01*
Y197031D01*
X395461D01*
Y196753D01*
X395554D01*
Y196661D01*
X395647D01*
Y196568D01*
X395739D01*
Y196383D01*
X395832D01*
Y196290D01*
X395924D01*
Y196197D01*
X396017D01*
Y196105D01*
X396110D01*
Y196012D01*
X396202D01*
Y195920D01*
X396295D01*
Y195827D01*
X396388D01*
X396480D01*
Y195734D01*
X396573D01*
X396665D01*
Y195549D01*
X396758D01*
X396851D01*
Y195457D01*
X396943D01*
X397036D01*
X397129D01*
Y195364D01*
X397221D01*
X397314D01*
X397406D01*
X397499D01*
Y195271D01*
X397592D01*
X397684D01*
Y195179D01*
X397777D01*
X397870D01*
X397962D01*
Y195086D01*
X398055D01*
X398147D01*
X398240D01*
X398333D01*
X398425D01*
X398518D01*
X398611D01*
X398703D01*
X398796D01*
X398888D01*
X398981D01*
X399074D01*
X399166D01*
X399259D01*
X399352D01*
X399444D01*
X399537D01*
X399629D01*
X399722D01*
X399815D01*
X399907D01*
Y195179D01*
X400000D01*
X400093D01*
X400185D01*
Y195271D01*
X400278D01*
X400371D01*
Y195364D01*
X400463D01*
X400556D01*
Y195457D01*
X400648D01*
Y195364D01*
X400741D01*
Y195457D01*
X400834D01*
X400926D01*
Y195642D01*
X401019D01*
X401112D01*
Y195734D01*
X401204D01*
X401297D01*
Y195827D01*
X401389D01*
X401482D01*
Y195920D01*
X401575D01*
Y196012D01*
X401667D01*
Y196105D01*
X401760D01*
Y196197D01*
X401853D01*
Y196290D01*
X401945D01*
Y196383D01*
X402038D01*
Y196475D01*
X402131D01*
Y196661D01*
X402223D01*
Y196753D01*
X402316D01*
Y196939D01*
X402408D01*
Y197124D01*
X402501D01*
Y197309D01*
X402594D01*
Y197772D01*
X402686D01*
Y198235D01*
X402779D01*
Y200736D01*
X402686D01*
X402594D01*
X402501D01*
X402408D01*
X402316D01*
X402223D01*
X402131D01*
X402038D01*
X401945D01*
X401853D01*
X401760D01*
X401667D01*
X401575D01*
X401482D01*
X401389D01*
X401297D01*
X401204D01*
X401112D01*
X401019D01*
X400926D01*
X400834D01*
X400741D01*
X400648D01*
X400556D01*
X400463D01*
X400371D01*
X400278D01*
X400185D01*
X400093D01*
X400000D01*
X399907D01*
X399815D01*
X399722D01*
X399629D01*
X399537D01*
X399444D01*
X399352D01*
X399259D01*
X399166D01*
X399074D01*
X398981D01*
X398888D01*
X398796D01*
X398703D01*
X398611D01*
X398518D01*
X398425D01*
X398333D01*
X398240D01*
X398147D01*
X398055D01*
X397962D01*
X397870D01*
X397777D01*
X397684D01*
X397592D01*
X397499D01*
X397406D01*
X397314D01*
X397221D01*
X397129D01*
X397036D01*
X396943D01*
X396851D01*
X396758D01*
X396665D01*
X396573D01*
X396480D01*
X396388D01*
X396295D01*
X396202D01*
X396110D01*
X396017D01*
X395924D01*
X395832D01*
X395739D01*
X395647D01*
X395554D01*
X395461D01*
X395369D01*
X395276D01*
X395183D01*
X395091D01*
X394998D01*
Y198606D01*
X395091D01*
D02*
G37*
G36*
Y201292D02*
X395183D01*
X395276D01*
X395369D01*
X395461D01*
X395554D01*
X395647D01*
X395739D01*
X395832D01*
X395924D01*
X396017D01*
X396110D01*
X396202D01*
X396295D01*
X396388D01*
X396480D01*
X396573D01*
X396665D01*
X396758D01*
X396851D01*
X396943D01*
X397036D01*
X397129D01*
X397221D01*
X397314D01*
X397406D01*
X397499D01*
X397592D01*
X397684D01*
X397777D01*
X397870D01*
X397962D01*
X398055D01*
X398147D01*
X398240D01*
X398333D01*
X398425D01*
X398518D01*
X398611D01*
X398703D01*
X398796D01*
X398888D01*
X398981D01*
X399074D01*
X399166D01*
X399259D01*
X399352D01*
X399444D01*
X399537D01*
X399629D01*
X399722D01*
X399815D01*
X399907D01*
X400000D01*
X400093D01*
X400185D01*
X400278D01*
X400371D01*
X400463D01*
X400556D01*
X400648D01*
X400741D01*
X400834D01*
X400926D01*
X401019D01*
X401112D01*
X401204D01*
X401297D01*
X401389D01*
X401482D01*
X401575D01*
X401667D01*
X401760D01*
X401853D01*
X401945D01*
X402038D01*
X402131D01*
X402223D01*
X402316D01*
X402408D01*
X402501D01*
X402594D01*
X402686D01*
X402779D01*
Y202774D01*
X402686D01*
X402594D01*
X402501D01*
Y202867D01*
X402408D01*
X402316D01*
Y202959D01*
X402223D01*
Y203052D01*
X402131D01*
Y203145D01*
X402038D01*
Y203052D01*
X401945D01*
Y203145D01*
X401853D01*
Y203237D01*
X401760D01*
X401667D01*
Y203330D01*
X401575D01*
Y203422D01*
X401482D01*
X401389D01*
X401297D01*
Y203515D01*
X401204D01*
X401112D01*
Y203608D01*
X401019D01*
X400926D01*
Y203793D01*
X400834D01*
Y203700D01*
X400741D01*
Y203793D01*
X400648D01*
X400556D01*
Y203886D01*
X400463D01*
Y203978D01*
X400371D01*
X400278D01*
Y204071D01*
X400185D01*
X400093D01*
X400000D01*
Y204164D01*
X399907D01*
Y204256D01*
X399815D01*
X399722D01*
Y204349D01*
X399629D01*
X399537D01*
Y204441D01*
X399444D01*
X399352D01*
Y204534D01*
X399259D01*
Y204627D01*
X399166D01*
X399074D01*
Y204719D01*
X398981D01*
X398888D01*
X398796D01*
Y204812D01*
X398703D01*
X398611D01*
Y204905D01*
X398518D01*
Y204997D01*
X398425D01*
X398333D01*
Y205090D01*
X398240D01*
X398147D01*
Y205182D01*
X398055D01*
X397962D01*
Y205275D01*
X397870D01*
Y205368D01*
X397777D01*
X397684D01*
X397592D01*
Y205460D01*
X397499D01*
X397406D01*
Y205553D01*
X397314D01*
Y205645D01*
X397221D01*
X397129D01*
X397036D01*
Y205923D01*
X397129D01*
X397221D01*
X397314D01*
Y205831D01*
X397406D01*
X397499D01*
X397592D01*
X397684D01*
X397777D01*
X397870D01*
X397962D01*
X398055D01*
X398147D01*
X398240D01*
X398333D01*
X398425D01*
X398518D01*
X398611D01*
X398703D01*
X398796D01*
X398888D01*
X398981D01*
X399074D01*
X399166D01*
X399259D01*
X399352D01*
X399444D01*
X399537D01*
X399629D01*
X399722D01*
X399815D01*
X399907D01*
X400000D01*
X400093D01*
X400185D01*
X400278D01*
X400371D01*
X400463D01*
X400556D01*
X400648D01*
X400741D01*
X400834D01*
X400926D01*
X401019D01*
X401112D01*
X401204D01*
X401297D01*
X401389D01*
X401482D01*
X401575D01*
X401667D01*
X401760D01*
X401853D01*
X401945D01*
X402038D01*
X402131D01*
X402223D01*
X402316D01*
X402408D01*
X402501D01*
X402594D01*
X402686D01*
X402779D01*
Y207035D01*
X402686D01*
X402594D01*
X402501D01*
X402408D01*
X402316D01*
X402223D01*
X402131D01*
X402038D01*
X401945D01*
X401853D01*
X401760D01*
X401667D01*
X401575D01*
X401482D01*
X401389D01*
X401297D01*
X401204D01*
X401112D01*
X401019D01*
X400926D01*
X400834D01*
X400741D01*
X400648D01*
X400556D01*
X400463D01*
X400371D01*
X400278D01*
X400185D01*
X400093D01*
X400000D01*
X399907D01*
X399815D01*
X399722D01*
X399629D01*
X399537D01*
X399444D01*
X399352D01*
X399259D01*
X399166D01*
X399074D01*
X398981D01*
X398888D01*
X398796D01*
X398703D01*
X398611D01*
X398518D01*
X398425D01*
X398333D01*
X398240D01*
X398147D01*
X398055D01*
X397962D01*
X397870D01*
X397777D01*
X397684D01*
X397592D01*
X397499D01*
X397406D01*
X397314D01*
X397221D01*
X397129D01*
X397036D01*
X396943D01*
X396851D01*
X396758D01*
X396665D01*
X396573D01*
Y207220D01*
X396665D01*
Y207313D01*
X396758D01*
X396851D01*
X396943D01*
X397036D01*
X397129D01*
Y207405D01*
X397221D01*
X397314D01*
X397406D01*
X397499D01*
X397592D01*
Y207498D01*
X397684D01*
X397777D01*
X397870D01*
X397962D01*
X398055D01*
X398147D01*
X398240D01*
X398333D01*
X398425D01*
X398518D01*
X398611D01*
Y207591D01*
X398703D01*
X398796D01*
X398888D01*
X398981D01*
Y207683D01*
X399074D01*
X399166D01*
X399259D01*
X399352D01*
X399444D01*
X399537D01*
Y207776D01*
X399629D01*
X399722D01*
X399815D01*
X399907D01*
X400000D01*
Y207869D01*
X400093D01*
X400185D01*
X400278D01*
X400371D01*
Y207776D01*
X400463D01*
Y207869D01*
X400556D01*
X400648D01*
X400741D01*
X400834D01*
X400926D01*
Y207961D01*
X401019D01*
X401112D01*
X401204D01*
X401297D01*
X401389D01*
Y208054D01*
X401482D01*
X401575D01*
X401667D01*
X401760D01*
X401853D01*
Y208147D01*
X401945D01*
X402038D01*
X402131D01*
X402223D01*
X402316D01*
X402408D01*
X402501D01*
X402594D01*
X402686D01*
X402779D01*
X402872D01*
Y208332D01*
X402779D01*
Y208795D01*
X402686D01*
Y209165D01*
X402594D01*
Y209351D01*
X402686D01*
X402779D01*
Y210833D01*
X402686D01*
X402594D01*
Y210925D01*
X402501D01*
X402408D01*
Y211111D01*
X402316D01*
X402223D01*
Y211203D01*
X402131D01*
X402038D01*
Y211296D01*
X401945D01*
X401853D01*
Y211388D01*
X401760D01*
Y211481D01*
X401667D01*
X401575D01*
Y211574D01*
X401482D01*
X401389D01*
Y211666D01*
X401297D01*
Y211759D01*
X401204D01*
Y211852D01*
X401112D01*
X401019D01*
Y211944D01*
X400926D01*
X400834D01*
Y212037D01*
X400741D01*
Y212129D01*
X400648D01*
X400556D01*
Y212222D01*
X400463D01*
Y212315D01*
X400371D01*
X400278D01*
Y212407D01*
X400185D01*
Y212500D01*
X400093D01*
X400000D01*
Y212593D01*
X399907D01*
X399815D01*
Y212685D01*
X399722D01*
X399629D01*
Y212871D01*
X399537D01*
X399444D01*
Y212963D01*
X399352D01*
X399259D01*
Y213056D01*
X399166D01*
Y213148D01*
X399074D01*
X398981D01*
Y213241D01*
X398888D01*
Y213334D01*
X398796D01*
Y211481D01*
X398703D01*
Y211203D01*
X398611D01*
Y211018D01*
X398518D01*
Y210925D01*
X398425D01*
Y210833D01*
X398333D01*
Y210740D01*
X398240D01*
Y210647D01*
X398147D01*
X398055D01*
Y210555D01*
X397962D01*
X397870D01*
X397777D01*
X397684D01*
X397592D01*
X397499D01*
X397406D01*
X397314D01*
X397221D01*
Y210647D01*
X397129D01*
Y210555D01*
X397036D01*
Y210647D01*
X396943D01*
X396851D01*
Y210740D01*
X396758D01*
X396665D01*
Y210925D01*
X396573D01*
Y211018D01*
X396480D01*
Y211111D01*
X396388D01*
Y211203D01*
X396295D01*
Y213889D01*
X396388D01*
X396480D01*
X396573D01*
X396665D01*
X396758D01*
X396851D01*
X396943D01*
X397036D01*
X397129D01*
X397221D01*
X397314D01*
X397406D01*
X397499D01*
X397592D01*
X397684D01*
X397777D01*
X397870D01*
X397962D01*
X398055D01*
X398147D01*
X398240D01*
X398333D01*
X398425D01*
X398518D01*
X398611D01*
X398703D01*
X398796D01*
X398888D01*
X398981D01*
X399074D01*
X399166D01*
X399259D01*
X399352D01*
X399444D01*
X399537D01*
X399629D01*
X399722D01*
X399815D01*
X399907D01*
X400000D01*
X400093D01*
X400185D01*
X400278D01*
X400371D01*
X400463D01*
X400556D01*
X400648D01*
X400741D01*
X400834D01*
X400926D01*
X401019D01*
X401112D01*
X401204D01*
X401297D01*
X401389D01*
X401482D01*
X401575D01*
X401667D01*
X401760D01*
X401853D01*
X401945D01*
X402038D01*
X402131D01*
X402223D01*
X402316D01*
X402408D01*
X402501D01*
X402594D01*
X402686D01*
X402779D01*
Y215094D01*
X402686D01*
X402594D01*
X402501D01*
X402408D01*
X402316D01*
X402223D01*
X402131D01*
X402038D01*
X401945D01*
X401853D01*
X401760D01*
X401667D01*
X401575D01*
X401482D01*
X401389D01*
X401297D01*
X401204D01*
X401112D01*
X401019D01*
X400926D01*
X400834D01*
X400741D01*
X400648D01*
X400556D01*
X400463D01*
X400371D01*
X400278D01*
X400185D01*
X400093D01*
X400000D01*
X399907D01*
X399815D01*
X399722D01*
X399629D01*
X399537D01*
X399444D01*
X399352D01*
X399259D01*
X399166D01*
X399074D01*
X398981D01*
X398888D01*
X398796D01*
X398703D01*
X398611D01*
X398518D01*
X398425D01*
X398333D01*
X398240D01*
X398147D01*
X398055D01*
X397962D01*
X397870D01*
X397777D01*
X397684D01*
X397592D01*
X397499D01*
X397406D01*
X397314D01*
X397221D01*
X397129D01*
X397036D01*
X396943D01*
X396851D01*
X396758D01*
X396665D01*
X396573D01*
X396480D01*
X396388D01*
X396295D01*
X396202D01*
X396110D01*
X396017D01*
X395924D01*
X395832D01*
X395739D01*
X395647D01*
X395554D01*
X395461D01*
X395369D01*
X395276D01*
X395183D01*
X395091D01*
X394998D01*
Y211481D01*
X395091D01*
Y211018D01*
X395183D01*
Y210647D01*
X395276D01*
Y210462D01*
X395369D01*
Y210277D01*
X395461D01*
Y210184D01*
X395554D01*
Y210092D01*
X395647D01*
Y209999D01*
X395739D01*
Y209906D01*
X395832D01*
Y209814D01*
X395924D01*
X396017D01*
Y209721D01*
X396110D01*
X396202D01*
Y209629D01*
X396295D01*
X396388D01*
Y209536D01*
X396480D01*
Y209443D01*
X396573D01*
X396665D01*
X396758D01*
X396851D01*
X396943D01*
X397036D01*
X397129D01*
Y209351D01*
X397221D01*
X397314D01*
X397406D01*
X397499D01*
X397592D01*
X397684D01*
Y209443D01*
X397777D01*
X397870D01*
X397962D01*
X398055D01*
X398147D01*
X398240D01*
Y209536D01*
X398333D01*
X398425D01*
X398518D01*
Y209629D01*
X398611D01*
Y209721D01*
X398703D01*
X398796D01*
Y209814D01*
X398888D01*
X398981D01*
Y209906D01*
X399074D01*
Y209999D01*
X399166D01*
X399259D01*
Y210092D01*
X399352D01*
Y210277D01*
X399444D01*
Y210370D01*
X399537D01*
Y210462D01*
X399629D01*
Y210647D01*
X399722D01*
Y210925D01*
X399815D01*
Y211203D01*
X399907D01*
X400000D01*
X400093D01*
Y211111D01*
X400185D01*
Y211018D01*
X400278D01*
X400371D01*
X400463D01*
Y210833D01*
X400556D01*
X400648D01*
Y210740D01*
X400741D01*
X400834D01*
Y210647D01*
X400926D01*
Y210555D01*
X401019D01*
X401112D01*
Y210462D01*
X401204D01*
X401297D01*
Y210277D01*
X401389D01*
X401482D01*
Y210184D01*
X401575D01*
Y210092D01*
X401667D01*
X401760D01*
Y209999D01*
X401853D01*
X401945D01*
Y209906D01*
X402038D01*
Y209814D01*
X402131D01*
Y209721D01*
X402223D01*
X402316D01*
X402408D01*
Y209536D01*
X402501D01*
Y209351D01*
X402408D01*
Y209258D01*
X402316D01*
X402223D01*
X402131D01*
X402038D01*
Y209351D01*
X401945D01*
Y209258D01*
X401853D01*
X401760D01*
X401667D01*
X401575D01*
X401482D01*
Y209165D01*
X401389D01*
X401297D01*
X401204D01*
X401112D01*
X401019D01*
Y209073D01*
X400926D01*
X400834D01*
X400741D01*
X400648D01*
X400556D01*
X400463D01*
Y208980D01*
X400371D01*
X400278D01*
X400185D01*
X400093D01*
X400000D01*
X399907D01*
X399815D01*
X399722D01*
X399629D01*
X399537D01*
Y208888D01*
X399444D01*
X399352D01*
X399259D01*
X399166D01*
X399074D01*
Y208795D01*
X398981D01*
X398888D01*
X398796D01*
X398703D01*
X398611D01*
Y208702D01*
X398518D01*
X398425D01*
X398333D01*
X398240D01*
X398147D01*
Y208610D01*
X398055D01*
X397962D01*
X397870D01*
X397777D01*
X397684D01*
X397592D01*
X397499D01*
X397406D01*
X397314D01*
X397221D01*
X397129D01*
Y208517D01*
X397036D01*
X396943D01*
X396851D01*
X396758D01*
Y208424D01*
X396665D01*
X396573D01*
X396480D01*
X396388D01*
X396295D01*
X396202D01*
Y208332D01*
X396110D01*
X396017D01*
X395924D01*
X395832D01*
X395739D01*
X395647D01*
X395554D01*
X395461D01*
X395369D01*
X395276D01*
Y208239D01*
X395183D01*
X395091D01*
X394998D01*
Y207776D01*
X395091D01*
Y207405D01*
X395183D01*
Y207220D01*
X395091D01*
Y207128D01*
X394998D01*
Y205645D01*
X395091D01*
X395183D01*
Y205553D01*
X395276D01*
Y205460D01*
X395369D01*
Y205553D01*
X395461D01*
Y205460D01*
X395554D01*
Y205368D01*
X395647D01*
X395739D01*
Y205275D01*
X395832D01*
Y205182D01*
X395924D01*
X396017D01*
Y205090D01*
X396110D01*
X396202D01*
X396295D01*
Y204997D01*
X396388D01*
Y204905D01*
X396480D01*
X396573D01*
X396665D01*
Y204812D01*
X396758D01*
X396851D01*
Y204719D01*
X396943D01*
Y204627D01*
X397036D01*
X397129D01*
Y204534D01*
X397221D01*
X397314D01*
X397406D01*
Y204441D01*
X397499D01*
Y204349D01*
X397592D01*
X397684D01*
Y204256D01*
X397777D01*
X397870D01*
Y204164D01*
X397962D01*
X398055D01*
Y204071D01*
X398147D01*
Y203978D01*
X398240D01*
X398333D01*
Y203886D01*
X398425D01*
X398518D01*
X398611D01*
Y203793D01*
X398703D01*
X398796D01*
Y203700D01*
X398888D01*
Y203608D01*
X398981D01*
X399074D01*
Y203515D01*
X399166D01*
X399259D01*
X399352D01*
Y203330D01*
X399444D01*
X399537D01*
Y203237D01*
X399629D01*
X399722D01*
X399815D01*
Y203145D01*
X399907D01*
X400000D01*
Y203052D01*
X400093D01*
Y202959D01*
X400185D01*
X400278D01*
Y202867D01*
X400371D01*
X400463D01*
X400556D01*
Y202774D01*
X400648D01*
X400741D01*
Y202496D01*
X400648D01*
X400556D01*
X400463D01*
X400371D01*
X400278D01*
X400185D01*
X400093D01*
X400000D01*
X399907D01*
X399815D01*
X399722D01*
X399629D01*
X399537D01*
X399444D01*
X399352D01*
X399259D01*
X399166D01*
X399074D01*
X398981D01*
X398888D01*
X398796D01*
X398703D01*
X398611D01*
X398518D01*
X398425D01*
X398333D01*
X398240D01*
X398147D01*
X398055D01*
X397962D01*
X397870D01*
X397777D01*
X397684D01*
X397592D01*
X397499D01*
X397406D01*
X397314D01*
X397221D01*
X397129D01*
X397036D01*
X396943D01*
X396851D01*
X396758D01*
X396665D01*
X396573D01*
X396480D01*
X396388D01*
X396295D01*
X396202D01*
X396110D01*
X396017D01*
X395924D01*
X395832D01*
X395739D01*
X395647D01*
X395554D01*
X395461D01*
X395369D01*
X395276D01*
X395183D01*
X395091D01*
X394998D01*
Y201292D01*
X395091D01*
D02*
G37*
G36*
X392590Y218150D02*
Y217872D01*
X392682D01*
Y217780D01*
X392775D01*
Y217502D01*
X392868D01*
Y217224D01*
X392960D01*
Y217131D01*
X393053D01*
Y217039D01*
X393145D01*
Y216853D01*
X393238D01*
Y216761D01*
X393331D01*
Y216668D01*
X393423D01*
Y216576D01*
X393516D01*
Y216390D01*
X393609D01*
Y216298D01*
X393701D01*
X393794D01*
Y216205D01*
X393887D01*
Y216112D01*
X393979D01*
Y216020D01*
X394072D01*
X394164D01*
Y215927D01*
X394257D01*
X394350D01*
Y215835D01*
X394442D01*
X394535D01*
Y215742D01*
X394628D01*
Y217131D01*
X394535D01*
Y217224D01*
X394442D01*
X394350D01*
Y217409D01*
X394257D01*
Y217502D01*
X394164D01*
Y217595D01*
X394072D01*
Y217687D01*
X393979D01*
Y217872D01*
X393887D01*
Y218058D01*
X393794D01*
Y218243D01*
X393701D01*
Y218521D01*
X393609D01*
Y219540D01*
X393701D01*
Y219818D01*
X393794D01*
Y220003D01*
X393887D01*
Y220188D01*
X393979D01*
Y220281D01*
X394072D01*
Y220466D01*
X394164D01*
Y220559D01*
X394257D01*
Y220651D01*
X394350D01*
Y220744D01*
X394442D01*
Y220836D01*
X394535D01*
X394628D01*
Y221022D01*
X394720D01*
X394813D01*
Y221114D01*
X394905D01*
Y221207D01*
X394998D01*
X395091D01*
X395183D01*
Y221300D01*
X395276D01*
X395369D01*
Y221392D01*
X395461D01*
X395554D01*
X395647D01*
Y221485D01*
X395739D01*
X395832D01*
X395924D01*
X396017D01*
X396110D01*
X396202D01*
X396295D01*
X396388D01*
X396480D01*
X396573D01*
X396665D01*
X396758D01*
X396851D01*
X396943D01*
Y221392D01*
X397036D01*
X397129D01*
X397221D01*
Y221300D01*
X397314D01*
X397406D01*
X397499D01*
Y221207D01*
X397592D01*
X397684D01*
X397777D01*
Y221114D01*
X397870D01*
Y221022D01*
X397962D01*
Y220929D01*
X398055D01*
X398147D01*
Y220836D01*
X398240D01*
Y220744D01*
X398333D01*
Y220651D01*
X398425D01*
Y220559D01*
X398518D01*
Y220466D01*
X398611D01*
Y220373D01*
X398703D01*
Y220188D01*
X398796D01*
Y219910D01*
X398888D01*
Y219725D01*
X398981D01*
Y219447D01*
X399074D01*
Y218428D01*
X398981D01*
X398888D01*
Y218336D01*
X398796D01*
Y218243D01*
X398703D01*
X398611D01*
Y218150D01*
X398518D01*
Y218058D01*
X398425D01*
Y217965D01*
X398333D01*
X398240D01*
Y217872D01*
X398147D01*
Y217780D01*
X398055D01*
X397962D01*
X397870D01*
Y217687D01*
X397777D01*
Y217595D01*
X397684D01*
X397592D01*
X397499D01*
Y219725D01*
X397406D01*
X397314D01*
X397221D01*
X397129D01*
X397036D01*
X396943D01*
X396851D01*
X396758D01*
X396665D01*
X396573D01*
X396480D01*
X396388D01*
X396295D01*
Y215371D01*
X396388D01*
Y215464D01*
X396480D01*
Y215557D01*
X396573D01*
Y215649D01*
X396665D01*
X396758D01*
Y215742D01*
X396851D01*
X396943D01*
Y215927D01*
X397036D01*
X397129D01*
Y216020D01*
X397221D01*
X397314D01*
Y216112D01*
X397406D01*
X397499D01*
Y216205D01*
X397592D01*
Y216298D01*
X397684D01*
X397777D01*
X397870D01*
Y216390D01*
X397962D01*
Y216483D01*
X398055D01*
X398147D01*
Y216668D01*
X398240D01*
X398333D01*
X398425D01*
Y216761D01*
X398518D01*
Y216853D01*
X398611D01*
X398703D01*
Y216946D01*
X398796D01*
X398888D01*
Y217039D01*
X398981D01*
Y217131D01*
X399074D01*
Y217224D01*
X399166D01*
X399259D01*
Y217317D01*
X399352D01*
X399444D01*
Y217409D01*
X399537D01*
Y217502D01*
X399629D01*
Y217595D01*
X399722D01*
X399815D01*
X399907D01*
Y217687D01*
X400000D01*
Y217965D01*
X400093D01*
Y218243D01*
X400185D01*
Y218614D01*
X400278D01*
Y219169D01*
X400185D01*
Y219725D01*
X400093D01*
Y220003D01*
X400000D01*
Y220281D01*
X399907D01*
Y220466D01*
X399815D01*
Y220651D01*
X399722D01*
Y220836D01*
X399629D01*
Y221022D01*
X399537D01*
Y221114D01*
X399444D01*
Y221207D01*
X399352D01*
Y221300D01*
X399259D01*
Y221392D01*
X399166D01*
Y221485D01*
X399074D01*
Y221578D01*
X398981D01*
Y221670D01*
X398888D01*
X398796D01*
Y221855D01*
X398703D01*
Y221948D01*
X398611D01*
X398518D01*
Y222041D01*
X398425D01*
X398333D01*
Y222133D01*
X398240D01*
X398147D01*
Y222226D01*
X398055D01*
X397962D01*
Y222319D01*
X397870D01*
Y222411D01*
X397777D01*
Y222319D01*
X397684D01*
Y222411D01*
X397592D01*
X397499D01*
X397406D01*
Y222504D01*
X397314D01*
X397221D01*
X397129D01*
Y222596D01*
X397036D01*
X396943D01*
X396851D01*
X396758D01*
X396665D01*
Y222689D01*
X396573D01*
X396480D01*
X396388D01*
X396295D01*
X396202D01*
X396110D01*
Y222596D01*
X396017D01*
X395924D01*
X395832D01*
X395739D01*
X395647D01*
X395554D01*
Y222504D01*
X395461D01*
X395369D01*
X395276D01*
Y222411D01*
X395183D01*
X395091D01*
X394998D01*
Y222319D01*
X394905D01*
X394813D01*
X394720D01*
Y222226D01*
X394628D01*
X394535D01*
Y222133D01*
X394442D01*
Y222041D01*
X394350D01*
X394257D01*
X394164D01*
Y221948D01*
X394072D01*
Y221855D01*
X393979D01*
Y221763D01*
X393887D01*
X393794D01*
Y221670D01*
X393701D01*
Y221578D01*
X393609D01*
Y221485D01*
X393516D01*
Y221392D01*
X393423D01*
Y221300D01*
X393331D01*
Y221207D01*
X393238D01*
Y221114D01*
X393145D01*
Y220929D01*
X393053D01*
Y220836D01*
X392960D01*
Y220744D01*
X392868D01*
Y220466D01*
X392775D01*
Y220281D01*
X392682D01*
Y220095D01*
X392590D01*
Y219818D01*
X392497D01*
Y218150D01*
X392590D01*
D02*
G37*
G36*
X395091Y226765D02*
Y226302D01*
X395183D01*
Y225931D01*
X395276D01*
Y225653D01*
X395369D01*
Y225560D01*
X395461D01*
Y225375D01*
X395554D01*
Y225190D01*
X395647D01*
Y225097D01*
X395739D01*
Y225005D01*
X395832D01*
Y224819D01*
X395924D01*
Y224727D01*
X396017D01*
Y224634D01*
X396110D01*
Y224542D01*
X396202D01*
Y224449D01*
X396295D01*
X396388D01*
X396480D01*
Y224264D01*
X396573D01*
Y224171D01*
X396665D01*
X396758D01*
Y224078D01*
X396851D01*
X396943D01*
Y223986D01*
X397036D01*
X397129D01*
Y223893D01*
X397221D01*
X397314D01*
Y223801D01*
X397406D01*
X397499D01*
X397592D01*
X397684D01*
Y223708D01*
X397777D01*
X397870D01*
Y223615D01*
X397962D01*
X398055D01*
X398147D01*
X398240D01*
Y223523D01*
X398333D01*
X398425D01*
X398518D01*
X398611D01*
X398703D01*
X398796D01*
X398888D01*
X398981D01*
X399074D01*
X399166D01*
X399259D01*
X399352D01*
X399444D01*
X399537D01*
X399629D01*
Y223615D01*
X399722D01*
X399815D01*
X399907D01*
Y223708D01*
X400000D01*
X400093D01*
X400185D01*
Y223801D01*
X400278D01*
X400371D01*
X400463D01*
X400556D01*
Y223893D01*
X400648D01*
Y223986D01*
X400741D01*
X400834D01*
Y224078D01*
X400926D01*
Y224171D01*
X401019D01*
Y224078D01*
X401112D01*
Y224171D01*
X401204D01*
Y224264D01*
X401297D01*
X401389D01*
Y224356D01*
X401482D01*
Y224449D01*
X401575D01*
Y224542D01*
X401667D01*
Y224634D01*
X401760D01*
Y224727D01*
X401853D01*
Y224819D01*
X401945D01*
Y224912D01*
X402038D01*
Y225005D01*
X402131D01*
Y225190D01*
X402223D01*
Y225375D01*
X402316D01*
Y225560D01*
X402408D01*
Y225653D01*
X402501D01*
Y225838D01*
X402594D01*
Y226209D01*
X402686D01*
Y226579D01*
X402779D01*
Y227691D01*
X402686D01*
Y227969D01*
X402594D01*
Y228339D01*
X402501D01*
Y228525D01*
X402408D01*
Y228710D01*
X402316D01*
Y228895D01*
X402223D01*
Y228988D01*
X402131D01*
Y229173D01*
X402038D01*
Y229266D01*
X401945D01*
Y229358D01*
X401853D01*
Y229451D01*
X401760D01*
Y229543D01*
X401667D01*
Y229636D01*
X401575D01*
Y229729D01*
X401482D01*
Y229821D01*
X401389D01*
Y229914D01*
X401297D01*
X401204D01*
Y230007D01*
X401112D01*
Y230099D01*
X401019D01*
X400926D01*
Y230192D01*
X400834D01*
X400741D01*
X400648D01*
Y230285D01*
X400556D01*
Y230377D01*
X400463D01*
X400371D01*
Y230470D01*
X400278D01*
X400185D01*
Y230562D01*
X400093D01*
Y230470D01*
X400000D01*
Y230562D01*
X399907D01*
X399815D01*
X399722D01*
X399629D01*
Y230655D01*
X399537D01*
X399444D01*
X399352D01*
X399259D01*
X399166D01*
X399074D01*
X398981D01*
X398888D01*
X398796D01*
X398703D01*
X398611D01*
X398518D01*
X398425D01*
X398333D01*
X398240D01*
X398147D01*
Y230562D01*
X398055D01*
X397962D01*
X397870D01*
Y230470D01*
X397777D01*
X397684D01*
Y230562D01*
X397592D01*
Y230470D01*
X397499D01*
Y230377D01*
X397406D01*
X397314D01*
X397221D01*
Y230285D01*
X397129D01*
Y230192D01*
X397036D01*
X396943D01*
X396851D01*
X396758D01*
Y230007D01*
X396665D01*
X396573D01*
Y229914D01*
X396480D01*
X396388D01*
Y229821D01*
X396295D01*
Y229729D01*
X396202D01*
Y229636D01*
X396110D01*
Y229543D01*
X396017D01*
Y229451D01*
X395924D01*
Y229358D01*
X395832D01*
Y229266D01*
X395739D01*
Y229080D01*
X395647D01*
Y228988D01*
X395554D01*
Y228895D01*
X395461D01*
Y228710D01*
X395369D01*
Y228525D01*
X395276D01*
Y228247D01*
X395183D01*
Y227876D01*
X395091D01*
Y227413D01*
X394998D01*
Y226765D01*
X395091D01*
D02*
G37*
G36*
Y233804D02*
Y233341D01*
X395183D01*
Y232878D01*
X395276D01*
Y232693D01*
X395369D01*
Y232600D01*
X395461D01*
Y232415D01*
X395554D01*
Y232322D01*
X395647D01*
Y232230D01*
X395739D01*
Y232137D01*
X395832D01*
X395924D01*
Y232045D01*
X396017D01*
X396110D01*
Y231952D01*
X396202D01*
X396295D01*
X396388D01*
Y231859D01*
X396480D01*
X396573D01*
Y231767D01*
X396665D01*
X396758D01*
X396851D01*
X396943D01*
X397036D01*
X397129D01*
X397221D01*
X397314D01*
X397406D01*
X397499D01*
Y231859D01*
X397592D01*
X397684D01*
Y231952D01*
X397777D01*
X397870D01*
X397962D01*
Y232045D01*
X398055D01*
Y232137D01*
X398147D01*
Y232230D01*
X398240D01*
Y232322D01*
X398333D01*
Y232415D01*
X398425D01*
Y232508D01*
X398518D01*
X398611D01*
Y232415D01*
X398703D01*
Y232230D01*
X398796D01*
Y232045D01*
X398888D01*
Y231952D01*
X398981D01*
Y231859D01*
X399074D01*
Y231767D01*
X399166D01*
Y231674D01*
X399259D01*
Y231581D01*
X399352D01*
Y231674D01*
X399444D01*
Y231581D01*
X399537D01*
Y231489D01*
X399629D01*
X399722D01*
Y231396D01*
X399815D01*
X399907D01*
X400000D01*
Y231304D01*
X400093D01*
X400185D01*
X400278D01*
X400371D01*
X400463D01*
X400556D01*
X400648D01*
X400741D01*
X400834D01*
X400926D01*
X401019D01*
Y231396D01*
X401112D01*
X401204D01*
X401297D01*
Y231489D01*
X401389D01*
X401482D01*
Y231581D01*
X401575D01*
X401667D01*
Y231674D01*
X401760D01*
X401853D01*
Y231767D01*
X401945D01*
Y231859D01*
X402038D01*
X402131D01*
Y231952D01*
X402223D01*
Y232137D01*
X402316D01*
Y232230D01*
X402408D01*
Y232415D01*
X402501D01*
Y232600D01*
X402594D01*
Y232878D01*
X402686D01*
Y233341D01*
X402779D01*
Y235935D01*
X402686D01*
X402594D01*
X402501D01*
X402408D01*
X402316D01*
X402223D01*
X402131D01*
X402038D01*
X401945D01*
X401853D01*
X401760D01*
X401667D01*
X401575D01*
X401482D01*
X401389D01*
X401297D01*
X401204D01*
X401112D01*
X401019D01*
X400926D01*
X400834D01*
X400741D01*
X400648D01*
X400556D01*
X400463D01*
X400371D01*
X400278D01*
X400185D01*
X400093D01*
X400000D01*
X399907D01*
X399815D01*
X399722D01*
X399629D01*
X399537D01*
X399444D01*
X399352D01*
X399259D01*
X399166D01*
X399074D01*
X398981D01*
X398888D01*
X398796D01*
X398703D01*
X398611D01*
X398518D01*
X398425D01*
X398333D01*
X398240D01*
X398147D01*
X398055D01*
X397962D01*
X397870D01*
X397777D01*
X397684D01*
X397592D01*
X397499D01*
X397406D01*
X397314D01*
X397221D01*
X397129D01*
X397036D01*
X396943D01*
X396851D01*
X396758D01*
X396665D01*
X396573D01*
X396480D01*
X396388D01*
X396295D01*
X396202D01*
X396110D01*
X396017D01*
X395924D01*
X395832D01*
X395739D01*
X395647D01*
X395554D01*
X395461D01*
X395369D01*
X395276D01*
X395183D01*
X395091D01*
X394998D01*
Y233804D01*
X395091D01*
D02*
G37*
G36*
Y239640D02*
Y239177D01*
X395183D01*
Y238806D01*
X395276D01*
Y238714D01*
X395369D01*
Y238528D01*
X395461D01*
Y238251D01*
X395554D01*
Y238158D01*
X395647D01*
Y238065D01*
X395739D01*
Y237880D01*
X395832D01*
Y237787D01*
X395924D01*
Y237695D01*
X396017D01*
Y237602D01*
X396110D01*
Y237509D01*
X396202D01*
Y237417D01*
X396295D01*
X396388D01*
Y237324D01*
X396480D01*
Y237232D01*
X396573D01*
X396665D01*
Y237046D01*
X396758D01*
X396851D01*
Y236954D01*
X396943D01*
X397036D01*
Y236861D01*
X397129D01*
X397221D01*
X397314D01*
Y236769D01*
X397406D01*
X397499D01*
Y236676D01*
X397592D01*
X397684D01*
Y236583D01*
X397777D01*
X397870D01*
Y236491D01*
X397962D01*
Y236583D01*
X398055D01*
X398147D01*
X398240D01*
Y236491D01*
X398333D01*
X398425D01*
X398518D01*
X398611D01*
X398703D01*
X398796D01*
X398888D01*
X398981D01*
X399074D01*
X399166D01*
X399259D01*
X399352D01*
X399444D01*
X399537D01*
Y236583D01*
X399629D01*
X399722D01*
X399815D01*
Y236491D01*
X399907D01*
Y236583D01*
X400000D01*
X400093D01*
X400185D01*
Y236676D01*
X400278D01*
Y236769D01*
X400371D01*
X400463D01*
X400556D01*
Y236861D01*
X400648D01*
X400741D01*
X400834D01*
Y236954D01*
X400926D01*
X401019D01*
Y237139D01*
X401112D01*
X401204D01*
Y237232D01*
X401297D01*
X401389D01*
Y237324D01*
X401482D01*
Y237417D01*
X401575D01*
Y237509D01*
X401667D01*
Y237602D01*
X401760D01*
Y237695D01*
X401853D01*
Y237787D01*
X401945D01*
Y237880D01*
X402038D01*
Y238065D01*
X402131D01*
Y238158D01*
X402223D01*
Y238251D01*
X402316D01*
Y238436D01*
X402408D01*
Y238621D01*
X402501D01*
Y238806D01*
X402594D01*
Y239177D01*
X402686D01*
Y239455D01*
X402779D01*
Y240566D01*
X402686D01*
Y240937D01*
X402594D01*
Y241307D01*
X402501D01*
Y241400D01*
X402408D01*
Y241585D01*
X402316D01*
Y241770D01*
X402223D01*
Y241956D01*
X402131D01*
Y242048D01*
X402038D01*
Y242141D01*
X401945D01*
Y242326D01*
X401853D01*
Y242419D01*
X401760D01*
Y242512D01*
X401667D01*
Y242604D01*
X401575D01*
X401482D01*
Y242697D01*
X401389D01*
Y242789D01*
X401297D01*
Y242882D01*
X401204D01*
Y242975D01*
X401112D01*
X401019D01*
X400926D01*
Y243160D01*
X400834D01*
X400741D01*
Y243252D01*
X400648D01*
X400556D01*
X400463D01*
X400371D01*
Y243345D01*
X400278D01*
Y243438D01*
X400185D01*
X400093D01*
X400000D01*
X399907D01*
Y243530D01*
X399815D01*
X399722D01*
X399629D01*
X399537D01*
X399444D01*
X399352D01*
X399259D01*
X399166D01*
X399074D01*
Y243623D01*
X398981D01*
X398888D01*
X398796D01*
X398703D01*
Y243530D01*
X398611D01*
X398518D01*
X398425D01*
X398333D01*
X398240D01*
X398147D01*
X398055D01*
X397962D01*
X397870D01*
X397777D01*
Y243438D01*
X397684D01*
X397592D01*
Y243345D01*
X397499D01*
X397406D01*
Y243252D01*
X397314D01*
X397221D01*
X397129D01*
Y243160D01*
X397036D01*
X396943D01*
Y243067D01*
X396851D01*
X396758D01*
Y242882D01*
X396665D01*
Y242975D01*
X396573D01*
Y242882D01*
X396480D01*
Y242789D01*
X396388D01*
Y242697D01*
X396295D01*
X396202D01*
Y242604D01*
X396110D01*
Y242419D01*
X396017D01*
Y242326D01*
X395924D01*
X395832D01*
Y242234D01*
X395739D01*
Y242048D01*
X395647D01*
Y241956D01*
X395554D01*
Y241770D01*
X395461D01*
Y241585D01*
X395369D01*
Y241400D01*
X395276D01*
Y241307D01*
X395183D01*
Y240844D01*
X395091D01*
Y240474D01*
X394998D01*
Y239640D01*
X395091D01*
D02*
G37*
G36*
X392868Y246309D02*
Y245846D01*
X392960D01*
Y245661D01*
X393053D01*
Y245476D01*
X393145D01*
Y245383D01*
X393238D01*
Y245290D01*
X393331D01*
Y245198D01*
X393423D01*
Y245105D01*
X393516D01*
Y245012D01*
X393609D01*
Y244920D01*
X393701D01*
X393794D01*
Y244827D01*
X393887D01*
Y244735D01*
X393979D01*
X394072D01*
X394164D01*
X394257D01*
Y244642D01*
X394350D01*
X394442D01*
X394535D01*
Y244549D01*
X394628D01*
X394720D01*
X394813D01*
X394905D01*
Y244457D01*
X394998D01*
X395091D01*
X395183D01*
X395276D01*
Y244549D01*
X395369D01*
X395461D01*
X395554D01*
X395647D01*
X395739D01*
Y244642D01*
X395832D01*
X395924D01*
X396017D01*
Y244735D01*
X396110D01*
Y244642D01*
X396202D01*
Y244735D01*
X396295D01*
Y244827D01*
X396388D01*
X396480D01*
Y244920D01*
X396573D01*
X396665D01*
Y245012D01*
X396758D01*
Y245105D01*
X396851D01*
X396943D01*
Y245198D01*
X397036D01*
Y245290D01*
X397129D01*
Y245476D01*
X397221D01*
Y245568D01*
X397314D01*
Y245846D01*
X397406D01*
Y245939D01*
X397499D01*
Y246217D01*
X397592D01*
Y246402D01*
X397684D01*
X397777D01*
Y246309D01*
X397870D01*
X397962D01*
Y246217D01*
X398055D01*
Y246124D01*
X398147D01*
Y246031D01*
X398240D01*
X398333D01*
X398425D01*
Y245846D01*
X398518D01*
Y245753D01*
X398611D01*
X398703D01*
Y245661D01*
X398796D01*
X398888D01*
Y245568D01*
X398981D01*
Y245476D01*
X399074D01*
X399166D01*
Y245383D01*
X399259D01*
X399352D01*
Y245198D01*
X399444D01*
X399537D01*
Y245105D01*
X399629D01*
Y245012D01*
X399722D01*
X399815D01*
Y244920D01*
X399907D01*
X400000D01*
Y244827D01*
X400093D01*
Y244735D01*
X400185D01*
Y244642D01*
X400278D01*
X400371D01*
Y244549D01*
X400463D01*
Y246031D01*
X400371D01*
X400278D01*
Y246124D01*
X400185D01*
Y246217D01*
X400093D01*
X400000D01*
Y246309D01*
X399907D01*
X399815D01*
Y246402D01*
X399722D01*
X399629D01*
Y246495D01*
X399537D01*
X399444D01*
Y246680D01*
X399352D01*
X399259D01*
Y246772D01*
X399166D01*
Y246865D01*
X399074D01*
X398981D01*
X398888D01*
Y246958D01*
X398796D01*
Y247050D01*
X398703D01*
X398611D01*
Y247143D01*
X398518D01*
X398425D01*
Y247328D01*
X398333D01*
X398240D01*
Y247421D01*
X398147D01*
X398055D01*
Y247513D01*
X397962D01*
X397870D01*
Y247606D01*
X397777D01*
Y247699D01*
X397684D01*
X397592D01*
Y247791D01*
X397499D01*
Y247884D01*
X397406D01*
X397314D01*
Y247976D01*
X397221D01*
Y248069D01*
X397129D01*
X397036D01*
Y248162D01*
X396943D01*
X396851D01*
Y248254D01*
X396758D01*
X396665D01*
Y248440D01*
X396573D01*
X396480D01*
Y246495D01*
X396388D01*
Y246309D01*
X396295D01*
Y246217D01*
X396202D01*
Y246124D01*
X396110D01*
Y246031D01*
X396017D01*
Y245939D01*
X395924D01*
Y245846D01*
X395832D01*
X395739D01*
Y245753D01*
X395647D01*
X395554D01*
X395461D01*
X395369D01*
Y245661D01*
X395276D01*
X395183D01*
X395091D01*
Y245753D01*
X394998D01*
X394905D01*
X394813D01*
X394720D01*
X394628D01*
Y245846D01*
X394535D01*
Y245939D01*
X394442D01*
X394350D01*
Y246031D01*
X394257D01*
Y246217D01*
X394164D01*
Y246309D01*
X394072D01*
Y246402D01*
X393979D01*
Y249181D01*
X393887D01*
X393794D01*
X393701D01*
X393609D01*
X393516D01*
X393423D01*
X393331D01*
X393238D01*
X393145D01*
X393053D01*
X392960D01*
X392868D01*
X392775D01*
Y246309D01*
X392868D01*
D02*
G37*
G36*
X502254Y239895D02*
X502198Y239795D01*
X502148Y239695D01*
X502109Y239600D01*
X502076Y239506D01*
X502048Y239417D01*
X502021Y239334D01*
X502004Y239256D01*
X501987Y239184D01*
X501976Y239118D01*
X501971Y239062D01*
X501965Y239012D01*
X501960Y238973D01*
Y238896D01*
X503303Y239179D01*
Y239229D01*
X503308Y239317D01*
X503319Y239389D01*
X503336Y239456D01*
X503353Y239506D01*
X503375Y239550D01*
X503392Y239578D01*
X503403Y239595D01*
X503408Y239600D01*
X503430Y239623D01*
X503458Y239645D01*
X503530Y239695D01*
X503619Y239745D01*
X503708Y239789D01*
X503791Y239828D01*
X503863Y239861D01*
X503891Y239872D01*
X503913Y239883D01*
X503924Y239889D01*
X503930D01*
X503886Y239761D01*
X503852Y239639D01*
X503830Y239528D01*
X503813Y239434D01*
X503802Y239356D01*
X503797Y239301D01*
Y239262D01*
X504729Y239462D01*
X504818Y239478D01*
X504901Y239495D01*
X504979Y239506D01*
X505045Y239517D01*
X505106Y239523D01*
X505162Y239534D01*
X505212Y239539D01*
X505256Y239545D01*
X505290Y239550D01*
X505323D01*
X505373Y239556D01*
X505395D01*
X505406D01*
X505473Y239550D01*
X505528Y239545D01*
X505639Y239512D01*
X505734Y239462D01*
X505811Y239395D01*
X505883Y239317D01*
X505939Y239229D01*
X505983Y239134D01*
X506022Y239040D01*
X506050Y238946D01*
X506072Y238851D01*
X506089Y238762D01*
X506100Y238685D01*
X506106Y238618D01*
X506111Y238568D01*
Y238524D01*
X506106Y238418D01*
X506100Y238302D01*
X506089Y238180D01*
X506078Y238063D01*
X506067Y237958D01*
X506061Y237913D01*
X506055Y237874D01*
X506050Y237841D01*
X506044Y237819D01*
Y237797D01*
X506033Y237713D01*
X506022Y237636D01*
X506006Y237563D01*
X505994Y237497D01*
X505983Y237436D01*
X505972Y237380D01*
X505967Y237336D01*
X505956Y237292D01*
X505939Y237220D01*
X505928Y237175D01*
X505917Y237147D01*
Y237136D01*
X505889Y237075D01*
X505856Y237014D01*
X505811Y236964D01*
X505761Y236914D01*
X505650Y236831D01*
X505539Y236759D01*
X505428Y236709D01*
X505378Y236687D01*
X505334Y236670D01*
X505295Y236659D01*
X505267Y236648D01*
X505251Y236642D01*
X505245D01*
X505290Y236770D01*
X505334Y236892D01*
X505401Y237142D01*
X505445Y237380D01*
X505462Y237497D01*
X505478Y237597D01*
X505489Y237697D01*
X505495Y237786D01*
X505506Y237863D01*
Y237930D01*
X505512Y237985D01*
Y238057D01*
X505506Y238180D01*
X505495Y238291D01*
X505478Y238379D01*
X505462Y238463D01*
X505434Y238529D01*
X505406Y238585D01*
X505378Y238635D01*
X505345Y238668D01*
X505312Y238696D01*
X505284Y238718D01*
X505256Y238735D01*
X505229Y238746D01*
X505212Y238751D01*
X505195Y238757D01*
X505184D01*
X505179D01*
X505140D01*
X505095Y238751D01*
X504995Y238740D01*
X504884Y238729D01*
X504773Y238712D01*
X504673Y238696D01*
X504635Y238690D01*
X504596Y238679D01*
X504563Y238673D01*
X504540D01*
X504524Y238668D01*
X504518D01*
X503797Y238524D01*
Y237852D01*
X503791Y237752D01*
Y237664D01*
X503786Y237586D01*
X503774Y237514D01*
X503769Y237453D01*
X503763Y237397D01*
X503752Y237347D01*
X503747Y237308D01*
X503741Y237269D01*
X503730Y237242D01*
X503724Y237220D01*
X503719Y237197D01*
X503713Y237186D01*
X503691Y237153D01*
X503663Y237120D01*
X503630Y237081D01*
X503591Y237047D01*
X503497Y236981D01*
X503397Y236920D01*
X503303Y236864D01*
X503258Y236842D01*
X503219Y236825D01*
X503186Y236809D01*
X503164Y236798D01*
X503147Y236787D01*
X503142D01*
X503197Y236970D01*
X503236Y237153D01*
X503264Y237342D01*
X503280Y237514D01*
X503292Y237591D01*
Y237664D01*
X503297Y237730D01*
X503303Y237786D01*
Y238440D01*
X501960Y238157D01*
Y237136D01*
X501954Y237031D01*
Y236936D01*
X501948Y236853D01*
X501937Y236775D01*
X501932Y236709D01*
X501926Y236648D01*
X501915Y236598D01*
X501910Y236554D01*
X501904Y236515D01*
X501893Y236487D01*
X501887Y236459D01*
X501882Y236442D01*
Y236431D01*
X501876Y236420D01*
X501854Y236381D01*
X501826Y236343D01*
X501793Y236304D01*
X501749Y236265D01*
X501654Y236187D01*
X501554Y236115D01*
X501460Y236054D01*
X501421Y236032D01*
X501382Y236010D01*
X501349Y235987D01*
X501327Y235976D01*
X501310Y235965D01*
X501305D01*
X501360Y236198D01*
X501399Y236442D01*
X501432Y236681D01*
X501443Y236798D01*
X501449Y236903D01*
X501455Y237009D01*
X501460Y237103D01*
X501466Y237186D01*
Y237258D01*
X501471Y237314D01*
Y238474D01*
X501477Y238646D01*
X501482Y238796D01*
X501488Y238929D01*
X501499Y239051D01*
X501510Y239156D01*
X501521Y239245D01*
X501527Y239323D01*
X501538Y239384D01*
X501549Y239439D01*
X501560Y239478D01*
X501571Y239512D01*
X501577Y239534D01*
X501582Y239550D01*
X501588Y239556D01*
Y239562D01*
X501621Y239612D01*
X501660Y239662D01*
X501710Y239706D01*
X501765Y239750D01*
X501882Y239822D01*
X502010Y239889D01*
X502126Y239933D01*
X502176Y239956D01*
X502220Y239972D01*
X502259Y239983D01*
X502287Y239995D01*
X502309Y240000D01*
X502315D01*
X502254Y239895D01*
D02*
G37*
G36*
X505473Y235721D02*
X505528Y235715D01*
X505639Y235682D01*
X505734Y235632D01*
X505811Y235571D01*
X505883Y235493D01*
X505939Y235405D01*
X505983Y235316D01*
X506022Y235222D01*
X506050Y235127D01*
X506072Y235038D01*
X506089Y234949D01*
X506100Y234872D01*
X506106Y234811D01*
X506111Y234761D01*
Y234716D01*
X506106Y234489D01*
X506094Y234278D01*
X506089Y234178D01*
X506078Y234078D01*
X506072Y233989D01*
X506061Y233906D01*
X506050Y233828D01*
X506044Y233756D01*
X506033Y233701D01*
X506028Y233645D01*
X506022Y233606D01*
X506017Y233573D01*
X506011Y233556D01*
Y233551D01*
X505989Y233451D01*
X505972Y233362D01*
X505950Y233279D01*
X505928Y233207D01*
X505911Y233140D01*
X505889Y233079D01*
X505867Y233029D01*
X505850Y232990D01*
X505828Y232951D01*
X505811Y232924D01*
X505800Y232896D01*
X505784Y232879D01*
X505767Y232852D01*
X505761Y232846D01*
X505734Y232818D01*
X505695Y232796D01*
X505617Y232746D01*
X505528Y232702D01*
X505440Y232663D01*
X505356Y232635D01*
X505290Y232607D01*
X505267Y232602D01*
X505245Y232596D01*
X505234Y232591D01*
X505229D01*
X505278Y232752D01*
X505328Y232907D01*
X505367Y233057D01*
X505401Y233201D01*
X505428Y233340D01*
X505456Y233473D01*
X505473Y233595D01*
X505489Y233706D01*
X505501Y233812D01*
X505512Y233901D01*
X505517Y233984D01*
X505523Y234050D01*
X505528Y234106D01*
Y234178D01*
X505523Y234311D01*
X505517Y234428D01*
X505501Y234528D01*
X505478Y234616D01*
X505456Y234689D01*
X505428Y234750D01*
X505401Y234800D01*
X505373Y234839D01*
X505345Y234872D01*
X505317Y234894D01*
X505290Y234911D01*
X505267Y234922D01*
X505229Y234933D01*
X505223D01*
X505218D01*
X505173D01*
X505123Y234927D01*
X505007Y234916D01*
X504879Y234899D01*
X504751Y234877D01*
X504635Y234855D01*
X504585Y234850D01*
X504540Y234839D01*
X504501Y234833D01*
X504474Y234827D01*
X504457Y234822D01*
X504452D01*
X501854Y234306D01*
X501765Y234289D01*
X501688Y234272D01*
X501621Y234256D01*
X501560Y234245D01*
X501510Y234234D01*
X501466Y234228D01*
X501427Y234217D01*
X501394Y234211D01*
X501366D01*
X501349Y234206D01*
X501321Y234200D01*
X501310D01*
X501305D01*
X501255D01*
X501210Y234211D01*
X501177Y234222D01*
X501144Y234239D01*
X501094Y234283D01*
X501060Y234328D01*
X501044Y234372D01*
X501033Y234417D01*
X501027Y234444D01*
Y234489D01*
X501033Y234528D01*
X501055Y234622D01*
X501088Y234722D01*
X501122Y234827D01*
X501155Y234922D01*
X501171Y234961D01*
X501188Y234999D01*
X501199Y235027D01*
X501210Y235049D01*
X501216Y235066D01*
Y235072D01*
X501260Y235044D01*
X501305Y235027D01*
X501343Y235011D01*
X501371Y235005D01*
X501394Y234999D01*
X501410Y234994D01*
X501421D01*
X501427D01*
X501471D01*
X501527Y234999D01*
X501643Y235016D01*
X501699Y235027D01*
X501743Y235038D01*
X501771Y235044D01*
X501777D01*
X501782D01*
X504701Y235627D01*
X504796Y235643D01*
X504879Y235660D01*
X504957Y235671D01*
X505029Y235682D01*
X505095Y235693D01*
X505151Y235704D01*
X505201Y235710D01*
X505245Y235715D01*
X505284D01*
X505317Y235721D01*
X505345D01*
X505367Y235726D01*
X505395D01*
X505406D01*
X505473Y235721D01*
D02*
G37*
G36*
X505578Y232363D02*
X505645Y232358D01*
X505706Y232347D01*
X505761Y232335D01*
X505811Y232324D01*
X505856Y232313D01*
X505928Y232291D01*
X505983Y232269D01*
X506017Y232247D01*
X506039Y232236D01*
X506044Y232230D01*
X506089Y232180D01*
X506122Y232114D01*
X506150Y232052D01*
X506167Y231986D01*
X506178Y231925D01*
X506183Y231875D01*
Y231764D01*
X506172Y231686D01*
X506167Y231597D01*
X506155Y231514D01*
X506144Y231436D01*
X506139Y231375D01*
X506133Y231348D01*
X506128Y231331D01*
Y231314D01*
X506039Y230637D01*
X506028Y230515D01*
X506017Y230404D01*
X506011Y230310D01*
X506006Y230232D01*
X506000Y230165D01*
Y230077D01*
X506006Y229988D01*
X506011Y229893D01*
X506022Y229805D01*
X506033Y229727D01*
X506050Y229655D01*
X506061Y229599D01*
X506067Y229577D01*
Y229560D01*
X506072Y229555D01*
Y229549D01*
X505956Y229555D01*
X505856Y229566D01*
X505767Y229594D01*
X505689Y229622D01*
X505628Y229655D01*
X505573Y229694D01*
X505528Y229732D01*
X505495Y229777D01*
X505467Y229821D01*
X505445Y229860D01*
X505434Y229899D01*
X505423Y229932D01*
X505417Y229960D01*
X505412Y229982D01*
Y230054D01*
X505417Y230104D01*
X505423Y230221D01*
X505434Y230343D01*
X505451Y230465D01*
X505467Y230571D01*
X505473Y230621D01*
X505478Y230659D01*
X505484Y230693D01*
Y230720D01*
X505489Y230737D01*
Y230743D01*
X501904Y230021D01*
X501898Y229988D01*
Y229966D01*
X501893Y229949D01*
Y229943D01*
X501876Y229838D01*
X501865Y229738D01*
X501860Y229649D01*
X501854Y229577D01*
X501849Y229510D01*
Y229427D01*
X501854Y229361D01*
X501860Y229294D01*
X501876Y229222D01*
X501887Y229155D01*
X501904Y229100D01*
X501921Y229050D01*
X501926Y229022D01*
X501932Y229011D01*
X501815Y229028D01*
X501710Y229055D01*
X501621Y229089D01*
X501549Y229122D01*
X501482Y229166D01*
X501427Y229211D01*
X501382Y229255D01*
X501349Y229305D01*
X501321Y229349D01*
X501299Y229394D01*
X501288Y229433D01*
X501277Y229472D01*
X501271Y229499D01*
X501266Y229522D01*
Y229594D01*
X501271Y229649D01*
X501283Y229771D01*
X501294Y229899D01*
X501310Y230021D01*
X501332Y230132D01*
X501338Y230182D01*
X501343Y230221D01*
X501349Y230254D01*
X501355Y230282D01*
X501360Y230299D01*
Y230304D01*
X501449Y230776D01*
X501471Y230915D01*
X501488Y231042D01*
X501505Y231148D01*
X501510Y231231D01*
X501516Y231303D01*
X501521Y231353D01*
Y231392D01*
X501516Y231453D01*
X501510Y231514D01*
X501499Y231570D01*
X501482Y231625D01*
X501471Y231669D01*
X501460Y231708D01*
X501455Y231731D01*
X501449Y231742D01*
X501554Y231736D01*
X501649Y231719D01*
X501726Y231697D01*
X501793Y231669D01*
X501854Y231631D01*
X501904Y231592D01*
X501943Y231547D01*
X501971Y231503D01*
X501998Y231464D01*
X502015Y231420D01*
X502037Y231342D01*
X502043Y231314D01*
X502048Y231292D01*
Y231270D01*
X502043Y231087D01*
X502032Y231003D01*
X502021Y230931D01*
X502015Y230870D01*
X502004Y230820D01*
X501998Y230787D01*
Y230776D01*
X505584Y231503D01*
X505595Y231586D01*
X505600Y231664D01*
X505612Y231725D01*
Y231775D01*
X505617Y231819D01*
Y231869D01*
X505612Y231953D01*
X505600Y232036D01*
X505584Y232119D01*
X505561Y232197D01*
X505539Y232269D01*
X505523Y232319D01*
X505517Y232341D01*
X505512Y232358D01*
X505506Y232363D01*
Y232369D01*
X505578Y232363D01*
D02*
G37*
G36*
X505811Y228700D02*
X505867Y228689D01*
X505917Y228667D01*
X505956Y228645D01*
X505994Y228617D01*
X506022Y228584D01*
X506067Y228506D01*
X506089Y228434D01*
X506106Y228373D01*
X506111Y228351D01*
Y228312D01*
X506106Y228223D01*
X506089Y228123D01*
X506067Y228034D01*
X506039Y227945D01*
X506011Y227868D01*
X505989Y227807D01*
X505978Y227784D01*
X505972Y227768D01*
X505967Y227757D01*
Y227751D01*
X505878Y227829D01*
X505784Y227884D01*
X505684Y227929D01*
X505584Y227957D01*
X505501Y227973D01*
X505462Y227979D01*
X505428D01*
X505406Y227984D01*
X505384D01*
X505373D01*
X505367D01*
X505312D01*
X505251Y227979D01*
X505123Y227968D01*
X504990Y227951D01*
X504862Y227934D01*
X504746Y227918D01*
X504696Y227907D01*
X504651Y227901D01*
X504612Y227895D01*
X504585Y227890D01*
X504568Y227884D01*
X504563D01*
X502703Y227546D01*
X502881Y227529D01*
X502914Y227513D01*
X502959Y227496D01*
X503053Y227451D01*
X503153Y227407D01*
X503258Y227363D01*
X503353Y227324D01*
X503392Y227302D01*
X503430Y227291D01*
X503458Y227274D01*
X503480Y227263D01*
X503497Y227257D01*
X503503D01*
X503763Y227146D01*
X504002Y227035D01*
X504224Y226935D01*
X504429Y226841D01*
X504612Y226752D01*
X504779Y226674D01*
X504923Y226597D01*
X505056Y226530D01*
X505167Y226469D01*
X505267Y226414D01*
X505351Y226369D01*
X505412Y226330D01*
X505467Y226303D01*
X505501Y226280D01*
X505523Y226269D01*
X505528Y226264D01*
X505628Y226192D01*
X505723Y226125D01*
X505800Y226058D01*
X505867Y225992D01*
X505922Y225925D01*
X505967Y225864D01*
X506006Y225809D01*
X506039Y225753D01*
X506061Y225709D01*
X506078Y225664D01*
X506094Y225625D01*
X506100Y225592D01*
X506106Y225564D01*
X506111Y225548D01*
Y225531D01*
X506106Y225492D01*
X506100Y225453D01*
X506083Y225415D01*
X506067Y225376D01*
X506011Y225304D01*
X505939Y225237D01*
X505856Y225170D01*
X505767Y225109D01*
X505667Y225054D01*
X505561Y225004D01*
X505462Y224959D01*
X505362Y224915D01*
X505273Y224882D01*
X505190Y224849D01*
X505118Y224826D01*
X505062Y224810D01*
X505045Y224798D01*
X505029D01*
X505023Y224793D01*
X505018D01*
X504890Y224760D01*
X504762Y224721D01*
X504490Y224660D01*
X504224Y224599D01*
X504091Y224571D01*
X503969Y224549D01*
X503852Y224527D01*
X503747Y224504D01*
X503652Y224488D01*
X503575Y224471D01*
X503508Y224460D01*
X503458Y224449D01*
X503425Y224443D01*
X503414D01*
X503242Y224416D01*
X503081Y224388D01*
X502931Y224371D01*
X502792Y224349D01*
X502665Y224332D01*
X502548Y224321D01*
X502448Y224310D01*
X502354Y224305D01*
X502270Y224293D01*
X502198Y224288D01*
X502137D01*
X502093Y224282D01*
X502054D01*
X502026D01*
X502010D01*
X502004D01*
X501893Y224288D01*
X501793Y224299D01*
X501704Y224321D01*
X501632Y224349D01*
X501571Y224382D01*
X501516Y224416D01*
X501477Y224454D01*
X501438Y224493D01*
X501416Y224532D01*
X501394Y224571D01*
X501382Y224604D01*
X501371Y224638D01*
X501366Y224665D01*
X501360Y224688D01*
Y224704D01*
X501366Y224754D01*
X501371Y224804D01*
X501405Y224904D01*
X501443Y225004D01*
X501493Y225093D01*
X501543Y225176D01*
X501588Y225237D01*
X501604Y225259D01*
X501621Y225276D01*
X501627Y225287D01*
X501632Y225292D01*
X501688Y225231D01*
X501754Y225176D01*
X501821Y225126D01*
X501898Y225087D01*
X501982Y225054D01*
X502065Y225026D01*
X502226Y224982D01*
X502304Y224965D01*
X502376Y224954D01*
X502443Y224948D01*
X502498Y224943D01*
X502548Y224937D01*
X502581D01*
X502609D01*
X502614D01*
X502953Y224943D01*
X503120Y224954D01*
X503275Y224965D01*
X503430Y224982D01*
X503575Y224998D01*
X503713Y225015D01*
X503841Y225032D01*
X503958Y225054D01*
X504063Y225071D01*
X504152Y225087D01*
X504230Y225098D01*
X504296Y225115D01*
X504341Y225120D01*
X504368Y225132D01*
X504379D01*
X504529Y225165D01*
X504657Y225198D01*
X504773Y225231D01*
X504868Y225265D01*
X504951Y225292D01*
X505023Y225326D01*
X505079Y225348D01*
X505123Y225376D01*
X505156Y225398D01*
X505184Y225415D01*
X505201Y225431D01*
X505218Y225448D01*
X505229Y225470D01*
Y225476D01*
X505223Y225498D01*
X505206Y225526D01*
X505179Y225559D01*
X505140Y225587D01*
X505095Y225625D01*
X505040Y225664D01*
X504979Y225703D01*
X504912Y225742D01*
X504840Y225786D01*
X504762Y225831D01*
X504590Y225920D01*
X504407Y226014D01*
X504218Y226108D01*
X504030Y226197D01*
X503847Y226280D01*
X503675Y226358D01*
X503597Y226391D01*
X503525Y226425D01*
X503458Y226458D01*
X503397Y226480D01*
X503342Y226508D01*
X503297Y226525D01*
X503258Y226541D01*
X503231Y226552D01*
X503214Y226564D01*
X503208D01*
X503042Y226636D01*
X502881Y226702D01*
X502731Y226763D01*
X502592Y226824D01*
X502459Y226880D01*
X502331Y226935D01*
X502215Y226985D01*
X502109Y227030D01*
X502010Y227074D01*
X501915Y227113D01*
X501826Y227152D01*
X501749Y227185D01*
X501677Y227218D01*
X501610Y227246D01*
X501549Y227274D01*
X501493Y227296D01*
X501394Y227341D01*
X501321Y227374D01*
X501260Y227401D01*
X501222Y227424D01*
X501188Y227435D01*
X501171Y227446D01*
X501160Y227451D01*
X501094Y227496D01*
X501044Y227551D01*
X501005Y227607D01*
X500983Y227662D01*
X500966Y227712D01*
X500961Y227757D01*
X500955Y227784D01*
Y227796D01*
X500961Y227823D01*
X500966Y227862D01*
X500983Y227907D01*
X500999Y227951D01*
X501044Y228056D01*
X501094Y228167D01*
X501149Y228273D01*
X501171Y228317D01*
X501194Y228356D01*
X501210Y228389D01*
X501227Y228417D01*
X501232Y228434D01*
X501238Y228439D01*
X501266Y228389D01*
X501305Y228339D01*
X501388Y228251D01*
X501482Y228173D01*
X501582Y228106D01*
X501671Y228056D01*
X501715Y228034D01*
X501749Y228017D01*
X501777Y228006D01*
X501799Y227995D01*
X501815Y227990D01*
X501821D01*
X502037Y227907D01*
X503919Y228351D01*
X504058Y228384D01*
X504191Y228412D01*
X504318Y228439D01*
X504435Y228467D01*
X504546Y228495D01*
X504651Y228517D01*
X504751Y228534D01*
X504846Y228556D01*
X504934Y228573D01*
X505018Y228589D01*
X505167Y228617D01*
X505295Y228645D01*
X505406Y228661D01*
X505495Y228678D01*
X505567Y228689D01*
X505628Y228695D01*
X505673Y228700D01*
X505706Y228706D01*
X505728D01*
X505739D01*
X505745D01*
X505811Y228700D01*
D02*
G37*
G36*
X502875Y221807D02*
X502942Y221796D01*
X503009Y221774D01*
X503064Y221752D01*
X503114Y221729D01*
X503153Y221707D01*
X503175Y221696D01*
X503186Y221691D01*
X503070Y221602D01*
X502959Y221507D01*
X502859Y221419D01*
X502764Y221324D01*
X502676Y221230D01*
X502592Y221141D01*
X502520Y221058D01*
X502454Y220975D01*
X502398Y220897D01*
X502348Y220830D01*
X502304Y220769D01*
X502270Y220714D01*
X502243Y220675D01*
X502226Y220642D01*
X502215Y220619D01*
X502209Y220614D01*
X502148Y220497D01*
X502098Y220381D01*
X502054Y220264D01*
X502015Y220153D01*
X501982Y220037D01*
X501954Y219931D01*
X501926Y219826D01*
X501910Y219731D01*
X501893Y219637D01*
X501887Y219559D01*
X501876Y219487D01*
X501871Y219421D01*
X501865Y219371D01*
Y219304D01*
X501871Y219149D01*
X501887Y218999D01*
X501910Y218860D01*
X501937Y218732D01*
X501971Y218610D01*
X502010Y218494D01*
X502048Y218394D01*
X502087Y218300D01*
X502132Y218216D01*
X502171Y218144D01*
X502209Y218083D01*
X502243Y218033D01*
X502270Y217989D01*
X502293Y217961D01*
X502304Y217944D01*
X502309Y217939D01*
X502392Y217850D01*
X502481Y217772D01*
X502576Y217700D01*
X502676Y217645D01*
X502770Y217595D01*
X502864Y217550D01*
X502959Y217517D01*
X503053Y217489D01*
X503136Y217467D01*
X503214Y217450D01*
X503286Y217439D01*
X503347Y217434D01*
X503397Y217428D01*
X503436Y217423D01*
X503458D01*
X503469D01*
X503641Y217434D01*
X503808Y217456D01*
X503963Y217489D01*
X504113Y217539D01*
X504257Y217589D01*
X504385Y217650D01*
X504507Y217717D01*
X504618Y217783D01*
X504718Y217850D01*
X504801Y217911D01*
X504879Y217972D01*
X504940Y218028D01*
X504990Y218072D01*
X505029Y218105D01*
X505051Y218133D01*
X505056Y218139D01*
X505167Y218272D01*
X505267Y218416D01*
X505351Y218560D01*
X505423Y218710D01*
X505489Y218860D01*
X505539Y219004D01*
X505584Y219149D01*
X505617Y219287D01*
X505639Y219415D01*
X505661Y219532D01*
X505673Y219637D01*
X505684Y219726D01*
X505689Y219804D01*
X505695Y219859D01*
Y220014D01*
X505689Y220103D01*
X505678Y220170D01*
X505667Y220225D01*
X505661Y220270D01*
X505650Y220292D01*
X505645Y220309D01*
Y220314D01*
X505623Y220347D01*
X505595Y220370D01*
X505561Y220386D01*
X505528Y220397D01*
X505501Y220403D01*
X505473Y220409D01*
X505456D01*
X505451D01*
X505417D01*
X505373Y220403D01*
X505323Y220397D01*
X505262Y220392D01*
X505140Y220370D01*
X505007Y220347D01*
X504884Y220331D01*
X504829Y220320D01*
X504779Y220309D01*
X504735Y220303D01*
X504707Y220298D01*
X504685Y220292D01*
X504679D01*
X503047Y219965D01*
X502964Y219948D01*
X502886Y219931D01*
X502820Y219920D01*
X502764Y219909D01*
X502714Y219898D01*
X502670Y219887D01*
X502631Y219881D01*
X502603Y219876D01*
X502576Y219870D01*
X502559D01*
X502531Y219865D01*
X502520D01*
X502515D01*
X502465D01*
X502426Y219876D01*
X502387Y219887D01*
X502359Y219903D01*
X502309Y219948D01*
X502276Y219992D01*
X502259Y220037D01*
X502248Y220081D01*
X502243Y220109D01*
Y220153D01*
X502248Y220192D01*
X502270Y220286D01*
X502298Y220386D01*
X502331Y220486D01*
X502370Y220581D01*
X502381Y220619D01*
X502398Y220658D01*
X502409Y220686D01*
X502420Y220708D01*
X502426Y220725D01*
Y220730D01*
X502476Y220708D01*
X502515Y220686D01*
X502553Y220675D01*
X502581Y220669D01*
X502609Y220664D01*
X502626Y220658D01*
X502637D01*
X502642D01*
X502687D01*
X502737Y220664D01*
X502853Y220680D01*
X502909Y220692D01*
X502953Y220703D01*
X502981Y220708D01*
X502986D01*
X502992D01*
X504934Y221097D01*
X505040Y221119D01*
X505134Y221136D01*
X505223Y221152D01*
X505301Y221163D01*
X505373Y221174D01*
X505434Y221185D01*
X505495Y221191D01*
X505539Y221197D01*
X505584Y221202D01*
X505617Y221208D01*
X505650D01*
X505673Y221213D01*
X505689D01*
X505700D01*
X505711D01*
X505811Y221202D01*
X505900Y221180D01*
X505972Y221147D01*
X506039Y221097D01*
X506094Y221041D01*
X506139Y220980D01*
X506178Y220914D01*
X506205Y220841D01*
X506227Y220775D01*
X506250Y220708D01*
X506261Y220647D01*
X506266Y220592D01*
X506272Y220542D01*
X506278Y220508D01*
Y220475D01*
X506272Y220342D01*
X506266Y220203D01*
X506233Y219937D01*
X506211Y219809D01*
X506189Y219681D01*
X506161Y219565D01*
X506133Y219454D01*
X506106Y219349D01*
X506078Y219254D01*
X506055Y219176D01*
X506033Y219104D01*
X506017Y219049D01*
X506000Y219004D01*
X505994Y218982D01*
X505989Y218971D01*
X505933Y218827D01*
X505872Y218688D01*
X505811Y218560D01*
X505750Y218438D01*
X505689Y218322D01*
X505628Y218216D01*
X505567Y218116D01*
X505506Y218028D01*
X505456Y217944D01*
X505406Y217872D01*
X505362Y217811D01*
X505323Y217761D01*
X505290Y217722D01*
X505267Y217689D01*
X505251Y217672D01*
X505245Y217667D01*
X505162Y217578D01*
X505079Y217489D01*
X504907Y217339D01*
X504735Y217206D01*
X504563Y217090D01*
X504390Y216990D01*
X504224Y216912D01*
X504063Y216845D01*
X503913Y216790D01*
X503769Y216751D01*
X503636Y216718D01*
X503525Y216696D01*
X503425Y216685D01*
X503342Y216673D01*
X503308D01*
X503280Y216668D01*
X503258D01*
X503242D01*
X503236D01*
X503231D01*
X503070Y216673D01*
X502920Y216696D01*
X502781Y216729D01*
X502648Y216768D01*
X502526Y216818D01*
X502415Y216873D01*
X502309Y216934D01*
X502220Y216990D01*
X502137Y217051D01*
X502065Y217112D01*
X502004Y217167D01*
X501948Y217217D01*
X501910Y217256D01*
X501882Y217289D01*
X501865Y217312D01*
X501860Y217317D01*
X501771Y217445D01*
X501693Y217578D01*
X501627Y217722D01*
X501571Y217867D01*
X501521Y218016D01*
X501482Y218161D01*
X501449Y218305D01*
X501421Y218444D01*
X501405Y218571D01*
X501388Y218694D01*
X501377Y218805D01*
X501366Y218899D01*
Y218977D01*
X501360Y219032D01*
Y219082D01*
X501366Y219276D01*
X501377Y219465D01*
X501399Y219648D01*
X501427Y219820D01*
X501460Y219987D01*
X501499Y220142D01*
X501538Y220286D01*
X501577Y220420D01*
X501621Y220542D01*
X501660Y220653D01*
X501699Y220747D01*
X501732Y220825D01*
X501760Y220891D01*
X501782Y220936D01*
X501793Y220964D01*
X501799Y220975D01*
X501882Y221124D01*
X501965Y221252D01*
X502054Y221363D01*
X502143Y221458D01*
X502226Y221541D01*
X502309Y221607D01*
X502392Y221663D01*
X502470Y221707D01*
X502537Y221741D01*
X502603Y221768D01*
X502665Y221785D01*
X502714Y221801D01*
X502753Y221807D01*
X502781Y221813D01*
X502803D01*
X502809D01*
X502875Y221807D01*
D02*
G37*
G36*
X502254Y216268D02*
X502198Y216168D01*
X502148Y216068D01*
X502109Y215974D01*
X502076Y215880D01*
X502048Y215791D01*
X502021Y215708D01*
X502004Y215630D01*
X501987Y215558D01*
X501976Y215491D01*
X501971Y215436D01*
X501965Y215386D01*
X501960Y215347D01*
Y215269D01*
X503303Y215552D01*
Y215602D01*
X503308Y215691D01*
X503319Y215763D01*
X503336Y215830D01*
X503353Y215880D01*
X503375Y215924D01*
X503392Y215952D01*
X503403Y215968D01*
X503408Y215974D01*
X503430Y215996D01*
X503458Y216018D01*
X503530Y216068D01*
X503619Y216118D01*
X503708Y216163D01*
X503791Y216202D01*
X503863Y216235D01*
X503891Y216246D01*
X503913Y216257D01*
X503924Y216263D01*
X503930D01*
X503886Y216135D01*
X503852Y216013D01*
X503830Y215902D01*
X503813Y215808D01*
X503802Y215730D01*
X503797Y215674D01*
Y215635D01*
X504729Y215835D01*
X504818Y215852D01*
X504901Y215869D01*
X504979Y215880D01*
X505045Y215891D01*
X505106Y215896D01*
X505162Y215908D01*
X505212Y215913D01*
X505256Y215919D01*
X505290Y215924D01*
X505323D01*
X505373Y215930D01*
X505395D01*
X505406D01*
X505473Y215924D01*
X505528Y215919D01*
X505639Y215885D01*
X505734Y215835D01*
X505811Y215769D01*
X505883Y215691D01*
X505939Y215602D01*
X505983Y215508D01*
X506022Y215413D01*
X506050Y215319D01*
X506072Y215225D01*
X506089Y215136D01*
X506100Y215058D01*
X506106Y214992D01*
X506111Y214942D01*
Y214897D01*
X506106Y214792D01*
X506100Y214675D01*
X506089Y214553D01*
X506078Y214437D01*
X506067Y214331D01*
X506061Y214287D01*
X506055Y214248D01*
X506050Y214215D01*
X506044Y214193D01*
Y214170D01*
X506033Y214087D01*
X506022Y214009D01*
X506006Y213937D01*
X505994Y213871D01*
X505983Y213809D01*
X505972Y213754D01*
X505967Y213710D01*
X505956Y213665D01*
X505939Y213593D01*
X505928Y213549D01*
X505917Y213521D01*
Y213510D01*
X505889Y213449D01*
X505856Y213388D01*
X505811Y213338D01*
X505761Y213288D01*
X505650Y213205D01*
X505539Y213133D01*
X505428Y213083D01*
X505378Y213060D01*
X505334Y213044D01*
X505295Y213033D01*
X505267Y213021D01*
X505251Y213016D01*
X505245D01*
X505290Y213144D01*
X505334Y213266D01*
X505401Y213515D01*
X505445Y213754D01*
X505462Y213871D01*
X505478Y213970D01*
X505489Y214070D01*
X505495Y214159D01*
X505506Y214237D01*
Y214303D01*
X505512Y214359D01*
Y214431D01*
X505506Y214553D01*
X505495Y214664D01*
X505478Y214753D01*
X505462Y214836D01*
X505434Y214903D01*
X505406Y214958D01*
X505378Y215008D01*
X505345Y215042D01*
X505312Y215069D01*
X505284Y215092D01*
X505256Y215108D01*
X505229Y215119D01*
X505212Y215125D01*
X505195Y215130D01*
X505184D01*
X505179D01*
X505140D01*
X505095Y215125D01*
X504995Y215114D01*
X504884Y215103D01*
X504773Y215086D01*
X504673Y215069D01*
X504635Y215064D01*
X504596Y215053D01*
X504563Y215047D01*
X504540D01*
X504524Y215042D01*
X504518D01*
X503797Y214897D01*
Y214226D01*
X503791Y214126D01*
Y214037D01*
X503786Y213959D01*
X503774Y213887D01*
X503769Y213826D01*
X503763Y213771D01*
X503752Y213721D01*
X503747Y213682D01*
X503741Y213643D01*
X503730Y213615D01*
X503724Y213593D01*
X503719Y213571D01*
X503713Y213560D01*
X503691Y213527D01*
X503663Y213493D01*
X503630Y213454D01*
X503591Y213421D01*
X503497Y213354D01*
X503397Y213293D01*
X503303Y213238D01*
X503258Y213216D01*
X503219Y213199D01*
X503186Y213182D01*
X503164Y213171D01*
X503147Y213160D01*
X503142D01*
X503197Y213343D01*
X503236Y213527D01*
X503264Y213715D01*
X503280Y213887D01*
X503292Y213965D01*
Y214037D01*
X503297Y214104D01*
X503303Y214159D01*
Y214814D01*
X501960Y214531D01*
Y213510D01*
X501954Y213404D01*
Y213310D01*
X501948Y213227D01*
X501937Y213149D01*
X501932Y213083D01*
X501926Y213021D01*
X501915Y212971D01*
X501910Y212927D01*
X501904Y212888D01*
X501893Y212860D01*
X501887Y212833D01*
X501882Y212816D01*
Y212805D01*
X501876Y212794D01*
X501854Y212755D01*
X501826Y212716D01*
X501793Y212677D01*
X501749Y212638D01*
X501654Y212561D01*
X501554Y212489D01*
X501460Y212428D01*
X501421Y212405D01*
X501382Y212383D01*
X501349Y212361D01*
X501327Y212350D01*
X501310Y212339D01*
X501305D01*
X501360Y212572D01*
X501399Y212816D01*
X501432Y213055D01*
X501443Y213171D01*
X501449Y213277D01*
X501455Y213382D01*
X501460Y213476D01*
X501466Y213560D01*
Y213632D01*
X501471Y213687D01*
Y214847D01*
X501477Y215019D01*
X501482Y215169D01*
X501488Y215302D01*
X501499Y215425D01*
X501510Y215530D01*
X501521Y215619D01*
X501527Y215697D01*
X501538Y215758D01*
X501549Y215813D01*
X501560Y215852D01*
X501571Y215885D01*
X501577Y215908D01*
X501582Y215924D01*
X501588Y215930D01*
Y215935D01*
X501621Y215985D01*
X501660Y216035D01*
X501710Y216079D01*
X501765Y216124D01*
X501882Y216196D01*
X502010Y216263D01*
X502126Y216307D01*
X502176Y216329D01*
X502220Y216346D01*
X502259Y216357D01*
X502287Y216368D01*
X502309Y216374D01*
X502315D01*
X502254Y216268D01*
D02*
G37*
G36*
X505523Y212661D02*
X505589Y212650D01*
X505656Y212633D01*
X505717Y212611D01*
X505828Y212555D01*
X505922Y212489D01*
X505994Y212428D01*
X506050Y212372D01*
X506067Y212350D01*
X506083Y212333D01*
X506089Y212322D01*
X506094Y212317D01*
X506139Y212250D01*
X506178Y212178D01*
X506244Y212034D01*
X506289Y211884D01*
X506316Y211745D01*
X506327Y211678D01*
X506339Y211623D01*
X506344Y211567D01*
Y211523D01*
X506350Y211484D01*
Y211434D01*
X506344Y211290D01*
X506333Y211151D01*
X506311Y211018D01*
X506283Y210896D01*
X506250Y210779D01*
X506216Y210674D01*
X506178Y210574D01*
X506133Y210485D01*
X506094Y210402D01*
X506055Y210330D01*
X506022Y210269D01*
X505989Y210219D01*
X505961Y210180D01*
X505939Y210146D01*
X505928Y210130D01*
X505922Y210124D01*
X505839Y210030D01*
X505750Y209952D01*
X505661Y209880D01*
X505567Y209825D01*
X505478Y209775D01*
X505384Y209730D01*
X505295Y209697D01*
X505212Y209669D01*
X505134Y209647D01*
X505062Y209630D01*
X504995Y209619D01*
X504940Y209608D01*
X504890D01*
X504857Y209603D01*
X504835D01*
X504829D01*
X504724Y209614D01*
X504612Y209642D01*
X504501Y209680D01*
X504390Y209736D01*
X504280Y209802D01*
X504174Y209875D01*
X504069Y209952D01*
X503974Y210036D01*
X503880Y210119D01*
X503797Y210196D01*
X503724Y210269D01*
X503663Y210335D01*
X503614Y210391D01*
X503575Y210430D01*
X503547Y210457D01*
X503541Y210468D01*
X503314Y210629D01*
X503242Y210701D01*
X503181Y210774D01*
X503125Y210829D01*
X503075Y210885D01*
X503031Y210929D01*
X502986Y210974D01*
X502953Y211007D01*
X502925Y211034D01*
X502875Y211079D01*
X502848Y211107D01*
X502831Y211118D01*
X502825Y211123D01*
X502781Y211146D01*
X502731Y211162D01*
X502631Y211184D01*
X502587Y211190D01*
X502548Y211195D01*
X502526D01*
X502515D01*
X502404Y211184D01*
X502304Y211162D01*
X502220Y211123D01*
X502143Y211079D01*
X502087Y211040D01*
X502043Y211001D01*
X502015Y210979D01*
X502004Y210968D01*
X501932Y210879D01*
X501882Y210785D01*
X501843Y210690D01*
X501821Y210602D01*
X501804Y210518D01*
X501799Y210457D01*
X501793Y210435D01*
Y210402D01*
X501799Y210302D01*
X501815Y210208D01*
X501837Y210124D01*
X501871Y210041D01*
X501910Y209969D01*
X501954Y209897D01*
X501998Y209836D01*
X502043Y209780D01*
X502093Y209730D01*
X502137Y209686D01*
X502182Y209647D01*
X502220Y209619D01*
X502254Y209597D01*
X502276Y209575D01*
X502293Y209569D01*
X502298Y209564D01*
X502198Y209486D01*
X502109Y209431D01*
X502026Y209386D01*
X501960Y209358D01*
X501904Y209342D01*
X501860Y209336D01*
X501837Y209331D01*
X501826D01*
X501788D01*
X501749Y209342D01*
X501682Y209369D01*
X501627Y209414D01*
X501577Y209458D01*
X501538Y209503D01*
X501510Y209547D01*
X501493Y209575D01*
X501488Y209580D01*
Y209586D01*
X501443Y209686D01*
X501416Y209791D01*
X501394Y209897D01*
X501377Y209997D01*
X501366Y210086D01*
Y210124D01*
X501360Y210152D01*
Y210219D01*
X501366Y210346D01*
X501377Y210474D01*
X501394Y210591D01*
X501421Y210701D01*
X501449Y210807D01*
X501482Y210901D01*
X501516Y210990D01*
X501554Y211073D01*
X501588Y211146D01*
X501627Y211212D01*
X501660Y211268D01*
X501688Y211312D01*
X501715Y211345D01*
X501732Y211373D01*
X501743Y211390D01*
X501749Y211395D01*
X501821Y211478D01*
X501898Y211551D01*
X501982Y211612D01*
X502065Y211667D01*
X502148Y211712D01*
X502232Y211745D01*
X502309Y211778D01*
X502387Y211801D01*
X502459Y211823D01*
X502526Y211839D01*
X502587Y211845D01*
X502637Y211856D01*
X502676D01*
X502709Y211861D01*
X502731D01*
X502737D01*
X502837Y211856D01*
X502931Y211834D01*
X503031Y211801D01*
X503131Y211762D01*
X503225Y211712D01*
X503314Y211656D01*
X503403Y211601D01*
X503486Y211540D01*
X503564Y211478D01*
X503636Y211423D01*
X503697Y211368D01*
X503752Y211318D01*
X503791Y211279D01*
X503824Y211245D01*
X503847Y211223D01*
X503852Y211218D01*
X504157Y210890D01*
X504268Y210774D01*
X504374Y210674D01*
X504474Y210585D01*
X504568Y210507D01*
X504651Y210446D01*
X504729Y210391D01*
X504801Y210346D01*
X504862Y210313D01*
X504918Y210285D01*
X504968Y210263D01*
X505012Y210252D01*
X505045Y210241D01*
X505073Y210235D01*
X505090Y210230D01*
X505101D01*
X505106D01*
X505162Y210235D01*
X505218Y210241D01*
X505317Y210274D01*
X505412Y210319D01*
X505489Y210374D01*
X505556Y210430D01*
X505606Y210474D01*
X505634Y210507D01*
X505639Y210513D01*
X505645Y210518D01*
X505723Y210629D01*
X505778Y210746D01*
X505822Y210862D01*
X505850Y210968D01*
X505867Y211062D01*
X505872Y211101D01*
Y211135D01*
X505878Y211162D01*
Y211201D01*
X505872Y211284D01*
X505867Y211356D01*
X505839Y211495D01*
X505795Y211617D01*
X505750Y211712D01*
X505706Y211795D01*
X505661Y211850D01*
X505645Y211867D01*
X505634Y211884D01*
X505623Y211889D01*
Y211895D01*
X505573Y211939D01*
X505517Y211972D01*
X505395Y212034D01*
X505262Y212078D01*
X505134Y212106D01*
X505018Y212128D01*
X504968Y212133D01*
X504929D01*
X504890Y212139D01*
X504862D01*
X504846D01*
X504840D01*
X504901Y212233D01*
X504962Y212311D01*
X505018Y212383D01*
X505073Y212444D01*
X505129Y212494D01*
X505179Y212539D01*
X505229Y212572D01*
X505267Y212600D01*
X505312Y212622D01*
X505345Y212638D01*
X505401Y212655D01*
X505423Y212661D01*
X505440Y212666D01*
X505445D01*
X505451D01*
X505523Y212661D01*
D02*
G37*
G36*
X505578Y209053D02*
X505645Y209048D01*
X505706Y209036D01*
X505761Y209026D01*
X505811Y209014D01*
X505856Y209003D01*
X505928Y208981D01*
X505983Y208959D01*
X506017Y208937D01*
X506039Y208926D01*
X506044Y208920D01*
X506089Y208870D01*
X506122Y208804D01*
X506150Y208742D01*
X506167Y208676D01*
X506178Y208615D01*
X506183Y208565D01*
Y208454D01*
X506172Y208376D01*
X506167Y208287D01*
X506155Y208204D01*
X506144Y208126D01*
X506139Y208065D01*
X506133Y208038D01*
X506128Y208021D01*
Y208004D01*
X506039Y207327D01*
X506028Y207205D01*
X506017Y207094D01*
X506011Y207000D01*
X506006Y206922D01*
X506000Y206855D01*
Y206767D01*
X506006Y206678D01*
X506011Y206583D01*
X506022Y206495D01*
X506033Y206417D01*
X506050Y206345D01*
X506061Y206289D01*
X506067Y206267D01*
Y206251D01*
X506072Y206245D01*
Y206239D01*
X505956Y206245D01*
X505856Y206256D01*
X505767Y206284D01*
X505689Y206311D01*
X505628Y206345D01*
X505573Y206384D01*
X505528Y206422D01*
X505495Y206467D01*
X505467Y206511D01*
X505445Y206550D01*
X505434Y206589D01*
X505423Y206622D01*
X505417Y206650D01*
X505412Y206672D01*
Y206744D01*
X505417Y206794D01*
X505423Y206911D01*
X505434Y207033D01*
X505451Y207155D01*
X505467Y207261D01*
X505473Y207311D01*
X505478Y207349D01*
X505484Y207383D01*
Y207410D01*
X505489Y207427D01*
Y207433D01*
X501904Y206711D01*
X501898Y206678D01*
Y206656D01*
X501893Y206639D01*
Y206633D01*
X501876Y206528D01*
X501865Y206428D01*
X501860Y206339D01*
X501854Y206267D01*
X501849Y206201D01*
Y206117D01*
X501854Y206051D01*
X501860Y205984D01*
X501876Y205912D01*
X501887Y205845D01*
X501904Y205790D01*
X501921Y205740D01*
X501926Y205712D01*
X501932Y205701D01*
X501815Y205718D01*
X501710Y205745D01*
X501621Y205779D01*
X501549Y205812D01*
X501482Y205856D01*
X501427Y205901D01*
X501382Y205945D01*
X501349Y205995D01*
X501321Y206040D01*
X501299Y206084D01*
X501288Y206123D01*
X501277Y206162D01*
X501271Y206189D01*
X501266Y206212D01*
Y206284D01*
X501271Y206339D01*
X501283Y206461D01*
X501294Y206589D01*
X501310Y206711D01*
X501332Y206822D01*
X501338Y206872D01*
X501343Y206911D01*
X501349Y206944D01*
X501355Y206972D01*
X501360Y206989D01*
Y206994D01*
X501449Y207466D01*
X501471Y207605D01*
X501488Y207732D01*
X501505Y207838D01*
X501510Y207921D01*
X501516Y207993D01*
X501521Y208043D01*
Y208082D01*
X501516Y208143D01*
X501510Y208204D01*
X501499Y208260D01*
X501482Y208315D01*
X501471Y208360D01*
X501460Y208398D01*
X501455Y208420D01*
X501449Y208432D01*
X501554Y208426D01*
X501649Y208409D01*
X501726Y208387D01*
X501793Y208360D01*
X501854Y208321D01*
X501904Y208282D01*
X501943Y208237D01*
X501971Y208193D01*
X501998Y208154D01*
X502015Y208110D01*
X502037Y208032D01*
X502043Y208004D01*
X502048Y207982D01*
Y207960D01*
X502043Y207777D01*
X502032Y207693D01*
X502021Y207621D01*
X502015Y207560D01*
X502004Y207510D01*
X501998Y207477D01*
Y207466D01*
X505584Y208193D01*
X505595Y208276D01*
X505600Y208354D01*
X505612Y208415D01*
Y208465D01*
X505617Y208509D01*
Y208559D01*
X505612Y208643D01*
X505600Y208726D01*
X505584Y208809D01*
X505561Y208887D01*
X505539Y208959D01*
X505523Y209009D01*
X505517Y209031D01*
X505512Y209048D01*
X505506Y209053D01*
Y209059D01*
X505578Y209053D01*
D02*
G37*
G36*
X504452Y205490D02*
X504579Y205473D01*
X504701Y205451D01*
X504812Y205423D01*
X504918Y205390D01*
X505018Y205351D01*
X505112Y205307D01*
X505195Y205263D01*
X505267Y205224D01*
X505334Y205179D01*
X505389Y205140D01*
X505434Y205107D01*
X505473Y205079D01*
X505501Y205057D01*
X505517Y205041D01*
X505523Y205035D01*
X505606Y204946D01*
X505678Y204852D01*
X505745Y204752D01*
X505800Y204652D01*
X505845Y204558D01*
X505883Y204458D01*
X505917Y204363D01*
X505939Y204269D01*
X505961Y204186D01*
X505972Y204108D01*
X505983Y204036D01*
X505994Y203975D01*
Y203925D01*
X506000Y203892D01*
Y203858D01*
X505994Y203731D01*
X505972Y203603D01*
X505944Y203481D01*
X505906Y203364D01*
X505861Y203253D01*
X505806Y203153D01*
X505756Y203054D01*
X505695Y202965D01*
X505639Y202887D01*
X505584Y202815D01*
X505534Y202754D01*
X505489Y202698D01*
X505451Y202660D01*
X505423Y202626D01*
X505401Y202610D01*
X505395Y202604D01*
X505550Y202671D01*
X505700Y202737D01*
X505839Y202798D01*
X505972Y202859D01*
X506094Y202921D01*
X506211Y202981D01*
X506316Y203031D01*
X506411Y203081D01*
X506499Y203131D01*
X506572Y203170D01*
X506638Y203209D01*
X506688Y203237D01*
X506733Y203265D01*
X506760Y203281D01*
X506782Y203292D01*
X506788Y203298D01*
X506777Y203165D01*
X506766Y203048D01*
X506749Y202943D01*
X506733Y202848D01*
X506710Y202760D01*
X506694Y202687D01*
X506672Y202626D01*
X506649Y202571D01*
X506633Y202526D01*
X506610Y202488D01*
X506594Y202460D01*
X506583Y202438D01*
X506566Y202421D01*
X506555Y202404D01*
X506549Y202399D01*
X506505Y202365D01*
X506438Y202332D01*
X506361Y202299D01*
X506266Y202260D01*
X506167Y202221D01*
X506061Y202182D01*
X505839Y202110D01*
X505734Y202077D01*
X505628Y202044D01*
X505534Y202016D01*
X505451Y201994D01*
X505378Y201971D01*
X505323Y201955D01*
X505306Y201949D01*
X505290D01*
X505284Y201944D01*
X505278D01*
X503452Y201472D01*
X503491Y201655D01*
X503530Y201827D01*
X503552Y201988D01*
X503564Y202060D01*
X503575Y202127D01*
X503586Y202188D01*
X503591Y202243D01*
X503597Y202288D01*
X503602Y202327D01*
Y202360D01*
X503608Y202382D01*
Y202404D01*
X503636Y202782D01*
X503647Y202887D01*
X503658Y202981D01*
X503669Y203070D01*
X503686Y203148D01*
X503697Y203215D01*
X503713Y203276D01*
X503724Y203331D01*
X503741Y203376D01*
X503752Y203420D01*
X503763Y203453D01*
X503774Y203481D01*
X503786Y203498D01*
X503797Y203525D01*
X503802Y203537D01*
X503824Y203570D01*
X503858Y203598D01*
X503897Y203625D01*
X503941Y203653D01*
X504041Y203703D01*
X504141Y203747D01*
X504235Y203781D01*
X504280Y203797D01*
X504318Y203808D01*
X504352Y203820D01*
X504374Y203825D01*
X504390Y203831D01*
X504396D01*
X504352Y203709D01*
X504313Y203586D01*
X504246Y203331D01*
X504202Y203087D01*
X504185Y202965D01*
X504174Y202854D01*
X504163Y202748D01*
X504152Y202654D01*
X504146Y202571D01*
Y202493D01*
X504141Y202438D01*
Y202354D01*
X504196Y202377D01*
X504302Y202399D01*
X504407Y202432D01*
X504501Y202460D01*
X504590Y202499D01*
X504673Y202537D01*
X504751Y202571D01*
X504818Y202610D01*
X504884Y202648D01*
X504940Y202687D01*
X504990Y202721D01*
X505029Y202754D01*
X505068Y202782D01*
X505095Y202804D01*
X505112Y202821D01*
X505123Y202832D01*
X505129Y202837D01*
X505190Y202904D01*
X505240Y202970D01*
X505290Y203037D01*
X505328Y203104D01*
X505362Y203170D01*
X505389Y203237D01*
X505428Y203359D01*
X505445Y203420D01*
X505456Y203470D01*
X505462Y203514D01*
X505467Y203553D01*
X505473Y203586D01*
Y203631D01*
X505467Y203720D01*
X505456Y203808D01*
X505440Y203892D01*
X505417Y203969D01*
X505362Y204103D01*
X505328Y204164D01*
X505295Y204219D01*
X505262Y204269D01*
X505229Y204313D01*
X505201Y204347D01*
X505173Y204380D01*
X505151Y204402D01*
X505134Y204419D01*
X505123Y204430D01*
X505118Y204436D01*
X505045Y204491D01*
X504973Y204536D01*
X504896Y204574D01*
X504818Y204613D01*
X504651Y204669D01*
X504496Y204702D01*
X504424Y204713D01*
X504357Y204724D01*
X504302Y204730D01*
X504246Y204735D01*
X504207Y204741D01*
X504174D01*
X504152D01*
X504146D01*
X503980Y204735D01*
X503813Y204713D01*
X503658Y204685D01*
X503514Y204646D01*
X503375Y204597D01*
X503242Y204547D01*
X503120Y204491D01*
X503009Y204430D01*
X502909Y204375D01*
X502820Y204319D01*
X502742Y204269D01*
X502676Y204219D01*
X502626Y204180D01*
X502587Y204152D01*
X502564Y204130D01*
X502559Y204125D01*
X502443Y204008D01*
X502337Y203886D01*
X502248Y203759D01*
X502171Y203636D01*
X502104Y203514D01*
X502048Y203392D01*
X502004Y203276D01*
X501971Y203165D01*
X501943Y203059D01*
X501921Y202965D01*
X501904Y202882D01*
X501893Y202809D01*
X501887Y202754D01*
X501882Y202710D01*
Y202671D01*
X501887Y202560D01*
X501904Y202460D01*
X501932Y202371D01*
X501960Y202282D01*
X501998Y202210D01*
X502043Y202138D01*
X502087Y202077D01*
X502132Y202027D01*
X502182Y201977D01*
X502226Y201938D01*
X502265Y201905D01*
X502304Y201877D01*
X502337Y201860D01*
X502359Y201844D01*
X502376Y201833D01*
X502381D01*
X502354Y201794D01*
X502326Y201761D01*
X502304Y201733D01*
X502287Y201716D01*
X502265Y201688D01*
X502259Y201683D01*
X502198Y201627D01*
X502137Y201583D01*
X502087Y201538D01*
X502037Y201505D01*
X501948Y201450D01*
X501876Y201416D01*
X501821Y201394D01*
X501782Y201383D01*
X501760Y201378D01*
X501754D01*
X501682Y201389D01*
X501627Y201416D01*
X501571Y201461D01*
X501527Y201516D01*
X501488Y201583D01*
X501455Y201661D01*
X501432Y201738D01*
X501410Y201822D01*
X501382Y201988D01*
X501371Y202066D01*
X501366Y202132D01*
X501360Y202188D01*
Y202271D01*
X501371Y202504D01*
X501399Y202732D01*
X501443Y202948D01*
X501499Y203153D01*
X501571Y203353D01*
X501643Y203537D01*
X501726Y203709D01*
X501810Y203870D01*
X501893Y204014D01*
X501976Y204141D01*
X502048Y204252D01*
X502121Y204347D01*
X502176Y204419D01*
X502220Y204474D01*
X502248Y204508D01*
X502259Y204513D01*
Y204519D01*
X502343Y204608D01*
X502431Y204691D01*
X502603Y204841D01*
X502781Y204974D01*
X502959Y205085D01*
X503136Y205179D01*
X503308Y205257D01*
X503469Y205324D01*
X503625Y205374D01*
X503769Y205412D01*
X503902Y205446D01*
X504024Y205468D01*
X504124Y205479D01*
X504207Y205490D01*
X504241D01*
X504268Y205496D01*
X504291D01*
X504307D01*
X504313D01*
X504318D01*
X504452Y205490D01*
D02*
G37*
G36*
X505811Y200922D02*
X505867Y200911D01*
X505917Y200889D01*
X505956Y200867D01*
X505994Y200839D01*
X506022Y200806D01*
X506067Y200728D01*
X506089Y200656D01*
X506106Y200595D01*
X506111Y200573D01*
Y200534D01*
X506106Y200445D01*
X506089Y200345D01*
X506067Y200256D01*
X506039Y200168D01*
X506011Y200090D01*
X505989Y200029D01*
X505978Y200007D01*
X505972Y199990D01*
X505967Y199979D01*
Y199973D01*
X505878Y200051D01*
X505784Y200107D01*
X505684Y200151D01*
X505584Y200179D01*
X505501Y200195D01*
X505462Y200201D01*
X505428D01*
X505406Y200206D01*
X505384D01*
X505373D01*
X505367D01*
X505312D01*
X505251Y200201D01*
X505123Y200190D01*
X504990Y200173D01*
X504862Y200156D01*
X504746Y200140D01*
X504696Y200129D01*
X504651Y200123D01*
X504612Y200118D01*
X504585Y200112D01*
X504568Y200107D01*
X504563D01*
X502703Y199768D01*
X502881Y199751D01*
X502914Y199735D01*
X502959Y199718D01*
X503053Y199674D01*
X503153Y199629D01*
X503258Y199585D01*
X503353Y199546D01*
X503392Y199524D01*
X503430Y199513D01*
X503458Y199496D01*
X503480Y199485D01*
X503497Y199479D01*
X503503D01*
X503763Y199369D01*
X504002Y199257D01*
X504224Y199158D01*
X504429Y199063D01*
X504612Y198974D01*
X504779Y198897D01*
X504923Y198819D01*
X505056Y198752D01*
X505167Y198691D01*
X505267Y198636D01*
X505351Y198591D01*
X505412Y198553D01*
X505467Y198525D01*
X505501Y198503D01*
X505523Y198492D01*
X505528Y198486D01*
X505628Y198414D01*
X505723Y198347D01*
X505800Y198281D01*
X505867Y198214D01*
X505922Y198147D01*
X505967Y198086D01*
X506006Y198031D01*
X506039Y197975D01*
X506061Y197931D01*
X506078Y197887D01*
X506094Y197848D01*
X506100Y197815D01*
X506106Y197787D01*
X506111Y197770D01*
Y197753D01*
X506106Y197715D01*
X506100Y197676D01*
X506083Y197637D01*
X506067Y197598D01*
X506011Y197526D01*
X505939Y197459D01*
X505856Y197393D01*
X505767Y197332D01*
X505667Y197276D01*
X505561Y197226D01*
X505462Y197182D01*
X505362Y197137D01*
X505273Y197104D01*
X505190Y197071D01*
X505118Y197049D01*
X505062Y197032D01*
X505045Y197021D01*
X505029D01*
X505023Y197015D01*
X505018D01*
X504890Y196982D01*
X504762Y196943D01*
X504490Y196882D01*
X504224Y196821D01*
X504091Y196793D01*
X503969Y196771D01*
X503852Y196749D01*
X503747Y196727D01*
X503652Y196710D01*
X503575Y196693D01*
X503508Y196682D01*
X503458Y196671D01*
X503425Y196666D01*
X503414D01*
X503242Y196638D01*
X503081Y196610D01*
X502931Y196593D01*
X502792Y196571D01*
X502665Y196555D01*
X502548Y196544D01*
X502448Y196532D01*
X502354Y196527D01*
X502270Y196516D01*
X502198Y196510D01*
X502137D01*
X502093Y196505D01*
X502054D01*
X502026D01*
X502010D01*
X502004D01*
X501893Y196510D01*
X501793Y196521D01*
X501704Y196544D01*
X501632Y196571D01*
X501571Y196605D01*
X501516Y196638D01*
X501477Y196677D01*
X501438Y196716D01*
X501416Y196754D01*
X501394Y196793D01*
X501382Y196827D01*
X501371Y196860D01*
X501366Y196888D01*
X501360Y196910D01*
Y196926D01*
X501366Y196976D01*
X501371Y197026D01*
X501405Y197126D01*
X501443Y197226D01*
X501493Y197315D01*
X501543Y197398D01*
X501588Y197459D01*
X501604Y197481D01*
X501621Y197498D01*
X501627Y197509D01*
X501632Y197515D01*
X501688Y197454D01*
X501754Y197398D01*
X501821Y197348D01*
X501898Y197309D01*
X501982Y197276D01*
X502065Y197248D01*
X502226Y197204D01*
X502304Y197187D01*
X502376Y197176D01*
X502443Y197171D01*
X502498Y197165D01*
X502548Y197160D01*
X502581D01*
X502609D01*
X502614D01*
X502953Y197165D01*
X503120Y197176D01*
X503275Y197187D01*
X503430Y197204D01*
X503575Y197221D01*
X503713Y197237D01*
X503841Y197254D01*
X503958Y197276D01*
X504063Y197293D01*
X504152Y197309D01*
X504230Y197320D01*
X504296Y197337D01*
X504341Y197343D01*
X504368Y197354D01*
X504379D01*
X504529Y197387D01*
X504657Y197420D01*
X504773Y197454D01*
X504868Y197487D01*
X504951Y197515D01*
X505023Y197548D01*
X505079Y197570D01*
X505123Y197598D01*
X505156Y197620D01*
X505184Y197637D01*
X505201Y197653D01*
X505218Y197670D01*
X505229Y197692D01*
Y197698D01*
X505223Y197720D01*
X505206Y197748D01*
X505179Y197781D01*
X505140Y197809D01*
X505095Y197848D01*
X505040Y197887D01*
X504979Y197925D01*
X504912Y197964D01*
X504840Y198009D01*
X504762Y198053D01*
X504590Y198142D01*
X504407Y198236D01*
X504218Y198331D01*
X504030Y198419D01*
X503847Y198503D01*
X503675Y198580D01*
X503597Y198614D01*
X503525Y198647D01*
X503458Y198680D01*
X503397Y198702D01*
X503342Y198730D01*
X503297Y198747D01*
X503258Y198764D01*
X503231Y198775D01*
X503214Y198786D01*
X503208D01*
X503042Y198858D01*
X502881Y198925D01*
X502731Y198986D01*
X502592Y199047D01*
X502459Y199102D01*
X502331Y199158D01*
X502215Y199207D01*
X502109Y199252D01*
X502010Y199296D01*
X501915Y199335D01*
X501826Y199374D01*
X501749Y199407D01*
X501677Y199441D01*
X501610Y199468D01*
X501549Y199496D01*
X501493Y199518D01*
X501394Y199563D01*
X501321Y199596D01*
X501260Y199624D01*
X501222Y199646D01*
X501188Y199657D01*
X501171Y199668D01*
X501160Y199674D01*
X501094Y199718D01*
X501044Y199774D01*
X501005Y199829D01*
X500983Y199885D01*
X500966Y199934D01*
X500961Y199979D01*
X500955Y200007D01*
Y200018D01*
X500961Y200046D01*
X500966Y200084D01*
X500983Y200129D01*
X500999Y200173D01*
X501044Y200279D01*
X501094Y200390D01*
X501149Y200495D01*
X501171Y200539D01*
X501194Y200578D01*
X501210Y200612D01*
X501227Y200639D01*
X501232Y200656D01*
X501238Y200662D01*
X501266Y200612D01*
X501305Y200562D01*
X501388Y200473D01*
X501482Y200395D01*
X501582Y200329D01*
X501671Y200279D01*
X501715Y200256D01*
X501749Y200240D01*
X501777Y200229D01*
X501799Y200218D01*
X501815Y200212D01*
X501821D01*
X502037Y200129D01*
X503919Y200573D01*
X504058Y200606D01*
X504191Y200634D01*
X504318Y200662D01*
X504435Y200689D01*
X504546Y200717D01*
X504651Y200739D01*
X504751Y200756D01*
X504846Y200778D01*
X504934Y200795D01*
X505018Y200811D01*
X505167Y200839D01*
X505295Y200867D01*
X505406Y200884D01*
X505495Y200900D01*
X505567Y200911D01*
X505628Y200917D01*
X505673Y200922D01*
X505706Y200928D01*
X505728D01*
X505739D01*
X505745D01*
X505811Y200922D01*
D02*
G37*
%LPC*%
G36*
X396202Y199347D02*
Y199532D01*
X396295D01*
X396388D01*
X396480D01*
X396573D01*
X396665D01*
X396758D01*
X396851D01*
X396943D01*
X397036D01*
X397129D01*
X397221D01*
X397314D01*
X397406D01*
X397499D01*
X397592D01*
X397684D01*
X397777D01*
X397870D01*
X397962D01*
X398055D01*
X398147D01*
X398240D01*
X398333D01*
X398425D01*
X398518D01*
X398611D01*
X398703D01*
X398796D01*
X398888D01*
X398981D01*
X399074D01*
X399166D01*
X399259D01*
X399352D01*
X399444D01*
X399537D01*
X399629D01*
X399722D01*
X399815D01*
X399907D01*
X400000D01*
X400093D01*
X400185D01*
X400278D01*
X400371D01*
X400463D01*
X400556D01*
X400648D01*
X400741D01*
X400834D01*
X400926D01*
X401019D01*
X401112D01*
X401204D01*
X401297D01*
X401389D01*
X401482D01*
X401575D01*
Y198513D01*
X401482D01*
Y197865D01*
X401389D01*
Y197679D01*
X401297D01*
Y197494D01*
X401204D01*
Y197402D01*
X401112D01*
Y197216D01*
X401019D01*
Y197031D01*
X400926D01*
Y196939D01*
X400834D01*
Y196846D01*
X400741D01*
X400648D01*
Y196753D01*
X400556D01*
Y196661D01*
X400463D01*
Y196568D01*
X400371D01*
X400278D01*
X400185D01*
Y196475D01*
X400093D01*
X400000D01*
Y196383D01*
X399907D01*
X399815D01*
Y196290D01*
X399722D01*
X399629D01*
X399537D01*
X399444D01*
Y196197D01*
X399352D01*
X399259D01*
X399166D01*
X399074D01*
X398981D01*
X398888D01*
X398796D01*
X398703D01*
X398611D01*
X398518D01*
X398425D01*
X398333D01*
Y196290D01*
X398240D01*
X398147D01*
X398055D01*
Y196383D01*
X397962D01*
X397870D01*
Y196475D01*
X397777D01*
X397684D01*
X397592D01*
Y196568D01*
X397499D01*
Y196661D01*
X397406D01*
X397314D01*
Y196753D01*
X397221D01*
Y196846D01*
X397129D01*
X397036D01*
Y196939D01*
X396943D01*
Y197031D01*
X396851D01*
Y197124D01*
X396758D01*
Y197216D01*
X396665D01*
Y197402D01*
X396573D01*
Y197587D01*
X396480D01*
Y197772D01*
X396388D01*
Y197957D01*
X396295D01*
Y199347D01*
X396202D01*
D02*
G37*
G36*
Y226672D02*
Y227506D01*
X396295D01*
Y227969D01*
X396388D01*
Y228154D01*
X396480D01*
Y228339D01*
X396573D01*
Y228432D01*
X396665D01*
Y228525D01*
X396758D01*
Y228617D01*
X396851D01*
Y228710D01*
X396943D01*
Y228802D01*
X397036D01*
Y228895D01*
X397129D01*
Y229080D01*
X397221D01*
X397314D01*
Y229173D01*
X397406D01*
X397499D01*
Y229266D01*
X397592D01*
Y229358D01*
X397684D01*
X397777D01*
X397870D01*
X397962D01*
X398055D01*
Y229451D01*
X398147D01*
X398240D01*
X398333D01*
Y229543D01*
X398425D01*
X398518D01*
X398611D01*
X398703D01*
X398796D01*
X398888D01*
X398981D01*
X399074D01*
X399166D01*
X399259D01*
X399352D01*
X399444D01*
Y229451D01*
X399537D01*
X399629D01*
X399722D01*
X399815D01*
Y229358D01*
X399907D01*
X400000D01*
X400093D01*
Y229266D01*
X400185D01*
X400278D01*
Y229173D01*
X400371D01*
X400463D01*
Y228988D01*
X400556D01*
Y229080D01*
X400648D01*
Y228895D01*
X400741D01*
Y228802D01*
X400834D01*
Y228710D01*
X400926D01*
Y228617D01*
X401019D01*
Y228525D01*
X401112D01*
Y228432D01*
X401204D01*
Y228247D01*
X401297D01*
X401389D01*
Y228062D01*
X401482D01*
Y227691D01*
X401575D01*
Y226579D01*
X401482D01*
Y226302D01*
X401389D01*
Y226116D01*
X401297D01*
Y225931D01*
X401204D01*
Y225746D01*
X401112D01*
Y225653D01*
X401019D01*
Y225560D01*
X400926D01*
Y225468D01*
X400834D01*
Y225375D01*
X400741D01*
Y225283D01*
X400648D01*
Y225190D01*
X400556D01*
X400463D01*
Y225097D01*
X400371D01*
X400278D01*
Y224912D01*
X400185D01*
Y225005D01*
X400093D01*
Y224912D01*
X400000D01*
X399907D01*
Y224819D01*
X399815D01*
X399722D01*
Y224727D01*
X399629D01*
X399537D01*
X399444D01*
X399352D01*
X399259D01*
Y224634D01*
X399166D01*
X399074D01*
X398981D01*
X398888D01*
X398796D01*
X398703D01*
X398611D01*
X398518D01*
Y224727D01*
X398425D01*
X398333D01*
X398240D01*
X398147D01*
Y224819D01*
X398055D01*
X397962D01*
X397870D01*
Y224912D01*
X397777D01*
X397684D01*
Y225005D01*
X397592D01*
X397499D01*
X397406D01*
Y225097D01*
X397314D01*
Y225190D01*
X397221D01*
Y225283D01*
X397129D01*
X397036D01*
Y225375D01*
X396943D01*
Y225468D01*
X396851D01*
Y225560D01*
X396758D01*
Y225653D01*
X396665D01*
Y225838D01*
X396573D01*
Y225931D01*
X396480D01*
Y226116D01*
X396388D01*
Y226209D01*
X396295D01*
Y226672D01*
X396202D01*
D02*
G37*
G36*
Y233990D02*
Y234638D01*
X396295D01*
X396388D01*
X396480D01*
X396573D01*
X396665D01*
X396758D01*
X396851D01*
X396943D01*
X397036D01*
X397129D01*
X397221D01*
X397314D01*
X397406D01*
X397499D01*
X397592D01*
X397684D01*
X397777D01*
X397870D01*
X397962D01*
X398055D01*
X398147D01*
Y233712D01*
X398055D01*
Y233434D01*
X397962D01*
Y233341D01*
X397870D01*
Y233156D01*
X397777D01*
X397684D01*
Y233063D01*
X397592D01*
X397499D01*
Y232971D01*
X397406D01*
X397314D01*
X397221D01*
X397129D01*
X397036D01*
X396943D01*
X396851D01*
X396758D01*
Y233063D01*
X396665D01*
Y233156D01*
X396573D01*
X396480D01*
Y233249D01*
X396388D01*
Y233341D01*
X396295D01*
Y233990D01*
X396202D01*
D02*
G37*
G36*
X399259Y233712D02*
Y234638D01*
X399352D01*
X399444D01*
X399537D01*
X399629D01*
X399722D01*
X399815D01*
X399907D01*
X400000D01*
X400093D01*
X400185D01*
X400278D01*
X400371D01*
X400463D01*
X400556D01*
X400648D01*
X400741D01*
X400834D01*
X400926D01*
X401019D01*
X401112D01*
X401204D01*
X401297D01*
X401389D01*
X401482D01*
X401575D01*
Y233526D01*
X401482D01*
Y233156D01*
X401389D01*
Y232971D01*
X401297D01*
Y232878D01*
X401204D01*
Y232786D01*
X401112D01*
Y232693D01*
X401019D01*
Y232600D01*
X400926D01*
X400834D01*
Y232508D01*
X400741D01*
X400648D01*
X400556D01*
X400463D01*
X400371D01*
X400278D01*
X400185D01*
X400093D01*
X400000D01*
Y232600D01*
X399907D01*
Y232693D01*
X399815D01*
Y232786D01*
X399722D01*
X399629D01*
Y232971D01*
X399537D01*
Y233156D01*
X399444D01*
Y233249D01*
X399352D01*
Y233712D01*
X399259D01*
D02*
G37*
G36*
X396202Y239640D02*
Y240474D01*
X396295D01*
Y240844D01*
X396388D01*
Y241029D01*
X396480D01*
Y241215D01*
X396573D01*
Y241307D01*
X396665D01*
Y241493D01*
X396758D01*
Y241585D01*
X396851D01*
Y241678D01*
X396943D01*
Y241770D01*
X397036D01*
Y241863D01*
X397129D01*
Y241956D01*
X397221D01*
X397314D01*
Y242141D01*
X397406D01*
Y242048D01*
X397499D01*
Y242141D01*
X397592D01*
Y242234D01*
X397684D01*
X397777D01*
Y242326D01*
X397870D01*
X397962D01*
Y242419D01*
X398055D01*
X398147D01*
X398240D01*
X398333D01*
X398425D01*
X398518D01*
X398611D01*
X398703D01*
X398796D01*
X398888D01*
X398981D01*
X399074D01*
X399166D01*
X399259D01*
X399352D01*
X399444D01*
X399537D01*
X399629D01*
X399722D01*
X399815D01*
Y242326D01*
X399907D01*
X400000D01*
Y242234D01*
X400093D01*
Y242141D01*
X400185D01*
X400278D01*
Y242048D01*
X400371D01*
X400463D01*
X400556D01*
Y241956D01*
X400648D01*
Y241863D01*
X400741D01*
Y241770D01*
X400834D01*
Y241678D01*
X400926D01*
Y241585D01*
X401019D01*
Y241493D01*
X401112D01*
Y241400D01*
X401204D01*
Y241215D01*
X401297D01*
Y241122D01*
X401389D01*
Y240937D01*
X401482D01*
Y240566D01*
X401575D01*
Y239455D01*
X401482D01*
Y239177D01*
X401389D01*
Y238992D01*
X401297D01*
Y238806D01*
X401204D01*
Y238714D01*
X401112D01*
Y238528D01*
X401019D01*
Y238436D01*
X400926D01*
X400834D01*
Y238343D01*
X400741D01*
Y238158D01*
X400648D01*
X400556D01*
Y238065D01*
X400463D01*
X400371D01*
Y237973D01*
X400278D01*
X400185D01*
Y237880D01*
X400093D01*
Y237787D01*
X400000D01*
X399907D01*
X399815D01*
Y237695D01*
X399722D01*
X399629D01*
X399537D01*
X399444D01*
X399352D01*
X399259D01*
X399166D01*
Y237602D01*
X399074D01*
X398981D01*
X398888D01*
X398796D01*
X398703D01*
X398611D01*
Y237695D01*
X398518D01*
X398425D01*
X398333D01*
X398240D01*
X398147D01*
X398055D01*
X397962D01*
Y237787D01*
X397870D01*
X397777D01*
X397684D01*
Y237880D01*
X397592D01*
Y237973D01*
X397499D01*
X397406D01*
Y238065D01*
X397314D01*
X397221D01*
Y238158D01*
X397129D01*
X397036D01*
Y238251D01*
X396943D01*
Y238343D01*
X396851D01*
Y238436D01*
X396758D01*
Y238528D01*
X396665D01*
Y238714D01*
X396573D01*
Y238899D01*
X396480D01*
Y238992D01*
X396388D01*
Y239177D01*
X396295D01*
Y239640D01*
X396202D01*
D02*
G37*
%LPD*%
D34*
X492500Y210700D02*
Y223800D01*
X468500Y211200D02*
Y222600D01*
X476500Y226000D02*
Y229700D01*
X484500Y226300D02*
Y230000D01*
X492900Y211000D02*
Y223100D01*
X492800Y210900D02*
Y223300D01*
X492700Y210900D02*
Y223400D01*
X492600Y210700D02*
Y223700D01*
X490900Y211000D02*
Y215900D01*
X490800Y211000D02*
Y215100D01*
X492400Y210700D02*
Y224000D01*
X492300Y210700D02*
Y224100D01*
X492200Y210700D02*
Y224300D01*
X492100Y210700D02*
Y224400D01*
X492000Y210700D02*
Y224600D01*
X491900Y210700D02*
Y224800D01*
X491800Y210700D02*
Y225000D01*
X491700Y210700D02*
Y225000D01*
X491600Y210700D02*
Y225100D01*
X491500Y210700D02*
Y225200D01*
X491400Y210800D02*
Y225400D01*
X491300Y210700D02*
Y225500D01*
X491200Y210800D02*
Y225600D01*
X491100Y210900D02*
Y225700D01*
X491000Y210900D02*
Y225800D01*
X470800Y211000D02*
Y215500D01*
X470700Y211000D02*
Y226000D01*
X470600Y210900D02*
Y225900D01*
X470500Y210800D02*
Y225700D01*
X470400Y210800D02*
Y225500D01*
X470300Y210800D02*
Y225400D01*
X470200Y210700D02*
Y225300D01*
X470100Y210700D02*
Y225200D01*
X470000Y210700D02*
Y225000D01*
X469900Y210700D02*
Y224900D01*
X469800Y210700D02*
Y224800D01*
X469700Y210700D02*
Y224600D01*
X469600Y210700D02*
Y224500D01*
X469500Y210700D02*
Y224300D01*
X469400Y210700D02*
Y224300D01*
X469300Y210700D02*
Y224000D01*
X469200Y210700D02*
Y223900D01*
X469100Y210800D02*
Y223800D01*
X469000Y210800D02*
Y223500D01*
X468900Y210900D02*
Y223300D01*
X468800Y210900D02*
Y223100D01*
X468700Y211000D02*
Y223100D01*
X494200Y214400D02*
Y219300D01*
X494100Y213700D02*
Y219700D01*
X494000Y213500D02*
Y220100D01*
X493900Y213200D02*
Y220600D01*
X493800Y212800D02*
Y221000D01*
X493700Y212500D02*
Y221200D01*
X493600Y212200D02*
Y221400D01*
X493500Y211900D02*
Y221800D01*
X493400Y211700D02*
Y222000D01*
X493300Y211400D02*
Y222200D01*
X493200Y211200D02*
Y222500D01*
X493100Y211200D02*
Y222700D01*
X493000Y211100D02*
Y222900D01*
X490700Y219100D02*
Y226200D01*
X490600Y219500D02*
Y226300D01*
X490500Y219700D02*
Y226400D01*
X490900Y217800D02*
Y226000D01*
X490800Y218500D02*
Y226100D01*
X490400Y220100D02*
Y226500D01*
X490300Y220400D02*
Y226600D01*
X490200Y220700D02*
Y226800D01*
X490100Y220800D02*
Y226800D01*
X490000Y221000D02*
Y226900D01*
X489900Y221200D02*
Y226900D01*
X489800Y221500D02*
Y227000D01*
X489700Y221700D02*
Y227200D01*
X489600Y221900D02*
Y227200D01*
X489500Y222000D02*
Y227300D01*
X489400Y222200D02*
Y227500D01*
X489300Y222400D02*
Y227600D01*
X489200Y222400D02*
Y227600D01*
X489100Y222700D02*
Y227600D01*
X489000Y222800D02*
Y227700D01*
X488900Y222900D02*
Y227800D01*
X488800Y223000D02*
Y227800D01*
X479900Y216000D02*
Y224300D01*
X479800Y216000D02*
Y224200D01*
X479700Y216200D02*
Y224100D01*
X479600Y216300D02*
Y224000D01*
X479500Y216300D02*
Y224000D01*
X479400Y216500D02*
Y223900D01*
X479300Y216700D02*
Y223600D01*
X479200Y216800D02*
Y223400D01*
X482500Y216800D02*
Y223400D01*
X482400Y216800D02*
Y223600D01*
X482300Y216600D02*
Y223700D01*
X482200Y216400D02*
Y224000D01*
X482100Y216300D02*
Y224000D01*
X482000Y216200D02*
Y224100D01*
X481900Y216100D02*
Y224200D01*
X481800Y216000D02*
Y224300D01*
X481700Y215900D02*
Y224400D01*
X481600Y215900D02*
Y224400D01*
X481500Y215900D02*
Y224400D01*
X481400Y215900D02*
Y224400D01*
X481300Y215900D02*
Y224400D01*
X481200Y215900D02*
Y224500D01*
X481100Y215900D02*
Y224500D01*
X481000Y215900D02*
Y224500D01*
X480900Y215900D02*
Y224500D01*
X480800Y215900D02*
Y224500D01*
X480700Y215900D02*
Y224500D01*
X480600Y215900D02*
Y224500D01*
X480500Y215900D02*
Y224500D01*
X480400Y215900D02*
Y224500D01*
X480300Y215900D02*
Y224400D01*
X480200Y215900D02*
Y224400D01*
X480100Y216000D02*
Y224400D01*
X480000Y215900D02*
Y224300D01*
X479900Y203300D02*
Y210000D01*
X479800Y203400D02*
Y209900D01*
X479700Y203400D02*
Y209900D01*
X479600Y203500D02*
Y209900D01*
X479500Y203500D02*
Y209800D01*
X479400Y203500D02*
Y209800D01*
X479300Y203600D02*
Y209700D01*
X479200Y203600D02*
Y209700D01*
X479100Y203700D02*
Y209600D01*
X479000Y203800D02*
Y209500D01*
X478900Y203800D02*
Y209500D01*
X478800Y203900D02*
Y209400D01*
X478700Y204000D02*
Y209300D01*
X478600Y204100D02*
Y209200D01*
X478500Y204200D02*
Y209200D01*
X478400Y204300D02*
Y209100D01*
X478300Y204300D02*
Y209100D01*
X478200Y204500D02*
Y208900D01*
X478100Y204600D02*
Y208700D01*
X478000Y204800D02*
Y208600D01*
X477900Y204900D02*
Y208400D01*
X477800Y205000D02*
Y208200D01*
X477700Y205300D02*
Y208100D01*
X477600Y205500D02*
Y207900D01*
X477500Y205900D02*
Y207400D01*
X477400Y206900D02*
Y207000D01*
X484200Y206000D02*
Y207300D01*
X484100Y205600D02*
Y207600D01*
X484000Y205300D02*
Y208000D01*
X483900Y205200D02*
Y208200D01*
X483800Y205000D02*
Y208500D01*
X483700Y204700D02*
Y208600D01*
X483600Y204700D02*
Y208700D01*
X483500Y204600D02*
Y208800D01*
X483400Y204400D02*
Y208900D01*
X483300Y204300D02*
Y209000D01*
X483200Y204200D02*
Y209100D01*
X483100Y204100D02*
Y209200D01*
X483000Y203900D02*
Y209400D01*
X482900Y203900D02*
Y209500D01*
X482800Y203800D02*
Y209500D01*
X482700Y203800D02*
Y209500D01*
X482600Y203700D02*
Y209600D01*
X482500Y203600D02*
Y209700D01*
X482400Y203600D02*
Y209800D01*
X482300Y203600D02*
Y209800D01*
X482200Y203500D02*
Y209800D01*
X482100Y203500D02*
Y209900D01*
X482000Y203400D02*
Y209900D01*
X481900Y203400D02*
Y209900D01*
X481800Y203400D02*
Y209900D01*
X481700Y203300D02*
Y210000D01*
X481600Y203300D02*
Y210000D01*
X481500Y203300D02*
Y210000D01*
X481400Y203300D02*
Y210000D01*
X481300Y203200D02*
Y210100D01*
X481200Y203200D02*
Y210000D01*
X481100Y203300D02*
Y210100D01*
X481000Y203300D02*
Y210100D01*
X480900Y203300D02*
Y210100D01*
X480800Y203300D02*
Y210100D01*
X480700Y203300D02*
Y210100D01*
X480600Y203300D02*
Y210100D01*
X480500Y203200D02*
Y210000D01*
X480400Y203300D02*
Y210000D01*
X480300Y203300D02*
Y210100D01*
X480200Y203300D02*
Y210000D01*
X480100Y203300D02*
Y210000D01*
X480000Y203300D02*
Y210000D01*
X471100Y219600D02*
Y226400D01*
X471000Y219300D02*
Y226200D01*
X470900Y218700D02*
Y226100D01*
X471900Y221600D02*
Y227200D01*
X471800Y221400D02*
Y227000D01*
X471700Y221200D02*
Y226900D01*
X471600Y221000D02*
Y226800D01*
X471500Y220700D02*
Y226700D01*
X471400Y220500D02*
Y226600D01*
X471300Y220300D02*
Y226600D01*
X471200Y220000D02*
Y226500D01*
X470800Y218200D02*
Y226000D01*
X472900Y223000D02*
Y227900D01*
X472800Y222900D02*
Y227800D01*
X472700Y222800D02*
Y227700D01*
X472600Y222700D02*
Y227700D01*
X472500Y222400D02*
Y227600D01*
X472400Y222300D02*
Y227500D01*
X472300Y222200D02*
Y227400D01*
X472200Y222100D02*
Y227300D01*
X472100Y221900D02*
Y227300D01*
X472000Y221800D02*
Y227200D01*
X468600Y211100D02*
Y222900D01*
X467400Y214700D02*
Y218800D01*
X468400Y211300D02*
Y222300D01*
X468300Y211500D02*
Y222100D01*
X468200Y211800D02*
Y221800D01*
X468100Y212000D02*
Y221600D01*
X468000Y212300D02*
Y221300D01*
X467900Y212700D02*
Y221000D01*
X467800Y213000D02*
Y220900D01*
X467700Y213400D02*
Y220300D01*
X467600Y213600D02*
Y220000D01*
X467500Y214100D02*
Y219500D01*
X494100Y219800D02*
Y219900D01*
X494300Y215100D02*
Y218600D01*
X494200Y214100D02*
Y214300D01*
X488200Y228300D02*
Y228400D01*
X487900Y224100D02*
Y228400D01*
X487800Y224200D02*
Y228500D01*
X487700Y224300D02*
Y228600D01*
X487600Y224400D02*
Y228600D01*
X487500Y224400D02*
Y228700D01*
X487400Y224500D02*
Y228800D01*
X487300Y224600D02*
Y228800D01*
X487200Y224700D02*
Y228900D01*
X487100Y224700D02*
Y228900D01*
X487000Y224800D02*
Y229000D01*
X486900Y224900D02*
Y229100D01*
X486800Y225000D02*
Y229100D01*
X486700Y225100D02*
Y229100D01*
X486600Y225200D02*
Y229100D01*
X486500Y225200D02*
Y229200D01*
X486400Y225200D02*
Y229200D01*
X486300Y225400D02*
Y229300D01*
X486200Y225400D02*
Y229400D01*
X486100Y225500D02*
Y229400D01*
X486000Y225500D02*
Y229400D01*
X485900Y225600D02*
Y229400D01*
X485800Y225600D02*
Y229500D01*
X485700Y225700D02*
Y229500D01*
X485600Y225700D02*
Y229600D01*
X485500Y225800D02*
Y229600D01*
X485400Y225900D02*
Y229700D01*
X485300Y225900D02*
Y229700D01*
X485200Y226000D02*
Y229700D01*
X485100Y226000D02*
Y229800D01*
X485000Y226100D02*
Y229800D01*
X484900Y226100D02*
Y229800D01*
X484800Y226200D02*
Y229900D01*
X484700Y226200D02*
Y229900D01*
X484600Y226200D02*
Y230000D01*
X488700Y223200D02*
Y227900D01*
X488600Y223300D02*
Y228000D01*
X488500Y223400D02*
Y228000D01*
X488400Y223500D02*
Y228200D01*
X488300Y223600D02*
Y228200D01*
X488200Y223700D02*
Y228200D01*
X488100Y223900D02*
Y228400D01*
X488000Y224000D02*
Y228400D01*
X490300Y220200D02*
Y220300D01*
X490900Y216000D02*
Y216100D01*
X490800Y215200D02*
Y215300D01*
X490700Y211100D02*
Y214600D01*
X490600Y211200D02*
Y214300D01*
X490500Y211300D02*
Y213900D01*
X490400Y211400D02*
Y213500D01*
X490300Y211600D02*
Y213300D01*
X490200Y211900D02*
Y212900D01*
X479900Y226900D02*
Y230400D01*
X479800Y226900D02*
Y230400D01*
X479700Y226800D02*
Y230400D01*
X479600Y226800D02*
Y230400D01*
X479500Y226800D02*
Y230400D01*
X479400Y226900D02*
Y230400D01*
X479300Y226900D02*
Y230300D01*
X479200Y226800D02*
Y230300D01*
X479100Y226800D02*
Y230300D01*
X479000Y226800D02*
Y230300D01*
X478900Y226800D02*
Y230300D01*
X478800Y226800D02*
Y230300D01*
X478700Y226700D02*
Y230300D01*
X478600Y226700D02*
Y230200D01*
X478500Y226700D02*
Y230200D01*
X478400Y226700D02*
Y230200D01*
X478300Y226600D02*
Y230200D01*
X478200Y226600D02*
Y230200D01*
X483700Y226600D02*
Y230100D01*
X483500Y226600D02*
Y230200D01*
X483400Y226600D02*
Y230200D01*
X483300Y226700D02*
Y230200D01*
X483200Y226700D02*
Y230200D01*
X483100Y226700D02*
Y230300D01*
X483000Y226700D02*
Y230200D01*
X482900Y226800D02*
Y230300D01*
X482800Y226800D02*
Y230300D01*
X482700Y226800D02*
Y230300D01*
X482600Y226800D02*
Y230400D01*
X482500Y226800D02*
Y230400D01*
X482400Y226800D02*
Y230400D01*
X482300Y226800D02*
Y230300D01*
X482200Y226800D02*
Y230300D01*
X482100Y226900D02*
Y230400D01*
X482000Y226900D02*
Y230400D01*
X481900Y226900D02*
Y230400D01*
X481800Y226900D02*
Y230400D01*
X481700Y226900D02*
Y230400D01*
X481600Y226900D02*
Y230400D01*
X481500Y226900D02*
Y230400D01*
X481400Y227000D02*
Y230400D01*
X481300Y227000D02*
Y230400D01*
X481200Y227000D02*
Y230400D01*
X481100Y227000D02*
Y230400D01*
X481000Y227000D02*
Y230400D01*
X480900Y227000D02*
Y230400D01*
X480800Y227000D02*
Y230400D01*
X480700Y227000D02*
Y230400D01*
X480600Y227000D02*
Y230400D01*
X480500Y226900D02*
Y230400D01*
X480400Y227000D02*
Y230400D01*
X480300Y227000D02*
Y230400D01*
X480200Y226900D02*
Y230400D01*
X480100Y226900D02*
Y230400D01*
X479200Y223500D02*
Y223600D01*
X479100Y223200D02*
Y223300D01*
X480000Y226900D02*
Y230400D01*
X478100Y226500D02*
Y230200D01*
X478000Y226500D02*
Y230200D01*
X477900Y226500D02*
Y230100D01*
X477800Y226500D02*
Y230100D01*
X477700Y226400D02*
Y230100D01*
X477600Y226400D02*
Y230000D01*
X477500Y226400D02*
Y230000D01*
X477400Y226400D02*
Y230000D01*
X477300Y226300D02*
Y230000D01*
X477200Y226300D02*
Y229900D01*
X477100Y226200D02*
Y230000D01*
X477000Y226200D02*
Y230000D01*
X476900Y226200D02*
Y229800D01*
X476800Y226100D02*
Y229900D01*
X476700Y226100D02*
Y229800D01*
X476600Y226000D02*
Y229700D01*
X484400Y226300D02*
Y230000D01*
X484300Y226400D02*
Y230000D01*
X484200Y226400D02*
Y230000D01*
X484100Y226400D02*
Y230000D01*
X484000Y226500D02*
Y230100D01*
X483900Y226500D02*
Y230100D01*
X483800Y226500D02*
Y230100D01*
X483600Y226500D02*
Y230200D01*
X482600Y222500D02*
Y222600D01*
Y220200D02*
Y220300D01*
Y219700D02*
Y219800D01*
X477800Y208300D02*
Y208400D01*
X477500Y207600D02*
Y207700D01*
X477400Y206500D02*
Y206600D01*
Y206200D02*
Y206300D01*
X471000Y226300D02*
Y226400D01*
X476400Y225900D02*
Y229700D01*
X476300Y225900D02*
Y229600D01*
X476200Y225800D02*
Y229600D01*
X476100Y225800D02*
Y229600D01*
X476000Y225700D02*
Y229500D01*
X475900Y225700D02*
Y229500D01*
X475800Y225600D02*
Y229500D01*
X475700Y225600D02*
Y229500D01*
X475600Y225500D02*
Y229400D01*
X475500Y225400D02*
Y229400D01*
X475400Y225300D02*
Y229300D01*
X475300Y225300D02*
Y229200D01*
X475200Y225300D02*
Y229200D01*
X475100Y225200D02*
Y229200D01*
X475000Y225100D02*
Y229200D01*
X474900Y225000D02*
Y229100D01*
X474800Y225000D02*
Y229100D01*
X474700Y224900D02*
Y229000D01*
X474600Y224800D02*
Y229000D01*
X474500Y224700D02*
Y228900D01*
X474400Y224700D02*
Y228800D01*
X474300Y224600D02*
Y228700D01*
X474200Y224400D02*
Y228800D01*
X474100Y224400D02*
Y228600D01*
X474000Y224300D02*
Y228600D01*
X473900Y224200D02*
Y228600D01*
X473800Y224100D02*
Y228500D01*
X473700Y224000D02*
Y228400D01*
X473600Y223900D02*
Y228300D01*
X473500Y223800D02*
Y228300D01*
X473400Y223700D02*
Y228200D01*
X473300Y223600D02*
Y228100D01*
X473200Y223400D02*
Y228100D01*
X473100Y223400D02*
Y228000D01*
X473000Y223300D02*
Y228000D01*
X471300Y220100D02*
Y220200D01*
X471200Y219800D02*
Y219900D01*
X470800Y217900D02*
Y218100D01*
Y215700D02*
Y215800D01*
X470900Y218400D02*
Y218600D01*
X471500Y212000D02*
Y212900D01*
X471400Y211700D02*
Y213100D01*
X471300Y211400D02*
Y213400D01*
X471200Y211300D02*
Y213800D01*
X471100Y211300D02*
Y214200D01*
X471000Y211200D02*
Y214400D01*
X470900Y211000D02*
Y214900D01*
X467300Y215600D02*
Y218100D01*
X467800Y212800D02*
Y212900D01*
X374000Y212200D02*
Y215500D01*
X363300Y208500D02*
Y223400D01*
X363200Y207700D02*
Y224200D01*
X363100Y206900D02*
Y225000D01*
X363000Y206200D02*
Y225800D01*
X362700Y223300D02*
Y224500D01*
X362600Y207400D02*
Y209000D01*
Y223000D02*
Y224500D01*
X362500Y207100D02*
Y209000D01*
Y222800D02*
Y224500D01*
X362400Y207000D02*
Y209000D01*
Y222700D02*
Y224500D01*
X362300Y206900D02*
Y209000D01*
Y222600D02*
Y224500D01*
X362200Y206800D02*
Y209000D01*
Y222600D02*
Y224500D01*
X362100Y206700D02*
Y208100D01*
Y222500D02*
Y223500D01*
X362000Y206600D02*
Y207600D01*
X361200Y222500D02*
Y223500D01*
X361100Y222600D02*
Y224500D01*
X361000Y222700D02*
Y224500D01*
X360900Y222800D02*
Y224500D01*
X360800Y223000D02*
Y224500D01*
X360700Y222800D02*
Y224500D01*
X360600Y222800D02*
Y224500D01*
X360100Y215500D02*
Y217400D01*
X360000Y215500D02*
Y217400D01*
X359900Y206600D02*
Y207700D01*
Y215400D02*
Y217400D01*
X359800Y206700D02*
Y209000D01*
Y215400D02*
Y217400D01*
Y222700D02*
Y224500D01*
X359700Y206800D02*
Y209000D01*
Y222700D02*
Y224500D01*
X359600Y206900D02*
Y209000D01*
Y222800D02*
Y224500D01*
X359500Y207000D02*
Y209000D01*
Y222900D02*
Y224500D01*
X359400Y207200D02*
Y209000D01*
Y223000D02*
Y224500D01*
X359300Y207400D02*
Y209000D01*
Y223200D02*
Y224500D01*
X359100Y215500D02*
Y216200D01*
X359000Y215500D02*
Y216300D01*
X373900Y212100D02*
Y215600D01*
X373800Y212000D02*
Y215600D01*
X373700Y212000D02*
Y215700D01*
X373600Y212000D02*
Y215700D01*
X373500Y212000D02*
Y215700D01*
X373400Y212000D02*
Y215700D01*
X373300Y212000D02*
Y215700D01*
X373200Y214900D02*
Y215700D01*
X373100Y214900D02*
Y215700D01*
X373000Y214900D02*
Y215700D01*
X372900Y214900D02*
Y215700D01*
X372800Y214900D02*
Y215700D01*
X372700Y214900D02*
Y215700D01*
X372600Y214900D02*
Y215700D01*
X372500Y214900D02*
Y215700D01*
X372400Y214900D02*
Y215700D01*
X372300Y214900D02*
Y215700D01*
X372200Y214900D02*
Y215700D01*
X372100Y214900D02*
Y215700D01*
X372000Y214900D02*
Y215700D01*
X371900Y214900D02*
Y215700D01*
X371800Y214900D02*
Y215700D01*
X371700Y214900D02*
Y215700D01*
X371600Y214900D02*
Y215700D01*
X371500Y214900D02*
Y215700D01*
X371400Y214900D02*
Y215700D01*
X371300Y214900D02*
Y215700D01*
X371200Y214900D02*
Y215700D01*
X371100Y214900D02*
Y215700D01*
Y223100D02*
Y223500D01*
X371000Y214900D02*
Y215700D01*
Y223100D02*
Y223500D01*
X370900Y214900D02*
Y215700D01*
Y223200D02*
Y223600D01*
X370800Y214900D02*
Y215700D01*
Y223200D02*
Y223600D01*
X370700Y214900D02*
Y215700D01*
Y223300D02*
Y223700D01*
X370600Y214900D02*
Y215700D01*
Y223300D02*
Y223700D01*
X370500Y212000D02*
Y215700D01*
Y223400D02*
Y223800D01*
X370400Y212000D02*
Y215700D01*
Y223500D02*
Y223800D01*
X370300Y212000D02*
Y215700D01*
Y223500D02*
Y223900D01*
X370200Y212000D02*
Y215700D01*
Y223100D02*
Y223500D01*
X370100Y212000D02*
Y215700D01*
Y223200D02*
Y224000D01*
X370000Y212000D02*
Y215600D01*
Y223200D02*
Y223600D01*
X369900Y212100D02*
Y215500D01*
Y223300D02*
Y224100D01*
X369800Y223400D02*
Y224100D01*
X369700Y223400D02*
Y224200D01*
X369600Y223500D02*
Y224200D01*
X369200Y207500D02*
Y208200D01*
X369100Y207500D02*
Y208200D01*
X369000Y207400D02*
Y208100D01*
X368900Y207400D02*
Y208000D01*
X368800Y207300D02*
Y208000D01*
X368700Y207300D02*
Y207900D01*
X368600Y207200D02*
Y207800D01*
X368500Y207200D02*
Y207700D01*
X368400Y207100D02*
Y207700D01*
X368300Y207000D02*
Y207600D01*
X368200Y207000D02*
Y207500D01*
X368100Y206900D02*
Y207500D01*
X374800Y211300D02*
Y220700D01*
X374700Y211300D02*
Y220700D01*
X374600Y211200D02*
Y220800D01*
X374500Y211200D02*
Y220800D01*
X366000Y205800D02*
Y206000D01*
X382000Y214400D02*
Y214600D01*
X374000Y210100D02*
Y210500D01*
X366000Y213500D02*
Y213900D01*
X382000Y217500D02*
Y217700D01*
X374000Y216300D02*
Y217100D01*
Y219200D02*
Y220000D01*
Y221500D02*
Y221900D01*
X366000Y218100D02*
Y218400D01*
Y225900D02*
Y226200D01*
X365900Y205800D02*
Y206000D01*
X365800Y205700D02*
Y205900D01*
X365700Y205700D02*
Y205800D01*
X365600Y205600D02*
Y205800D01*
X365500Y205600D02*
Y205700D01*
X365400Y205500D02*
Y205600D01*
X365300Y205400D02*
Y205600D01*
X365200Y205400D02*
Y205500D01*
X365100Y205300D02*
Y205400D01*
X365000Y205300D02*
Y205400D01*
X364900Y205200D02*
Y205300D01*
X364700Y205100D02*
Y205200D01*
X362700Y201600D02*
Y202300D01*
Y203600D02*
Y204200D01*
Y204400D02*
Y206100D01*
X362600Y201600D02*
Y202400D01*
Y203600D02*
Y204200D01*
Y204400D02*
Y206100D01*
X362500Y201700D02*
Y202400D01*
Y203600D02*
Y204200D01*
Y204400D02*
Y206100D01*
X362400Y201800D02*
Y202500D01*
Y203600D02*
Y204200D01*
Y204400D02*
Y206100D01*
X362300Y201800D02*
Y202600D01*
Y203600D02*
Y204200D01*
Y204400D02*
Y206100D01*
X362200Y201900D02*
Y202600D01*
Y203600D02*
Y204200D01*
Y204400D02*
Y206100D01*
X362100Y202000D02*
Y202700D01*
Y203600D02*
Y204200D01*
Y204400D02*
Y206100D01*
X362000Y202000D02*
Y202700D01*
Y203600D02*
Y204200D01*
Y205500D02*
Y206100D01*
X361900Y202100D02*
Y202800D01*
Y203600D02*
Y204200D01*
Y205500D02*
Y206100D01*
Y206600D02*
Y207400D01*
X361800Y202200D02*
Y202900D01*
Y203600D02*
Y204200D01*
Y205500D02*
Y206100D01*
Y206500D02*
Y207300D01*
X361700Y202200D02*
Y202900D01*
Y203600D02*
Y204200D01*
Y205500D02*
Y206100D01*
Y206500D02*
Y207200D01*
X361600Y202300D02*
Y203000D01*
Y203600D02*
Y204200D01*
Y205500D02*
Y206100D01*
Y206400D02*
Y207100D01*
X361500Y202400D02*
Y203100D01*
Y203600D02*
Y204200D01*
Y205500D02*
Y206100D01*
Y206400D02*
Y207100D01*
X361400Y202300D02*
Y203100D01*
Y203600D02*
Y204200D01*
Y205500D02*
Y206100D01*
Y206400D02*
Y207000D01*
X361300Y202100D02*
Y203200D01*
Y203600D02*
Y204200D01*
Y205500D02*
Y206100D01*
Y206400D02*
Y207000D01*
X361200Y202000D02*
Y203300D01*
Y203600D02*
Y204200D01*
Y204900D02*
Y206100D01*
Y206400D02*
Y207000D01*
X361100Y201900D02*
Y203300D01*
Y203600D02*
Y204200D01*
Y204900D02*
Y206100D01*
Y206400D02*
Y207000D01*
X361000Y201800D02*
Y203400D01*
Y203600D02*
Y204200D01*
Y204900D02*
Y206100D01*
Y206400D02*
Y207000D01*
X360900Y201700D02*
Y203400D01*
Y203600D02*
Y204200D01*
Y204900D02*
Y206100D01*
Y206400D02*
Y207000D01*
X360800Y201700D02*
Y202400D01*
Y203600D02*
Y204200D01*
Y204900D02*
Y206100D01*
Y206400D02*
Y207000D01*
X360700Y201600D02*
Y202300D01*
Y203600D02*
Y204200D01*
Y204900D02*
Y206100D01*
Y206400D02*
Y207000D01*
X360600Y201600D02*
Y202300D01*
Y203600D02*
Y204200D01*
Y205500D02*
Y206100D01*
Y206400D02*
Y207000D01*
X360500Y201600D02*
Y202200D01*
Y203600D02*
Y204200D01*
Y205500D02*
Y206100D01*
Y206400D02*
Y207100D01*
X360400Y201600D02*
Y202200D01*
Y203600D02*
Y204200D01*
Y205500D02*
Y206100D01*
Y206400D02*
Y207100D01*
X360300Y201600D02*
Y202200D01*
Y203600D02*
Y204200D01*
Y205500D02*
Y206100D01*
Y206500D02*
Y207200D01*
X360200Y201600D02*
Y202200D01*
Y203600D02*
Y204200D01*
Y205500D02*
Y206100D01*
Y206500D02*
Y207200D01*
X360100Y201600D02*
Y202300D01*
Y203600D02*
Y204200D01*
Y205500D02*
Y206100D01*
Y206500D02*
Y207300D01*
X360000Y201600D02*
Y202300D01*
Y203600D02*
Y204200D01*
Y205500D02*
Y206100D01*
Y206600D02*
Y207400D01*
X359900Y201700D02*
Y202400D01*
Y203600D02*
Y204200D01*
Y205500D02*
Y206100D01*
X359800Y201700D02*
Y204200D01*
Y204400D02*
Y206100D01*
X359700Y201700D02*
Y204200D01*
Y204400D02*
Y206100D01*
X359600Y201800D02*
Y204200D01*
Y204400D02*
Y206100D01*
X359500Y201900D02*
Y204200D01*
Y204400D02*
Y206100D01*
X359400Y202000D02*
Y204200D01*
Y204400D02*
Y206100D01*
X359300Y202200D02*
Y204200D01*
Y204400D02*
Y206100D01*
X359200Y204400D02*
Y206100D01*
X368000Y206900D02*
Y207400D01*
X367900Y206800D02*
Y207300D01*
X367800Y206800D02*
Y207300D01*
X367700Y206700D02*
Y207200D01*
X367600Y206700D02*
Y207100D01*
X367500Y206600D02*
Y207100D01*
X367400Y206600D02*
Y207000D01*
X367300Y206500D02*
Y206900D01*
X367200Y206500D02*
Y206900D01*
X367100Y206400D02*
Y206800D01*
X367000Y206400D02*
Y206700D01*
X366900Y206300D02*
Y206700D01*
X366800Y206200D02*
Y206600D01*
X366700Y206200D02*
Y206500D01*
X366600Y206100D02*
Y206500D01*
X366500Y206100D02*
Y206400D01*
X366400Y206000D02*
Y206300D01*
X366300Y206000D02*
Y206200D01*
X366200Y205900D02*
Y206200D01*
X366100Y205900D02*
Y206100D01*
X365900Y213600D02*
Y214000D01*
X365800Y213600D02*
Y214000D01*
X365700Y213700D02*
Y214100D01*
X365600Y213800D02*
Y214100D01*
X365500Y213800D02*
Y214200D01*
X365400Y213900D02*
Y214200D01*
X365300Y213900D02*
Y214300D01*
X365200Y214000D02*
Y214300D01*
X365100Y214000D02*
Y214400D01*
X365000Y214100D02*
Y214400D01*
X364900Y214100D02*
Y214500D01*
X364800Y214200D02*
Y214600D01*
X364700Y214200D02*
Y214600D01*
X364600Y214300D02*
Y214700D01*
X364500Y214300D02*
Y214700D01*
X364400Y214400D02*
Y214800D01*
X364300Y214400D02*
Y214800D01*
X364200Y214500D02*
Y214900D01*
X364100Y214500D02*
Y214900D01*
X364000Y214300D02*
Y215000D01*
X363900Y213500D02*
Y215000D01*
X363800Y212700D02*
Y215100D01*
X363700Y211800D02*
Y214600D01*
X363600Y211000D02*
Y213800D01*
X363500Y210200D02*
Y212900D01*
X363400Y209400D02*
Y212100D01*
X362700Y207800D02*
Y209000D01*
Y209100D02*
Y209800D01*
Y211200D02*
Y211800D01*
Y212200D02*
Y212500D01*
Y212700D02*
Y213400D01*
Y214700D02*
Y215300D01*
X362600Y209100D02*
Y209900D01*
Y211200D02*
Y211800D01*
Y212200D02*
Y213500D01*
Y214700D02*
Y215300D01*
X362500Y209100D02*
Y209900D01*
Y211200D02*
Y211800D01*
Y212200D02*
Y213500D01*
Y214700D02*
Y215300D01*
X362400Y209100D02*
Y210000D01*
Y211200D02*
Y211800D01*
Y212100D02*
Y212800D01*
Y212900D02*
Y213600D01*
Y214700D02*
Y215300D01*
X362300Y209100D02*
Y210000D01*
Y211200D02*
Y211800D01*
Y212100D02*
Y212700D01*
Y212900D02*
Y213700D01*
Y214700D02*
Y215300D01*
X362200Y209100D02*
Y210100D01*
Y211200D02*
Y211800D01*
Y212100D02*
Y212700D01*
Y213000D02*
Y213700D01*
Y214700D02*
Y215300D01*
X362100Y208300D02*
Y209000D01*
Y209100D02*
Y210100D01*
Y211200D02*
Y211800D01*
Y212100D02*
Y212700D01*
Y213100D02*
Y213800D01*
Y214700D02*
Y215300D01*
X362000Y208300D02*
Y209000D01*
Y209100D02*
Y210200D01*
Y211200D02*
Y211800D01*
Y212100D02*
Y212700D01*
Y213100D02*
Y213900D01*
Y214700D02*
Y215300D01*
X361900Y208300D02*
Y209000D01*
Y209100D02*
Y210300D01*
Y211200D02*
Y211800D01*
Y212100D02*
Y212700D01*
Y213200D02*
Y213900D01*
Y214700D02*
Y215300D01*
X361800Y208300D02*
Y209000D01*
Y209100D02*
Y210300D01*
Y211200D02*
Y211800D01*
Y212000D02*
Y212700D01*
Y213300D02*
Y214000D01*
Y214700D02*
Y215300D01*
X361700Y208300D02*
Y209000D01*
Y209100D02*
Y210400D01*
Y211200D02*
Y211800D01*
Y212000D02*
Y212600D01*
Y213300D02*
Y214000D01*
Y214700D02*
Y215300D01*
X361600Y208300D02*
Y209000D01*
Y209100D02*
Y210400D01*
Y211200D02*
Y211800D01*
Y212000D02*
Y212600D01*
Y213400D02*
Y214100D01*
Y214700D02*
Y215300D01*
X361500Y208300D02*
Y209000D01*
Y209100D02*
Y209800D01*
Y209900D02*
Y210500D01*
Y211200D02*
Y211800D01*
Y212000D02*
Y212600D01*
Y213500D02*
Y214200D01*
Y214700D02*
Y215300D01*
X361400Y208300D02*
Y209000D01*
Y209100D02*
Y209800D01*
Y209900D02*
Y210500D01*
Y211200D02*
Y211800D01*
Y212000D02*
Y212600D01*
Y213400D02*
Y214200D01*
Y214700D02*
Y215300D01*
X361300Y208300D02*
Y209000D01*
Y209100D02*
Y209800D01*
Y210000D02*
Y210600D01*
Y211200D02*
Y211800D01*
Y212000D02*
Y212600D01*
Y213200D02*
Y214300D01*
Y214700D02*
Y215300D01*
X361200Y208300D02*
Y209000D01*
Y209100D02*
Y209800D01*
Y210000D02*
Y210600D01*
Y211200D02*
Y211800D01*
Y212000D02*
Y212600D01*
Y213100D02*
Y214400D01*
Y214700D02*
Y215300D01*
X361100Y208300D02*
Y209000D01*
Y209100D02*
Y209800D01*
Y210100D02*
Y210700D01*
Y211200D02*
Y211800D01*
Y211900D02*
Y212600D01*
Y213000D02*
Y214400D01*
Y214700D02*
Y215300D01*
X361000Y208300D02*
Y209000D01*
Y209100D02*
Y209800D01*
Y210100D02*
Y210700D01*
Y211200D02*
Y211800D01*
Y211900D02*
Y212500D01*
Y212900D02*
Y214500D01*
Y214700D02*
Y215300D01*
X360900Y208300D02*
Y209000D01*
Y209100D02*
Y209800D01*
Y210200D02*
Y210800D01*
Y211200D02*
Y211800D01*
Y211900D02*
Y212500D01*
Y212800D02*
Y214600D01*
Y214700D02*
Y215300D01*
X360800Y208300D02*
Y209000D01*
Y209100D02*
Y209800D01*
Y210200D02*
Y210800D01*
Y211200D02*
Y211800D01*
Y211900D02*
Y212500D01*
Y212800D02*
Y213500D01*
Y214700D02*
Y215300D01*
X360700Y208300D02*
Y209000D01*
Y209100D02*
Y209800D01*
Y210300D02*
Y210900D01*
Y211200D02*
Y211800D01*
Y211900D02*
Y212500D01*
Y212800D02*
Y213400D01*
Y214700D02*
Y215300D01*
X360600Y208300D02*
Y209000D01*
Y209100D02*
Y209800D01*
Y210300D02*
Y210900D01*
Y211200D02*
Y211800D01*
Y211900D02*
Y212500D01*
Y212700D02*
Y213400D01*
Y214700D02*
Y215300D01*
X360500Y208300D02*
Y209000D01*
Y209100D02*
Y209800D01*
Y210400D02*
Y211000D01*
Y211200D02*
Y211800D01*
Y211900D02*
Y212500D01*
Y212700D02*
Y213300D01*
Y214700D02*
Y215300D01*
X360400Y208300D02*
Y209000D01*
Y209100D02*
Y209800D01*
Y210500D02*
Y211000D01*
Y211200D02*
Y212500D01*
Y212700D02*
Y213300D01*
Y214700D02*
Y215300D01*
X360300Y208300D02*
Y209000D01*
Y209100D02*
Y209800D01*
Y210500D02*
Y211100D01*
Y211200D02*
Y212400D01*
Y212700D02*
Y213300D01*
Y214700D02*
Y215300D01*
X360200Y208300D02*
Y209000D01*
Y209100D02*
Y209800D01*
Y210600D02*
Y211100D01*
Y211200D02*
Y212400D01*
Y212700D02*
Y213300D01*
Y214700D02*
Y215300D01*
X360100Y208300D02*
Y209000D01*
Y209100D02*
Y209800D01*
Y210600D02*
Y212400D01*
Y212700D02*
Y213400D01*
Y214700D02*
Y215300D01*
X360000Y208300D02*
Y209000D01*
Y209100D02*
Y209800D01*
Y210700D02*
Y212400D01*
Y212700D02*
Y213400D01*
Y214700D02*
Y215300D01*
X359900Y208300D02*
Y209000D01*
Y209100D02*
Y209800D01*
Y210700D02*
Y212400D01*
Y212800D02*
Y213600D01*
Y214700D02*
Y215300D01*
X359800Y209100D02*
Y209800D01*
Y210800D02*
Y212400D01*
Y212800D02*
Y215300D01*
X359700Y209100D02*
Y209800D01*
Y210800D02*
Y212300D01*
Y212900D02*
Y215300D01*
X359600Y209100D02*
Y209800D01*
Y210900D02*
Y212300D01*
Y212900D02*
Y215300D01*
X359500Y209100D02*
Y209800D01*
Y210900D02*
Y212300D01*
Y213000D02*
Y215300D01*
X359400Y209100D02*
Y209800D01*
Y211000D02*
Y212300D01*
Y213100D02*
Y215300D01*
X359300Y209100D02*
Y209800D01*
Y211000D02*
Y212300D01*
Y213300D02*
Y215300D01*
X359200Y209100D02*
Y209800D01*
Y211100D02*
Y211800D01*
Y212100D02*
Y212300D01*
X373900Y210000D02*
Y210400D01*
X373800Y210000D02*
Y210400D01*
X373700Y209900D02*
Y210300D01*
X373600Y209900D02*
Y210300D01*
X373500Y209800D02*
Y210200D01*
X373400Y209800D02*
Y210100D01*
X373300Y209700D02*
Y210100D01*
X373200Y209700D02*
Y210000D01*
Y212000D02*
Y212800D01*
X373100Y209600D02*
Y210000D01*
Y212000D02*
Y212800D01*
X373000Y209600D02*
Y209900D01*
Y212000D02*
Y212800D01*
X372900Y209500D02*
Y209900D01*
Y212000D02*
Y212800D01*
X372800Y209500D02*
Y209800D01*
Y212000D02*
Y212800D01*
X372700Y209400D02*
Y209800D01*
Y210200D02*
Y210400D01*
Y212000D02*
Y212800D01*
X372600Y209300D02*
Y209700D01*
Y210100D02*
Y210400D01*
Y212000D02*
Y212800D01*
X372500Y209300D02*
Y209700D01*
Y210100D02*
Y210500D01*
Y212000D02*
Y212800D01*
X372400Y209200D02*
Y209600D01*
Y210000D02*
Y210500D01*
Y212000D02*
Y213800D01*
X372300Y209200D02*
Y209600D01*
Y209900D02*
Y210600D01*
Y212000D02*
Y213800D01*
X372200Y209100D02*
Y209500D01*
Y209900D02*
Y210600D01*
Y212000D02*
Y213800D01*
X372100Y209100D02*
Y209500D01*
Y209800D02*
Y210200D01*
Y210300D02*
Y210700D01*
Y212000D02*
Y213800D01*
X372000Y209000D02*
Y209400D01*
Y209700D02*
Y210100D01*
Y210400D02*
Y210700D01*
Y212000D02*
Y213900D01*
X371900Y209000D02*
Y209300D01*
Y209700D02*
Y210100D01*
Y210400D02*
Y210800D01*
Y212000D02*
Y213900D01*
X371800Y208900D02*
Y209300D01*
Y209600D02*
Y210000D01*
Y210500D02*
Y210800D01*
Y212000D02*
Y213900D01*
X371700Y208900D02*
Y209200D01*
Y209500D02*
Y209900D01*
Y210500D02*
Y210900D01*
Y212000D02*
Y213900D01*
X371600Y208800D02*
Y209200D01*
Y209500D02*
Y209900D01*
Y210600D02*
Y210900D01*
Y212000D02*
Y213900D01*
X371500Y208800D02*
Y209100D01*
Y209400D02*
Y209800D01*
Y210600D02*
Y211000D01*
X371400Y208700D02*
Y209100D01*
Y209300D02*
Y209700D01*
Y210700D02*
Y211000D01*
X371300Y208700D02*
Y209000D01*
Y209300D02*
Y209700D01*
Y210700D02*
Y211100D01*
X371200Y208600D02*
Y209000D01*
Y209200D02*
Y209600D01*
Y210800D02*
Y211200D01*
X371100Y208500D02*
Y208900D01*
Y209100D02*
Y209500D01*
Y210800D02*
Y211200D01*
X371000Y208500D02*
Y208900D01*
Y209100D02*
Y209500D01*
Y210900D02*
Y211300D01*
Y212000D02*
Y212800D01*
X370900Y208400D02*
Y208800D01*
Y209000D02*
Y209400D01*
Y210900D02*
Y211300D01*
Y212000D02*
Y212800D01*
X370800Y208400D02*
Y208800D01*
Y208900D02*
Y209300D01*
Y211000D02*
Y211400D01*
Y212000D02*
Y212800D01*
X370700Y208300D02*
Y208700D01*
Y208800D02*
Y209200D01*
Y211000D02*
Y211400D01*
Y212000D02*
Y212800D01*
X370600Y208300D02*
Y208700D01*
Y208800D02*
Y209200D01*
Y211100D02*
Y211500D01*
Y212000D02*
Y212800D01*
X370500Y208200D02*
Y208600D01*
Y208700D02*
Y209100D01*
Y211200D02*
Y211500D01*
X370400Y208200D02*
Y208500D01*
Y208600D02*
Y209000D01*
Y211200D02*
Y211600D01*
X370300Y208100D02*
Y208500D01*
Y208600D02*
Y209000D01*
Y211300D02*
Y211600D01*
X370200Y208100D02*
Y208400D01*
Y208500D02*
Y208900D01*
Y211300D02*
Y211700D01*
X370100Y208000D02*
Y208800D01*
Y211400D02*
Y211700D01*
X370000Y208000D02*
Y208300D01*
Y208400D02*
Y208800D01*
Y211400D02*
Y211800D01*
X369900Y207900D02*
Y208700D01*
Y211500D02*
Y211800D01*
X369800Y207900D02*
Y208600D01*
Y211500D02*
Y211900D01*
Y212200D02*
Y215400D01*
X369700Y207800D02*
Y208600D01*
Y211600D02*
Y212000D01*
Y212300D02*
Y215400D01*
X369600Y207700D02*
Y208500D01*
Y211600D02*
Y212000D01*
X369500Y207700D02*
Y208400D01*
Y211700D02*
Y212100D01*
X369400Y207600D02*
Y208400D01*
Y211700D02*
Y212100D01*
X369300Y207600D02*
Y208300D01*
Y211800D02*
Y212200D01*
X369200Y211800D02*
Y212200D01*
X369100Y211900D02*
Y212300D01*
X369000Y211900D02*
Y212300D01*
X368900Y212000D02*
Y212400D01*
X368800Y212100D02*
Y212400D01*
X368700Y212100D02*
Y212500D01*
X368600Y212200D02*
Y212500D01*
X368500Y212200D02*
Y212600D01*
X368400Y212300D02*
Y212600D01*
X368300Y212300D02*
Y212700D01*
X368200Y212400D02*
Y212700D01*
X368100Y212400D02*
Y212800D01*
X368000Y212500D02*
Y212900D01*
X367900Y212500D02*
Y212900D01*
X367800Y212600D02*
Y213000D01*
X367700Y212600D02*
Y213000D01*
X367600Y212700D02*
Y213100D01*
X367500Y212700D02*
Y213100D01*
X367400Y212800D02*
Y213200D01*
X367300Y212800D02*
Y213200D01*
X367200Y212900D02*
Y213300D01*
X367100Y213000D02*
Y213300D01*
X367000Y213000D02*
Y213400D01*
X366900Y213100D02*
Y213400D01*
X366800Y213100D02*
Y213500D01*
X366700Y213200D02*
Y213500D01*
X366600Y213200D02*
Y213600D01*
X366500Y213300D02*
Y213600D01*
X366400Y213300D02*
Y213700D01*
X366300Y213400D02*
Y213800D01*
X366200Y213400D02*
Y213800D01*
X366100Y213500D02*
Y213900D01*
X381900Y214300D02*
Y214500D01*
X381800Y214300D02*
Y214500D01*
X381700Y214200D02*
Y214400D01*
X381600Y214200D02*
Y214400D01*
X381500Y214100D02*
Y214400D01*
X381400Y214000D02*
Y214300D01*
X381300Y214000D02*
Y214300D01*
X381200Y213900D02*
Y214200D01*
X381100Y213900D02*
Y214200D01*
X381000Y213800D02*
Y214200D01*
X380900Y213800D02*
Y214100D01*
X380800Y213700D02*
Y214100D01*
X380700Y213700D02*
Y214000D01*
X380600Y213600D02*
Y214000D01*
X380500Y213600D02*
Y214000D01*
X380400Y213500D02*
Y213900D01*
X380300Y213500D02*
Y213900D01*
X380200Y213400D02*
Y213800D01*
X380100Y213300D02*
Y213800D01*
X380000Y213300D02*
Y213800D01*
X379900Y213200D02*
Y213700D01*
X379800Y213200D02*
Y213700D01*
X379700Y213100D02*
Y213600D01*
X379600Y213100D02*
Y213600D01*
X379500Y213000D02*
Y213600D01*
X379400Y213000D02*
Y213500D01*
X379300Y212900D02*
Y213500D01*
X379200Y212900D02*
Y213400D01*
X379100Y212800D02*
Y213400D01*
X379000Y212800D02*
Y213400D01*
X378900Y212700D02*
Y213300D01*
X378800Y212700D02*
Y213300D01*
X378700Y212600D02*
Y213200D01*
X378600Y212500D02*
Y213200D01*
X378500Y212500D02*
Y213200D01*
X378400Y212400D02*
Y213100D01*
X378300Y212400D02*
Y213100D01*
X378200Y212300D02*
Y213000D01*
X378100Y212300D02*
Y213000D01*
X378000Y212200D02*
Y213000D01*
X377900Y212200D02*
Y212500D01*
Y212600D02*
Y212900D01*
X377800Y212100D02*
Y212900D01*
X377700Y212100D02*
Y212400D01*
Y212500D02*
Y212800D01*
X377600Y212000D02*
Y212800D01*
X377500Y212000D02*
Y212300D01*
Y212400D02*
Y212800D01*
X377400Y211900D02*
Y212300D01*
Y212400D02*
Y212700D01*
X377300Y211900D02*
Y212200D01*
Y212300D02*
Y212700D01*
X377200Y211800D02*
Y212200D01*
Y212300D02*
Y212600D01*
X377100Y211700D02*
Y212100D01*
Y212200D02*
Y212600D01*
X377000Y211700D02*
Y212100D01*
Y212200D02*
Y212600D01*
X376900Y211600D02*
Y212000D01*
Y212200D02*
Y212500D01*
X376800Y211600D02*
Y212000D01*
Y212100D02*
Y212500D01*
X376700Y211500D02*
Y211900D01*
Y212100D02*
Y212400D01*
X376600Y211500D02*
Y211900D01*
Y212000D02*
Y212400D01*
X376500Y211400D02*
Y211800D01*
Y212000D02*
Y212300D01*
X376400Y211400D02*
Y211700D01*
Y212000D02*
Y212300D01*
X376300Y211300D02*
Y211700D01*
Y211900D02*
Y212300D01*
X376200Y211300D02*
Y211600D01*
Y211900D02*
Y212200D01*
X376100Y211200D02*
Y211600D01*
Y211800D02*
Y212200D01*
X376000Y211200D02*
Y211500D01*
Y211800D02*
Y212100D01*
X375900Y211100D02*
Y211500D01*
Y211800D02*
Y212100D01*
X375800Y211100D02*
Y211400D01*
Y211700D02*
Y212100D01*
X375700Y211000D02*
Y211400D01*
Y211700D02*
Y212000D01*
X375600Y210900D02*
Y211300D01*
Y211600D02*
Y212000D01*
X375500Y210900D02*
Y211300D01*
Y211600D02*
Y211900D01*
X375400Y210800D02*
Y211200D01*
Y211600D02*
Y211900D01*
X375300Y210800D02*
Y211200D01*
Y211500D02*
Y211900D01*
X375200Y210700D02*
Y211100D01*
Y211500D02*
Y211800D01*
X375100Y210700D02*
Y211100D01*
Y211400D02*
Y211800D01*
X375000Y210600D02*
Y211000D01*
Y211400D02*
Y211700D01*
X374900Y210600D02*
Y210900D01*
Y211400D02*
Y211700D01*
X374800Y210500D02*
Y210900D01*
X374700Y210500D02*
Y210800D01*
X374600Y210400D02*
Y210800D01*
X374500Y210400D02*
Y210700D01*
X374400Y210300D02*
Y210700D01*
X374300Y210300D02*
Y210600D01*
X374200Y210200D02*
Y210600D01*
X374100Y210100D02*
Y210500D01*
Y212300D02*
Y215400D01*
X383200Y215000D02*
Y215100D01*
X383000Y214900D02*
Y215000D01*
X382900Y214800D02*
Y214900D01*
X382800Y214800D02*
Y214900D01*
X382700Y214700D02*
Y214900D01*
X382600Y214700D02*
Y214800D01*
X382500Y214600D02*
Y214800D01*
X382400Y214600D02*
Y214700D01*
X382300Y214500D02*
Y214700D01*
X382200Y214500D02*
Y214600D01*
X382100Y214400D02*
Y214600D01*
X365900Y218000D02*
Y218400D01*
X365800Y218000D02*
Y218300D01*
X365700Y217900D02*
Y218300D01*
X365600Y217900D02*
Y218200D01*
X365500Y217800D02*
Y218200D01*
X365400Y217800D02*
Y218100D01*
X365300Y217700D02*
Y218100D01*
X365200Y217600D02*
Y218000D01*
X365100Y217600D02*
Y218000D01*
X365000Y217500D02*
Y217900D01*
X364900Y217500D02*
Y217900D01*
X364800Y217400D02*
Y217800D01*
X364700Y217400D02*
Y217800D01*
X364600Y217300D02*
Y217700D01*
X364500Y217300D02*
Y217700D01*
X364400Y217200D02*
Y217600D01*
X364300Y217200D02*
Y217500D01*
X364200Y217100D02*
Y217500D01*
X364100Y217100D02*
Y217400D01*
X364000Y217000D02*
Y217700D01*
X363900Y217000D02*
Y218500D01*
X363800Y216900D02*
Y219300D01*
X363700Y217400D02*
Y220100D01*
X363600Y218200D02*
Y220900D01*
X363500Y219000D02*
Y221700D01*
X363400Y219800D02*
Y222500D01*
X362700Y220300D02*
Y220900D01*
X362600Y220000D02*
Y221200D01*
X362500Y219800D02*
Y221400D01*
X362400Y219700D02*
Y221500D01*
X362300Y219600D02*
Y221700D01*
X362200Y219500D02*
Y221800D01*
X362100Y219400D02*
Y220400D01*
Y220800D02*
Y221900D01*
X362000Y219300D02*
Y220200D01*
Y221100D02*
Y221900D01*
Y222500D02*
Y223200D01*
X361900Y219200D02*
Y220000D01*
Y221200D02*
Y222000D01*
Y222500D02*
Y223100D01*
X361800Y219200D02*
Y219900D01*
Y221300D02*
Y222000D01*
Y222400D02*
Y223100D01*
X361700Y219100D02*
Y219800D01*
Y221400D02*
Y222100D01*
Y222400D02*
Y223100D01*
X361600Y219100D02*
Y219700D01*
Y221500D02*
Y222100D01*
Y222400D02*
Y223100D01*
X361500Y216500D02*
Y217500D01*
Y219100D02*
Y219700D01*
Y221500D02*
Y222200D01*
Y222400D02*
Y223100D01*
X361400Y216400D02*
Y217700D01*
Y219000D02*
Y219700D01*
Y221600D02*
Y222200D01*
Y222500D02*
Y223100D01*
X361300Y216300D02*
Y217900D01*
Y219000D02*
Y219600D01*
Y221600D02*
Y222200D01*
Y222500D02*
Y223200D01*
X361200Y216200D02*
Y218000D01*
Y219000D02*
Y219600D01*
Y221600D02*
Y222200D01*
X361100Y216200D02*
Y218100D01*
Y219000D02*
Y219600D01*
Y221600D02*
Y222200D01*
X361000Y216100D02*
Y218200D01*
Y219000D02*
Y219600D01*
Y221600D02*
Y222200D01*
X360900Y216000D02*
Y216700D01*
Y217400D02*
Y218300D01*
Y219000D02*
Y219600D01*
Y221600D02*
Y222200D01*
X360800Y216000D02*
Y216700D01*
Y217600D02*
Y218400D01*
Y219000D02*
Y219600D01*
Y221600D02*
Y222200D01*
X360700Y215900D02*
Y216600D01*
Y217700D02*
Y218400D01*
Y219000D02*
Y219600D01*
Y221600D02*
Y222200D01*
X360600Y215900D02*
Y216500D01*
Y217800D02*
Y218500D01*
Y219000D02*
Y219600D01*
Y221600D02*
Y222200D01*
X360500Y215800D02*
Y216500D01*
Y217900D02*
Y218500D01*
Y219000D02*
Y219700D01*
Y221600D02*
Y222200D01*
Y222700D02*
Y223400D01*
X360400Y215700D02*
Y216400D01*
Y217900D02*
Y218600D01*
Y219100D02*
Y219700D01*
Y221500D02*
Y222200D01*
Y222700D02*
Y223300D01*
X360300Y215700D02*
Y217400D01*
Y218000D02*
Y218600D01*
Y219100D02*
Y219800D01*
Y221500D02*
Y222100D01*
Y222600D02*
Y223300D01*
X360200Y215600D02*
Y217400D01*
Y218000D02*
Y218600D01*
Y219100D02*
Y219800D01*
Y221400D02*
Y222100D01*
Y222600D02*
Y223200D01*
X360100Y218000D02*
Y218600D01*
Y219200D02*
Y219900D01*
Y221300D02*
Y222000D01*
Y222600D02*
Y223200D01*
X360000Y218100D02*
Y218700D01*
Y219200D02*
Y220000D01*
Y221200D02*
Y222000D01*
Y222600D02*
Y223300D01*
X359900Y218100D02*
Y218700D01*
Y219300D02*
Y220200D01*
Y221000D02*
Y221900D01*
Y222700D02*
Y223400D01*
X359800Y218100D02*
Y218700D01*
Y219400D02*
Y221800D01*
X359700Y218100D02*
Y218700D01*
Y219500D02*
Y221700D01*
X359600Y218100D02*
Y218600D01*
Y219600D02*
Y221600D01*
X359500Y218000D02*
Y218600D01*
Y219700D02*
Y221500D01*
X359400Y218000D02*
Y218600D01*
Y219900D02*
Y221400D01*
X359300Y218000D02*
Y218600D01*
Y220100D02*
Y221100D01*
X359200Y217900D02*
Y218600D01*
X359100Y217800D02*
Y218500D01*
X359000Y217800D02*
Y218500D01*
X358900Y215600D02*
Y216400D01*
Y217700D02*
Y218400D01*
X358800Y215700D02*
Y216500D01*
Y217500D02*
Y218300D01*
X358700Y215700D02*
Y216800D01*
Y217300D02*
Y218300D01*
X358600Y215800D02*
Y218200D01*
X358500Y215900D02*
Y218100D01*
X358400Y216000D02*
Y218000D01*
X358300Y216200D02*
Y217800D01*
X358200Y216400D02*
Y217600D01*
X358100Y216700D02*
Y217300D01*
X373900Y216300D02*
Y217100D01*
Y219200D02*
Y220000D01*
Y221600D02*
Y222000D01*
X373800Y216300D02*
Y217100D01*
Y219200D02*
Y220000D01*
Y221600D02*
Y222000D01*
X373700Y216300D02*
Y217200D01*
Y219200D02*
Y220000D01*
Y221700D02*
Y222100D01*
X373600Y216300D02*
Y217300D01*
Y219200D02*
Y220000D01*
Y221800D02*
Y222100D01*
X373500Y216300D02*
Y217300D01*
Y219200D02*
Y220000D01*
Y221800D02*
Y222200D01*
X373400Y216300D02*
Y217400D01*
Y219200D02*
Y220000D01*
Y221900D02*
Y222200D01*
X373300Y216300D02*
Y217500D01*
Y219200D02*
Y220000D01*
Y221900D02*
Y222300D01*
X373200Y216300D02*
Y217600D01*
Y219200D02*
Y220000D01*
Y222000D02*
Y222300D01*
X373100Y216400D02*
Y217700D01*
Y219200D02*
Y220000D01*
Y222000D02*
Y222400D01*
X373000Y216500D02*
Y217800D01*
Y219200D02*
Y220000D01*
Y222100D02*
Y222400D01*
X372900Y216600D02*
Y217900D01*
Y219200D02*
Y220000D01*
Y222100D02*
Y222500D01*
X372800Y216700D02*
Y220000D01*
Y222200D02*
Y222600D01*
X372700Y216600D02*
Y220000D01*
Y221700D02*
Y221800D01*
Y222200D02*
Y222600D01*
X372600Y216500D02*
Y220000D01*
Y221600D02*
Y221900D01*
Y222300D02*
Y222700D01*
X372500Y216400D02*
Y220000D01*
Y221500D02*
Y221900D01*
Y222300D02*
Y222700D01*
X372400Y216300D02*
Y220000D01*
Y221500D02*
Y222000D01*
Y222400D02*
Y222800D01*
X372300Y216300D02*
Y220000D01*
Y221400D02*
Y222100D01*
Y222400D02*
Y222800D01*
X372200Y216300D02*
Y220000D01*
Y221400D02*
Y222100D01*
Y222500D02*
Y222900D01*
X372100Y216300D02*
Y220000D01*
Y221300D02*
Y221700D01*
Y221800D02*
Y222200D01*
Y222500D02*
Y222900D01*
X372000Y216300D02*
Y220000D01*
Y221300D02*
Y221700D01*
Y221900D02*
Y222300D01*
Y222600D02*
Y223000D01*
X371900Y216300D02*
Y217100D01*
Y219200D02*
Y220000D01*
Y221200D02*
Y221600D01*
Y221900D02*
Y222300D01*
Y222700D02*
Y223000D01*
X371800Y216300D02*
Y217100D01*
Y219200D02*
Y220000D01*
Y221200D02*
Y221500D01*
Y222000D02*
Y222400D01*
Y222700D02*
Y223100D01*
X371700Y216300D02*
Y217100D01*
Y219200D02*
Y220000D01*
Y221100D02*
Y221500D01*
Y222100D02*
Y222500D01*
Y222800D02*
Y223100D01*
X371600Y216300D02*
Y217100D01*
Y219200D02*
Y220000D01*
Y221100D02*
Y221400D01*
Y222100D02*
Y222500D01*
Y222800D02*
Y223200D01*
X371500Y216300D02*
Y217100D01*
Y219200D02*
Y220000D01*
Y221000D02*
Y221400D01*
Y222200D02*
Y222600D01*
Y222900D02*
Y223200D01*
X371400Y216300D02*
Y217100D01*
Y219200D02*
Y220000D01*
Y221000D02*
Y221300D01*
Y222300D02*
Y222700D01*
Y222900D02*
Y223300D01*
X371300Y216300D02*
Y217100D01*
Y219200D02*
Y220000D01*
Y220900D02*
Y221300D01*
Y222300D02*
Y222700D01*
Y223000D02*
Y223300D01*
X371200Y216300D02*
Y217100D01*
Y219200D02*
Y220000D01*
Y220900D02*
Y221200D01*
Y222400D02*
Y222800D01*
Y223000D02*
Y223400D01*
X371100Y216300D02*
Y217100D01*
Y219200D02*
Y220000D01*
Y220800D02*
Y221200D01*
Y222500D02*
Y222900D01*
X371000Y216300D02*
Y217100D01*
Y219200D02*
Y220000D01*
Y220700D02*
Y221100D01*
Y222500D02*
Y222900D01*
X370900Y216300D02*
Y217100D01*
Y219200D02*
Y220000D01*
Y220700D02*
Y221100D01*
Y222600D02*
Y223000D01*
X370800Y216300D02*
Y217100D01*
Y219200D02*
Y220000D01*
Y220600D02*
Y221000D01*
Y222700D02*
Y223100D01*
X370700Y216300D02*
Y217100D01*
Y219200D02*
Y220000D01*
Y220600D02*
Y221000D01*
Y222700D02*
Y223100D01*
X370600Y216300D02*
Y217100D01*
Y219200D02*
Y220000D01*
Y220500D02*
Y220900D01*
Y222800D02*
Y223200D01*
X370500Y216300D02*
Y220000D01*
Y220500D02*
Y220900D01*
Y222900D02*
Y223300D01*
X370400Y216300D02*
Y220000D01*
Y220400D02*
Y220800D01*
Y223000D02*
Y223300D01*
X370300Y216300D02*
Y220000D01*
Y220400D02*
Y220700D01*
Y223000D02*
Y223400D01*
X370200Y216300D02*
Y220000D01*
Y220300D02*
Y220700D01*
X370100Y216300D02*
Y220000D01*
Y220300D02*
Y220600D01*
X370000Y216400D02*
Y220000D01*
Y220200D02*
Y220600D01*
X369900Y216500D02*
Y220000D01*
Y220200D02*
Y220500D01*
X369800Y216600D02*
Y220000D01*
Y220100D02*
Y220500D01*
X369700Y216600D02*
Y220000D01*
Y220100D02*
Y220400D01*
X369600Y220000D02*
Y220400D01*
X369500Y219900D02*
Y220300D01*
X369400Y219900D02*
Y220300D01*
X369300Y219800D02*
Y220200D01*
X369200Y219800D02*
Y220200D01*
X369100Y219700D02*
Y220100D01*
X369000Y219700D02*
Y220100D01*
X368900Y219600D02*
Y220000D01*
X368800Y219600D02*
Y219900D01*
X368700Y219500D02*
Y219900D01*
X368600Y219500D02*
Y219800D01*
X368500Y219400D02*
Y219800D01*
X368400Y219400D02*
Y219700D01*
X368300Y219300D02*
Y219700D01*
X368200Y219300D02*
Y219600D01*
X368100Y219200D02*
Y219600D01*
X368000Y219100D02*
Y219500D01*
X367900Y219100D02*
Y219500D01*
X367800Y219000D02*
Y219400D01*
X367700Y219000D02*
Y219400D01*
X367600Y218900D02*
Y219300D01*
X367500Y218900D02*
Y219300D01*
X367400Y218800D02*
Y219200D01*
X367300Y218800D02*
Y219100D01*
X367200Y218700D02*
Y219100D01*
X367100Y218700D02*
Y219000D01*
X367000Y218600D02*
Y219000D01*
X366900Y218600D02*
Y218900D01*
X366800Y218500D02*
Y218900D01*
X366700Y218500D02*
Y218800D01*
X366600Y218400D02*
Y218800D01*
X366500Y218300D02*
Y218700D01*
X366400Y218300D02*
Y218700D01*
X366300Y218200D02*
Y218600D01*
X366200Y218200D02*
Y218600D01*
X366100Y218100D02*
Y218500D01*
X381900Y217500D02*
Y217700D01*
X381800Y217500D02*
Y217800D01*
X381700Y217600D02*
Y217800D01*
X381600Y217600D02*
Y217900D01*
X381500Y217700D02*
Y217900D01*
X381400Y217700D02*
Y218000D01*
X381300Y217700D02*
Y218000D01*
X381200Y217800D02*
Y218100D01*
X381100Y217800D02*
Y218100D01*
X381000Y217900D02*
Y218200D01*
X380900Y217900D02*
Y218300D01*
X380800Y217900D02*
Y218300D01*
X380700Y218000D02*
Y218400D01*
X380600Y218000D02*
Y218400D01*
X380500Y218100D02*
Y218500D01*
X380400Y218100D02*
Y218500D01*
X380300Y218100D02*
Y218600D01*
X380200Y218200D02*
Y218600D01*
X380100Y218200D02*
Y218700D01*
X380000Y218300D02*
Y218700D01*
X379900Y218300D02*
Y218800D01*
X379800Y218300D02*
Y218800D01*
X379700Y218400D02*
Y218900D01*
X379600Y218400D02*
Y218900D01*
X379500Y218500D02*
Y219000D01*
X379400Y218500D02*
Y219000D01*
X379300Y218500D02*
Y219100D01*
X379200Y218600D02*
Y219200D01*
X379100Y218600D02*
Y219200D01*
X379000Y218700D02*
Y219300D01*
X378900Y218700D02*
Y219300D01*
X378800Y218700D02*
Y219400D01*
X378700Y218800D02*
Y219400D01*
X378600Y218800D02*
Y219500D01*
X378500Y218900D02*
Y219500D01*
X378400Y218900D02*
Y219600D01*
X378300Y218900D02*
Y219600D01*
X378200Y219000D02*
Y219700D01*
X378100Y219000D02*
Y219700D01*
X378000Y219100D02*
Y219800D01*
X377900Y219100D02*
Y219800D01*
X377800Y219100D02*
Y219900D01*
X377700Y219200D02*
Y219500D01*
Y219600D02*
Y219900D01*
X377600Y219200D02*
Y220000D01*
X377500Y219300D02*
Y219600D01*
Y219700D02*
Y220100D01*
X377400Y219300D02*
Y220100D01*
X377300Y219300D02*
Y219700D01*
Y219800D02*
Y220200D01*
X377200Y219400D02*
Y219700D01*
Y219800D02*
Y220200D01*
X377100Y219400D02*
Y219800D01*
Y219900D02*
Y220300D01*
X377000Y219500D02*
Y219800D01*
Y220000D02*
Y220300D01*
X376900Y219500D02*
Y219900D01*
Y220000D02*
Y220400D01*
X376800Y219500D02*
Y219900D01*
Y220100D02*
Y220400D01*
X376700Y219600D02*
Y219900D01*
Y220100D02*
Y220500D01*
X376600Y219600D02*
Y220000D01*
Y220200D02*
Y220500D01*
X376500Y219700D02*
Y220000D01*
Y220200D02*
Y220600D01*
X376400Y219700D02*
Y220100D01*
Y220300D02*
Y220600D01*
X376300Y219700D02*
Y220100D01*
Y220300D02*
Y220700D01*
X376200Y219800D02*
Y220100D01*
Y220400D02*
Y220700D01*
X376100Y219800D02*
Y220200D01*
Y220400D02*
Y220800D01*
X376000Y219900D02*
Y220200D01*
Y220500D02*
Y220900D01*
X375900Y219900D02*
Y220300D01*
Y220500D02*
Y220900D01*
X375800Y219900D02*
Y220300D01*
Y220600D02*
Y221000D01*
X375700Y220000D02*
Y220300D01*
Y220600D02*
Y221000D01*
X375600Y220000D02*
Y220400D01*
Y220700D02*
Y221100D01*
X375500Y220100D02*
Y220400D01*
Y220700D02*
Y221100D01*
X375400Y220100D02*
Y220500D01*
Y220800D02*
Y221200D01*
X375300Y220100D02*
Y220500D01*
Y220900D02*
Y221200D01*
X375200Y220200D02*
Y220500D01*
Y220900D02*
Y221300D01*
X375100Y220200D02*
Y220600D01*
Y221000D02*
Y221300D01*
X375000Y220300D02*
Y220600D01*
Y221000D02*
Y221400D01*
X374900Y220300D02*
Y220700D01*
Y221100D02*
Y221400D01*
X374800Y221100D02*
Y221500D01*
X374700Y221200D02*
Y221500D01*
X374600Y221200D02*
Y221600D01*
X374500Y221300D02*
Y221600D01*
X374400Y221300D02*
Y221700D01*
X374300Y221400D02*
Y221800D01*
X374200Y221400D02*
Y221800D01*
X374100Y216300D02*
Y217100D01*
Y219200D02*
Y220000D01*
Y221500D02*
Y221900D01*
X383300Y216900D02*
Y217000D01*
X383100D02*
Y217100D01*
X382900D02*
Y217200D01*
X382800Y217100D02*
Y217200D01*
X382700D02*
Y217300D01*
X382600Y217200D02*
Y217300D01*
X382500D02*
Y217400D01*
X382400Y217300D02*
Y217500D01*
X382300Y217300D02*
Y217500D01*
X382200Y217400D02*
Y217600D01*
X382100Y217400D02*
Y217600D01*
X365900Y226000D02*
Y226200D01*
X365800Y226100D02*
Y226300D01*
X365700Y226100D02*
Y226300D01*
X365600Y226200D02*
Y226400D01*
X365500Y226300D02*
Y226400D01*
X365400Y226300D02*
Y226500D01*
X365300Y226400D02*
Y226500D01*
X365200D02*
Y226600D01*
X365100Y226500D02*
Y226600D01*
X365000D02*
Y226700D01*
X364700Y226800D02*
Y226900D01*
X362700Y226100D02*
Y226600D01*
X362600Y225700D02*
Y226900D01*
X362500Y225500D02*
Y227100D01*
X362400Y225400D02*
Y227300D01*
X362300Y225300D02*
Y227400D01*
X362200Y225200D02*
Y227500D01*
X362100Y223900D02*
Y224500D01*
Y225100D02*
Y226200D01*
Y226500D02*
Y227600D01*
X362000Y223900D02*
Y224500D01*
Y225000D02*
Y225900D01*
Y226800D02*
Y227700D01*
X361900Y223900D02*
Y224500D01*
Y225000D02*
Y225700D01*
Y226900D02*
Y227700D01*
X361800Y223900D02*
Y224500D01*
Y224900D02*
Y225600D01*
Y227100D02*
Y227800D01*
X361700Y223900D02*
Y224500D01*
Y224900D02*
Y225500D01*
Y227100D02*
Y227800D01*
Y228300D02*
Y229000D01*
X361600Y223900D02*
Y224500D01*
Y224800D02*
Y225500D01*
Y227200D02*
Y227900D01*
Y228300D02*
Y229100D01*
X361500Y223900D02*
Y224500D01*
Y224800D02*
Y225400D01*
Y227300D02*
Y227900D01*
Y228400D02*
Y229100D01*
X361400Y223900D02*
Y224500D01*
Y224800D02*
Y225400D01*
Y227300D02*
Y227900D01*
Y228500D02*
Y229200D01*
X361300Y223900D02*
Y224500D01*
Y224700D02*
Y225400D01*
Y227300D02*
Y227900D01*
Y228500D02*
Y229200D01*
X361200Y223900D02*
Y224500D01*
Y224700D02*
Y225300D01*
Y227400D02*
Y228000D01*
Y228600D02*
Y229300D01*
X361100Y224700D02*
Y225300D01*
Y227400D02*
Y228000D01*
Y228700D02*
Y229400D01*
X361000Y224700D02*
Y225300D01*
Y227400D02*
Y228000D01*
Y228700D02*
Y229400D01*
X360900Y224700D02*
Y225300D01*
Y227400D02*
Y228000D01*
Y228800D02*
Y229500D01*
X360800Y224700D02*
Y225300D01*
Y227400D02*
Y228000D01*
Y228900D02*
Y229600D01*
X360700Y224700D02*
Y225300D01*
Y227400D02*
Y228000D01*
Y228900D02*
Y229600D01*
X360600Y224700D02*
Y225400D01*
Y227300D02*
Y227900D01*
Y229000D02*
Y229700D01*
X360500Y223900D02*
Y224500D01*
Y224800D02*
Y225400D01*
Y227300D02*
Y227900D01*
Y229100D02*
Y229800D01*
X360400Y223900D02*
Y224500D01*
Y224800D02*
Y225400D01*
Y227200D02*
Y227900D01*
Y229100D02*
Y229800D01*
X360300Y223900D02*
Y224500D01*
Y224800D02*
Y225500D01*
Y227200D02*
Y227900D01*
Y228800D02*
Y229900D01*
X360200Y223900D02*
Y224500D01*
Y224900D02*
Y225600D01*
Y227100D02*
Y227800D01*
Y228700D02*
Y229900D01*
X360100Y223900D02*
Y224500D01*
Y224900D02*
Y225700D01*
Y227000D02*
Y227800D01*
Y228600D02*
Y230000D01*
X360000Y223900D02*
Y224500D01*
Y225000D02*
Y225800D01*
Y226900D02*
Y227700D01*
Y228500D02*
Y230100D01*
X359900Y223900D02*
Y224500D01*
Y225000D02*
Y225900D01*
Y226700D02*
Y227600D01*
Y228400D02*
Y230100D01*
X359800Y225100D02*
Y227600D01*
Y228400D02*
Y229200D01*
X359700Y225200D02*
Y227500D01*
Y228300D02*
Y229000D01*
X359600Y225300D02*
Y227400D01*
Y228300D02*
Y229000D01*
X359500Y225400D02*
Y227200D01*
Y228300D02*
Y228900D01*
X359400Y225600D02*
Y227100D01*
Y228300D02*
Y228900D01*
X359300Y225800D02*
Y226900D01*
Y228300D02*
Y228900D01*
X359200Y228300D02*
Y228900D01*
X359100Y228300D02*
Y228900D01*
X359000Y228300D02*
Y229000D01*
X358900Y228300D02*
Y229100D01*
X358800Y228400D02*
Y230400D01*
X358700Y228400D02*
Y230400D01*
X358600Y228500D02*
Y230400D01*
X358500Y228600D02*
Y230400D01*
X358400Y228700D02*
Y230400D01*
X358300Y228900D02*
Y230400D01*
X358200Y229200D02*
Y230400D01*
X370200Y223600D02*
Y223900D01*
X370000Y223700D02*
Y224000D01*
X369500Y223600D02*
Y224300D01*
X369400Y223600D02*
Y224400D01*
X369300Y223700D02*
Y224400D01*
X369200Y223800D02*
Y224500D01*
X369100Y223800D02*
Y224500D01*
X369000Y223900D02*
Y224600D01*
X368900Y224000D02*
Y224600D01*
X368800Y224000D02*
Y224700D01*
X368700Y224100D02*
Y224700D01*
X368600Y224200D02*
Y224800D01*
X368500Y224200D02*
Y224800D01*
X368400Y224300D02*
Y224900D01*
X368300Y224400D02*
Y224900D01*
X368200Y224400D02*
Y225000D01*
X368100Y224500D02*
Y225000D01*
X368000Y224600D02*
Y225100D01*
X367900Y224600D02*
Y225200D01*
X367800Y224700D02*
Y225200D01*
X367700Y224800D02*
Y225300D01*
X367600Y224900D02*
Y225300D01*
X367500Y224900D02*
Y225400D01*
X367400Y225000D02*
Y225400D01*
X367300Y225100D02*
Y225500D01*
X367200Y225100D02*
Y225500D01*
X367100Y225200D02*
Y225600D01*
X367000Y225300D02*
Y225600D01*
X366900Y225300D02*
Y225700D01*
X366800Y225400D02*
Y225700D01*
X366700Y225500D02*
Y225800D01*
X366600Y225500D02*
Y225800D01*
X366500Y225600D02*
Y225900D01*
X366400Y225700D02*
Y225900D01*
X366300Y225700D02*
Y226000D01*
X366200Y225800D02*
Y226100D01*
X366100Y225900D02*
Y226100D01*
M02*
