G04*
G04 #@! TF.GenerationSoftware,Altium Limited,Altium Designer,20.0.2 (26)*
G04*
G04 Layer_Physical_Order=2*
G04 Layer_Color=16711680*
%FSLAX25Y25*%
%MOIN*%
G70*
G01*
G75*
%ADD12C,0.01000*%
%ADD30O,0.15748X0.19685*%
%ADD31R,0.15748X0.06890*%
%ADD32C,0.15748*%
%ADD33C,0.02800*%
G36*
X573910Y294158D02*
X576443Y293479D01*
X578865Y292476D01*
X581135Y291165D01*
X583215Y289569D01*
X585069Y287715D01*
X586665Y285635D01*
X587976Y283365D01*
X588979Y280943D01*
X589658Y278410D01*
X590000Y275811D01*
X590000Y274500D01*
X590000D01*
X590000Y274500D01*
X590000Y158000D01*
X590000Y156722D01*
X589666Y154188D01*
X589005Y151718D01*
X588027Y149357D01*
X586749Y147143D01*
X585192Y145115D01*
X583385Y143307D01*
X581357Y141751D01*
X579143Y140473D01*
X576782Y139495D01*
X574312Y138834D01*
X571778Y138500D01*
X570500Y138500D01*
X257000D01*
X255657Y138500D01*
X252994Y138851D01*
X250399Y139546D01*
X247917Y140574D01*
X245591Y141917D01*
X243460Y143552D01*
X241560Y145451D01*
X239925Y147583D01*
X238582Y149909D01*
X237554Y152391D01*
X236859Y154985D01*
X236508Y157649D01*
X236508Y158992D01*
X236992Y275492D01*
Y276738D01*
X237317Y279208D01*
X237962Y281615D01*
X238915Y283917D01*
X240161Y286075D01*
X241678Y288052D01*
X243440Y289813D01*
X245417Y291330D01*
X247575Y292576D01*
X249877Y293530D01*
X252284Y294175D01*
X254754Y294500D01*
X256000Y294500D01*
X256000Y294500D01*
X570000Y294500D01*
X571311Y294500D01*
X573910Y294158D01*
D02*
G37*
%LPC*%
G36*
X403543Y292417D02*
X401804Y292246D01*
X400131Y291738D01*
X398589Y290914D01*
X397238Y289805D01*
X396129Y288454D01*
X395305Y286912D01*
X394798Y285240D01*
X394626Y283500D01*
X394798Y281760D01*
X395305Y280088D01*
X396129Y278546D01*
X397238Y277195D01*
X398589Y276086D01*
X400131Y275262D01*
X401804Y274754D01*
X403543Y274583D01*
X405283Y274754D01*
X406956Y275262D01*
X408497Y276086D01*
X409848Y277195D01*
X410957Y278546D01*
X411782Y280088D01*
X412289Y281760D01*
X412460Y283500D01*
X412289Y285240D01*
X411782Y286912D01*
X410957Y288454D01*
X409848Y289805D01*
X408497Y290914D01*
X406956Y291738D01*
X405283Y292246D01*
X403543Y292417D01*
D02*
G37*
G36*
X474409Y292382D02*
X472670Y292210D01*
X470997Y291703D01*
X469455Y290879D01*
X468104Y289770D01*
X466995Y288419D01*
X466171Y286877D01*
X465664Y285204D01*
X465492Y283465D01*
X465664Y281725D01*
X466171Y280052D01*
X466995Y278511D01*
X468104Y277159D01*
X469455Y276050D01*
X470997Y275226D01*
X472670Y274719D01*
X474409Y274548D01*
X476149Y274719D01*
X477822Y275226D01*
X479363Y276050D01*
X480715Y277159D01*
X481824Y278511D01*
X482648Y280052D01*
X483155Y281725D01*
X483326Y283465D01*
X483155Y285204D01*
X482648Y286877D01*
X481824Y288419D01*
X480715Y289770D01*
X479363Y290879D01*
X477822Y291703D01*
X476149Y292210D01*
X474409Y292382D01*
D02*
G37*
G36*
X332677D02*
X330938Y292210D01*
X329265Y291703D01*
X327723Y290879D01*
X326372Y289770D01*
X325263Y288419D01*
X324439Y286877D01*
X323932Y285204D01*
X323760Y283465D01*
X323932Y281725D01*
X324439Y280052D01*
X325263Y278511D01*
X326372Y277159D01*
X327723Y276050D01*
X329265Y275226D01*
X330938Y274719D01*
X332677Y274548D01*
X334417Y274719D01*
X336090Y275226D01*
X337631Y276050D01*
X338982Y277159D01*
X340091Y278511D01*
X340915Y280052D01*
X341423Y281725D01*
X341594Y283465D01*
X341423Y285204D01*
X340915Y286877D01*
X340091Y288419D01*
X338982Y289770D01*
X337631Y290879D01*
X336090Y291703D01*
X334417Y292210D01*
X332677Y292382D01*
D02*
G37*
G36*
X489000Y233447D02*
X488064Y233261D01*
X487270Y232730D01*
X487207Y232636D01*
X487192Y232624D01*
X487155Y232598D01*
X487120Y232578D01*
X487084Y232561D01*
X487047Y232548D01*
X487007Y232537D01*
X486969Y232529D01*
X420031D01*
X419993Y232537D01*
X419953Y232548D01*
X419916Y232561D01*
X419880Y232578D01*
X419845Y232598D01*
X419808Y232624D01*
X419794Y232636D01*
X419730Y232730D01*
X418936Y233261D01*
X418000Y233447D01*
X417064Y233261D01*
X416270Y232730D01*
X415739Y231936D01*
X415553Y231000D01*
X415739Y230064D01*
X416270Y229270D01*
X416364Y229206D01*
X416376Y229192D01*
X416402Y229155D01*
X416422Y229120D01*
X416438Y229084D01*
X416452Y229047D01*
X416463Y229007D01*
X416471Y228969D01*
Y218634D01*
X411919Y214081D01*
X411587Y213585D01*
X411471Y213000D01*
Y205031D01*
X411463Y204993D01*
X411452Y204953D01*
X411439Y204916D01*
X411422Y204880D01*
X411402Y204845D01*
X411376Y204808D01*
X411364Y204794D01*
X411270Y204730D01*
X411206Y204636D01*
X411192Y204624D01*
X411155Y204598D01*
X411120Y204578D01*
X411084Y204561D01*
X411047Y204548D01*
X411007Y204537D01*
X410969Y204529D01*
X344031D01*
X343993Y204537D01*
X343953Y204548D01*
X343916Y204561D01*
X343880Y204578D01*
X343845Y204598D01*
X343808Y204624D01*
X343794Y204636D01*
X343730Y204730D01*
X343636Y204794D01*
X343624Y204808D01*
X343598Y204845D01*
X343578Y204880D01*
X343562Y204916D01*
X343548Y204953D01*
X343537Y204993D01*
X343529Y205031D01*
Y212367D01*
X348081Y216919D01*
X348413Y217415D01*
X348529Y218000D01*
Y228969D01*
X348537Y229007D01*
X348548Y229047D01*
X348562Y229084D01*
X348578Y229120D01*
X348598Y229155D01*
X348624Y229192D01*
X348636Y229206D01*
X348730Y229270D01*
X349261Y230064D01*
X349447Y231000D01*
X349261Y231936D01*
X348730Y232730D01*
X347936Y233261D01*
X347000Y233447D01*
X346064Y233261D01*
X345270Y232730D01*
X344739Y231936D01*
X344553Y231000D01*
X344739Y230064D01*
X345270Y229270D01*
X345364Y229206D01*
X345376Y229192D01*
X345402Y229155D01*
X345422Y229120D01*
X345439Y229084D01*
X345452Y229047D01*
X345463Y229007D01*
X345471Y228969D01*
Y218634D01*
X340919Y214081D01*
X340587Y213585D01*
X340471Y213000D01*
Y205031D01*
X340463Y204993D01*
X340452Y204953D01*
X340439Y204916D01*
X340422Y204880D01*
X340402Y204845D01*
X340376Y204808D01*
X340364Y204794D01*
X340270Y204730D01*
X339739Y203936D01*
X339553Y203000D01*
X339739Y202064D01*
X340270Y201270D01*
X341064Y200739D01*
X342000Y200553D01*
X342936Y200739D01*
X343730Y201270D01*
X343794Y201364D01*
X343808Y201376D01*
X343845Y201402D01*
X343880Y201422D01*
X343916Y201438D01*
X343953Y201452D01*
X343993Y201463D01*
X344031Y201471D01*
X410969D01*
X411007Y201463D01*
X411047Y201452D01*
X411084Y201438D01*
X411120Y201422D01*
X411155Y201402D01*
X411192Y201376D01*
X411206Y201364D01*
X411270Y201270D01*
X412064Y200739D01*
X413000Y200553D01*
X413936Y200739D01*
X414730Y201270D01*
X415261Y202064D01*
X415447Y203000D01*
X415261Y203936D01*
X414730Y204730D01*
X414636Y204794D01*
X414624Y204808D01*
X414598Y204845D01*
X414578Y204880D01*
X414562Y204916D01*
X414548Y204953D01*
X414537Y204993D01*
X414529Y205031D01*
Y212367D01*
X419081Y216919D01*
X419413Y217415D01*
X419529Y218000D01*
Y228969D01*
X419537Y229007D01*
X419548Y229047D01*
X419561Y229084D01*
X419578Y229120D01*
X419598Y229155D01*
X419624Y229192D01*
X419636Y229206D01*
X419730Y229270D01*
X419794Y229364D01*
X419808Y229376D01*
X419845Y229402D01*
X419880Y229422D01*
X419916Y229438D01*
X419953Y229452D01*
X419993Y229463D01*
X420031Y229471D01*
X486969D01*
X487007Y229463D01*
X487047Y229452D01*
X487084Y229438D01*
X487120Y229422D01*
X487155Y229402D01*
X487192Y229376D01*
X487207Y229364D01*
X487270Y229270D01*
X487364Y229206D01*
X487376Y229192D01*
X487402Y229155D01*
X487422Y229120D01*
X487438Y229084D01*
X487452Y229047D01*
X487463Y229007D01*
X487471Y228969D01*
Y218634D01*
X482919Y214081D01*
X482587Y213585D01*
X482471Y213000D01*
Y205031D01*
X482463Y204993D01*
X482452Y204953D01*
X482439Y204916D01*
X482422Y204880D01*
X482402Y204845D01*
X482376Y204808D01*
X482364Y204794D01*
X482270Y204730D01*
X481739Y203936D01*
X481553Y203000D01*
X481739Y202064D01*
X482270Y201270D01*
X483064Y200739D01*
X484000Y200553D01*
X484936Y200739D01*
X485730Y201270D01*
X486261Y202064D01*
X486447Y203000D01*
X486261Y203936D01*
X485730Y204730D01*
X485636Y204794D01*
X485624Y204808D01*
X485598Y204845D01*
X485578Y204880D01*
X485562Y204916D01*
X485548Y204953D01*
X485537Y204993D01*
X485529Y205031D01*
Y212367D01*
X490081Y216919D01*
X490413Y217415D01*
X490529Y218000D01*
Y228969D01*
X490537Y229007D01*
X490548Y229047D01*
X490561Y229084D01*
X490578Y229120D01*
X490598Y229155D01*
X490624Y229192D01*
X490636Y229206D01*
X490730Y229270D01*
X491261Y230064D01*
X491447Y231000D01*
X491261Y231936D01*
X490730Y232730D01*
X489936Y233261D01*
X489000Y233447D01*
D02*
G37*
G36*
X526378Y241634D02*
X524638Y241462D01*
X522966Y240955D01*
X521424Y240131D01*
X520073Y239022D01*
X518964Y237670D01*
X518140Y236129D01*
X517632Y234456D01*
X517461Y232716D01*
Y228780D01*
X517632Y227040D01*
X518140Y225367D01*
X518964Y223826D01*
X520073Y222474D01*
X521424Y221365D01*
X522966Y220541D01*
X524638Y220034D01*
X526378Y219863D01*
X528118Y220034D01*
X529790Y220541D01*
X531332Y221365D01*
X532683Y222474D01*
X533792Y223826D01*
X534616Y225367D01*
X535124Y227040D01*
X535295Y228780D01*
Y232716D01*
X535124Y234456D01*
X534616Y236129D01*
X533792Y237670D01*
X532683Y239022D01*
X531332Y240131D01*
X529790Y240955D01*
X528118Y241462D01*
X526378Y241634D01*
D02*
G37*
G36*
X300222Y213287D02*
X298482Y213116D01*
X296810Y212608D01*
X295268Y211784D01*
X293917Y210675D01*
X292808Y209324D01*
X291984Y207783D01*
X291476Y206110D01*
X291305Y204370D01*
Y200433D01*
X291476Y198694D01*
X291984Y197021D01*
X292808Y195479D01*
X293917Y194128D01*
X295268Y193019D01*
X296810Y192195D01*
X298482Y191687D01*
X300222Y191516D01*
X301962Y191687D01*
X303634Y192195D01*
X305176Y193019D01*
X306527Y194128D01*
X307636Y195479D01*
X308460Y197021D01*
X308968Y198694D01*
X309139Y200433D01*
Y204370D01*
X308968Y206110D01*
X308460Y207783D01*
X307636Y209324D01*
X306527Y210675D01*
X305176Y211784D01*
X303634Y212608D01*
X301962Y213116D01*
X300222Y213287D01*
D02*
G37*
G36*
X494095Y158523D02*
X492355Y158352D01*
X490682Y157844D01*
X489141Y157020D01*
X487789Y155912D01*
X486680Y154560D01*
X485856Y153019D01*
X485349Y151346D01*
X485178Y149606D01*
X485349Y147867D01*
X485856Y146194D01*
X486680Y144652D01*
X487789Y143301D01*
X489141Y142192D01*
X490682Y141368D01*
X492355Y140861D01*
X494095Y140689D01*
X495834Y140861D01*
X497507Y141368D01*
X499049Y142192D01*
X500400Y143301D01*
X501509Y144652D01*
X502333Y146194D01*
X502840Y147867D01*
X503011Y149606D01*
X502840Y151346D01*
X502333Y153019D01*
X501509Y154560D01*
X500400Y155912D01*
X499049Y157020D01*
X497507Y157844D01*
X495834Y158352D01*
X494095Y158523D01*
D02*
G37*
G36*
X423228D02*
X421489Y158352D01*
X419816Y157844D01*
X418274Y157020D01*
X416923Y155912D01*
X415814Y154560D01*
X414990Y153019D01*
X414483Y151346D01*
X414311Y149606D01*
X414483Y147867D01*
X414990Y146194D01*
X415814Y144652D01*
X416923Y143301D01*
X418274Y142192D01*
X419816Y141368D01*
X421489Y140861D01*
X423228Y140689D01*
X424968Y140861D01*
X426641Y141368D01*
X428182Y142192D01*
X429534Y143301D01*
X430643Y144652D01*
X431466Y146194D01*
X431974Y147867D01*
X432145Y149606D01*
X431974Y151346D01*
X431466Y153019D01*
X430643Y154560D01*
X429534Y155912D01*
X428182Y157020D01*
X426641Y157844D01*
X424968Y158352D01*
X423228Y158523D01*
D02*
G37*
G36*
X352362D02*
X350623Y158352D01*
X348950Y157844D01*
X347408Y157020D01*
X346057Y155912D01*
X344948Y154560D01*
X344124Y153019D01*
X343617Y151346D01*
X343445Y149606D01*
X343617Y147867D01*
X344124Y146194D01*
X344948Y144652D01*
X346057Y143301D01*
X347408Y142192D01*
X348950Y141368D01*
X350623Y140861D01*
X352362Y140689D01*
X354102Y140861D01*
X355775Y141368D01*
X357316Y142192D01*
X358667Y143301D01*
X359776Y144652D01*
X360600Y146194D01*
X361108Y147867D01*
X361279Y149606D01*
X361108Y151346D01*
X360600Y153019D01*
X359776Y154560D01*
X358667Y155912D01*
X357316Y157020D01*
X355775Y157844D01*
X354102Y158352D01*
X352362Y158523D01*
D02*
G37*
%LPD*%
G36*
X488000Y230020D02*
X487904Y230111D01*
X487804Y230193D01*
X487699Y230265D01*
X487591Y230327D01*
X487478Y230380D01*
X487361Y230423D01*
X487240Y230457D01*
X487115Y230481D01*
X486986Y230495D01*
X486852Y230500D01*
Y231500D01*
X486986Y231505D01*
X487115Y231519D01*
X487240Y231543D01*
X487361Y231577D01*
X487478Y231620D01*
X487591Y231673D01*
X487699Y231735D01*
X487804Y231807D01*
X487904Y231889D01*
X488000Y231980D01*
Y230020D01*
D02*
G37*
G36*
X419096Y231889D02*
X419196Y231807D01*
X419301Y231735D01*
X419409Y231673D01*
X419522Y231620D01*
X419639Y231577D01*
X419760Y231543D01*
X419885Y231519D01*
X420014Y231505D01*
X420148Y231500D01*
Y230500D01*
X420014Y230495D01*
X419885Y230481D01*
X419760Y230457D01*
X419639Y230423D01*
X419522Y230380D01*
X419409Y230327D01*
X419301Y230265D01*
X419196Y230193D01*
X419096Y230111D01*
X419000Y230020D01*
Y231980D01*
X419096Y231889D01*
D02*
G37*
G36*
X489889Y229904D02*
X489807Y229804D01*
X489735Y229699D01*
X489673Y229591D01*
X489620Y229478D01*
X489577Y229361D01*
X489543Y229240D01*
X489519Y229115D01*
X489505Y228986D01*
X489500Y228852D01*
X488500D01*
X488495Y228986D01*
X488481Y229115D01*
X488457Y229240D01*
X488423Y229361D01*
X488380Y229478D01*
X488327Y229591D01*
X488265Y229699D01*
X488193Y229804D01*
X488111Y229904D01*
X488020Y230000D01*
X489980D01*
X489889Y229904D01*
D02*
G37*
G36*
X418889D02*
X418807Y229804D01*
X418735Y229699D01*
X418673Y229591D01*
X418620Y229478D01*
X418577Y229361D01*
X418543Y229240D01*
X418519Y229115D01*
X418505Y228986D01*
X418500Y228852D01*
X417500D01*
X417495Y228986D01*
X417481Y229115D01*
X417457Y229240D01*
X417423Y229361D01*
X417380Y229478D01*
X417327Y229591D01*
X417265Y229699D01*
X417193Y229804D01*
X417111Y229904D01*
X417020Y230000D01*
X418980D01*
X418889Y229904D01*
D02*
G37*
G36*
X347889D02*
X347807Y229804D01*
X347735Y229699D01*
X347673Y229591D01*
X347620Y229478D01*
X347577Y229361D01*
X347543Y229240D01*
X347519Y229115D01*
X347505Y228986D01*
X347500Y228852D01*
X346500D01*
X346495Y228986D01*
X346481Y229115D01*
X346457Y229240D01*
X346423Y229361D01*
X346380Y229478D01*
X346327Y229591D01*
X346265Y229699D01*
X346193Y229804D01*
X346111Y229904D01*
X346020Y230000D01*
X347980D01*
X347889Y229904D01*
D02*
G37*
G36*
X484505Y205014D02*
X484519Y204885D01*
X484543Y204760D01*
X484577Y204639D01*
X484620Y204522D01*
X484673Y204409D01*
X484735Y204301D01*
X484807Y204196D01*
X484889Y204096D01*
X484980Y204000D01*
X483020D01*
X483111Y204096D01*
X483193Y204196D01*
X483265Y204301D01*
X483327Y204409D01*
X483380Y204522D01*
X483423Y204639D01*
X483457Y204760D01*
X483481Y204885D01*
X483495Y205014D01*
X483500Y205148D01*
X484500D01*
X484505Y205014D01*
D02*
G37*
G36*
X413505D02*
X413519Y204885D01*
X413543Y204760D01*
X413577Y204639D01*
X413620Y204522D01*
X413673Y204409D01*
X413735Y204301D01*
X413807Y204196D01*
X413889Y204096D01*
X413980Y204000D01*
X412020D01*
X412111Y204096D01*
X412193Y204196D01*
X412265Y204301D01*
X412327Y204409D01*
X412380Y204522D01*
X412423Y204639D01*
X412457Y204760D01*
X412481Y204885D01*
X412495Y205014D01*
X412500Y205148D01*
X413500D01*
X413505Y205014D01*
D02*
G37*
G36*
X342505D02*
X342519Y204885D01*
X342543Y204760D01*
X342577Y204639D01*
X342620Y204522D01*
X342673Y204409D01*
X342735Y204301D01*
X342807Y204196D01*
X342889Y204096D01*
X342980Y204000D01*
X341020D01*
X341111Y204096D01*
X341193Y204196D01*
X341265Y204301D01*
X341327Y204409D01*
X341380Y204522D01*
X341423Y204639D01*
X341457Y204760D01*
X341481Y204885D01*
X341495Y205014D01*
X341500Y205148D01*
X342500D01*
X342505Y205014D01*
D02*
G37*
G36*
X412000Y202020D02*
X411904Y202111D01*
X411804Y202193D01*
X411699Y202265D01*
X411591Y202327D01*
X411478Y202380D01*
X411361Y202423D01*
X411240Y202457D01*
X411115Y202481D01*
X410986Y202495D01*
X410852Y202500D01*
Y203500D01*
X410986Y203505D01*
X411115Y203519D01*
X411240Y203543D01*
X411361Y203577D01*
X411478Y203620D01*
X411591Y203673D01*
X411699Y203735D01*
X411804Y203807D01*
X411904Y203889D01*
X412000Y203980D01*
Y202020D01*
D02*
G37*
G36*
X343096Y203889D02*
X343196Y203807D01*
X343301Y203735D01*
X343409Y203673D01*
X343522Y203620D01*
X343639Y203577D01*
X343760Y203543D01*
X343885Y203519D01*
X344014Y203505D01*
X344148Y203500D01*
Y202500D01*
X344014Y202495D01*
X343885Y202481D01*
X343760Y202457D01*
X343639Y202423D01*
X343522Y202380D01*
X343409Y202327D01*
X343301Y202265D01*
X343196Y202193D01*
X343096Y202111D01*
X343000Y202020D01*
Y203980D01*
X343096Y203889D01*
D02*
G37*
D12*
X342000Y203000D02*
Y213000D01*
X347000Y218000D01*
X418000Y231000D02*
X489000D01*
X342000Y203000D02*
X413000D01*
X484000Y213000D02*
X489000Y218000D01*
X484000Y203000D02*
Y213000D01*
X489000Y218000D02*
Y231000D01*
X413000Y213000D02*
X418000Y218000D01*
X413000Y203000D02*
Y213000D01*
X418000Y218000D02*
Y231000D01*
X347000Y218000D02*
Y231000D01*
D30*
X526378Y230748D02*
D03*
Y202402D02*
D03*
X300222D02*
D03*
Y230748D02*
D03*
D31*
X550000Y243150D02*
D03*
Y190000D02*
D03*
X276600D02*
D03*
Y243150D02*
D03*
D32*
X494095Y283465D02*
D03*
X474409D02*
D03*
X423228Y283500D02*
D03*
X403543D02*
D03*
X352362Y283465D02*
D03*
X332677D02*
D03*
X474409Y149606D02*
D03*
X494095D02*
D03*
X403543D02*
D03*
X423228D02*
D03*
X332677D02*
D03*
X352362D02*
D03*
D33*
X432000Y183500D02*
D03*
X400000D02*
D03*
X430500Y215500D02*
D03*
X550500Y144571D02*
D03*
Y175571D02*
D03*
X470571Y183500D02*
D03*
X501571D02*
D03*
X470571Y250000D02*
D03*
X501571D02*
D03*
X400071D02*
D03*
X431071D02*
D03*
X272000Y289429D02*
D03*
Y258429D02*
D03*
X359929Y250000D02*
D03*
X328929D02*
D03*
X329000Y183000D02*
D03*
X360000D02*
D03*
X484000Y203000D02*
D03*
X489000Y231000D02*
D03*
X413000Y203000D02*
D03*
X418000Y231000D02*
D03*
X347000D02*
D03*
X342000Y203000D02*
D03*
M02*
