G04*
G04 #@! TF.GenerationSoftware,Altium Limited,Altium Designer,20.0.2 (26)*
G04*
G04 Layer_Color=2752767*
%FSLAX25Y25*%
%MOIN*%
G70*
G01*
G75*
%ADD10C,0.01000*%
%ADD11C,0.00600*%
%ADD12C,0.00200*%
%ADD13C,0.00267*%
D10*
X255906Y295276D02*
G03*
X236221Y275590I0J-19685D01*
G01*
Y157480D02*
G03*
X255906Y137795I19685J0D01*
G01*
X570866D02*
G03*
X590551Y157480I0J19685D01*
G01*
Y275590D02*
G03*
X570866Y295276I-19685J-0D01*
G01*
X255906Y295276D02*
X570866D01*
X590551Y157480D02*
Y275590D01*
X255906Y137795D02*
X570866D01*
X236221Y157480D02*
Y275590D01*
X604000Y143795D02*
X606000Y137795D01*
X608000Y143795D01*
X606000Y295276D02*
X608000Y289276D01*
X604000D02*
X606000Y295276D01*
Y137795D02*
Y193842D01*
Y236029D02*
Y295276D01*
X572366Y137795D02*
X607000D01*
X572366Y295276D02*
X607000D01*
X236221Y118500D02*
X242220Y120500D01*
X236221Y118500D02*
X242220Y116500D01*
X584551D02*
X590551Y118500D01*
X584551Y120500D02*
X590551Y118500D01*
X236221D02*
X390692D01*
X432879D02*
X590551D01*
X236221Y117500D02*
Y155980D01*
X590551Y117500D02*
Y155980D01*
D11*
X609599Y198441D02*
X603601D01*
X606600Y195442D01*
Y199441D01*
X604601Y201440D02*
X603601Y202439D01*
Y204439D01*
X604601Y205438D01*
X608599D01*
X609599Y204439D01*
Y202439D01*
X608599Y201440D01*
X604601D01*
X609599Y207438D02*
X608599D01*
Y208437D01*
X609599D01*
Y207438D01*
X604601Y212436D02*
X603601Y213436D01*
Y215435D01*
X604601Y216435D01*
X608599D01*
X609599Y215435D01*
Y213436D01*
X608599Y212436D01*
X604601D01*
Y218434D02*
X603601Y219434D01*
Y221433D01*
X604601Y222433D01*
X608599D01*
X609599Y221433D01*
Y219434D01*
X608599Y218434D01*
X604601D01*
X609599Y224432D02*
X605600D01*
Y225432D01*
X606600Y226432D01*
X609599D01*
X606600D01*
X605600Y227431D01*
X606600Y228431D01*
X609599D01*
Y230430D02*
X605600D01*
Y231430D01*
X606600Y232430D01*
X609599D01*
X606600D01*
X605600Y233429D01*
X606600Y234429D01*
X609599D01*
X392292Y115901D02*
X393292Y114901D01*
X395291D01*
X396291Y115901D01*
Y119899D01*
X395291Y120899D01*
X393292D01*
X392292Y119899D01*
Y118900D01*
X393292Y117900D01*
X396291D01*
X398290Y119899D02*
X399290Y120899D01*
X401289D01*
X402289Y119899D01*
Y115901D01*
X401289Y114901D01*
X399290D01*
X398290Y115901D01*
Y119899D01*
X404288Y114901D02*
Y115901D01*
X405288D01*
Y114901D01*
X404288D01*
X409287Y119899D02*
X410286Y120899D01*
X412286D01*
X413285Y119899D01*
Y115901D01*
X412286Y114901D01*
X410286D01*
X409287Y115901D01*
Y119899D01*
X415285D02*
X416284Y120899D01*
X418284D01*
X419283Y119899D01*
Y115901D01*
X418284Y114901D01*
X416284D01*
X415285Y115901D01*
Y119899D01*
X421283Y114901D02*
Y118900D01*
X422282D01*
X423282Y117900D01*
Y114901D01*
Y117900D01*
X424282Y118900D01*
X425281Y117900D01*
Y114901D01*
X427281D02*
Y118900D01*
X428280D01*
X429280Y117900D01*
Y114901D01*
Y117900D01*
X430280Y118900D01*
X431280Y117900D01*
Y114901D01*
D12*
X549200Y189200D02*
Y190800D01*
X550800D01*
Y189200D01*
X549200D01*
Y242350D02*
Y243950D01*
X550800D01*
Y242350D01*
X549200D01*
X275800D02*
Y243950D01*
X277400D01*
Y242350D01*
X275800D01*
Y189200D02*
Y190800D01*
X277400D01*
Y189200D01*
X275800D01*
X494095Y282665D02*
X493294Y284265D01*
X494895D01*
X494095Y282665D01*
X474409D02*
X473609Y284265D01*
X475210D01*
X474409Y282665D01*
X423228Y282700D02*
X422428Y284300D01*
X424028D01*
X423228Y282700D01*
X403543D02*
X402743Y284300D01*
X404343D01*
X403543Y282700D01*
X352362Y282665D02*
X351562Y284265D01*
X353162D01*
X352362Y282665D01*
X332677D02*
X331877Y284265D01*
X333477D01*
X332677Y282665D01*
X474409Y148806D02*
X473609Y150406D01*
X475210D01*
X474409Y148806D01*
X494095D02*
X493294Y150406D01*
X494895D01*
X494095Y148806D01*
X403543D02*
X402743Y150406D01*
X404343D01*
X403543Y148806D01*
X423228D02*
X422428Y150406D01*
X424028D01*
X423228Y148806D01*
X332677D02*
X331877Y150406D01*
X333477D01*
X332677Y148806D01*
X352362D02*
X351562Y150406D01*
X353162D01*
X352362Y148806D01*
X474500Y215200D02*
X474900Y215600D01*
X475300D01*
X474900Y216000D01*
X475300Y216400D01*
X474900D01*
X474500Y216800D01*
X474100Y216400D01*
X473700D01*
X474100Y216000D01*
X473700Y215600D01*
X474100D01*
X474500Y215200D01*
X483200Y202200D02*
X483600Y203000D01*
X483200Y203800D01*
X484000Y203400D01*
X484800Y203800D01*
X484400Y203000D01*
X484800Y202200D01*
X484000Y202600D01*
X483200Y202200D01*
X488200Y230200D02*
X488600Y231000D01*
X488200Y231800D01*
X489000Y231400D01*
X489800Y231800D01*
X489400Y231000D01*
X489800Y230200D01*
X489000Y230600D01*
X488200Y230200D01*
X412200Y202200D02*
X412600Y203000D01*
X412200Y203800D01*
X413000Y203400D01*
X413800Y203800D01*
X413400Y203000D01*
X413800Y202200D01*
X413000Y202600D01*
X412200Y202200D01*
X417200Y230200D02*
X417600Y231000D01*
X417200Y231800D01*
X418000Y231400D01*
X418800Y231800D01*
X418400Y231000D01*
X418800Y230200D01*
X418000Y230600D01*
X417200Y230200D01*
X346200D02*
X346600Y231000D01*
X346200Y231800D01*
X347000Y231400D01*
X347800Y231800D01*
X347400Y231000D01*
X347800Y230200D01*
X347000Y230600D01*
X346200Y230200D01*
X341200Y202200D02*
X341600Y203000D01*
X341200Y203800D01*
X342000Y203400D01*
X342800Y203800D01*
X342400Y203000D01*
X342800Y202200D01*
X342000Y202600D01*
X341200Y202200D01*
D13*
X527178Y202402D02*
G03*
X527178Y202402I-800J0D01*
G01*
Y230748D02*
G03*
X527178Y230748I-800J0D01*
G01*
X301022D02*
G03*
X301022Y230748I-800J0D01*
G01*
Y202402D02*
G03*
X301022Y202402I-800J0D01*
G01*
M02*
