G04*
G04 #@! TF.GenerationSoftware,Altium Limited,Altium Designer,20.0.2 (26)*
G04*
G04 Layer_Color=32896*
%FSLAX25Y25*%
%MOIN*%
G70*
G01*
G75*
%ADD34C,0.00100*%
G36*
X379683Y245097D02*
X379776D01*
Y245004D01*
X379869D01*
Y244911D01*
X379961D01*
Y244726D01*
X380054D01*
Y244634D01*
X380239D01*
Y244541D01*
X380332D01*
Y244448D01*
X380795D01*
Y244356D01*
X381073D01*
Y244448D01*
X381443D01*
Y244541D01*
X381628D01*
Y244634D01*
X381721D01*
Y244726D01*
X381814D01*
Y244819D01*
X381906D01*
Y244911D01*
X381999D01*
Y245004D01*
X382092D01*
Y245189D01*
X382184D01*
Y247134D01*
X382370D01*
Y246949D01*
X382555D01*
Y246857D01*
X382740D01*
Y246764D01*
X382925D01*
Y246671D01*
X383018D01*
Y246579D01*
X383203D01*
Y246486D01*
X383296D01*
Y246393D01*
X383481D01*
Y246301D01*
X383574D01*
Y246208D01*
X383759D01*
Y246115D01*
X383944D01*
Y246023D01*
X384130D01*
Y245838D01*
X384315D01*
Y245745D01*
X384500D01*
Y245652D01*
X384593D01*
Y245560D01*
X384871D01*
Y245467D01*
X384963D01*
Y245374D01*
X385148D01*
Y245189D01*
X385334D01*
Y245097D01*
X385519D01*
Y245004D01*
X385704D01*
Y244911D01*
X385889D01*
Y244819D01*
X385982D01*
Y244726D01*
X386167D01*
Y243244D01*
X386075D01*
Y243337D01*
X385889D01*
Y243429D01*
X385797D01*
Y243522D01*
X385704D01*
Y243615D01*
X385519D01*
Y243707D01*
X385334D01*
Y243800D01*
X385241D01*
Y243893D01*
X385056D01*
Y244078D01*
X384871D01*
Y244170D01*
X384685D01*
Y244263D01*
X384593D01*
Y244356D01*
X384407D01*
Y244448D01*
X384222D01*
Y244541D01*
X384130D01*
Y244726D01*
X383852D01*
Y244819D01*
X383759D01*
Y244911D01*
X383666D01*
Y245004D01*
X383481D01*
Y245097D01*
X383296D01*
Y244911D01*
X383203D01*
Y244634D01*
X383111D01*
Y244541D01*
X383018D01*
Y244263D01*
X382925D01*
Y244170D01*
X382833D01*
Y243985D01*
X382740D01*
Y243893D01*
X382647D01*
Y243800D01*
X382462D01*
Y243707D01*
X382370D01*
Y243615D01*
X382184D01*
Y243522D01*
X381999D01*
Y243429D01*
X381906D01*
Y243337D01*
X381814D01*
Y243429D01*
X381721D01*
Y243337D01*
X381443D01*
Y243244D01*
X380980D01*
Y243151D01*
X380610D01*
Y243244D01*
X380239D01*
Y243337D01*
X379961D01*
Y243429D01*
X379591D01*
Y243522D01*
X379498D01*
Y243615D01*
X379313D01*
Y243707D01*
X379220D01*
Y243800D01*
X379128D01*
Y243893D01*
X379035D01*
Y243985D01*
X378942D01*
Y244078D01*
X378850D01*
Y244170D01*
X378757D01*
Y244356D01*
X378664D01*
Y244541D01*
X378572D01*
Y245004D01*
X378479D01*
Y247875D01*
X379683D01*
Y245097D01*
D02*
G37*
G36*
X384778Y242225D02*
X385612D01*
Y242132D01*
X385982D01*
Y242040D01*
X386075D01*
Y241947D01*
X386445D01*
Y241855D01*
X386630D01*
Y241669D01*
X386908D01*
Y241577D01*
X387001D01*
Y241484D01*
X387094D01*
Y241391D01*
X387186D01*
Y241299D01*
X387371D01*
Y241206D01*
X387464D01*
Y241114D01*
X387557D01*
Y241021D01*
X387649D01*
Y240836D01*
X387742D01*
Y240743D01*
X387835D01*
Y240651D01*
X387927D01*
Y240465D01*
X388020D01*
Y240280D01*
X388112D01*
Y240095D01*
X388205D01*
Y240002D01*
X388298D01*
Y239632D01*
X388390D01*
Y239261D01*
X388483D01*
Y238149D01*
X388390D01*
Y237872D01*
X388298D01*
Y237501D01*
X388205D01*
Y237316D01*
X388112D01*
Y237131D01*
X388020D01*
Y236945D01*
X387927D01*
Y236853D01*
X387835D01*
Y236760D01*
X387742D01*
Y236575D01*
X387649D01*
Y236482D01*
X387557D01*
Y236390D01*
X387464D01*
Y236297D01*
X387371D01*
Y236204D01*
X387279D01*
Y236112D01*
X387186D01*
Y236019D01*
X387094D01*
Y235927D01*
X386908D01*
Y235834D01*
X386723D01*
Y235649D01*
X386538D01*
Y235556D01*
X386260D01*
Y235463D01*
X385982D01*
Y235371D01*
X385889D01*
Y235278D01*
X385612D01*
Y235185D01*
X385519D01*
Y235278D01*
X385241D01*
Y235185D01*
X383944D01*
Y235278D01*
X383666D01*
Y235185D01*
X383574D01*
Y235278D01*
X383388D01*
Y235371D01*
X383203D01*
Y235463D01*
X383018D01*
Y235556D01*
X382740D01*
Y235649D01*
X382555D01*
Y235741D01*
X382370D01*
Y235927D01*
X382184D01*
Y236019D01*
X382092D01*
Y236112D01*
X381906D01*
Y236204D01*
X381814D01*
Y236297D01*
X381721D01*
Y236390D01*
X381628D01*
Y236482D01*
X381536D01*
Y236575D01*
X381443D01*
Y236760D01*
X381351D01*
Y236853D01*
X381258D01*
Y236945D01*
X381165D01*
Y237223D01*
X381073D01*
Y237408D01*
X380980D01*
Y237501D01*
X380888D01*
Y237872D01*
X380795D01*
Y238335D01*
X380702D01*
Y239168D01*
X380795D01*
Y239539D01*
X380888D01*
Y240002D01*
X380980D01*
Y240095D01*
X381073D01*
Y240280D01*
X381165D01*
Y240465D01*
X381258D01*
Y240651D01*
X381351D01*
Y240743D01*
X381443D01*
Y240928D01*
X381536D01*
Y241021D01*
X381721D01*
Y241114D01*
X381814D01*
Y241299D01*
X381906D01*
Y241391D01*
X382092D01*
Y241484D01*
X382184D01*
Y241577D01*
X382277D01*
Y241669D01*
X382370D01*
Y241577D01*
X382462D01*
Y241762D01*
X382647D01*
Y241855D01*
X382833D01*
Y241947D01*
X383111D01*
Y242040D01*
X383296D01*
Y242132D01*
X383481D01*
Y242225D01*
X384407D01*
Y242318D01*
X384778D01*
Y242225D01*
D02*
G37*
G36*
X433178Y245379D02*
X432999D01*
Y245200D01*
X433178D01*
Y244842D01*
X432999D01*
Y244663D01*
X432104D01*
Y244484D01*
X431925D01*
Y242694D01*
X432104D01*
Y242515D01*
X432283D01*
Y242336D01*
X432462D01*
Y242157D01*
X432820D01*
Y241978D01*
X432999D01*
Y241799D01*
X433178D01*
Y240367D01*
X432999D01*
Y240546D01*
X432820D01*
Y240725D01*
X432641D01*
Y240904D01*
X432283D01*
Y241083D01*
X432104D01*
Y241262D01*
X431746D01*
Y240904D01*
X431567D01*
Y240725D01*
X431388D01*
Y240367D01*
X431030D01*
Y240188D01*
X429777D01*
Y240367D01*
X429598D01*
Y240725D01*
X429419D01*
Y241262D01*
X429240D01*
Y245200D01*
X429956D01*
Y245379D01*
X430135D01*
Y241620D01*
X430314D01*
Y241262D01*
X430851D01*
Y241441D01*
X431030D01*
Y241799D01*
X431209D01*
Y245558D01*
X432104D01*
Y245737D01*
X432999D01*
Y245916D01*
X433178D01*
Y245379D01*
D02*
G37*
G36*
X432104Y239472D02*
X432462D01*
Y239293D01*
X432641D01*
Y239114D01*
X432820D01*
Y238756D01*
X432999D01*
Y238040D01*
X433178D01*
Y237503D01*
X432999D01*
Y237324D01*
X433178D01*
Y236608D01*
X432999D01*
Y235892D01*
X432820D01*
Y235534D01*
X432641D01*
Y235355D01*
X432462D01*
Y235176D01*
X432283D01*
Y234997D01*
X432104D01*
Y234818D01*
X431746D01*
Y234639D01*
X430135D01*
Y234818D01*
X429956D01*
Y234997D01*
X429777D01*
Y235176D01*
X429598D01*
Y235355D01*
X429419D01*
Y235713D01*
X429240D01*
Y238040D01*
X429419D01*
Y238577D01*
X429598D01*
Y238756D01*
X429777D01*
Y239114D01*
X429956D01*
Y239293D01*
X430314D01*
Y239472D01*
X430672D01*
Y239651D01*
X432104D01*
Y239472D01*
D02*
G37*
G36*
X388483Y232036D02*
X388390D01*
Y231573D01*
X388298D01*
Y231295D01*
X388205D01*
Y231110D01*
X388112D01*
Y230925D01*
X388020D01*
Y230832D01*
X387927D01*
Y230647D01*
X387835D01*
Y230554D01*
X387649D01*
Y230461D01*
X387557D01*
Y230369D01*
X387371D01*
Y230276D01*
X387186D01*
Y230184D01*
X387001D01*
Y230091D01*
X386723D01*
Y229998D01*
X385704D01*
Y230091D01*
X385426D01*
Y230184D01*
X385241D01*
Y230276D01*
X385148D01*
Y230369D01*
X385056D01*
Y230276D01*
X384963D01*
Y230369D01*
X384871D01*
Y230461D01*
X384778D01*
Y230554D01*
X384685D01*
Y230647D01*
X384593D01*
Y230739D01*
X384500D01*
Y230925D01*
X384407D01*
Y231110D01*
X384315D01*
Y231202D01*
X384130D01*
Y231110D01*
X384037D01*
Y231017D01*
X383944D01*
Y230925D01*
X383852D01*
Y230832D01*
X383759D01*
Y230739D01*
X383666D01*
Y230647D01*
X383388D01*
Y230554D01*
X383203D01*
Y230461D01*
X382277D01*
Y230554D01*
X382092D01*
Y230647D01*
X381814D01*
Y230739D01*
X381628D01*
Y230832D01*
X381443D01*
Y230925D01*
X381351D01*
Y231017D01*
X381258D01*
Y231110D01*
X381165D01*
Y231295D01*
X381073D01*
Y231388D01*
X380980D01*
Y231573D01*
X380888D01*
Y232036D01*
X380795D01*
Y232499D01*
X380702D01*
Y234630D01*
X388483D01*
Y232036D01*
D02*
G37*
G36*
X433178Y233923D02*
X432999D01*
Y233744D01*
X433178D01*
Y233207D01*
X432999D01*
Y233028D01*
X433178D01*
Y232849D01*
X432999D01*
Y232670D01*
X433178D01*
Y232491D01*
X432999D01*
Y232312D01*
X433178D01*
Y232133D01*
X432999D01*
Y231954D01*
X433178D01*
Y231775D01*
X432999D01*
Y231596D01*
X433178D01*
Y231417D01*
X432999D01*
Y231238D01*
X433178D01*
Y230701D01*
X432999D01*
Y229985D01*
X432820D01*
Y229627D01*
X432641D01*
Y229448D01*
X432462D01*
Y229269D01*
X431388D01*
Y229448D01*
X431209D01*
Y229627D01*
X430851D01*
Y229269D01*
X430672D01*
Y229090D01*
X430314D01*
Y228911D01*
X429956D01*
Y229090D01*
X429598D01*
Y229269D01*
X429419D01*
Y229806D01*
X429240D01*
Y233744D01*
X429956D01*
Y233923D01*
X430135D01*
Y230164D01*
X430314D01*
Y229985D01*
X430672D01*
Y230164D01*
X430851D01*
Y233923D01*
X431209D01*
Y234102D01*
X432283D01*
Y234281D01*
X433178D01*
Y233923D01*
D02*
G37*
G36*
X385334Y229257D02*
X385704D01*
Y229165D01*
X385797D01*
Y229257D01*
X385889D01*
Y229165D01*
X386075D01*
Y229072D01*
X386260D01*
Y228979D01*
X386353D01*
Y228887D01*
X386630D01*
Y228794D01*
X386816D01*
Y228701D01*
X386908D01*
Y228609D01*
X387094D01*
Y228516D01*
X387186D01*
Y228424D01*
X387279D01*
Y228331D01*
X387371D01*
Y228238D01*
X387464D01*
Y228146D01*
X387557D01*
Y228053D01*
X387649D01*
Y227960D01*
X387742D01*
Y227868D01*
X387835D01*
Y227683D01*
X387927D01*
Y227590D01*
X388020D01*
Y227405D01*
X388112D01*
Y227219D01*
X388205D01*
Y227034D01*
X388298D01*
Y226664D01*
X388390D01*
Y226386D01*
X388483D01*
Y225274D01*
X388390D01*
Y224904D01*
X388298D01*
Y224533D01*
X388205D01*
Y224348D01*
X388112D01*
Y224255D01*
X388020D01*
Y224070D01*
X387927D01*
Y223885D01*
X387835D01*
Y223700D01*
X387742D01*
Y223607D01*
X387649D01*
Y223514D01*
X387557D01*
Y223422D01*
X387464D01*
Y223329D01*
X387371D01*
Y223236D01*
X387279D01*
Y223144D01*
X387186D01*
Y223051D01*
X387094D01*
Y222959D01*
X386908D01*
Y222866D01*
X386816D01*
Y222773D01*
X386723D01*
Y222866D01*
X386630D01*
Y222773D01*
X386538D01*
Y222681D01*
X386353D01*
Y222588D01*
X386260D01*
Y222495D01*
X385889D01*
Y222403D01*
X385612D01*
Y222310D01*
X385334D01*
Y222217D01*
X383944D01*
Y222310D01*
X383574D01*
Y222403D01*
X383388D01*
Y222495D01*
X383018D01*
Y222588D01*
X382833D01*
Y222681D01*
X382647D01*
Y222773D01*
X382462D01*
Y222866D01*
X382277D01*
Y222959D01*
X382184D01*
Y223144D01*
X381906D01*
Y223236D01*
X381814D01*
Y223329D01*
X381721D01*
Y223422D01*
X381628D01*
Y223514D01*
X381536D01*
Y223700D01*
X381443D01*
Y223792D01*
X381351D01*
Y223885D01*
X381258D01*
Y224070D01*
X381165D01*
Y224255D01*
X381073D01*
Y224348D01*
X380980D01*
Y224626D01*
X380888D01*
Y224996D01*
X380795D01*
Y225460D01*
X380702D01*
Y226108D01*
X380795D01*
Y226571D01*
X380888D01*
Y226942D01*
X380980D01*
Y227219D01*
X381073D01*
Y227405D01*
X381165D01*
Y227590D01*
X381258D01*
Y227683D01*
X381351D01*
Y227775D01*
X381443D01*
Y227960D01*
X381536D01*
Y228053D01*
X381628D01*
Y228146D01*
X381721D01*
Y228238D01*
X381814D01*
Y228331D01*
X381906D01*
Y228424D01*
X381999D01*
Y228516D01*
X382092D01*
Y228609D01*
X382277D01*
Y228701D01*
X382462D01*
Y228887D01*
X382833D01*
Y228979D01*
X382925D01*
Y229072D01*
X383203D01*
Y229165D01*
X383296D01*
Y229257D01*
X383388D01*
Y229165D01*
X383574D01*
Y229257D01*
X383852D01*
Y229350D01*
X385334D01*
Y229257D01*
D02*
G37*
G36*
X431567Y228374D02*
X432104D01*
Y228195D01*
X432462D01*
Y228016D01*
X432641D01*
Y227837D01*
X432820D01*
Y227479D01*
X432999D01*
Y226942D01*
X433178D01*
Y226047D01*
X432999D01*
Y225868D01*
X433178D01*
Y225689D01*
X432999D01*
Y225510D01*
X433178D01*
Y225331D01*
X432999D01*
Y224794D01*
X432820D01*
Y224436D01*
X432641D01*
Y224078D01*
X432462D01*
Y223899D01*
X432283D01*
Y223720D01*
X431925D01*
Y223541D01*
X431567D01*
Y223362D01*
X430493D01*
Y223541D01*
X429956D01*
Y223720D01*
X429777D01*
Y223899D01*
X429598D01*
Y224078D01*
X429419D01*
Y224615D01*
X429240D01*
Y226942D01*
X429419D01*
Y227300D01*
X429598D01*
Y227658D01*
X429777D01*
Y227837D01*
X429956D01*
Y228016D01*
X430135D01*
Y228195D01*
X430493D01*
Y228374D01*
X431209D01*
Y228553D01*
X431567D01*
Y228374D01*
D02*
G37*
G36*
X433178Y223183D02*
X432999D01*
Y223004D01*
X433178D01*
Y222467D01*
X432820D01*
Y222288D01*
X432462D01*
Y222109D01*
X431925D01*
Y221930D01*
X431567D01*
Y221751D01*
X431209D01*
Y221572D01*
X430672D01*
Y221215D01*
X431209D01*
Y221036D01*
X431746D01*
Y220856D01*
X432283D01*
Y220677D01*
X432820D01*
Y220498D01*
X433178D01*
Y220320D01*
X432999D01*
Y220141D01*
X433178D01*
Y219603D01*
X432999D01*
Y219425D01*
X432820D01*
Y219246D01*
X432462D01*
Y219067D01*
X432283D01*
Y218888D01*
X431925D01*
Y218708D01*
X431746D01*
Y218530D01*
X431567D01*
Y218351D01*
X431209D01*
Y218172D01*
X431030D01*
Y217993D01*
X430672D01*
Y217635D01*
X432820D01*
Y217456D01*
X433178D01*
Y216382D01*
X432999D01*
Y216561D01*
X431388D01*
Y216740D01*
X429777D01*
Y216919D01*
X429240D01*
Y218172D01*
X429419D01*
Y217993D01*
X429598D01*
Y218172D01*
X429956D01*
Y218351D01*
X430135D01*
Y218530D01*
X430314D01*
Y218708D01*
X430672D01*
Y218888D01*
X430851D01*
Y219067D01*
X431030D01*
Y219246D01*
X431388D01*
Y219425D01*
X431567D01*
Y219603D01*
X431746D01*
Y219962D01*
X431209D01*
Y220141D01*
X430851D01*
Y220320D01*
X430314D01*
Y220498D01*
X429777D01*
Y220677D01*
X429240D01*
Y222288D01*
X429419D01*
Y222109D01*
X429598D01*
Y221930D01*
X429956D01*
Y222109D01*
X430135D01*
Y222288D01*
X430672D01*
Y222467D01*
X431030D01*
Y222646D01*
X431388D01*
Y222467D01*
X431567D01*
Y222646D01*
X431388D01*
Y222825D01*
X431746D01*
Y223004D01*
X432104D01*
Y223183D01*
X432462D01*
Y223362D01*
X432820D01*
Y223541D01*
X433178D01*
Y223183D01*
D02*
G37*
G36*
X382370Y221291D02*
X382833D01*
Y221199D01*
X383111D01*
Y221106D01*
X383388D01*
Y221013D01*
X383481D01*
Y221106D01*
X383574D01*
Y221013D01*
X383666D01*
Y220921D01*
X383852D01*
Y220828D01*
X384037D01*
Y220736D01*
X384222D01*
Y220643D01*
X384407D01*
Y220550D01*
X384500D01*
Y220365D01*
X384685D01*
Y220272D01*
X384778D01*
Y220180D01*
X384871D01*
Y220087D01*
X384963D01*
Y219994D01*
X385056D01*
Y219902D01*
X385148D01*
Y219809D01*
X385241D01*
Y219717D01*
X385334D01*
Y219531D01*
X385426D01*
Y219346D01*
X385519D01*
Y219161D01*
X385612D01*
Y218976D01*
X385704D01*
Y218698D01*
X385797D01*
Y218420D01*
X385889D01*
Y217864D01*
X385982D01*
Y217308D01*
X385889D01*
Y216938D01*
X385797D01*
Y216660D01*
X385704D01*
Y216382D01*
X385612D01*
Y216289D01*
X385334D01*
Y216197D01*
X385241D01*
Y216104D01*
X385148D01*
Y216012D01*
X384963D01*
Y215919D01*
X384778D01*
Y215826D01*
X384685D01*
Y215734D01*
X384593D01*
Y215641D01*
X384407D01*
Y215548D01*
X384222D01*
Y215456D01*
X384130D01*
Y215363D01*
X383852D01*
Y215178D01*
X383666D01*
Y215085D01*
X383574D01*
Y214992D01*
X383296D01*
Y214900D01*
X383203D01*
Y214807D01*
X383018D01*
Y214715D01*
X382833D01*
Y214622D01*
X382647D01*
Y214437D01*
X382462D01*
Y214344D01*
X382277D01*
Y214251D01*
X382184D01*
Y214159D01*
X382092D01*
Y214066D01*
X381999D01*
Y218420D01*
X383203D01*
Y216289D01*
X383481D01*
Y216382D01*
X383574D01*
Y216475D01*
X383852D01*
Y216567D01*
X383944D01*
Y216660D01*
X384130D01*
Y216753D01*
X384222D01*
Y216845D01*
X384315D01*
Y216938D01*
X384500D01*
Y217030D01*
X384593D01*
Y217123D01*
X384778D01*
Y218142D01*
X384685D01*
Y218420D01*
X384593D01*
Y218605D01*
X384500D01*
Y218883D01*
X384407D01*
Y219068D01*
X384315D01*
Y219161D01*
X384222D01*
Y219253D01*
X384130D01*
Y219346D01*
X384037D01*
Y219439D01*
X383944D01*
Y219531D01*
X383852D01*
Y219624D01*
X383666D01*
Y219717D01*
X383574D01*
Y219809D01*
X383481D01*
Y219902D01*
X383203D01*
Y219994D01*
X382925D01*
Y220087D01*
X382647D01*
Y220180D01*
X381351D01*
Y220087D01*
X381073D01*
Y219994D01*
X380888D01*
Y219902D01*
X380610D01*
Y219809D01*
X380517D01*
Y219717D01*
X380332D01*
Y219531D01*
X380147D01*
Y219439D01*
X380054D01*
Y219346D01*
X379961D01*
Y219253D01*
X379869D01*
Y219161D01*
X379776D01*
Y218976D01*
X379683D01*
Y218883D01*
X379591D01*
Y218698D01*
X379498D01*
Y218512D01*
X379405D01*
Y218234D01*
X379313D01*
Y217216D01*
X379405D01*
Y216938D01*
X379498D01*
Y216753D01*
X379591D01*
Y216567D01*
X379683D01*
Y216382D01*
X379776D01*
Y216289D01*
X379869D01*
Y216197D01*
X379961D01*
Y216104D01*
X380054D01*
Y215919D01*
X380239D01*
Y215826D01*
X380332D01*
Y214437D01*
X380239D01*
Y214529D01*
X380054D01*
Y214622D01*
X379869D01*
Y214715D01*
X379683D01*
Y214807D01*
X379591D01*
Y214900D01*
X379498D01*
Y214992D01*
X379313D01*
Y215085D01*
X379220D01*
Y215270D01*
X379128D01*
Y215363D01*
X379035D01*
Y215456D01*
X378942D01*
Y215548D01*
X378850D01*
Y215734D01*
X378757D01*
Y215826D01*
X378664D01*
Y215919D01*
X378572D01*
Y216197D01*
X378479D01*
Y216475D01*
X378387D01*
Y216567D01*
X378294D01*
Y216845D01*
X378201D01*
Y218512D01*
X378294D01*
Y218790D01*
X378387D01*
Y218976D01*
X378479D01*
Y219161D01*
X378572D01*
Y219439D01*
X378664D01*
Y219531D01*
X378757D01*
Y219624D01*
X378850D01*
Y219809D01*
X378942D01*
Y219902D01*
X379035D01*
Y219994D01*
X379128D01*
Y220087D01*
X379220D01*
Y220180D01*
X379313D01*
Y220272D01*
X379405D01*
Y220365D01*
X379498D01*
Y220458D01*
X379683D01*
Y220550D01*
X379776D01*
Y220643D01*
X379869D01*
Y220736D01*
X380147D01*
Y220828D01*
X380239D01*
Y220921D01*
X380424D01*
Y221013D01*
X380702D01*
Y221106D01*
X380980D01*
Y221199D01*
X381258D01*
Y221291D01*
X381814D01*
Y221384D01*
X382370D01*
Y221291D01*
D02*
G37*
G36*
X432999Y215487D02*
X433178D01*
Y215308D01*
X432999D01*
Y215129D01*
X433178D01*
Y214950D01*
X432999D01*
Y214771D01*
X433178D01*
Y214592D01*
X432999D01*
Y214413D01*
X432820D01*
Y214234D01*
X432641D01*
Y214055D01*
X432462D01*
Y213876D01*
X432283D01*
Y213697D01*
X432104D01*
Y213518D01*
X431925D01*
Y213339D01*
X431567D01*
Y213160D01*
X431388D01*
Y212981D01*
X431209D01*
Y212802D01*
X431030D01*
Y212623D01*
X430851D01*
Y212444D01*
X430672D01*
Y212265D01*
X430493D01*
Y212086D01*
X430672D01*
Y211907D01*
X431030D01*
Y211728D01*
X431388D01*
Y211549D01*
X431746D01*
Y211370D01*
X432283D01*
Y213160D01*
X432462D01*
Y213339D01*
X432641D01*
Y213518D01*
X432820D01*
Y213697D01*
X432999D01*
Y213876D01*
X433178D01*
Y213518D01*
X432999D01*
Y213339D01*
X433178D01*
Y213160D01*
X432999D01*
Y212981D01*
X433178D01*
Y212444D01*
X432999D01*
Y212265D01*
X433178D01*
Y211728D01*
X432999D01*
Y211549D01*
X433178D01*
Y211012D01*
X432999D01*
Y210833D01*
X433178D01*
Y210296D01*
X432999D01*
Y210117D01*
X433178D01*
Y209938D01*
X432999D01*
Y209759D01*
X433178D01*
Y209401D01*
X432999D01*
Y209580D01*
X432641D01*
Y209759D01*
X432283D01*
Y209938D01*
X431925D01*
Y210117D01*
X431567D01*
Y210296D01*
X431209D01*
Y210475D01*
X431030D01*
Y210654D01*
X430672D01*
Y210833D01*
X430314D01*
Y211012D01*
X429956D01*
Y211191D01*
X429598D01*
Y211370D01*
X429240D01*
Y212802D01*
X429419D01*
Y212623D01*
X429598D01*
Y212802D01*
X429777D01*
Y212981D01*
X429956D01*
Y213160D01*
X430135D01*
Y213339D01*
X430493D01*
Y213518D01*
X430672D01*
Y213697D01*
X430851D01*
Y213876D01*
X431030D01*
Y214055D01*
X431209D01*
Y214234D01*
X431388D01*
Y214413D01*
X431567D01*
Y214592D01*
X431746D01*
Y214771D01*
X432104D01*
Y214950D01*
X432283D01*
Y215129D01*
X432462D01*
Y215308D01*
X432641D01*
Y215487D01*
X432820D01*
Y215666D01*
X432999D01*
Y215487D01*
D02*
G37*
G36*
X421365Y220320D02*
X421007D01*
Y220141D01*
X420291D01*
Y219962D01*
X419754D01*
Y219782D01*
X419038D01*
Y219603D01*
X418501D01*
Y219425D01*
X417785D01*
Y219246D01*
X417069D01*
Y219067D01*
X416532D01*
Y218888D01*
X415816D01*
Y218708D01*
X415279D01*
Y218530D01*
X414563D01*
Y218351D01*
X413847D01*
Y218172D01*
X413310D01*
Y217993D01*
X412594D01*
Y217814D01*
X411878D01*
Y217635D01*
X411699D01*
Y204926D01*
X411520D01*
Y204389D01*
X411341D01*
Y203852D01*
X411162D01*
Y203315D01*
X410983D01*
Y202957D01*
X410804D01*
Y202599D01*
X410625D01*
Y202420D01*
X410446D01*
Y202062D01*
X410267D01*
Y201883D01*
X410088D01*
Y201525D01*
X409909D01*
Y201346D01*
X409730D01*
Y201167D01*
X409551D01*
Y200988D01*
X409372D01*
Y200809D01*
X409193D01*
Y200630D01*
X409014D01*
Y200451D01*
X408835D01*
Y200272D01*
X408477D01*
Y200093D01*
X408298D01*
Y199914D01*
X407940D01*
Y199735D01*
X407761D01*
Y199556D01*
X407403D01*
Y199377D01*
X407045D01*
Y199198D01*
X406508D01*
Y199019D01*
X405971D01*
Y198840D01*
X405255D01*
Y198661D01*
X402033D01*
Y198840D01*
X401317D01*
Y199019D01*
X400780D01*
Y199198D01*
X400243D01*
Y199377D01*
X399885D01*
Y199556D01*
X399527D01*
Y199735D01*
X399348D01*
Y199914D01*
X398990D01*
Y200093D01*
X398811D01*
Y200272D01*
X398632D01*
Y200451D01*
X398274D01*
Y200630D01*
X398095D01*
Y200809D01*
X397916D01*
Y200988D01*
X397737D01*
Y201167D01*
X397558D01*
Y201346D01*
X397379D01*
Y201525D01*
X397200D01*
Y201883D01*
X397022D01*
Y202062D01*
X396843D01*
Y202420D01*
X396663D01*
Y202599D01*
X396484D01*
Y202957D01*
X396305D01*
Y203315D01*
X396127D01*
Y203852D01*
X395948D01*
Y204210D01*
X395768D01*
Y204926D01*
X395589D01*
Y206000D01*
X395410D01*
Y227300D01*
X395589D01*
Y227121D01*
X395948D01*
Y226942D01*
X396127D01*
Y226763D01*
X396484D01*
Y226584D01*
X396663D01*
Y226405D01*
X397022D01*
Y226226D01*
X397200D01*
Y226047D01*
X397558D01*
Y225868D01*
X397737D01*
Y225689D01*
X398095D01*
Y225510D01*
X398274D01*
Y225331D01*
X398632D01*
Y225152D01*
X398811D01*
Y224973D01*
X399169D01*
Y224794D01*
X399348D01*
Y224615D01*
X399706D01*
Y224436D01*
X399885D01*
Y224257D01*
X400243D01*
Y224078D01*
X400422D01*
Y223899D01*
X400780D01*
Y223720D01*
X400959D01*
Y223541D01*
X401317D01*
Y223362D01*
X401496D01*
Y223183D01*
X401675D01*
Y223004D01*
X401854D01*
Y222825D01*
X402033D01*
Y222646D01*
X402212D01*
Y222467D01*
X402391D01*
Y222288D01*
X402570D01*
Y222109D01*
X402928D01*
Y221930D01*
X403107D01*
Y221751D01*
X403286D01*
Y221572D01*
X403465D01*
Y221393D01*
X403644D01*
Y221215D01*
X403823D01*
Y221036D01*
X404002D01*
Y220856D01*
X404181D01*
Y220677D01*
X404360D01*
Y220498D01*
X404539D01*
Y220320D01*
X404718D01*
Y220141D01*
X404897D01*
Y219962D01*
X405255D01*
Y211728D01*
X405076D01*
Y211907D01*
X404897D01*
Y212086D01*
X404718D01*
Y212265D01*
X404539D01*
Y212444D01*
X404181D01*
Y212623D01*
X404002D01*
Y212802D01*
X403823D01*
Y212981D01*
X403644D01*
Y213160D01*
X403465D01*
Y213339D01*
X403286D01*
Y213518D01*
X403107D01*
Y213697D01*
X402928D01*
Y213876D01*
X402749D01*
Y214055D01*
X402391D01*
Y214234D01*
X402212D01*
Y214413D01*
X402033D01*
Y214592D01*
X401854D01*
Y214771D01*
X401675D01*
Y214950D01*
X401496D01*
Y215129D01*
X401138D01*
Y206358D01*
X401317D01*
Y205821D01*
X401496D01*
Y205463D01*
X401675D01*
Y205284D01*
X401854D01*
Y205105D01*
X402033D01*
Y204926D01*
X402212D01*
Y204747D01*
X402391D01*
Y204568D01*
X402749D01*
Y204389D01*
X403465D01*
Y204210D01*
X403644D01*
Y204389D01*
X404539D01*
Y204568D01*
X404897D01*
Y204747D01*
X405076D01*
Y204926D01*
X405255D01*
Y205105D01*
X405434D01*
Y205284D01*
X405613D01*
Y205463D01*
X405792D01*
Y205821D01*
X405971D01*
Y206537D01*
X406150D01*
Y223541D01*
X406687D01*
Y223720D01*
X407224D01*
Y223899D01*
X407940D01*
Y224078D01*
X408477D01*
Y224257D01*
X409193D01*
Y224436D01*
X409909D01*
Y224615D01*
X410446D01*
Y224794D01*
X411162D01*
Y224973D01*
X411878D01*
Y225152D01*
X412415D01*
Y225331D01*
X413131D01*
Y225510D01*
X413847D01*
Y225689D01*
X414384D01*
Y225868D01*
X415100D01*
Y226047D01*
X415816D01*
Y226226D01*
X416353D01*
Y226405D01*
X417069D01*
Y226584D01*
X417785D01*
Y226763D01*
X418322D01*
Y226942D01*
X419038D01*
Y227121D01*
X419575D01*
Y227300D01*
X420291D01*
Y227479D01*
X420828D01*
Y227658D01*
X421007D01*
Y228016D01*
X421186D01*
Y228553D01*
X421365D01*
Y220320D01*
D02*
G37*
G36*
X418143Y214592D02*
X418322D01*
Y214234D01*
X418501D01*
Y213876D01*
X418680D01*
Y213518D01*
X418859D01*
Y213160D01*
X419038D01*
Y212802D01*
X419217D01*
Y212444D01*
X419396D01*
Y212086D01*
X419575D01*
Y211728D01*
X419754D01*
Y211191D01*
X419933D01*
Y210833D01*
X420112D01*
Y210475D01*
X420291D01*
Y210117D01*
X420470D01*
Y209759D01*
X420649D01*
Y209401D01*
X420828D01*
Y209043D01*
X421007D01*
Y208685D01*
X421186D01*
Y208327D01*
X421365D01*
Y207969D01*
X421544D01*
Y207611D01*
X421723D01*
Y207253D01*
X421902D01*
Y206895D01*
X422081D01*
Y206537D01*
X422260D01*
Y206179D01*
X422439D01*
Y205821D01*
X422617D01*
Y205463D01*
X422796D01*
Y205105D01*
X422975D01*
Y204747D01*
X423154D01*
Y204389D01*
X423334D01*
Y204031D01*
X423513D01*
Y203673D01*
X423692D01*
Y203315D01*
X423871D01*
Y202957D01*
X424050D01*
Y202599D01*
X424228D01*
Y202241D01*
X424407D01*
Y201883D01*
X424586D01*
Y201525D01*
X424765D01*
Y201167D01*
X424944D01*
Y200809D01*
X425123D01*
Y200451D01*
X425302D01*
Y200093D01*
X425481D01*
Y199735D01*
X425660D01*
Y199377D01*
X425839D01*
Y199198D01*
X425660D01*
Y199377D01*
X425481D01*
Y199556D01*
X425302D01*
Y199735D01*
X425123D01*
Y199914D01*
X424944D01*
Y200093D01*
X424765D01*
Y200272D01*
X424586D01*
Y200451D01*
X424228D01*
Y200630D01*
X424050D01*
Y200809D01*
X423871D01*
Y200988D01*
X423692D01*
Y201167D01*
X423513D01*
Y201346D01*
X423334D01*
Y201525D01*
X423154D01*
Y201704D01*
X422975D01*
Y201883D01*
X422796D01*
Y202062D01*
X422617D01*
Y202241D01*
X422439D01*
Y202420D01*
X422260D01*
Y202599D01*
X422081D01*
Y202778D01*
X421723D01*
Y202957D01*
X421544D01*
Y203136D01*
X421365D01*
Y203315D01*
X421186D01*
Y203494D01*
X421007D01*
Y203673D01*
X420828D01*
Y203852D01*
X420649D01*
Y204031D01*
X420470D01*
Y204210D01*
X420291D01*
Y204389D01*
X419933D01*
Y198303D01*
X419754D01*
Y198482D01*
X419575D01*
Y198661D01*
X419396D01*
Y198840D01*
X419217D01*
Y199019D01*
X419038D01*
Y199198D01*
X418859D01*
Y199377D01*
X418680D01*
Y199556D01*
X418501D01*
Y199735D01*
X418143D01*
Y199914D01*
X417964D01*
Y200093D01*
X417785D01*
Y200272D01*
X417606D01*
Y200451D01*
X417427D01*
Y200630D01*
X417248D01*
Y200809D01*
X417069D01*
Y200988D01*
X416890D01*
Y201167D01*
X416711D01*
Y201346D01*
X416532D01*
Y201525D01*
X416174D01*
Y201704D01*
X415995D01*
Y201883D01*
X415816D01*
Y202062D01*
X415637D01*
Y202241D01*
X415458D01*
Y202420D01*
X415279D01*
Y202599D01*
X415100D01*
Y202778D01*
X414921D01*
Y202957D01*
X414742D01*
Y203136D01*
X414563D01*
Y203315D01*
X414205D01*
Y203494D01*
X414026D01*
Y203673D01*
X413847D01*
Y203852D01*
X413668D01*
Y204031D01*
X413489D01*
Y204210D01*
X413310D01*
Y204389D01*
X413131D01*
Y204568D01*
X412952D01*
Y204747D01*
X412773D01*
Y204926D01*
X412594D01*
Y212981D01*
X412773D01*
Y212802D01*
X412952D01*
Y212623D01*
X413310D01*
Y212444D01*
X413489D01*
Y212265D01*
X413668D01*
Y212086D01*
X413847D01*
Y211907D01*
X414026D01*
Y211728D01*
X414205D01*
Y211549D01*
X414384D01*
Y211370D01*
X414563D01*
Y211191D01*
X414742D01*
Y211012D01*
X414921D01*
Y210833D01*
X415279D01*
Y210654D01*
X415458D01*
Y210475D01*
X415637D01*
Y210296D01*
X415816D01*
Y210117D01*
X415995D01*
Y209938D01*
X416174D01*
Y209759D01*
X416353D01*
Y209580D01*
X416532D01*
Y209401D01*
X416711D01*
Y209222D01*
X416890D01*
Y209043D01*
X417069D01*
Y208864D01*
X417248D01*
Y208685D01*
X417606D01*
Y208506D01*
X417785D01*
Y208148D01*
X417964D01*
Y208327D01*
X418143D01*
Y214592D01*
X417964D01*
Y214771D01*
X418143D01*
Y214592D01*
D02*
G37*
G36*
X388483Y212584D02*
X381999D01*
Y209898D01*
X382092D01*
Y209805D01*
X382184D01*
Y209713D01*
X382277D01*
Y209620D01*
X382370D01*
Y209435D01*
X382555D01*
Y209342D01*
X382740D01*
Y209250D01*
X382833D01*
Y209342D01*
X382925D01*
Y209250D01*
X383759D01*
Y209342D01*
X383944D01*
Y209435D01*
X384037D01*
Y209527D01*
X384130D01*
Y209620D01*
X384222D01*
Y209713D01*
X384315D01*
Y209898D01*
X384407D01*
Y210176D01*
X384500D01*
Y212029D01*
X384593D01*
Y211936D01*
X384685D01*
Y211843D01*
X384871D01*
Y211751D01*
X384963D01*
Y211658D01*
X385148D01*
Y211565D01*
X385334D01*
Y211380D01*
X385519D01*
Y211287D01*
X385704D01*
Y211195D01*
X385889D01*
Y211102D01*
X385982D01*
Y211010D01*
X386167D01*
Y210917D01*
X386260D01*
Y210824D01*
X386445D01*
Y210732D01*
X386538D01*
Y210639D01*
X386723D01*
Y210546D01*
X386908D01*
Y210454D01*
X387001D01*
Y210361D01*
X387094D01*
Y210268D01*
X387279D01*
Y210176D01*
X387464D01*
Y210083D01*
X387557D01*
Y209991D01*
X387742D01*
Y209898D01*
X387927D01*
Y209805D01*
X388112D01*
Y209620D01*
X388298D01*
Y209527D01*
X388483D01*
Y208045D01*
X388298D01*
Y207860D01*
X388390D01*
Y207490D01*
X388483D01*
Y207027D01*
X388576D01*
Y206841D01*
X387557D01*
Y206749D01*
X387094D01*
Y206656D01*
X386630D01*
Y206563D01*
X386167D01*
Y206471D01*
X386075D01*
Y206563D01*
X385704D01*
Y206471D01*
X385241D01*
Y206378D01*
X384685D01*
Y206286D01*
X384315D01*
Y206193D01*
X383296D01*
Y206100D01*
X382833D01*
Y206008D01*
X382370D01*
Y205915D01*
X382277D01*
Y205730D01*
X388483D01*
Y204526D01*
X383018D01*
Y204618D01*
X382740D01*
Y204340D01*
X383018D01*
Y204248D01*
X383111D01*
Y204155D01*
X383296D01*
Y204062D01*
X383574D01*
Y203970D01*
X383666D01*
Y203877D01*
X383852D01*
Y203785D01*
X384037D01*
Y203692D01*
X384222D01*
Y203599D01*
X384315D01*
Y203507D01*
X384500D01*
Y203414D01*
X384778D01*
Y203321D01*
X384963D01*
Y203229D01*
X385056D01*
Y203136D01*
X385241D01*
Y203044D01*
X385426D01*
Y202951D01*
X385612D01*
Y202858D01*
X385704D01*
Y202766D01*
X385982D01*
Y202673D01*
X386167D01*
Y202580D01*
X386260D01*
Y202488D01*
X386445D01*
Y202395D01*
X386538D01*
Y202488D01*
X386630D01*
Y202303D01*
X386816D01*
Y202210D01*
X387001D01*
Y202117D01*
X387279D01*
Y202025D01*
X387371D01*
Y201932D01*
X387557D01*
Y201839D01*
X387649D01*
Y201747D01*
X387742D01*
Y201839D01*
X387835D01*
Y201747D01*
X387927D01*
Y201654D01*
X388020D01*
Y201561D01*
X388205D01*
Y201469D01*
X388483D01*
Y199987D01*
X380702D01*
Y201191D01*
X386445D01*
Y201469D01*
X386260D01*
Y201561D01*
X385982D01*
Y201654D01*
X385797D01*
Y201747D01*
X385704D01*
Y201839D01*
X385519D01*
Y201932D01*
X385241D01*
Y202025D01*
X385056D01*
Y202210D01*
X384778D01*
Y202303D01*
X384593D01*
Y202395D01*
X384500D01*
Y202488D01*
X384315D01*
Y202580D01*
X384037D01*
Y202673D01*
X383852D01*
Y202766D01*
X383759D01*
Y202858D01*
X383574D01*
Y202951D01*
X383388D01*
Y203044D01*
X383203D01*
Y203136D01*
X383111D01*
Y203229D01*
X382833D01*
Y203321D01*
X382647D01*
Y203414D01*
X382555D01*
Y203507D01*
X382370D01*
Y203599D01*
X382092D01*
Y203692D01*
X381999D01*
Y203785D01*
X381721D01*
Y203877D01*
X381536D01*
Y203970D01*
X381443D01*
Y204062D01*
X381258D01*
Y204155D01*
X381165D01*
Y204248D01*
X381073D01*
Y204155D01*
X380980D01*
Y204248D01*
X380888D01*
Y204340D01*
X380702D01*
Y205822D01*
X380795D01*
Y205915D01*
X380888D01*
Y206100D01*
X380795D01*
Y206471D01*
X380702D01*
Y206934D01*
X380980D01*
Y207027D01*
X381906D01*
Y207119D01*
X382462D01*
Y207212D01*
X382833D01*
Y207304D01*
X383852D01*
Y207397D01*
X384315D01*
Y207490D01*
X384778D01*
Y207582D01*
X385241D01*
Y207675D01*
X386167D01*
Y207768D01*
X386723D01*
Y207860D01*
X387186D01*
Y207953D01*
X387649D01*
Y208045D01*
X387742D01*
Y207953D01*
X388112D01*
Y208045D01*
X388205D01*
Y208231D01*
X388112D01*
Y208416D01*
X387835D01*
Y208509D01*
X387742D01*
Y208601D01*
X387649D01*
Y208694D01*
X387464D01*
Y208787D01*
X387279D01*
Y208879D01*
X387186D01*
Y208972D01*
X387001D01*
Y209157D01*
X386816D01*
Y209250D01*
X386630D01*
Y209342D01*
X386538D01*
Y209435D01*
X386353D01*
Y209527D01*
X386167D01*
Y209713D01*
X385889D01*
Y209805D01*
X385797D01*
Y209898D01*
X385519D01*
Y209620D01*
X385426D01*
Y209342D01*
X385334D01*
Y209157D01*
X385241D01*
Y209064D01*
X385148D01*
Y208972D01*
X385056D01*
Y208787D01*
X384963D01*
Y208694D01*
X384778D01*
Y208601D01*
X384685D01*
Y208509D01*
X384500D01*
Y208416D01*
X384315D01*
Y208323D01*
X384222D01*
Y208231D01*
X383944D01*
Y208138D01*
X383388D01*
Y208045D01*
X382833D01*
Y208138D01*
X382184D01*
Y208231D01*
X382092D01*
Y208323D01*
X381906D01*
Y208416D01*
X381721D01*
Y208509D01*
X381536D01*
Y208601D01*
X381443D01*
Y208694D01*
X381351D01*
Y208787D01*
X381258D01*
Y208879D01*
X381165D01*
Y208972D01*
X381073D01*
Y209157D01*
X380980D01*
Y209342D01*
X380888D01*
Y209713D01*
X380795D01*
Y210176D01*
X380702D01*
Y213788D01*
X388483D01*
Y212584D01*
D02*
G37*
G36*
X433178Y208506D02*
X432999D01*
Y208327D01*
X433178D01*
Y208148D01*
X432999D01*
Y207969D01*
X433178D01*
Y207790D01*
X432999D01*
Y207611D01*
X433178D01*
Y207432D01*
X432999D01*
Y207253D01*
X433178D01*
Y207074D01*
X432999D01*
Y206895D01*
X433178D01*
Y206716D01*
X432999D01*
Y206537D01*
X433178D01*
Y206358D01*
X432999D01*
Y206179D01*
X433178D01*
Y206000D01*
X432999D01*
Y205821D01*
X433178D01*
Y205642D01*
X432999D01*
Y205463D01*
X433178D01*
Y205284D01*
X432999D01*
Y204210D01*
X432820D01*
Y203852D01*
X432641D01*
Y203673D01*
X432462D01*
Y203494D01*
X431925D01*
Y203315D01*
X431388D01*
Y203494D01*
X431209D01*
Y203673D01*
X431030D01*
Y203852D01*
X430851D01*
Y207074D01*
X430672D01*
Y207253D01*
X430314D01*
Y207074D01*
X430135D01*
Y203852D01*
X429956D01*
Y203673D01*
X429777D01*
Y203494D01*
X429598D01*
Y203315D01*
X429419D01*
Y203136D01*
X429240D01*
Y207074D01*
X429419D01*
Y207611D01*
X429598D01*
Y207790D01*
X429777D01*
Y207969D01*
X429956D01*
Y208148D01*
X430493D01*
Y208327D01*
X430672D01*
Y208148D01*
X431209D01*
Y207790D01*
X431388D01*
Y207074D01*
X431567D01*
Y206895D01*
X431388D01*
Y204747D01*
X431567D01*
Y204389D01*
X432104D01*
Y204747D01*
X432283D01*
Y208148D01*
X432462D01*
Y208327D01*
X432641D01*
Y208506D01*
X432820D01*
Y208685D01*
X432999D01*
Y208864D01*
X433178D01*
Y208506D01*
D02*
G37*
G36*
X430135Y201525D02*
X431030D01*
Y201704D01*
X431925D01*
Y201883D01*
X433178D01*
Y201704D01*
X432999D01*
Y201525D01*
X433178D01*
Y201346D01*
X432999D01*
Y201167D01*
X433178D01*
Y200988D01*
X432999D01*
Y200809D01*
X431925D01*
Y200630D01*
X431030D01*
Y200451D01*
X430135D01*
Y198840D01*
X429956D01*
Y198661D01*
X429777D01*
Y198482D01*
X429598D01*
Y198303D01*
X429419D01*
Y198124D01*
X429240D01*
Y202420D01*
X429419D01*
Y202599D01*
X429598D01*
Y202778D01*
X429777D01*
Y202957D01*
X429956D01*
Y203136D01*
X430135D01*
Y201525D01*
D02*
G37*
G36*
X388483Y196930D02*
X388390D01*
Y196467D01*
X388298D01*
Y196004D01*
X388205D01*
Y195819D01*
X388112D01*
Y195633D01*
X388020D01*
Y195448D01*
X387927D01*
Y195355D01*
X387835D01*
Y195170D01*
X387742D01*
Y195078D01*
X387649D01*
Y194985D01*
X387557D01*
Y194892D01*
X387464D01*
Y194800D01*
X387371D01*
Y194707D01*
X387279D01*
Y194614D01*
X387186D01*
Y194522D01*
X387001D01*
Y194429D01*
X386816D01*
Y194336D01*
X386630D01*
Y194151D01*
X386445D01*
Y194059D01*
X386353D01*
Y194151D01*
X386260D01*
Y194059D01*
X386075D01*
Y193966D01*
X385889D01*
Y193873D01*
X385612D01*
Y193781D01*
X383666D01*
Y193873D01*
X383388D01*
Y193966D01*
X383203D01*
Y194059D01*
X382833D01*
Y194151D01*
X382555D01*
Y194244D01*
X382370D01*
Y194429D01*
X382184D01*
Y194522D01*
X381999D01*
Y194614D01*
X381906D01*
Y194707D01*
X381814D01*
Y194800D01*
X381721D01*
Y194892D01*
X381628D01*
Y194985D01*
X381536D01*
Y195078D01*
X381443D01*
Y195263D01*
X381351D01*
Y195355D01*
X381258D01*
Y195448D01*
X381165D01*
Y195726D01*
X381073D01*
Y195911D01*
X380980D01*
Y196097D01*
X380888D01*
Y196652D01*
X380795D01*
Y197301D01*
X380702D01*
Y199431D01*
X388483D01*
Y196930D01*
D02*
G37*
G36*
X432999Y194186D02*
X432820D01*
Y194007D01*
X432641D01*
Y193828D01*
X432462D01*
Y193649D01*
X432283D01*
Y198124D01*
X432462D01*
Y198303D01*
X432641D01*
Y198482D01*
X432999D01*
Y194186D01*
D02*
G37*
G36*
X431567Y194007D02*
X431388D01*
Y193828D01*
X431209D01*
Y193649D01*
X431030D01*
Y193471D01*
X430851D01*
Y194007D01*
X430672D01*
Y194186D01*
X430851D01*
Y194723D01*
X430672D01*
Y194902D01*
X430851D01*
Y195439D01*
X430672D01*
Y195618D01*
X430851D01*
Y196155D01*
X430672D01*
Y196334D01*
X430851D01*
Y196871D01*
X430672D01*
Y197050D01*
X430851D01*
Y197587D01*
X430672D01*
Y197766D01*
X430851D01*
Y197945D01*
X431030D01*
Y198124D01*
X431209D01*
Y198303D01*
X431388D01*
Y198482D01*
X431567D01*
Y194007D01*
D02*
G37*
G36*
X430135Y193828D02*
X429956D01*
Y193649D01*
X429777D01*
Y193471D01*
X429598D01*
Y193291D01*
X429419D01*
Y193113D01*
X429240D01*
Y197408D01*
X429419D01*
Y197587D01*
X429598D01*
Y197766D01*
X429777D01*
Y197945D01*
X429956D01*
Y198124D01*
X430135D01*
Y193828D01*
D02*
G37*
G36*
X388483Y189335D02*
X387279D01*
Y191836D01*
X385241D01*
Y190446D01*
X384037D01*
Y191836D01*
X381999D01*
Y189335D01*
X380702D01*
Y193040D01*
X388483D01*
Y189335D01*
D02*
G37*
G36*
Y187575D02*
X381999D01*
Y184889D01*
X382092D01*
Y184703D01*
X382184D01*
Y184611D01*
X382277D01*
Y184518D01*
X382370D01*
Y184425D01*
X382462D01*
Y184333D01*
X382647D01*
Y184240D01*
X382925D01*
Y184148D01*
X383481D01*
Y184240D01*
X383852D01*
Y184333D01*
X383944D01*
Y184425D01*
X384037D01*
Y184518D01*
X384130D01*
Y184611D01*
X384222D01*
Y184703D01*
X384315D01*
Y184889D01*
X384407D01*
Y185074D01*
X384500D01*
Y186926D01*
X384593D01*
Y186834D01*
X384778D01*
Y186741D01*
X384963D01*
Y186648D01*
X385056D01*
Y186556D01*
X385148D01*
Y186463D01*
X385334D01*
Y186371D01*
X385519D01*
Y186278D01*
X385612D01*
Y186185D01*
X385704D01*
Y186093D01*
X385982D01*
Y186000D01*
X386075D01*
Y185907D01*
X386167D01*
Y185815D01*
X386353D01*
Y185722D01*
X386538D01*
Y185629D01*
X386630D01*
Y185537D01*
X386723D01*
Y185444D01*
X387001D01*
Y185352D01*
X387094D01*
Y185259D01*
X387186D01*
Y185166D01*
X387464D01*
Y185074D01*
X387557D01*
Y184981D01*
X387742D01*
Y184796D01*
X387927D01*
Y184703D01*
X388112D01*
Y184611D01*
X388205D01*
Y184518D01*
X388483D01*
Y182943D01*
X388390D01*
Y183128D01*
X388205D01*
Y183221D01*
X388112D01*
Y183314D01*
X387927D01*
Y183406D01*
X387742D01*
Y183592D01*
X387464D01*
Y183777D01*
X387279D01*
Y183870D01*
X387094D01*
Y183962D01*
X387001D01*
Y184055D01*
X386816D01*
Y184240D01*
X386538D01*
Y184333D01*
X386445D01*
Y184425D01*
X386353D01*
Y184518D01*
X386167D01*
Y184611D01*
X385982D01*
Y184703D01*
X385889D01*
Y184796D01*
X385797D01*
Y184889D01*
X385519D01*
Y184518D01*
X385426D01*
Y184333D01*
X385334D01*
Y184055D01*
X385241D01*
Y183962D01*
X385148D01*
Y183870D01*
X385056D01*
Y183684D01*
X384963D01*
Y183592D01*
X384685D01*
Y183406D01*
X384500D01*
Y183314D01*
X384222D01*
Y183221D01*
X384037D01*
Y183128D01*
X383759D01*
Y183036D01*
X383481D01*
Y182943D01*
X383388D01*
Y183036D01*
X382833D01*
Y182943D01*
X382740D01*
Y183036D01*
X382462D01*
Y183128D01*
X382184D01*
Y183221D01*
X381999D01*
Y183314D01*
X381814D01*
Y183406D01*
X381628D01*
Y183499D01*
X381536D01*
Y183592D01*
X381443D01*
Y183684D01*
X381351D01*
Y183777D01*
X381258D01*
Y183870D01*
X381165D01*
Y183962D01*
X381073D01*
Y184148D01*
X380980D01*
Y184240D01*
X380888D01*
Y184703D01*
X380795D01*
Y185166D01*
X380702D01*
Y188779D01*
X380795D01*
Y188686D01*
X388390D01*
Y188779D01*
X388483D01*
Y187575D01*
D02*
G37*
G36*
X433178Y192396D02*
X432999D01*
Y192218D01*
X433178D01*
Y192039D01*
X432999D01*
Y191859D01*
X432104D01*
Y191681D01*
X431925D01*
Y189891D01*
X432104D01*
Y189712D01*
X432283D01*
Y189533D01*
X432641D01*
Y189354D01*
X432820D01*
Y189175D01*
X432999D01*
Y188996D01*
X433178D01*
Y188817D01*
X432999D01*
Y188638D01*
X433178D01*
Y188101D01*
X432999D01*
Y187922D01*
X433178D01*
Y187564D01*
X432999D01*
Y187743D01*
X432820D01*
Y187922D01*
X432641D01*
Y188101D01*
X432283D01*
Y188280D01*
X432104D01*
Y188459D01*
X431925D01*
Y188638D01*
X431746D01*
Y188101D01*
X431567D01*
Y187922D01*
X431388D01*
Y187743D01*
X431209D01*
Y187922D01*
X431030D01*
Y187743D01*
X431209D01*
Y187564D01*
X431030D01*
Y187385D01*
X429777D01*
Y187564D01*
X429598D01*
Y187922D01*
X429419D01*
Y188280D01*
X429240D01*
Y192396D01*
X429777D01*
Y192576D01*
X430135D01*
Y188817D01*
X430314D01*
Y188459D01*
X430851D01*
Y188638D01*
X431030D01*
Y188817D01*
X431209D01*
Y192754D01*
X431925D01*
Y192933D01*
X432999D01*
Y193113D01*
X433178D01*
Y192396D01*
D02*
G37*
G36*
Y186669D02*
X432999D01*
Y186490D01*
X433178D01*
Y186311D01*
X432999D01*
Y186132D01*
X433178D01*
Y185953D01*
X432999D01*
Y185774D01*
X433178D01*
Y185595D01*
X432999D01*
Y185416D01*
X433178D01*
Y185237D01*
X432999D01*
Y185058D01*
X433178D01*
Y184879D01*
X432999D01*
Y184700D01*
X433178D01*
Y184521D01*
X432999D01*
Y184342D01*
X433178D01*
Y184163D01*
X432999D01*
Y183984D01*
X433178D01*
Y183805D01*
X432999D01*
Y183626D01*
X433178D01*
Y183268D01*
X432999D01*
Y182373D01*
X432820D01*
Y182015D01*
X432641D01*
Y181836D01*
X432462D01*
Y181657D01*
X431746D01*
Y181478D01*
X431567D01*
Y181657D01*
X431209D01*
Y181836D01*
X431030D01*
Y182015D01*
X430851D01*
Y185416D01*
X430314D01*
Y185237D01*
X430135D01*
Y182015D01*
X429956D01*
Y181836D01*
X429777D01*
Y181657D01*
X429598D01*
Y181478D01*
X429419D01*
Y181299D01*
X429240D01*
Y185237D01*
X429419D01*
Y185774D01*
X429598D01*
Y186132D01*
X429777D01*
Y186311D01*
X430493D01*
Y186490D01*
X430851D01*
Y186311D01*
X431209D01*
Y186132D01*
X431388D01*
Y182910D01*
X431567D01*
Y182552D01*
X432104D01*
Y182910D01*
X432283D01*
Y186311D01*
X432462D01*
Y186490D01*
X432641D01*
Y186669D01*
X432820D01*
Y186848D01*
X432999D01*
Y187027D01*
X433178D01*
Y186669D01*
D02*
G37*
G36*
X509221Y233909D02*
X509169Y233819D01*
X509092Y233650D01*
X509040Y233495D01*
X509001Y233352D01*
X508988Y233287D01*
X508975Y233229D01*
X508968Y233184D01*
Y233138D01*
X508962Y233106D01*
Y233034D01*
X510141Y233281D01*
Y233326D01*
X510148Y233404D01*
X510154Y233469D01*
X510167Y233527D01*
X510187Y233572D01*
X510206Y233605D01*
X510219Y233631D01*
X510225Y233644D01*
X510232Y233650D01*
X510277Y233689D01*
X510342Y233734D01*
X510413Y233773D01*
X510491Y233812D01*
X510569Y233851D01*
X510627Y233877D01*
X510653Y233890D01*
X510673Y233896D01*
X510679Y233903D01*
X510686D01*
X510647Y233786D01*
X510621Y233682D01*
X510595Y233592D01*
X510582Y233507D01*
X510575Y233443D01*
X510569Y233391D01*
Y233359D01*
X511392Y233527D01*
X511470Y233540D01*
X511541Y233553D01*
X511664Y233572D01*
X511768Y233592D01*
X511852Y233598D01*
X511910Y233605D01*
X511949Y233611D01*
X511975D01*
X511982D01*
X512092Y233598D01*
X512183Y233572D01*
X512267Y233527D01*
X512338Y233469D01*
X512396Y233404D01*
X512448Y233326D01*
X512487Y233242D01*
X512519Y233158D01*
X512545Y233080D01*
X512565Y232996D01*
X512578Y232918D01*
X512584Y232853D01*
X512591Y232795D01*
X512597Y232749D01*
Y232620D01*
X512591Y232516D01*
X512578Y232412D01*
X512565Y232309D01*
X512558Y232218D01*
X512545Y232140D01*
Y232114D01*
X512539Y232095D01*
Y232075D01*
X512519Y231933D01*
X512500Y231810D01*
X512481Y231713D01*
X512461Y231635D01*
X512448Y231576D01*
X512435Y231531D01*
X512429Y231505D01*
Y231499D01*
X512403Y231440D01*
X512377Y231395D01*
X512293Y231304D01*
X512195Y231227D01*
X512098Y231168D01*
X512001Y231123D01*
X511923Y231090D01*
X511891Y231078D01*
X511865Y231071D01*
X511852Y231065D01*
X511845D01*
X511923Y231285D01*
X511982Y231505D01*
X512020Y231713D01*
X512040Y231810D01*
X512046Y231901D01*
X512059Y231985D01*
X512066Y232063D01*
X512072Y232134D01*
Y232192D01*
X512079Y232237D01*
Y232302D01*
X512072Y232412D01*
X512066Y232503D01*
X512053Y232587D01*
X512033Y232652D01*
X512014Y232711D01*
X511988Y232762D01*
X511962Y232801D01*
X511930Y232834D01*
X511904Y232859D01*
X511878Y232879D01*
X511833Y232898D01*
X511800Y232911D01*
X511787D01*
X511709Y232905D01*
X511625Y232898D01*
X511528Y232885D01*
X511431Y232873D01*
X511340Y232859D01*
X511269Y232847D01*
X511243Y232840D01*
X511223Y232834D01*
X511210D01*
X511204D01*
X510569Y232711D01*
Y232121D01*
X510563Y232037D01*
Y231959D01*
X510556Y231894D01*
X510549Y231829D01*
X510543Y231771D01*
X510537Y231726D01*
X510530Y231687D01*
X510517Y231622D01*
X510511Y231576D01*
X510498Y231551D01*
Y231544D01*
X510478Y231512D01*
X510452Y231486D01*
X510388Y231421D01*
X510303Y231363D01*
X510219Y231311D01*
X510135Y231265D01*
X510064Y231227D01*
X510038Y231214D01*
X510018Y231201D01*
X510005Y231194D01*
X509999D01*
X510044Y231350D01*
X510083Y231518D01*
X510109Y231674D01*
X510122Y231829D01*
X510128Y231894D01*
X510135Y231959D01*
Y232011D01*
X510141Y232063D01*
Y232633D01*
X508962Y232386D01*
Y231499D01*
X508955Y231408D01*
Y231324D01*
X508949Y231253D01*
X508943Y231188D01*
X508936Y231123D01*
X508929Y231078D01*
X508923Y231032D01*
X508910Y230961D01*
X508904Y230909D01*
X508891Y230883D01*
Y230877D01*
X508871Y230844D01*
X508845Y230812D01*
X508780Y230741D01*
X508696Y230669D01*
X508605Y230611D01*
X508521Y230553D01*
X508450Y230514D01*
X508424Y230494D01*
X508405Y230488D01*
X508392Y230475D01*
X508385D01*
X508437Y230682D01*
X508469Y230890D01*
X508495Y231103D01*
X508515Y231298D01*
X508521Y231389D01*
X508528Y231466D01*
Y231544D01*
X508534Y231602D01*
Y232672D01*
X508541Y232821D01*
X508547Y232950D01*
X508554Y233073D01*
X508560Y233177D01*
X508573Y233268D01*
X508580Y233352D01*
X508593Y233423D01*
X508605Y233482D01*
X508612Y233527D01*
X508625Y233566D01*
X508631Y233598D01*
X508638Y233618D01*
X508644Y233631D01*
X508651Y233644D01*
X508677Y233682D01*
X508709Y233721D01*
X508755Y233760D01*
X508800Y233793D01*
X508897Y233851D01*
X509007Y233903D01*
X509104Y233948D01*
X509150Y233961D01*
X509189Y233974D01*
X509228Y233987D01*
X509254Y233994D01*
X509267Y234000D01*
X509273D01*
X509221Y233909D01*
D02*
G37*
G36*
X512092Y230242D02*
X512183Y230216D01*
X512267Y230170D01*
X512338Y230118D01*
X512396Y230047D01*
X512448Y229976D01*
X512487Y229898D01*
X512519Y229814D01*
X512545Y229730D01*
X512565Y229652D01*
X512578Y229581D01*
X512584Y229509D01*
X512591Y229457D01*
X512597Y229412D01*
Y229373D01*
X512591Y229172D01*
X512584Y228984D01*
X512571Y228816D01*
X512552Y228660D01*
X512545Y228589D01*
X512532Y228531D01*
X512526Y228479D01*
X512519Y228434D01*
X512513Y228395D01*
Y228369D01*
X512506Y228356D01*
Y228349D01*
X512487Y228259D01*
X512474Y228181D01*
X512455Y228110D01*
X512435Y228045D01*
X512422Y227987D01*
X512403Y227941D01*
X512383Y227896D01*
X512370Y227857D01*
X512338Y227799D01*
X512312Y227760D01*
X512299Y227740D01*
X512293Y227734D01*
X512234Y227689D01*
X512163Y227643D01*
X512085Y227604D01*
X512008Y227572D01*
X511936Y227546D01*
X511878Y227526D01*
X511839Y227514D01*
X511833Y227507D01*
X511826D01*
X511917Y227786D01*
X511982Y228045D01*
X512008Y228168D01*
X512027Y228278D01*
X512046Y228388D01*
X512059Y228485D01*
X512072Y228576D01*
X512079Y228660D01*
X512085Y228732D01*
Y228790D01*
X512092Y228835D01*
Y228900D01*
X512085Y229017D01*
X512079Y229121D01*
X512066Y229205D01*
X512046Y229283D01*
X512027Y229347D01*
X512008Y229399D01*
X511982Y229445D01*
X511956Y229477D01*
X511930Y229503D01*
X511904Y229529D01*
X511865Y229548D01*
X511833Y229561D01*
X511820D01*
X511781D01*
X511735Y229555D01*
X511632Y229548D01*
X511521Y229529D01*
X511411Y229509D01*
X511308Y229496D01*
X511262Y229483D01*
X511223Y229477D01*
X511191Y229470D01*
X511165D01*
X511152Y229464D01*
X511146D01*
X508878Y229017D01*
X508800Y228997D01*
X508729Y228984D01*
X508670Y228972D01*
X508612Y228959D01*
X508567Y228952D01*
X508528Y228946D01*
X508463Y228933D01*
X508424Y228926D01*
X508398Y228920D01*
X508385D01*
X508307Y228926D01*
X508249Y228952D01*
X508204Y228991D01*
X508178Y229030D01*
X508158Y229075D01*
X508152Y229108D01*
X508145Y229134D01*
Y229147D01*
X508152Y229211D01*
X508171Y229289D01*
X508197Y229380D01*
X508223Y229464D01*
X508256Y229548D01*
X508282Y229613D01*
X508294Y229639D01*
X508301Y229658D01*
X508307Y229671D01*
Y229678D01*
X508385Y229639D01*
X508443Y229620D01*
X508482Y229613D01*
X508489D01*
X508495D01*
X508534D01*
X508580Y229620D01*
X508683Y229632D01*
X508729Y229645D01*
X508768Y229652D01*
X508793Y229658D01*
X508806D01*
X511366Y230170D01*
X511444Y230183D01*
X511521Y230196D01*
X511651Y230216D01*
X511755Y230235D01*
X511839Y230242D01*
X511904Y230248D01*
X511949Y230255D01*
X511975D01*
X511982D01*
X512092Y230242D01*
D02*
G37*
G36*
X512202Y227306D02*
X512299Y227287D01*
X512377Y227267D01*
X512442Y227248D01*
X512487Y227228D01*
X512519Y227209D01*
X512539Y227203D01*
X512545Y227196D01*
X512584Y227151D01*
X512617Y227092D01*
X512636Y227034D01*
X512655Y226982D01*
X512662Y226930D01*
X512669Y226885D01*
Y226788D01*
X512662Y226716D01*
X512643Y226561D01*
X512630Y226490D01*
X512623Y226431D01*
X512617Y226393D01*
Y226379D01*
X512539Y225796D01*
X512526Y225686D01*
X512513Y225595D01*
X512506Y225511D01*
Y225440D01*
X512500Y225382D01*
Y225304D01*
X512513Y225148D01*
X512519Y225071D01*
X512532Y224999D01*
X512545Y224935D01*
X512552Y224889D01*
X512565Y224857D01*
Y224844D01*
X512461Y224850D01*
X512377Y224863D01*
X512299Y224883D01*
X512234Y224902D01*
X512176Y224935D01*
X512131Y224967D01*
X512092Y225006D01*
X512059Y225038D01*
X512033Y225077D01*
X512020Y225116D01*
X511995Y225174D01*
Y225200D01*
X511988Y225220D01*
Y225330D01*
X512001Y225433D01*
X512008Y225537D01*
X512020Y225641D01*
X512033Y225738D01*
X512046Y225816D01*
X512053Y225848D01*
Y225868D01*
X512059Y225881D01*
Y225887D01*
X508910Y225252D01*
X508904Y225207D01*
X508897Y225194D01*
Y225187D01*
X508884Y225097D01*
X508871Y225006D01*
X508865Y224935D01*
Y224863D01*
X508858Y224811D01*
Y224682D01*
X508871Y224617D01*
X508884Y224559D01*
X508897Y224500D01*
X508910Y224448D01*
X508923Y224410D01*
X508929Y224377D01*
X508936Y224371D01*
X508832Y224384D01*
X508742Y224410D01*
X508664Y224435D01*
X508599Y224468D01*
X508541Y224507D01*
X508495Y224546D01*
X508457Y224585D01*
X508424Y224630D01*
X508405Y224669D01*
X508385Y224708D01*
X508359Y224773D01*
Y224798D01*
X508353Y224818D01*
Y224837D01*
X508359Y224935D01*
X508366Y225045D01*
X508379Y225161D01*
X508398Y225271D01*
X508418Y225375D01*
X508424Y225414D01*
X508431Y225453D01*
X508437Y225485D01*
Y225511D01*
X508443Y225524D01*
Y225531D01*
X508515Y225919D01*
X508534Y226043D01*
X508554Y226153D01*
X508567Y226243D01*
X508573Y226321D01*
Y226379D01*
X508580Y226425D01*
Y226457D01*
X508567Y226561D01*
X508547Y226665D01*
X508534Y226704D01*
X508528Y226736D01*
X508515Y226762D01*
Y226768D01*
X508605Y226762D01*
X508690Y226749D01*
X508761Y226729D01*
X508819Y226704D01*
X508871Y226671D01*
X508910Y226639D01*
X508949Y226600D01*
X508975Y226561D01*
X509014Y226483D01*
X509033Y226418D01*
Y226393D01*
X509040Y226373D01*
Y226354D01*
X509033Y226198D01*
X509027Y226120D01*
X509014Y226056D01*
X509007Y225997D01*
X509001Y225958D01*
X508994Y225926D01*
Y225919D01*
X512144Y226554D01*
X512157Y226632D01*
X512163Y226697D01*
X512170Y226749D01*
Y226794D01*
X512176Y226833D01*
Y226878D01*
X512170Y226950D01*
X512163Y227028D01*
X512144Y227099D01*
X512124Y227164D01*
X512111Y227222D01*
X512092Y227274D01*
X512085Y227300D01*
X512079Y227313D01*
X512202Y227306D01*
D02*
G37*
G36*
X512338Y224092D02*
X512383Y224086D01*
X512429Y224066D01*
X512461Y224047D01*
X512519Y223988D01*
X512558Y223924D01*
X512578Y223865D01*
X512591Y223807D01*
X512597Y223768D01*
Y223755D01*
X512591Y223677D01*
X512578Y223593D01*
X512558Y223509D01*
X512532Y223431D01*
X512506Y223366D01*
X512487Y223314D01*
X512474Y223282D01*
X512468Y223269D01*
X512390Y223334D01*
X512312Y223386D01*
X512221Y223418D01*
X512137Y223444D01*
X512066Y223457D01*
X512008Y223464D01*
X511962Y223470D01*
X511956D01*
X511949D01*
X511852Y223464D01*
X511735Y223457D01*
X511619Y223444D01*
X511509Y223425D01*
X511405Y223405D01*
X511360Y223399D01*
X511321Y223392D01*
X511288Y223386D01*
X511262D01*
X511249Y223379D01*
X511243D01*
X509610Y223081D01*
X509765Y223068D01*
X509837Y223036D01*
X509914Y223003D01*
X510005Y222958D01*
X510096Y222919D01*
X510180Y222887D01*
X510251Y222854D01*
X510277Y222841D01*
X510297Y222835D01*
X510310Y222829D01*
X510316D01*
X510543Y222731D01*
X510757Y222634D01*
X510951Y222543D01*
X511126Y222459D01*
X511288Y222381D01*
X511431Y222310D01*
X511560Y222245D01*
X511677Y222187D01*
X511781Y222135D01*
X511865Y222090D01*
X511936Y222044D01*
X511995Y222012D01*
X512033Y221986D01*
X512066Y221967D01*
X512085Y221960D01*
X512092Y221954D01*
X512183Y221889D01*
X512260Y221831D01*
X512325Y221766D01*
X512383Y221707D01*
X512435Y221656D01*
X512474Y221597D01*
X512506Y221552D01*
X512532Y221500D01*
X512571Y221422D01*
X512591Y221357D01*
X512597Y221319D01*
Y221306D01*
X512584Y221234D01*
X512558Y221170D01*
X512506Y221111D01*
X512448Y221046D01*
X512377Y220995D01*
X512293Y220936D01*
X512118Y220846D01*
X511943Y220768D01*
X511865Y220735D01*
X511794Y220709D01*
X511735Y220684D01*
X511684Y220671D01*
X511658Y220658D01*
X511645D01*
X511418Y220599D01*
X511185Y220541D01*
X510945Y220489D01*
X510835Y220463D01*
X510724Y220444D01*
X510621Y220424D01*
X510530Y220405D01*
X510446Y220392D01*
X510375Y220379D01*
X510316Y220366D01*
X510277Y220360D01*
X510245Y220353D01*
X510239D01*
X510089Y220327D01*
X509947Y220308D01*
X509811Y220288D01*
X509694Y220269D01*
X509584Y220256D01*
X509480Y220243D01*
X509390Y220236D01*
X509305Y220230D01*
X509234Y220223D01*
X509169Y220217D01*
X509117D01*
X509079Y220211D01*
X509046D01*
X509020D01*
X509007D01*
X509001D01*
X508904Y220217D01*
X508813Y220223D01*
X508742Y220243D01*
X508677Y220269D01*
X508618Y220295D01*
X508573Y220327D01*
X508534Y220360D01*
X508508Y220392D01*
X508482Y220431D01*
X508469Y220463D01*
X508443Y220522D01*
Y220548D01*
X508437Y220567D01*
Y220580D01*
X508450Y220664D01*
X508476Y220755D01*
X508515Y220846D01*
X508554Y220923D01*
X508599Y220995D01*
X508638Y221046D01*
X508664Y221085D01*
X508677Y221092D01*
Y221098D01*
X508722Y221040D01*
X508780Y220995D01*
X508845Y220949D01*
X508910Y220917D01*
X509053Y220859D01*
X509189Y220820D01*
X509325Y220800D01*
X509383Y220787D01*
X509429D01*
X509474Y220781D01*
X509506D01*
X509526D01*
X509532D01*
X509830Y220787D01*
X510115Y220807D01*
X510245Y220820D01*
X510375Y220833D01*
X510498Y220852D01*
X510608Y220865D01*
X510711Y220878D01*
X510802Y220897D01*
X510886Y220910D01*
X510951Y220923D01*
X511010Y220936D01*
X511049Y220943D01*
X511074Y220949D01*
X511081D01*
X511210Y220982D01*
X511327Y221008D01*
X511424Y221040D01*
X511509Y221066D01*
X511586Y221092D01*
X511645Y221118D01*
X511696Y221144D01*
X511735Y221163D01*
X511761Y221183D01*
X511787Y221202D01*
X511800Y221215D01*
X511813Y221228D01*
X511826Y221247D01*
Y221254D01*
X511820Y221273D01*
X511807Y221299D01*
X511781Y221325D01*
X511748Y221357D01*
X511709Y221390D01*
X511658Y221422D01*
X511606Y221461D01*
X511541Y221500D01*
X511405Y221578D01*
X511256Y221662D01*
X511087Y221753D01*
X510919Y221837D01*
X510750Y221921D01*
X510588Y221999D01*
X510439Y222070D01*
X510303Y222135D01*
X510239Y222161D01*
X510187Y222187D01*
X510135Y222213D01*
X510096Y222232D01*
X510064Y222245D01*
X510038Y222258D01*
X510025Y222265D01*
X510018D01*
X509876Y222323D01*
X509739Y222381D01*
X509610Y222433D01*
X509487Y222479D01*
X509377Y222524D01*
X509267Y222569D01*
X509169Y222615D01*
X509079Y222654D01*
X508910Y222718D01*
X508768Y222783D01*
X508644Y222829D01*
X508547Y222874D01*
X508463Y222913D01*
X508398Y222939D01*
X508353Y222958D01*
X508314Y222977D01*
X508288Y222990D01*
X508275Y222997D01*
X508262Y223003D01*
X508204Y223042D01*
X508158Y223088D01*
X508126Y223140D01*
X508100Y223185D01*
X508087Y223230D01*
X508081Y223269D01*
Y223327D01*
X508094Y223360D01*
X508119Y223438D01*
X508158Y223528D01*
X508204Y223625D01*
X508249Y223716D01*
X508288Y223794D01*
X508301Y223820D01*
X508314Y223846D01*
X508327Y223859D01*
Y223865D01*
X508353Y223820D01*
X508385Y223775D01*
X508457Y223703D01*
X508541Y223632D01*
X508625Y223580D01*
X508709Y223535D01*
X508774Y223502D01*
X508800Y223489D01*
X508819Y223483D01*
X508832Y223477D01*
X508839D01*
X509027Y223399D01*
X510679Y223787D01*
X510919Y223839D01*
X511133Y223891D01*
X511321Y223930D01*
X511489Y223969D01*
X511645Y223995D01*
X511774Y224021D01*
X511884Y224040D01*
X511982Y224060D01*
X512059Y224073D01*
X512124Y224079D01*
X512176Y224092D01*
X512215D01*
X512247Y224099D01*
X512267D01*
X512273D01*
X512280D01*
X512338Y224092D01*
D02*
G37*
G36*
X509765Y218040D02*
X509824Y218027D01*
X509882Y218014D01*
X509927Y217994D01*
X509973Y217975D01*
X510005Y217955D01*
X510031Y217949D01*
X510038Y217943D01*
X509837Y217781D01*
X509746Y217703D01*
X509668Y217619D01*
X509590Y217541D01*
X509519Y217463D01*
X509454Y217385D01*
X509396Y217314D01*
X509351Y217249D01*
X509305Y217184D01*
X509267Y217133D01*
X509234Y217087D01*
X509215Y217048D01*
X509195Y217022D01*
X509182Y217003D01*
Y216997D01*
X509130Y216893D01*
X509085Y216796D01*
X509007Y216595D01*
X508955Y216400D01*
X508917Y216225D01*
X508904Y216141D01*
X508897Y216070D01*
X508891Y216012D01*
X508884Y215953D01*
X508878Y215908D01*
Y215849D01*
X508884Y215713D01*
X508897Y215584D01*
X508917Y215461D01*
X508943Y215344D01*
X508968Y215240D01*
X509001Y215137D01*
X509040Y215053D01*
X509072Y214968D01*
X509111Y214897D01*
X509143Y214832D01*
X509176Y214780D01*
X509208Y214735D01*
X509234Y214696D01*
X509247Y214670D01*
X509260Y214657D01*
X509267Y214651D01*
X509338Y214573D01*
X509422Y214502D01*
X509500Y214443D01*
X509584Y214391D01*
X509675Y214346D01*
X509759Y214307D01*
X509837Y214281D01*
X509921Y214255D01*
X509992Y214236D01*
X510064Y214223D01*
X510122Y214210D01*
X510180Y214204D01*
X510225D01*
X510258Y214197D01*
X510277D01*
X510284D01*
X510433Y214204D01*
X510582Y214223D01*
X510718Y214255D01*
X510854Y214301D01*
X510977Y214346D01*
X511087Y214398D01*
X511198Y214456D01*
X511288Y214515D01*
X511379Y214573D01*
X511457Y214631D01*
X511521Y214683D01*
X511573Y214728D01*
X511619Y214767D01*
X511651Y214800D01*
X511671Y214819D01*
X511677Y214826D01*
X511774Y214942D01*
X511859Y215072D01*
X511936Y215201D01*
X512001Y215331D01*
X512053Y215461D01*
X512098Y215590D01*
X512137Y215713D01*
X512163Y215837D01*
X512189Y215947D01*
X512202Y216050D01*
X512215Y216148D01*
X512228Y216225D01*
Y216290D01*
X512234Y216342D01*
Y216478D01*
X512228Y216556D01*
X512221Y216621D01*
X512215Y216666D01*
X512208Y216705D01*
X512202Y216724D01*
X512195Y216737D01*
Y216744D01*
X512176Y216770D01*
X512150Y216789D01*
X512092Y216809D01*
X512066Y216815D01*
X512040Y216822D01*
X512027D01*
X512020D01*
X511988D01*
X511949Y216815D01*
X511852Y216802D01*
X511742Y216789D01*
X511632Y216770D01*
X511521Y216750D01*
X511476Y216744D01*
X511431Y216731D01*
X511398Y216724D01*
X511373D01*
X511353Y216718D01*
X511347D01*
X509914Y216433D01*
X509837Y216420D01*
X509772Y216400D01*
X509714Y216387D01*
X509662Y216381D01*
X509616Y216374D01*
X509584Y216361D01*
X509526Y216355D01*
X509487Y216349D01*
X509461Y216342D01*
X509448D01*
X509370Y216349D01*
X509312Y216374D01*
X509267Y216413D01*
X509241Y216452D01*
X509221Y216497D01*
X509215Y216530D01*
X509208Y216556D01*
Y216569D01*
X509215Y216634D01*
X509234Y216711D01*
X509260Y216802D01*
X509286Y216886D01*
X509318Y216971D01*
X509344Y217035D01*
X509357Y217061D01*
X509364Y217081D01*
X509370Y217094D01*
Y217100D01*
X509448Y217061D01*
X509506Y217042D01*
X509545Y217035D01*
X509552D01*
X509558D01*
X509597D01*
X509642Y217042D01*
X509746Y217055D01*
X509791Y217068D01*
X509830Y217074D01*
X509856Y217081D01*
X509863D01*
X511567Y217424D01*
X511658Y217444D01*
X511742Y217457D01*
X511820Y217470D01*
X511891Y217482D01*
X511949Y217489D01*
X512008Y217495D01*
X512053Y217502D01*
X512098Y217508D01*
X512170Y217515D01*
X512215Y217521D01*
X512241D01*
X512247D01*
X512331Y217515D01*
X512409Y217495D01*
X512474Y217463D01*
X512532Y217418D01*
X512578Y217372D01*
X512617Y217320D01*
X512649Y217262D01*
X512675Y217197D01*
X512714Y217081D01*
X512727Y217029D01*
X512733Y216977D01*
Y216938D01*
X512740Y216906D01*
Y216880D01*
X512727Y216640D01*
X512701Y216407D01*
X512662Y216180D01*
X512636Y216076D01*
X512610Y215979D01*
X512591Y215888D01*
X512565Y215811D01*
X512545Y215739D01*
X512526Y215675D01*
X512513Y215623D01*
X512500Y215590D01*
X512487Y215564D01*
Y215558D01*
X512383Y215312D01*
X512331Y215195D01*
X512280Y215091D01*
X512221Y214988D01*
X512170Y214891D01*
X512118Y214806D01*
X512066Y214728D01*
X512020Y214657D01*
X511975Y214592D01*
X511936Y214541D01*
X511904Y214495D01*
X511878Y214456D01*
X511859Y214430D01*
X511845Y214417D01*
X511839Y214411D01*
X511690Y214255D01*
X511541Y214119D01*
X511392Y214003D01*
X511243Y213906D01*
X511087Y213821D01*
X510945Y213750D01*
X510802Y213692D01*
X510666Y213646D01*
X510543Y213607D01*
X510426Y213581D01*
X510329Y213562D01*
X510239Y213549D01*
X510167Y213543D01*
X510115Y213536D01*
X510083D01*
X510070D01*
X509934Y213543D01*
X509798Y213562D01*
X509681Y213588D01*
X509565Y213627D01*
X509454Y213666D01*
X509357Y213718D01*
X509273Y213769D01*
X509189Y213821D01*
X509117Y213873D01*
X509053Y213925D01*
X509001Y213977D01*
X508955Y214016D01*
X508923Y214055D01*
X508897Y214081D01*
X508884Y214100D01*
X508878Y214106D01*
X508800Y214217D01*
X508735Y214340D01*
X508670Y214463D01*
X508625Y214586D01*
X508580Y214716D01*
X508547Y214845D01*
X508515Y214975D01*
X508489Y215091D01*
X508476Y215208D01*
X508463Y215318D01*
X508450Y215409D01*
X508443Y215493D01*
X508437Y215558D01*
Y215655D01*
X508443Y215824D01*
X508457Y215992D01*
X508469Y216148D01*
X508495Y216303D01*
X508528Y216446D01*
X508560Y216582D01*
X508593Y216711D01*
X508625Y216828D01*
X508664Y216938D01*
X508696Y217029D01*
X508729Y217113D01*
X508761Y217184D01*
X508787Y217243D01*
X508800Y217282D01*
X508813Y217307D01*
X508819Y217314D01*
X508891Y217444D01*
X508968Y217554D01*
X509046Y217651D01*
X509117Y217735D01*
X509195Y217807D01*
X509267Y217865D01*
X509338Y217917D01*
X509409Y217955D01*
X509467Y217988D01*
X509526Y218007D01*
X509578Y218027D01*
X509623Y218033D01*
X509655Y218040D01*
X509688Y218046D01*
X509701D01*
X509707D01*
X509765Y218040D01*
D02*
G37*
G36*
X509221Y213186D02*
X509169Y213095D01*
X509092Y212927D01*
X509040Y212772D01*
X509001Y212629D01*
X508988Y212564D01*
X508975Y212506D01*
X508968Y212460D01*
Y212415D01*
X508962Y212383D01*
Y212311D01*
X510141Y212558D01*
Y212603D01*
X510148Y212681D01*
X510154Y212746D01*
X510167Y212804D01*
X510187Y212849D01*
X510206Y212882D01*
X510219Y212908D01*
X510225Y212921D01*
X510232Y212927D01*
X510277Y212966D01*
X510342Y213011D01*
X510413Y213050D01*
X510491Y213089D01*
X510569Y213128D01*
X510627Y213154D01*
X510653Y213167D01*
X510673Y213173D01*
X510679Y213180D01*
X510686D01*
X510647Y213063D01*
X510621Y212959D01*
X510595Y212869D01*
X510582Y212785D01*
X510575Y212720D01*
X510569Y212668D01*
Y212635D01*
X511392Y212804D01*
X511470Y212817D01*
X511541Y212830D01*
X511664Y212849D01*
X511768Y212869D01*
X511852Y212875D01*
X511910Y212882D01*
X511949Y212888D01*
X511975D01*
X511982D01*
X512092Y212875D01*
X512183Y212849D01*
X512267Y212804D01*
X512338Y212746D01*
X512396Y212681D01*
X512448Y212603D01*
X512487Y212519D01*
X512519Y212435D01*
X512545Y212357D01*
X512565Y212273D01*
X512578Y212195D01*
X512584Y212130D01*
X512591Y212072D01*
X512597Y212026D01*
Y211897D01*
X512591Y211793D01*
X512578Y211689D01*
X512565Y211586D01*
X512558Y211495D01*
X512545Y211417D01*
Y211391D01*
X512539Y211372D01*
Y211352D01*
X512519Y211210D01*
X512500Y211087D01*
X512481Y210989D01*
X512461Y210912D01*
X512448Y210853D01*
X512435Y210808D01*
X512429Y210782D01*
Y210776D01*
X512403Y210717D01*
X512377Y210672D01*
X512293Y210581D01*
X512195Y210504D01*
X512098Y210445D01*
X512001Y210400D01*
X511923Y210367D01*
X511891Y210354D01*
X511865Y210348D01*
X511852Y210342D01*
X511845D01*
X511923Y210562D01*
X511982Y210782D01*
X512020Y210989D01*
X512040Y211087D01*
X512046Y211177D01*
X512059Y211262D01*
X512066Y211339D01*
X512072Y211411D01*
Y211469D01*
X512079Y211514D01*
Y211579D01*
X512072Y211689D01*
X512066Y211780D01*
X512053Y211864D01*
X512033Y211929D01*
X512014Y211987D01*
X511988Y212039D01*
X511962Y212078D01*
X511930Y212111D01*
X511904Y212137D01*
X511878Y212156D01*
X511833Y212175D01*
X511800Y212188D01*
X511787D01*
X511709Y212182D01*
X511625Y212175D01*
X511528Y212162D01*
X511431Y212149D01*
X511340Y212137D01*
X511269Y212123D01*
X511243Y212117D01*
X511223Y212111D01*
X511210D01*
X511204D01*
X510569Y211987D01*
Y211398D01*
X510563Y211314D01*
Y211236D01*
X510556Y211171D01*
X510549Y211106D01*
X510543Y211048D01*
X510537Y211002D01*
X510530Y210964D01*
X510517Y210899D01*
X510511Y210853D01*
X510498Y210827D01*
Y210821D01*
X510478Y210789D01*
X510452Y210763D01*
X510388Y210698D01*
X510303Y210640D01*
X510219Y210588D01*
X510135Y210542D01*
X510064Y210504D01*
X510038Y210491D01*
X510018Y210478D01*
X510005Y210471D01*
X509999D01*
X510044Y210627D01*
X510083Y210795D01*
X510109Y210951D01*
X510122Y211106D01*
X510128Y211171D01*
X510135Y211236D01*
Y211288D01*
X510141Y211339D01*
Y211910D01*
X508962Y211663D01*
Y210776D01*
X508955Y210685D01*
Y210601D01*
X508949Y210529D01*
X508943Y210465D01*
X508936Y210400D01*
X508929Y210354D01*
X508923Y210309D01*
X508910Y210238D01*
X508904Y210186D01*
X508891Y210160D01*
Y210154D01*
X508871Y210121D01*
X508845Y210089D01*
X508780Y210017D01*
X508696Y209946D01*
X508605Y209888D01*
X508521Y209830D01*
X508450Y209791D01*
X508424Y209771D01*
X508405Y209765D01*
X508392Y209752D01*
X508385D01*
X508437Y209959D01*
X508469Y210167D01*
X508495Y210380D01*
X508515Y210575D01*
X508521Y210665D01*
X508528Y210743D01*
Y210821D01*
X508534Y210879D01*
Y211949D01*
X508541Y212098D01*
X508547Y212227D01*
X508554Y212350D01*
X508560Y212454D01*
X508573Y212545D01*
X508580Y212629D01*
X508593Y212700D01*
X508605Y212759D01*
X508612Y212804D01*
X508625Y212843D01*
X508631Y212875D01*
X508638Y212895D01*
X508644Y212908D01*
X508651Y212921D01*
X508677Y212959D01*
X508709Y212998D01*
X508755Y213037D01*
X508800Y213070D01*
X508897Y213128D01*
X509007Y213180D01*
X509104Y213225D01*
X509150Y213238D01*
X509189Y213251D01*
X509228Y213264D01*
X509254Y213270D01*
X509267Y213277D01*
X509273D01*
X509221Y213186D01*
D02*
G37*
G36*
X512085Y210017D02*
X512144Y210011D01*
X512254Y209979D01*
X512351Y209927D01*
X512429Y209869D01*
X512494Y209817D01*
X512545Y209765D01*
X512571Y209732D01*
X512584Y209719D01*
X512655Y209596D01*
X512714Y209467D01*
X512753Y209337D01*
X512779Y209214D01*
X512792Y209104D01*
X512798Y209058D01*
Y209020D01*
X512805Y208987D01*
Y208942D01*
X512798Y208819D01*
X512785Y208696D01*
X512772Y208579D01*
X512746Y208475D01*
X512720Y208372D01*
X512688Y208274D01*
X512649Y208190D01*
X512617Y208112D01*
X512584Y208041D01*
X512545Y207976D01*
X512513Y207925D01*
X512487Y207879D01*
X512461Y207840D01*
X512442Y207814D01*
X512435Y207801D01*
X512429Y207795D01*
X512357Y207711D01*
X512280Y207646D01*
X512202Y207581D01*
X512124Y207529D01*
X512040Y207484D01*
X511962Y207445D01*
X511884Y207419D01*
X511813Y207393D01*
X511742Y207374D01*
X511677Y207361D01*
X511619Y207348D01*
X511573Y207341D01*
X511535Y207335D01*
X511502D01*
X511483D01*
X511476D01*
X511379Y207341D01*
X511288Y207367D01*
X511191Y207406D01*
X511094Y207451D01*
X510997Y207510D01*
X510906Y207575D01*
X510724Y207711D01*
X510647Y207782D01*
X510575Y207853D01*
X510511Y207918D01*
X510452Y207976D01*
X510413Y208022D01*
X510375Y208061D01*
X510355Y208086D01*
X510349Y208093D01*
X510148Y208236D01*
X510089Y208300D01*
X510031Y208359D01*
X509940Y208456D01*
X509863Y208534D01*
X509804Y208592D01*
X509765Y208631D01*
X509739Y208657D01*
X509727Y208663D01*
X509720Y208670D01*
X509681Y208689D01*
X509636Y208709D01*
X509552Y208728D01*
X509513D01*
X509480Y208734D01*
X509454D01*
X509448D01*
X509351Y208728D01*
X509267Y208702D01*
X509189Y208670D01*
X509124Y208631D01*
X509072Y208598D01*
X509033Y208566D01*
X509007Y208540D01*
X509001Y208534D01*
X508936Y208456D01*
X508891Y208372D01*
X508858Y208287D01*
X508839Y208210D01*
X508819Y208145D01*
X508813Y208086D01*
Y208041D01*
X508819Y207950D01*
X508832Y207873D01*
X508852Y207795D01*
X508884Y207724D01*
X508949Y207594D01*
X509033Y207490D01*
X509111Y207406D01*
X509182Y207348D01*
X509215Y207328D01*
X509234Y207315D01*
X509247Y207302D01*
X509254D01*
X509169Y207231D01*
X509092Y207179D01*
X509020Y207147D01*
X508962Y207121D01*
X508910Y207108D01*
X508878Y207095D01*
X508852D01*
X508845D01*
X508780Y207101D01*
X508722Y207127D01*
X508670Y207166D01*
X508625Y207205D01*
X508593Y207251D01*
X508567Y207283D01*
X508554Y207309D01*
X508547Y207322D01*
X508508Y207406D01*
X508482Y207503D01*
X508463Y207594D01*
X508450Y207685D01*
X508443Y207763D01*
X508437Y207821D01*
Y207879D01*
X508443Y207996D01*
X508450Y208099D01*
X508489Y208300D01*
X508515Y208391D01*
X508547Y208475D01*
X508580Y208559D01*
X508605Y208624D01*
X508638Y208689D01*
X508670Y208747D01*
X508703Y208793D01*
X508729Y208838D01*
X508748Y208871D01*
X508768Y208890D01*
X508774Y208903D01*
X508780Y208909D01*
X508845Y208981D01*
X508917Y209046D01*
X508988Y209097D01*
X509059Y209143D01*
X509130Y209182D01*
X509202Y209221D01*
X509338Y209266D01*
X509461Y209298D01*
X509513Y209305D01*
X509552Y209311D01*
X509590Y209318D01*
X509616D01*
X509636D01*
X509642D01*
X509727Y209311D01*
X509817Y209292D01*
X509902Y209266D01*
X509986Y209227D01*
X510070Y209188D01*
X510154Y209136D01*
X510303Y209033D01*
X510368Y208981D01*
X510433Y208929D01*
X510485Y208884D01*
X510530Y208845D01*
X510569Y208806D01*
X510595Y208780D01*
X510614Y208760D01*
X510621Y208754D01*
X510899Y208365D01*
X510997Y208281D01*
X511087Y208203D01*
X511172Y208138D01*
X511249Y208086D01*
X511321Y208035D01*
X511385Y207996D01*
X511450Y207963D01*
X511502Y207937D01*
X511593Y207905D01*
X511632Y207892D01*
X511664Y207886D01*
X511684Y207879D01*
X511703D01*
X511709D01*
X511716D01*
X511813Y207892D01*
X511904Y207918D01*
X511988Y207963D01*
X512059Y208009D01*
X512118Y208054D01*
X512157Y208099D01*
X512189Y208125D01*
X512195Y208138D01*
X512260Y208236D01*
X512312Y208339D01*
X512345Y208443D01*
X512370Y208534D01*
X512383Y208618D01*
X512390Y208683D01*
X512396Y208709D01*
Y208741D01*
X512390Y208877D01*
X512364Y209000D01*
X512325Y209104D01*
X512286Y209188D01*
X512247Y209259D01*
X512208Y209311D01*
X512183Y209337D01*
X512176Y209350D01*
X512079Y209421D01*
X511975Y209473D01*
X511859Y209512D01*
X511748Y209538D01*
X511645Y209551D01*
X511606Y209557D01*
X511567D01*
X511535Y209564D01*
X511509D01*
X511496D01*
X511489D01*
X511541Y209642D01*
X511593Y209713D01*
X511645Y209778D01*
X511696Y209830D01*
X511742Y209875D01*
X511787Y209914D01*
X511826Y209940D01*
X511865Y209966D01*
X511930Y209998D01*
X511975Y210017D01*
X512008Y210024D01*
X512020D01*
X512085Y210017D01*
D02*
G37*
G36*
X512202Y206862D02*
X512299Y206842D01*
X512377Y206823D01*
X512442Y206803D01*
X512487Y206784D01*
X512519Y206765D01*
X512539Y206758D01*
X512545Y206752D01*
X512584Y206706D01*
X512617Y206648D01*
X512636Y206590D01*
X512655Y206538D01*
X512662Y206486D01*
X512669Y206441D01*
Y206343D01*
X512662Y206272D01*
X512643Y206117D01*
X512630Y206045D01*
X512623Y205987D01*
X512617Y205948D01*
Y205935D01*
X512539Y205352D01*
X512526Y205242D01*
X512513Y205151D01*
X512506Y205067D01*
Y204995D01*
X512500Y204937D01*
Y204859D01*
X512513Y204704D01*
X512519Y204626D01*
X512532Y204555D01*
X512545Y204490D01*
X512552Y204445D01*
X512565Y204412D01*
Y204399D01*
X512461Y204406D01*
X512377Y204419D01*
X512299Y204438D01*
X512234Y204458D01*
X512176Y204490D01*
X512131Y204522D01*
X512092Y204561D01*
X512059Y204594D01*
X512033Y204633D01*
X512020Y204672D01*
X511995Y204730D01*
Y204756D01*
X511988Y204775D01*
Y204885D01*
X512001Y204989D01*
X512008Y205093D01*
X512020Y205196D01*
X512033Y205294D01*
X512046Y205371D01*
X512053Y205404D01*
Y205423D01*
X512059Y205436D01*
Y205443D01*
X508910Y204808D01*
X508904Y204762D01*
X508897Y204749D01*
Y204743D01*
X508884Y204652D01*
X508871Y204561D01*
X508865Y204490D01*
Y204419D01*
X508858Y204367D01*
Y204237D01*
X508871Y204173D01*
X508884Y204114D01*
X508897Y204056D01*
X508910Y204004D01*
X508923Y203965D01*
X508929Y203933D01*
X508936Y203926D01*
X508832Y203939D01*
X508742Y203965D01*
X508664Y203991D01*
X508599Y204024D01*
X508541Y204062D01*
X508495Y204101D01*
X508457Y204140D01*
X508424Y204186D01*
X508405Y204224D01*
X508385Y204263D01*
X508359Y204328D01*
Y204354D01*
X508353Y204373D01*
Y204393D01*
X508359Y204490D01*
X508366Y204600D01*
X508379Y204717D01*
X508398Y204827D01*
X508418Y204931D01*
X508424Y204970D01*
X508431Y205009D01*
X508437Y205041D01*
Y205067D01*
X508443Y205080D01*
Y205086D01*
X508515Y205475D01*
X508534Y205598D01*
X508554Y205708D01*
X508567Y205799D01*
X508573Y205877D01*
Y205935D01*
X508580Y205980D01*
Y206013D01*
X508567Y206117D01*
X508547Y206220D01*
X508534Y206259D01*
X508528Y206292D01*
X508515Y206317D01*
Y206324D01*
X508605Y206317D01*
X508690Y206305D01*
X508761Y206285D01*
X508819Y206259D01*
X508871Y206227D01*
X508910Y206194D01*
X508949Y206155D01*
X508975Y206117D01*
X509014Y206039D01*
X509033Y205974D01*
Y205948D01*
X509040Y205929D01*
Y205909D01*
X509033Y205754D01*
X509027Y205676D01*
X509014Y205611D01*
X509007Y205553D01*
X509001Y205514D01*
X508994Y205482D01*
Y205475D01*
X512144Y206110D01*
X512157Y206188D01*
X512163Y206253D01*
X512170Y206305D01*
Y206350D01*
X512176Y206389D01*
Y206434D01*
X512170Y206505D01*
X512163Y206583D01*
X512144Y206654D01*
X512124Y206719D01*
X512111Y206778D01*
X512092Y206829D01*
X512085Y206855D01*
X512079Y206868D01*
X512202Y206862D01*
D02*
G37*
G36*
X511146Y203732D02*
X511256Y203719D01*
X511360Y203699D01*
X511463Y203674D01*
X511554Y203648D01*
X511645Y203609D01*
X511722Y203576D01*
X511794Y203538D01*
X511859Y203499D01*
X511917Y203466D01*
X511969Y203427D01*
X512008Y203401D01*
X512040Y203376D01*
X512066Y203356D01*
X512079Y203343D01*
X512085Y203337D01*
X512157Y203259D01*
X512221Y203175D01*
X512280Y203090D01*
X512325Y203000D01*
X512364Y202915D01*
X512396Y202831D01*
X512448Y202663D01*
X512468Y202591D01*
X512481Y202520D01*
X512487Y202455D01*
X512494Y202403D01*
X512500Y202358D01*
Y202300D01*
X512494Y202183D01*
X512474Y202073D01*
X512448Y201969D01*
X512416Y201866D01*
X512331Y201684D01*
X512286Y201600D01*
X512234Y201522D01*
X512183Y201451D01*
X512137Y201386D01*
X512092Y201334D01*
X512053Y201289D01*
X512020Y201250D01*
X511988Y201224D01*
X511975Y201211D01*
X511969Y201205D01*
X512105Y201263D01*
X512234Y201321D01*
X512357Y201373D01*
X512474Y201431D01*
X512584Y201483D01*
X512681Y201529D01*
X512779Y201581D01*
X512856Y201619D01*
X512934Y201665D01*
X512999Y201697D01*
X513057Y201730D01*
X513103Y201755D01*
X513141Y201775D01*
X513167Y201794D01*
X513180Y201801D01*
X513187Y201807D01*
X513180Y201691D01*
X513167Y201587D01*
X513155Y201496D01*
X513135Y201412D01*
X513122Y201341D01*
X513103Y201276D01*
X513083Y201224D01*
X513064Y201172D01*
X513044Y201133D01*
X513031Y201101D01*
X512999Y201056D01*
X512980Y201030D01*
X512973Y201023D01*
X512934Y200997D01*
X512876Y200965D01*
X512811Y200933D01*
X512727Y200900D01*
X512643Y200868D01*
X512545Y200835D01*
X512357Y200771D01*
X512260Y200745D01*
X512170Y200712D01*
X512085Y200693D01*
X512014Y200667D01*
X511956Y200654D01*
X511904Y200641D01*
X511878Y200628D01*
X511865D01*
X510271Y200213D01*
X510303Y200375D01*
X510336Y200524D01*
X510362Y200660D01*
X510375Y200783D01*
X510394Y200887D01*
Y200926D01*
X510400Y200965D01*
Y200991D01*
X510407Y201010D01*
Y201030D01*
X510433Y201367D01*
X510439Y201457D01*
X510452Y201535D01*
X510465Y201613D01*
X510472Y201678D01*
X510485Y201743D01*
X510498Y201794D01*
X510524Y201879D01*
X510543Y201943D01*
X510563Y201989D01*
X510569Y202015D01*
X510575Y202021D01*
X510595Y202047D01*
X510627Y202073D01*
X510699Y202125D01*
X510783Y202170D01*
X510874Y202209D01*
X510958Y202235D01*
X511029Y202261D01*
X511055Y202267D01*
X511074Y202274D01*
X511087Y202280D01*
X511094D01*
X511016Y202067D01*
X510964Y201840D01*
X510925Y201626D01*
X510906Y201522D01*
X510893Y201425D01*
X510886Y201334D01*
X510880Y201250D01*
X510874Y201172D01*
Y201108D01*
X510867Y201056D01*
Y200984D01*
X510919Y201004D01*
X511100Y201049D01*
X511269Y201114D01*
X511405Y201179D01*
X511521Y201244D01*
X511619Y201308D01*
X511658Y201341D01*
X511684Y201360D01*
X511709Y201386D01*
X511729Y201399D01*
X511735Y201406D01*
X511742Y201412D01*
X511794Y201470D01*
X511839Y201529D01*
X511917Y201645D01*
X511969Y201762D01*
X512001Y201872D01*
X512027Y201963D01*
X512033Y202041D01*
X512040Y202067D01*
Y202105D01*
X512033Y202183D01*
X512027Y202261D01*
X511988Y202403D01*
X511943Y202520D01*
X511884Y202624D01*
X511826Y202702D01*
X511774Y202760D01*
X511742Y202799D01*
X511735Y202805D01*
X511729Y202812D01*
X511606Y202903D01*
X511463Y202967D01*
X511321Y203013D01*
X511185Y203045D01*
X511068Y203064D01*
X511016Y203071D01*
X510971D01*
X510932Y203077D01*
X510906D01*
X510886D01*
X510880D01*
X510731Y203071D01*
X510588Y203051D01*
X510452Y203026D01*
X510323Y202993D01*
X510200Y202954D01*
X510083Y202909D01*
X509979Y202857D01*
X509882Y202805D01*
X509791Y202760D01*
X509714Y202708D01*
X509649Y202663D01*
X509590Y202624D01*
X509545Y202591D01*
X509513Y202566D01*
X509493Y202546D01*
X509487Y202540D01*
X509383Y202436D01*
X509292Y202326D01*
X509215Y202222D01*
X509143Y202112D01*
X509085Y202002D01*
X509040Y201898D01*
X509001Y201794D01*
X508968Y201697D01*
X508943Y201606D01*
X508923Y201522D01*
X508910Y201451D01*
X508904Y201386D01*
X508897Y201334D01*
X508891Y201295D01*
Y201263D01*
X508897Y201166D01*
X508910Y201082D01*
X508936Y200997D01*
X508962Y200926D01*
X508994Y200855D01*
X509033Y200797D01*
X509072Y200745D01*
X509111Y200693D01*
X509189Y200615D01*
X509260Y200563D01*
X509286Y200544D01*
X509305Y200537D01*
X509318Y200524D01*
X509325D01*
X509279Y200466D01*
X509247Y200421D01*
X509234Y200401D01*
X509228Y200395D01*
X509124Y200304D01*
X509027Y200239D01*
X508949Y200194D01*
X508891Y200161D01*
X508839Y200142D01*
X508806Y200135D01*
X508787Y200129D01*
X508780D01*
X508722Y200135D01*
X508664Y200161D01*
X508618Y200200D01*
X508580Y200252D01*
X508547Y200310D01*
X508521Y200375D01*
X508482Y200518D01*
X508457Y200667D01*
X508450Y200732D01*
X508443Y200790D01*
X508437Y200842D01*
Y200913D01*
X508443Y201120D01*
X508469Y201315D01*
X508508Y201509D01*
X508560Y201691D01*
X508618Y201859D01*
X508690Y202021D01*
X508761Y202177D01*
X508832Y202313D01*
X508904Y202442D01*
X508975Y202553D01*
X509046Y202650D01*
X509104Y202734D01*
X509156Y202799D01*
X509195Y202844D01*
X509221Y202870D01*
X509228Y202883D01*
X509377Y203032D01*
X509532Y203168D01*
X509688Y203278D01*
X509837Y203376D01*
X509992Y203460D01*
X510141Y203531D01*
X510284Y203583D01*
X510420Y203628D01*
X510549Y203667D01*
X510666Y203693D01*
X510770Y203713D01*
X510861Y203725D01*
X510932Y203732D01*
X510984Y203738D01*
X511016D01*
X511029D01*
X511146Y203732D01*
D02*
G37*
G36*
X512338Y199734D02*
X512383Y199727D01*
X512429Y199708D01*
X512461Y199688D01*
X512519Y199630D01*
X512558Y199565D01*
X512578Y199507D01*
X512591Y199449D01*
X512597Y199410D01*
Y199397D01*
X512591Y199319D01*
X512578Y199235D01*
X512558Y199151D01*
X512532Y199073D01*
X512506Y199008D01*
X512487Y198956D01*
X512474Y198924D01*
X512468Y198911D01*
X512390Y198976D01*
X512312Y199027D01*
X512221Y199060D01*
X512137Y199086D01*
X512066Y199099D01*
X512008Y199105D01*
X511962Y199112D01*
X511956D01*
X511949D01*
X511852Y199105D01*
X511735Y199099D01*
X511619Y199086D01*
X511509Y199066D01*
X511405Y199047D01*
X511360Y199040D01*
X511321Y199034D01*
X511288Y199027D01*
X511262D01*
X511249Y199021D01*
X511243D01*
X509610Y198723D01*
X509765Y198710D01*
X509837Y198678D01*
X509914Y198645D01*
X510005Y198600D01*
X510096Y198561D01*
X510180Y198529D01*
X510251Y198496D01*
X510277Y198483D01*
X510297Y198477D01*
X510310Y198470D01*
X510316D01*
X510543Y198373D01*
X510757Y198276D01*
X510951Y198185D01*
X511126Y198101D01*
X511288Y198023D01*
X511431Y197952D01*
X511560Y197887D01*
X511677Y197829D01*
X511781Y197777D01*
X511865Y197731D01*
X511936Y197686D01*
X511995Y197654D01*
X512033Y197628D01*
X512066Y197608D01*
X512085Y197602D01*
X512092Y197595D01*
X512183Y197531D01*
X512260Y197472D01*
X512325Y197407D01*
X512383Y197349D01*
X512435Y197297D01*
X512474Y197239D01*
X512506Y197194D01*
X512532Y197142D01*
X512571Y197064D01*
X512591Y196999D01*
X512597Y196960D01*
Y196947D01*
X512584Y196876D01*
X512558Y196811D01*
X512506Y196753D01*
X512448Y196688D01*
X512377Y196636D01*
X512293Y196578D01*
X512118Y196487D01*
X511943Y196409D01*
X511865Y196377D01*
X511794Y196351D01*
X511735Y196325D01*
X511684Y196312D01*
X511658Y196299D01*
X511645D01*
X511418Y196241D01*
X511185Y196183D01*
X510945Y196131D01*
X510835Y196105D01*
X510724Y196086D01*
X510621Y196066D01*
X510530Y196047D01*
X510446Y196034D01*
X510375Y196021D01*
X510316Y196008D01*
X510277Y196001D01*
X510245Y195995D01*
X510239D01*
X510089Y195969D01*
X509947Y195949D01*
X509811Y195930D01*
X509694Y195911D01*
X509584Y195898D01*
X509480Y195885D01*
X509390Y195878D01*
X509305Y195872D01*
X509234Y195865D01*
X509169Y195859D01*
X509117D01*
X509079Y195852D01*
X509046D01*
X509020D01*
X509007D01*
X509001D01*
X508904Y195859D01*
X508813Y195865D01*
X508742Y195885D01*
X508677Y195911D01*
X508618Y195937D01*
X508573Y195969D01*
X508534Y196001D01*
X508508Y196034D01*
X508482Y196073D01*
X508469Y196105D01*
X508443Y196163D01*
Y196189D01*
X508437Y196209D01*
Y196222D01*
X508450Y196306D01*
X508476Y196397D01*
X508515Y196487D01*
X508554Y196565D01*
X508599Y196636D01*
X508638Y196688D01*
X508664Y196727D01*
X508677Y196733D01*
Y196740D01*
X508722Y196682D01*
X508780Y196636D01*
X508845Y196591D01*
X508910Y196559D01*
X509053Y196500D01*
X509189Y196461D01*
X509325Y196442D01*
X509383Y196429D01*
X509429D01*
X509474Y196423D01*
X509506D01*
X509526D01*
X509532D01*
X509830Y196429D01*
X510115Y196448D01*
X510245Y196461D01*
X510375Y196474D01*
X510498Y196494D01*
X510608Y196507D01*
X510711Y196520D01*
X510802Y196539D01*
X510886Y196552D01*
X510951Y196565D01*
X511010Y196578D01*
X511049Y196584D01*
X511074Y196591D01*
X511081D01*
X511210Y196623D01*
X511327Y196649D01*
X511424Y196682D01*
X511509Y196708D01*
X511586Y196733D01*
X511645Y196759D01*
X511696Y196785D01*
X511735Y196805D01*
X511761Y196824D01*
X511787Y196844D01*
X511800Y196857D01*
X511813Y196870D01*
X511826Y196889D01*
Y196896D01*
X511820Y196915D01*
X511807Y196941D01*
X511781Y196967D01*
X511748Y196999D01*
X511709Y197032D01*
X511658Y197064D01*
X511606Y197103D01*
X511541Y197142D01*
X511405Y197220D01*
X511256Y197304D01*
X511087Y197395D01*
X510919Y197479D01*
X510750Y197563D01*
X510588Y197641D01*
X510439Y197712D01*
X510303Y197777D01*
X510239Y197803D01*
X510187Y197829D01*
X510135Y197855D01*
X510096Y197874D01*
X510064Y197887D01*
X510038Y197900D01*
X510025Y197906D01*
X510018D01*
X509876Y197965D01*
X509739Y198023D01*
X509610Y198075D01*
X509487Y198120D01*
X509377Y198166D01*
X509267Y198211D01*
X509169Y198256D01*
X509079Y198295D01*
X508910Y198360D01*
X508768Y198425D01*
X508644Y198470D01*
X508547Y198515D01*
X508463Y198554D01*
X508398Y198580D01*
X508353Y198600D01*
X508314Y198619D01*
X508288Y198632D01*
X508275Y198639D01*
X508262Y198645D01*
X508204Y198684D01*
X508158Y198729D01*
X508126Y198781D01*
X508100Y198827D01*
X508087Y198872D01*
X508081Y198911D01*
Y198969D01*
X508094Y199002D01*
X508119Y199079D01*
X508158Y199170D01*
X508204Y199267D01*
X508249Y199358D01*
X508288Y199436D01*
X508301Y199462D01*
X508314Y199487D01*
X508327Y199501D01*
Y199507D01*
X508353Y199462D01*
X508385Y199416D01*
X508457Y199345D01*
X508541Y199274D01*
X508625Y199222D01*
X508709Y199177D01*
X508774Y199144D01*
X508800Y199131D01*
X508819Y199125D01*
X508832Y199118D01*
X508839D01*
X509027Y199040D01*
X510679Y199429D01*
X510919Y199481D01*
X511133Y199533D01*
X511321Y199572D01*
X511489Y199611D01*
X511645Y199637D01*
X511774Y199662D01*
X511884Y199682D01*
X511982Y199701D01*
X512059Y199714D01*
X512124Y199721D01*
X512176Y199734D01*
X512215D01*
X512247Y199740D01*
X512267D01*
X512273D01*
X512280D01*
X512338Y199734D01*
D02*
G37*
%LPC*%
G36*
X385519Y241114D02*
X383666D01*
Y241021D01*
X383481D01*
Y240928D01*
X383296D01*
Y240836D01*
X383203D01*
Y240743D01*
X383111D01*
Y240836D01*
X383018D01*
Y240651D01*
X382833D01*
Y240558D01*
X382740D01*
Y240465D01*
X382647D01*
Y240373D01*
X382555D01*
Y240280D01*
X382462D01*
Y240187D01*
X382370D01*
Y240002D01*
X382277D01*
Y239910D01*
X382184D01*
Y239724D01*
X382092D01*
Y239539D01*
X381999D01*
Y239168D01*
X381906D01*
Y238335D01*
X381999D01*
Y237872D01*
X382092D01*
Y237686D01*
X382184D01*
Y237594D01*
X382277D01*
Y237408D01*
X382370D01*
Y237223D01*
X382462D01*
Y237131D01*
X382555D01*
Y237038D01*
X382647D01*
Y236945D01*
X382740D01*
Y236853D01*
X382925D01*
Y236760D01*
X383111D01*
Y236667D01*
X383296D01*
Y236575D01*
X383388D01*
Y236482D01*
X383666D01*
Y236390D01*
X384315D01*
Y236297D01*
X384871D01*
Y236390D01*
X385519D01*
Y236482D01*
X385797D01*
Y236575D01*
X385889D01*
Y236667D01*
X386075D01*
Y236760D01*
X386260D01*
Y236853D01*
X386445D01*
Y237038D01*
X386538D01*
Y237131D01*
X386723D01*
Y237223D01*
X386816D01*
Y237408D01*
X386908D01*
Y237501D01*
X387001D01*
Y237686D01*
X387094D01*
Y237872D01*
X387186D01*
Y238149D01*
X387279D01*
Y239261D01*
X387186D01*
Y239632D01*
X387094D01*
Y239817D01*
X387001D01*
Y239910D01*
X386908D01*
Y240095D01*
X386816D01*
Y240187D01*
X386723D01*
Y240280D01*
X386630D01*
Y240373D01*
X386538D01*
Y240465D01*
X386445D01*
Y240558D01*
X386353D01*
Y240651D01*
X386260D01*
Y240743D01*
X385982D01*
Y240836D01*
X385797D01*
Y240928D01*
X385704D01*
Y241021D01*
X385519D01*
Y241114D01*
D02*
G37*
G36*
X431567Y238577D02*
X430851D01*
Y238398D01*
X430672D01*
Y238219D01*
X430493D01*
Y238040D01*
X430314D01*
Y237861D01*
X430135D01*
Y236250D01*
X430314D01*
Y236071D01*
X430493D01*
Y235892D01*
X430672D01*
Y235713D01*
X431567D01*
Y235892D01*
X431746D01*
Y235713D01*
X431925D01*
Y235892D01*
X431746D01*
Y236071D01*
X431925D01*
Y236250D01*
X432104D01*
Y238040D01*
X431925D01*
Y238398D01*
X431567D01*
Y238577D01*
D02*
G37*
G36*
X383852Y233333D02*
X381906D01*
Y232684D01*
X381999D01*
Y232036D01*
X382092D01*
Y231943D01*
X382184D01*
Y231851D01*
X382370D01*
Y231758D01*
X382462D01*
Y231666D01*
X383203D01*
Y231758D01*
X383388D01*
Y231851D01*
X383574D01*
Y232036D01*
X383666D01*
Y232129D01*
X383759D01*
Y232407D01*
X383852D01*
Y233333D01*
D02*
G37*
G36*
X387279D02*
X384963D01*
Y232407D01*
X385056D01*
Y231943D01*
X385148D01*
Y231851D01*
X385241D01*
Y231666D01*
X385334D01*
Y231480D01*
X385519D01*
Y231388D01*
X385612D01*
Y231295D01*
X385704D01*
Y231202D01*
X386538D01*
Y231295D01*
X386723D01*
Y231388D01*
X386816D01*
Y231480D01*
X386908D01*
Y231573D01*
X387001D01*
Y231666D01*
X387094D01*
Y231851D01*
X387186D01*
Y232221D01*
X387279D01*
Y233333D01*
D02*
G37*
G36*
X432641Y233028D02*
X432462D01*
Y232849D01*
X432641D01*
Y233028D01*
D02*
G37*
G36*
X432283D02*
X431567D01*
Y230343D01*
X431746D01*
Y230164D01*
X431925D01*
Y230343D01*
X432104D01*
Y230522D01*
X432283D01*
Y233028D01*
D02*
G37*
G36*
X429777Y229806D02*
X429598D01*
Y229627D01*
X429777D01*
Y229806D01*
D02*
G37*
G36*
X385148Y228238D02*
X384037D01*
Y228146D01*
X383759D01*
Y228053D01*
X383296D01*
Y227960D01*
X383203D01*
Y227868D01*
X383018D01*
Y227775D01*
X382833D01*
Y227590D01*
X382740D01*
Y227497D01*
X382647D01*
Y227405D01*
X382555D01*
Y227312D01*
X382462D01*
Y227219D01*
X382370D01*
Y227127D01*
X382277D01*
Y227034D01*
X382184D01*
Y226849D01*
X382092D01*
Y226664D01*
X381999D01*
Y226201D01*
X381906D01*
Y225367D01*
X381999D01*
Y224904D01*
X382092D01*
Y224811D01*
X382184D01*
Y224626D01*
X382277D01*
Y224533D01*
X382370D01*
Y224348D01*
X382462D01*
Y224255D01*
X382555D01*
Y224163D01*
X382647D01*
Y224070D01*
X382740D01*
Y223977D01*
X382925D01*
Y223885D01*
X383018D01*
Y223792D01*
X383111D01*
Y223700D01*
X383388D01*
Y223607D01*
X383574D01*
Y223514D01*
X383852D01*
Y223422D01*
X384222D01*
Y223329D01*
X384963D01*
Y223422D01*
X385426D01*
Y223514D01*
X385612D01*
Y223607D01*
X385797D01*
Y223700D01*
X385889D01*
Y223607D01*
X385982D01*
Y223792D01*
X386167D01*
Y223885D01*
X386353D01*
Y223977D01*
X386445D01*
Y224070D01*
X386538D01*
Y224163D01*
X386630D01*
Y224255D01*
X386723D01*
Y224348D01*
X386816D01*
Y224441D01*
X386908D01*
Y224626D01*
X387001D01*
Y224811D01*
X387094D01*
Y224996D01*
X387186D01*
Y225274D01*
X387279D01*
Y226386D01*
X387186D01*
Y226756D01*
X387094D01*
Y226942D01*
X386908D01*
Y227127D01*
X386816D01*
Y227219D01*
X386723D01*
Y227312D01*
X386630D01*
Y227405D01*
X386538D01*
Y227497D01*
X386445D01*
Y227590D01*
X386353D01*
Y227775D01*
X386260D01*
Y227683D01*
X386167D01*
Y227868D01*
X385982D01*
Y227960D01*
X385797D01*
Y228053D01*
X385519D01*
Y228146D01*
X385148D01*
Y228238D01*
D02*
G37*
G36*
X430135Y227658D02*
X429956D01*
Y227479D01*
X430135D01*
Y227658D01*
D02*
G37*
G36*
X431746Y227300D02*
X430672D01*
Y227121D01*
X430493D01*
Y226942D01*
X430314D01*
Y226584D01*
X430135D01*
Y225152D01*
X430314D01*
Y224794D01*
X430493D01*
Y224615D01*
X430851D01*
Y224436D01*
X431209D01*
Y224615D01*
X431567D01*
Y224794D01*
X431925D01*
Y225152D01*
X432104D01*
Y226942D01*
X431925D01*
Y227121D01*
X431746D01*
Y227300D01*
D02*
G37*
G36*
X431925Y220141D02*
X431746D01*
Y219962D01*
X431925D01*
Y220141D01*
D02*
G37*
G36*
X431567Y219067D02*
X431388D01*
Y218888D01*
X431567D01*
Y219067D01*
D02*
G37*
G36*
X432641Y212981D02*
X432462D01*
Y212802D01*
X432641D01*
Y212981D01*
D02*
G37*
G36*
X430493Y211907D02*
X430314D01*
Y211728D01*
X430493D01*
Y211907D01*
D02*
G37*
G36*
X429777Y211549D02*
X429598D01*
Y211370D01*
X429777D01*
Y211549D01*
D02*
G37*
G36*
X431209Y210833D02*
X431030D01*
Y210654D01*
X431209D01*
Y210833D01*
D02*
G37*
G36*
X431925Y210475D02*
X431746D01*
Y210296D01*
X431925D01*
Y210475D01*
D02*
G37*
G36*
X418322Y226584D02*
X418143D01*
Y226405D01*
X418322D01*
Y226584D01*
D02*
G37*
G36*
X397916Y225510D02*
X397737D01*
Y225331D01*
X397916D01*
Y225510D01*
D02*
G37*
G36*
X399706Y224436D02*
X399527D01*
Y224257D01*
X399706D01*
Y224436D01*
D02*
G37*
G36*
X400422Y223720D02*
X400243D01*
Y223541D01*
X400422D01*
Y223720D01*
D02*
G37*
G36*
X403644Y221215D02*
X403465D01*
Y221036D01*
X403644D01*
Y221215D01*
D02*
G37*
G36*
X412952Y218351D02*
X412773D01*
Y218172D01*
X412952D01*
Y218351D01*
D02*
G37*
G36*
X407582Y200093D02*
X407403D01*
Y199914D01*
X407582D01*
Y200093D01*
D02*
G37*
G36*
X405076Y199019D02*
X404897D01*
Y198840D01*
X405076D01*
Y199019D01*
D02*
G37*
G36*
X404360D02*
X404181D01*
Y198840D01*
X404360D01*
Y199019D01*
D02*
G37*
G36*
X415458Y202957D02*
X415279D01*
Y202778D01*
X415458D01*
Y202957D01*
D02*
G37*
G36*
X416532Y201883D02*
X416353D01*
Y201704D01*
X416532D01*
Y201883D01*
D02*
G37*
G36*
X432641Y207969D02*
X432462D01*
Y207790D01*
X432641D01*
Y207969D01*
D02*
G37*
G36*
X430851Y207611D02*
X430672D01*
Y207432D01*
X430851D01*
Y207611D01*
D02*
G37*
G36*
X432641Y204389D02*
X432462D01*
Y204210D01*
X432641D01*
Y204389D01*
D02*
G37*
G36*
X387279Y198227D02*
X381906D01*
Y198042D01*
X381999D01*
Y196652D01*
X382092D01*
Y196467D01*
X382184D01*
Y196282D01*
X382277D01*
Y196097D01*
X382370D01*
Y195911D01*
X382462D01*
Y195819D01*
X382555D01*
Y195726D01*
X382647D01*
Y195633D01*
X382740D01*
Y195541D01*
X382925D01*
Y195448D01*
X383018D01*
Y195355D01*
X383203D01*
Y195263D01*
X383296D01*
Y195170D01*
X383574D01*
Y195078D01*
X383759D01*
Y194985D01*
X384037D01*
Y194892D01*
X385148D01*
Y194985D01*
X385519D01*
Y195078D01*
X385704D01*
Y195170D01*
X385889D01*
Y195263D01*
X386167D01*
Y195355D01*
X386260D01*
Y195448D01*
X386353D01*
Y195541D01*
X386538D01*
Y195633D01*
X386630D01*
Y195726D01*
X386723D01*
Y195911D01*
X386816D01*
Y196097D01*
X386908D01*
Y196189D01*
X387001D01*
Y196374D01*
X387094D01*
Y196560D01*
X387186D01*
Y197208D01*
X387279D01*
Y198227D01*
D02*
G37*
G36*
X429777Y192218D02*
X429598D01*
Y192039D01*
X429777D01*
Y192218D01*
D02*
G37*
G36*
X432641Y188638D02*
X432462D01*
Y188459D01*
X432641D01*
Y188638D01*
D02*
G37*
G36*
X430135Y186132D02*
X429956D01*
Y185953D01*
X430135D01*
Y186132D01*
D02*
G37*
%LPD*%
D34*
X502700Y206500D02*
Y224600D01*
X502600Y206400D02*
Y224700D01*
X502500Y206400D02*
Y224800D01*
X502400Y206300D02*
Y224900D01*
X502300Y206300D02*
Y224900D01*
X502200Y206200D02*
Y225000D01*
X502100Y206200D02*
Y225000D01*
X502000Y206200D02*
Y225000D01*
X501900Y206100D02*
Y225100D01*
X501800Y206100D02*
Y225100D01*
X501700Y206100D02*
Y225100D01*
X501600Y206100D02*
Y225100D01*
X501500Y206100D02*
Y225100D01*
X503000Y206900D02*
Y224300D01*
X502900Y206700D02*
Y224400D01*
X502800Y206600D02*
Y224500D01*
X503300Y207500D02*
Y223600D01*
X503200Y207200D02*
Y223900D01*
X503100Y207000D02*
Y224100D01*
X494700Y219300D02*
Y221500D01*
X494600Y219200D02*
Y221400D01*
X494500Y219200D02*
Y221400D01*
X494400Y219100D02*
Y221300D01*
X494300Y219000D02*
Y221300D01*
X494200Y219000D02*
Y221200D01*
X494100Y218900D02*
Y221200D01*
X494000Y218900D02*
Y221100D01*
X493900Y218800D02*
Y221000D01*
X493800Y218800D02*
Y221000D01*
X493700Y218700D02*
Y220900D01*
X493600Y218600D02*
Y220900D01*
X493500Y218600D02*
Y220800D01*
Y210400D02*
Y212600D01*
X493400Y218500D02*
Y220800D01*
Y210400D02*
Y212600D01*
X493300Y218500D02*
Y220700D01*
Y210500D02*
Y212700D01*
X493200Y218400D02*
Y220600D01*
Y210500D02*
Y212800D01*
X493100Y218400D02*
Y220600D01*
Y210600D02*
Y212800D01*
X493000Y210700D02*
Y212900D01*
X492900Y210700D02*
Y212900D01*
X492800Y210800D02*
Y213000D01*
X492700Y210800D02*
Y213000D01*
X492600Y210900D02*
Y213100D01*
X492500Y210900D02*
Y213100D01*
X492400Y211000D02*
Y213200D01*
X492300Y211100D02*
Y213200D01*
X492200Y211100D02*
Y213200D01*
X492100Y211200D02*
Y213200D01*
X492000Y211200D02*
Y213200D01*
X491900Y211300D02*
Y213200D01*
X491800Y211300D02*
Y213200D01*
X491700Y211400D02*
Y213100D01*
X491600Y211500D02*
Y213100D01*
X491500Y211500D02*
Y213000D01*
X491400Y211700D02*
Y212900D01*
X491300Y211800D02*
Y212800D01*
X501400Y213000D02*
Y225100D01*
X496300Y220200D02*
Y222400D01*
X496200Y220100D02*
Y222400D01*
X496100Y220100D02*
Y222300D01*
X496000Y220000D02*
Y222300D01*
X495900Y220000D02*
Y222200D01*
X495800Y219900D02*
Y222100D01*
X495700Y219900D02*
Y222100D01*
X495600Y219800D02*
Y222000D01*
X495500Y219700D02*
Y222000D01*
X495400Y219700D02*
Y221900D01*
X495300Y219600D02*
Y221900D01*
X495200Y219600D02*
Y221800D01*
X495100Y219500D02*
Y221700D01*
X495000Y219500D02*
Y221700D01*
X494900Y219400D02*
Y221600D01*
X494800Y219300D02*
Y221600D01*
X497000Y220600D02*
Y222800D01*
X496900Y220600D02*
Y222800D01*
X496800Y220500D02*
Y222700D01*
X496700Y220400D02*
Y222700D01*
X496600Y220400D02*
Y222600D01*
X496500Y220300D02*
Y222600D01*
X496400Y220300D02*
Y222500D01*
X486700Y214500D02*
Y216700D01*
X494700Y209700D02*
Y211900D01*
X501300Y220700D02*
Y225100D01*
X501200Y220900D02*
Y225100D01*
X501100Y221100D02*
Y225100D01*
X501000Y221300D02*
Y225100D01*
X500900Y221400D02*
Y225000D01*
X500800Y221500D02*
Y225000D01*
X500700Y221500D02*
Y225000D01*
X500600Y221600D02*
Y224900D01*
X500500Y221600D02*
Y224900D01*
X500400Y221700D02*
Y224800D01*
X500300Y221800D02*
Y224700D01*
X500200Y221800D02*
Y224700D01*
X500100Y221800D02*
Y224600D01*
X500000Y221900D02*
Y224600D01*
X499900Y221800D02*
Y224500D01*
X499800Y221900D02*
Y224500D01*
X499700Y221900D02*
Y224400D01*
X499600Y221900D02*
Y224300D01*
X499500Y221800D02*
Y224300D01*
X499400Y221800D02*
Y224200D01*
X499300Y221800D02*
Y224200D01*
X499200Y221800D02*
Y224100D01*
X499100Y221800D02*
Y224100D01*
X499000Y221700D02*
Y224000D01*
X498900Y221700D02*
Y223900D01*
X498800Y221600D02*
Y223900D01*
X498700Y221600D02*
Y223800D01*
X498600Y221500D02*
Y223800D01*
X498500Y221500D02*
Y223700D01*
X498400Y221400D02*
Y223700D01*
X498300Y221400D02*
Y223600D01*
X498200Y221300D02*
Y223500D01*
X498100Y221200D02*
Y223500D01*
X498000Y221200D02*
Y223400D01*
X497900Y221100D02*
Y223400D01*
X497800Y221100D02*
Y223300D01*
X497700Y221000D02*
Y223200D01*
X497600Y221000D02*
Y223200D01*
X497500Y220900D02*
Y223100D01*
X497400Y220800D02*
Y223100D01*
X497300Y220800D02*
Y223000D01*
X497200Y220700D02*
Y223000D01*
X497100Y220700D02*
Y222900D01*
X486600Y214600D02*
Y216500D01*
X486500Y214800D02*
Y216300D01*
X486400Y215000D02*
Y216100D01*
X493000Y218300D02*
Y220500D01*
X492900Y218200D02*
Y220500D01*
X492800Y218200D02*
Y220400D01*
X492700Y218100D02*
Y220300D01*
X492600Y218100D02*
Y220300D01*
X492500Y218000D02*
Y220200D01*
X492400Y218000D02*
Y220200D01*
X489000Y213900D02*
Y217200D01*
X488900Y213900D02*
Y217300D01*
X488800Y213800D02*
Y217300D01*
X488700Y213800D02*
Y217300D01*
X488600Y213800D02*
Y217400D01*
X488500Y213700D02*
Y217400D01*
X488400Y213700D02*
Y217400D01*
X488300Y213700D02*
Y217400D01*
X488200Y213700D02*
Y217400D01*
X488100Y213700D02*
Y217400D01*
X488000Y213700D02*
Y217400D01*
X487900Y213700D02*
Y217400D01*
X487800Y213700D02*
Y217400D01*
X487700Y213800D02*
Y217400D01*
X487600Y213800D02*
Y217300D01*
X487500Y213800D02*
Y217300D01*
X487400Y213900D02*
Y217300D01*
X487300Y213900D02*
Y217200D01*
X487200Y214000D02*
Y217100D01*
X487100Y214100D02*
Y217100D01*
X487000Y214100D02*
Y217000D01*
X486900Y214200D02*
Y216900D01*
X486800Y214400D02*
Y216800D01*
X492300Y218000D02*
Y220100D01*
X492200Y217900D02*
Y220100D01*
X492100Y217900D02*
Y220000D01*
X492000Y217900D02*
Y219900D01*
X491900Y217900D02*
Y219900D01*
X491800Y218000D02*
Y219800D01*
X491700Y218000D02*
Y219700D01*
X491600Y218100D02*
Y219700D01*
X491500Y218100D02*
Y219600D01*
X491400Y218200D02*
Y219500D01*
X491300Y218400D02*
Y219400D01*
X491200Y218600D02*
Y219200D01*
X490000Y215200D02*
Y215900D01*
X489900Y214900D02*
Y216200D01*
X489800Y214700D02*
Y216400D01*
X489700Y214500D02*
Y216600D01*
X489600Y214400D02*
Y216700D01*
X489500Y214300D02*
Y216900D01*
X489400Y214200D02*
Y217000D01*
X489300Y214100D02*
Y217000D01*
X489200Y214000D02*
Y217100D01*
X489100Y214000D02*
Y217200D01*
X501300Y213500D02*
Y217700D01*
X501200Y213700D02*
Y217500D01*
X501100Y213900D02*
Y217300D01*
X501000Y214000D02*
Y217200D01*
X500900Y214100D02*
Y217100D01*
X500800Y214200D02*
Y217000D01*
X500700Y214300D02*
Y216900D01*
X500600Y214300D02*
Y216900D01*
X500500Y214400D02*
Y216800D01*
X500400Y214500D02*
Y216800D01*
X500300Y214500D02*
Y216700D01*
X500200Y214500D02*
Y216700D01*
X500100Y214600D02*
Y216600D01*
X500000Y214600D02*
Y216600D01*
X499900Y214600D02*
Y216600D01*
X499800Y214600D02*
Y216600D01*
X499700Y214600D02*
Y216600D01*
X499600Y214600D02*
Y216600D01*
X499500Y214600D02*
Y216600D01*
X499400Y214600D02*
Y216600D01*
X499300Y214600D02*
Y216600D01*
X499200Y214600D02*
Y216600D01*
X499100Y214600D02*
Y216600D01*
X499000Y214600D02*
Y216600D01*
X498900Y214600D02*
Y216600D01*
X498800Y214600D02*
Y216600D01*
X498700Y214600D02*
Y216600D01*
X498600Y214600D02*
Y216600D01*
X498500Y214600D02*
Y216600D01*
X498400Y214600D02*
Y216600D01*
X498300Y214600D02*
Y216600D01*
X498200Y214600D02*
Y216600D01*
X498100Y214700D02*
Y216500D01*
X498000Y214700D02*
Y216500D01*
X497900Y214700D02*
Y216500D01*
X497800Y214700D02*
Y216500D01*
X497700Y214700D02*
Y216500D01*
X497600Y214800D02*
Y216400D01*
X497500Y214800D02*
Y216400D01*
X497400Y214900D02*
Y216300D01*
X497300Y215000D02*
Y216200D01*
X497200Y215200D02*
Y216000D01*
X494200Y210000D02*
Y212200D01*
X494100Y210000D02*
Y212300D01*
X494000Y210100D02*
Y212300D01*
X493900Y210100D02*
Y212400D01*
X493800Y210200D02*
Y212400D01*
X493700Y210300D02*
Y212500D01*
X493600Y210300D02*
Y212500D01*
X491200Y212000D02*
Y212500D01*
X494600Y209700D02*
Y212000D01*
X494500Y209800D02*
Y212000D01*
X494400Y209800D02*
Y212100D01*
X494300Y209900D02*
Y212100D01*
X497000Y208400D02*
Y210600D01*
X496900Y208400D02*
Y210600D01*
X496800Y208500D02*
Y210700D01*
X496700Y208500D02*
Y210800D01*
X496600Y208600D02*
Y210800D01*
X496500Y208600D02*
Y210900D01*
X496400Y208700D02*
Y210900D01*
X496300Y208800D02*
Y211000D01*
X496200Y208800D02*
Y211000D01*
X496100Y208900D02*
Y211100D01*
X496000Y208900D02*
Y211200D01*
X495900Y209000D02*
Y211200D01*
X495800Y209000D02*
Y211300D01*
X495700Y209100D02*
Y211300D01*
X495600Y209200D02*
Y211400D01*
X495500Y209200D02*
Y211400D01*
X495400Y209300D02*
Y211500D01*
X495300Y209300D02*
Y211600D01*
X495200Y209400D02*
Y211600D01*
X495100Y209400D02*
Y211700D01*
X495000Y209500D02*
Y211700D01*
X494900Y209600D02*
Y211800D01*
X494800Y209600D02*
Y211900D01*
X501400Y206100D02*
Y211000D01*
X501300Y206100D02*
Y210400D01*
X501200Y206100D02*
Y210200D01*
X501100Y206100D02*
Y210000D01*
X501000Y206100D02*
Y209900D01*
X500900Y206200D02*
Y209800D01*
X500800Y206200D02*
Y209700D01*
X500700Y206300D02*
Y209600D01*
X500600Y206300D02*
Y209600D01*
X500500Y206400D02*
Y209500D01*
X500400Y206400D02*
Y209500D01*
X500300Y206500D02*
Y209400D01*
X500200Y206500D02*
Y209400D01*
X500100Y206600D02*
Y209400D01*
X500000Y206600D02*
Y209400D01*
X499900Y206700D02*
Y209300D01*
X499800Y206800D02*
Y209300D01*
X499700Y206800D02*
Y209300D01*
X499600Y206900D02*
Y209300D01*
X499500Y206900D02*
Y209300D01*
X499400Y207000D02*
Y209400D01*
X499300Y207000D02*
Y209400D01*
X499200Y207100D02*
Y209400D01*
X499100Y207200D02*
Y209400D01*
X499000Y207200D02*
Y209500D01*
X498900Y207300D02*
Y209500D01*
X498800Y207300D02*
Y209600D01*
X498700Y207400D02*
Y209600D01*
X498600Y207400D02*
Y209700D01*
X498500Y207500D02*
Y209700D01*
X498400Y207600D02*
Y209800D01*
X498300Y207600D02*
Y209800D01*
X498200Y207700D02*
Y209900D01*
X498100Y207700D02*
Y210000D01*
X498000Y207800D02*
Y210000D01*
X497900Y207800D02*
Y210100D01*
X497800Y207900D02*
Y210100D01*
X497700Y208000D02*
Y210200D01*
X497600Y208000D02*
Y210200D01*
X497500Y208100D02*
Y210300D01*
X497400Y208100D02*
Y210400D01*
X497300Y208200D02*
Y210400D01*
X497200Y208200D02*
Y210500D01*
X497100Y208300D02*
Y210500D01*
M02*
